<?xml version="1.0" encoding="utf-8"?>
<svg enable-background="new 0 0 595.3 841.9" version="1.1" viewBox="0 0 600 600" width="600px" height="600px" xmlns="http://www.w3.org/2000/svg">
  <style type="text/css">
	.st0{fill:url(#ah);}
	.st1{fill:url(#am);}
	.st2{fill:url(#an);}
	.st3{fill:none;stroke:url(#ao);stroke-width:6;stroke-miterlimit:10;}
	.st4{opacity:0.17;fill:url(#ap);}
	.st5{fill:url(#aq);}
	.st6{fill:url(#ar);}
	.st7{fill:url(#as);}
	.st8{fill:url(#at);}
	.st9{fill:url(#x);}
	.st10{fill:url(#y);}
	.st11{fill:url(#z);}
	.st12{fill:url(#aa);}
	.st13{fill:none;stroke:url(#ab);stroke-width:7;stroke-miterlimit:10;}
	.st14{opacity:0.17;fill:url(#ac);}
	.st15{fill:none;stroke:url(#ad);stroke-width:6;stroke-linecap:round;stroke-miterlimit:10;}
	.st16{fill:none;stroke:url(#ae);stroke-width:6;stroke-linecap:round;stroke-miterlimit:10;}
	.st17{fill:none;stroke:url(#af);stroke-width:6;stroke-linecap:round;stroke-miterlimit:10;}
	.st18{fill:url(#ag);}
	.st19{fill:url(#ai);}
	.st20{fill:url(#aj);}
	.st21{fill:none;stroke:#754C29;stroke-width:4;stroke-miterlimit:10;}
	.st22{fill:url(#ak);}
	.st23{fill:url(#al);}
</style>
  <linearGradient id="ah" x1="248.93" x2="273.02" y1="125.38" y2="125.38" gradientTransform="matrix(-0.3342, 0.9425, 0.9425, 0.3342, 125.279991, -256.962494)" gradientUnits="userSpaceOnUse">
    <stop stop-color="#2C1503" offset="0"/>
    <stop stop-color="#3C2415" offset="1"/>
  </linearGradient>
  <path class="st0" d="M 172.7 25.188 C 172.7 25.188 187.8 25.887 194.1 36.887 C 197.3 42.588 186.8 46.787 179.7 45.387 C 172.6 43.988 127 39.887 118.4 25.387 C 114.1 18.188 129.8 13.388 134.4 13.588 C 139 13.787 172.7 25.188 172.7 25.188 Z"/>
  <linearGradient id="am" x1="234.22" x2="266.84" y1="124.03" y2="124.03" gradientTransform="matrix(-0.3342, 0.9425, 0.9425, 0.3342, 125.279991, -256.962494)" gradientUnits="userSpaceOnUse">
    <stop stop-color="#594A42" offset="0"/>
    <stop stop-color="#3C2415" offset="1"/>
  </linearGradient>
  <path class="st1" d="M 133 17.088 C 139 12.888 140.4 -0.112 150 3.688 C 159.6 7.487 164.1 0.688 171.2 11.688 C 178.3 22.688 181.9 30.287 182.1 34.588 C 182.3 38.887 140.4 34.387 134 28.688 C 127.5 22.887 129.1 19.888 133 17.088 Z"/>
  <linearGradient id="an" x1="264.25" x2="327.83" y1="217.81" y2="217.81" gradientTransform="matrix(-1, 0, 0, 1, 511.639954, -106.3125)" gradientUnits="userSpaceOnUse">
    <stop stop-color="#C2B59B" offset="0"/>
    <stop stop-color="#BF9B7D" offset="0.5563"/>
    <stop stop-color="#9F877C" offset="1"/>
  </linearGradient>
  <path class="st2" d="M 186 138.588 L 186 138.388 C 186.9 138.588 187.4 138.588 187.4 138.588 C 187.4 138.588 190.7 132.588 192.6 126.188 C 194.6 119.387 194.2 115.387 194.2 115.387 C 194.2 115.387 192.1 114.788 190.8 111.188 C 189 106.188 189.9 99.188 191.4 96.188 C 193.4 92.188 196.8 91.988 199.6 94.188 C 201.7 95.887 203.8 99.788 204 100.988 C 204.2 102.188 202.6 89.588 201.4 85.387 C 198.8 76.188 203 62.688 211.8 64.088 C 224.9 66.188 227.7 67.988 233.9 68.588 L 234.9 69.488 C 234.9 69.488 239.7 78.488 239.5 87.688 C 239.3 96.887 240.1 100.288 241.5 103.288 C 242.9 106.288 243.7 111.488 246.7 112.887 C 249.7 114.288 241.1 116.488 239.5 113.488 C 237.9 110.488 236.3 120.688 237.5 123.288 C 238.7 125.887 236.9 129.887 236.9 129.887 C 236.9 129.887 239.1 131.288 238.1 132.887 C 237.1 134.488 234.7 136.288 232.1 135.088 C 229.5 133.887 228.1 133.088 225.3 133.887 C 222.5 134.688 221.3 136.088 221.7 137.888 C 222.1 139.688 222.1 140.888 223.7 141.288 C 225.3 141.688 224.5 141.688 226.9 141.288 C 229.3 140.888 232.3 141.088 231.9 143.288 C 231.5 145.488 232.7 145.088 230.7 145.488 C 228.7 145.888 229.7 148.088 229.3 150.087 C 228.9 152.087 230.3 155.688 227.7 156.488 C 225.1 157.288 224.9 159.888 221.7 158.288 C 218.5 156.688 214.7 156.288 211.7 155.087 C 208.7 153.888 204.7 150.087 204.3 151.488 C 203.9 152.888 203.7 158.888 203.7 158.888 L 183.9 158.288 C 183.8 158.488 186.6 143.388 186 138.588 Z"/>
  <linearGradient id="ao" x1="451.46" x2="507.59" y1="669.37" y2="669.37" gradientTransform="matrix(-1, 0, 0, 1, 511.639954, -106.3125)" gradientUnits="userSpaceOnUse">
    <stop stop-color="#282543" offset="0"/>
    <stop stop-color="#3D1623" offset="1"/>
  </linearGradient>
  <circle class="st3" cx="32.1" cy="563.088" r="25.1"/>
  <linearGradient id="ap" x1="458.27" x2="500.78" y1="669.37" y2="669.37" gradientTransform="matrix(-1, 0, 0, 1, 511.639954, -106.3125)" gradientUnits="userSpaceOnUse">
    <stop stop-color="#fff" offset="0"/>
    <stop offset="1"/>
  </linearGradient>
  <circle class="st4" cx="32.1" cy="563.088" r="21.3"/>
  <linearGradient id="aq" x1="272.88" x2="301.58" y1="229.52" y2="229.52" gradientTransform="matrix(-1, 0, 0, 1, 511.639954, -106.3125)" gradientUnits="userSpaceOnUse">
    <stop stop-color="#594A42" offset="0"/>
    <stop stop-color="#3C2415" offset="1"/>
  </linearGradient>
  <path class="st5" d="M 217.2 120.887 C 217.2 120.887 218.7 120.588 217.6 119.088 C 215 115.588 212 118.088 211.1 119.688 C 210.2 121.288 209.7 123.088 210.7 124.988 C 211.7 126.887 213.7 129.387 218.3 128.887 C 219.6 128.788 224.7 124.688 228.1 124.688 C 230.6 124.688 236.1 126.387 237.6 128.988 C 237.8 129.288 240.4 124.887 237.8 121.788 C 236.1 119.788 232.5 118.588 230 119.088 C 227.5 119.588 219.4 124.488 218 124.988 C 215.7 125.788 214.9 124.488 213.9 123.188 C 212.6 121.488 214 118.887 216.1 119.387 C 217.2 119.788 217.2 120.887 217.2 120.887 Z"/>
  <linearGradient id="ar" x1="276.31" x2="336.5" y1="199.21" y2="199.21" gradientTransform="matrix(-1, 0, 0, 1, 511.639954, -106.3125)" gradientUnits="userSpaceOnUse">
    <stop stop-color="#594A42" offset="0"/>
    <stop stop-color="#3C2415" offset="1"/>
  </linearGradient>
  <path class="st6" d="M 235.3 68.688 C 235.3 68.688 233.1 55.088 222.7 50.287 C 212.3 45.488 201 47.387 197 49.088 C 191.2 51.488 186.4 55.887 182 64.887 C 178.3 72.387 175.6 85.288 175.2 98.387 C 174.8 111.387 177.2 133.688 179.8 135.888 C 182.4 138.088 187.4 138.688 187.4 138.688 C 187.4 138.688 190.7 132.688 192.6 126.288 C 194.6 119.488 194.2 115.488 194.2 115.488 C 194.2 115.488 192.1 114.887 190.8 111.288 C 189 106.288 189.9 99.288 191.4 96.288 C 193.4 92.288 196.8 92.088 199.6 94.288 C 201.7 95.988 203.8 99.887 204 101.088 C 204.2 102.288 202.6 89.688 201.4 85.488 C 198.8 76.288 203 62.787 211.8 64.188 C 225.9 66.287 228.1 68.287 235.3 68.688 Z"/>
  <linearGradient id="as" x1="302.3" x2="331.52" y1="269.59" y2="269.59" gradientTransform="matrix(-1, 0, 0, 1, 511.639954, -106.3125)" gradientUnits="userSpaceOnUse">
    <stop stop-color="#A53C1E" offset="0"/>
    <stop stop-color="#5D332A" offset="1"/>
  </linearGradient>
  <path class="st7" d="M 204.9 154.587 C 204.9 154.587 207.7 155.988 208 156.788 C 208.3 157.587 210.1 161.688 209 165.288 C 207.8 168.788 207.3 170.988 205.8 171.788 C 204.3 172.587 190.8 170.188 186.8 171.388 C 182.8 172.587 183.6 172.087 182.5 171.087 C 181.4 170.188 180.1 167.188 180.2 165.087 C 180.3 162.988 180.1 158.288 181.1 156.488 C 182.1 154.688 183.3 154.688 184.3 155.087 C 185.3 155.488 186.3 155.388 188.1 155.388 C 189.8 155.288 204.9 154.587 204.9 154.587 Z"/>
  <linearGradient id="at" x1="378.35" x2="326.8" y1="281.11" y2="281.11" gradientTransform="matrix(-1, 0, 0, 1, 511.639954, -106.3125)" gradientUnits="userSpaceOnUse">
    <stop stop-color="#A53C1E" offset="0"/>
    <stop stop-color="#5D332A" offset="1"/>
  </linearGradient>
  <path class="st8" d="M 133.3 170.087 C 133.3 170.087 137.3 172.087 144.1 171.688 C 150.9 171.288 151.8 172.087 156.2 170.688 C 160.6 169.288 167.7 168.087 170.1 168.087 C 172.6 168.087 178.3 168.587 180.3 168.888 C 182.3 169.188 184.9 171.988 184.9 171.988 C 184.9 171.988 180.3 172.688 177 173.988 C 173.6 175.288 168.2 177.488 162.3 178.688 C 156.4 179.888 152.1 181.688 148.5 181.388 C 144.9 181.087 143.7 183.488 138.3 178.388 C 132.9 173.188 133.3 170.087 133.3 170.087 Z"/>
  <linearGradient id="x" x1="327.83" x2="304.43" y1="136.36" y2="136.36" gradientTransform="matrix(-1, 0, 0, 1, 511.639954, -106.3125)" gradientUnits="userSpaceOnUse">
    <stop stop-color="#C2B59B" offset="0"/>
    <stop stop-color="#BF9B7D" offset="0.5563"/>
    <stop stop-color="#9F877C" offset="1"/>
  </linearGradient>
  <path class="st9" d="M 207.2 27.988 C 207.2 27.988 198.7 23.787 195.4 24.387 C 192.1 25.088 190.3 24.188 188.2 24.588 C 186.1 24.988 183 27.287 183.9 31.488 C 184.8 35.688 184.9 35.287 185.5 35.688 C 186.1 36.088 184.9 33.287 188.6 33.488 C 192.3 33.688 195 35.488 197.1 34.787 C 199.2 34.088 204.3 35.887 205.3 34.988 C 206.5 34.188 207.2 27.988 207.2 27.988 Z"/>
  <linearGradient id="y" x1="234.19" x2="289.06" y1="475.5" y2="475.5" gradientTransform="matrix(-1, 0, 0, 1, 511.639954, -106.3125)" gradientUnits="userSpaceOnUse">
    <stop stop-color="#00827A" offset="0"/>
    <stop stop-color="#006838" offset="0.5121"/>
    <stop stop-color="#224F61" offset="0.8949"/>
  </linearGradient>
  <path class="st10" d="M 222.6 289.488 C 222.6 289.488 249.4 268.488 266.1 288.788 C 282.7 309.088 276.3 335.488 276.3 336.888 C 276.3 338.288 233.8 436.788 243.9 457.588 C 245 459.888 234.3 457.788 233.7 455.288 C 225.4 418.487 272 340.188 263.7 318.488 C 248.9 279.688 229.5 315.688 229.5 315.688 L 222.6 289.488 Z"/>
  <linearGradient id="z" x1="227.9" x2="334.36" y1="248.28" y2="248.28" gradientTransform="matrix(-1, 0, 0, 1, 511.639954, -106.3125)" gradientUnits="userSpaceOnUse">
    <stop stop-color="#CF7558" offset="0"/>
    <stop stop-color="#935942" offset="1"/>
  </linearGradient>
  <path class="st11" d="M 186.6 202.587 L 177.3 199.488 C 181.9 189.788 182.5 171.087 182.5 171.087 L 186.8 171.388 L 206.9 169.988 C 206.9 169.988 212.9 166.788 219.4 164.488 C 225.9 162.188 228.2 166.788 242.5 163.587 C 256.8 160.388 293.6 94.887 239.7 54.488 C 222.9 41.887 204.5 37.688 204.5 37.688 L 208.7 24.387 C 208.7 24.387 234.1 28.588 260.5 53.488 C 305.8 96.288 273 158.188 261.4 170.488 C 253.5 178.788 235 190.388 235 190.388 L 222.6 259.587 C 222.6 259.587 184.1 258.288 184.7 257.087 C 189 248.188 187.6 218.188 186.6 202.587 Z"/>
  <circle cx="228.4" cy="95.988" r="1.7"/>
  <path d="M 221.9 320.688 L 185.8 307.488 C 185.8 307.488 177.5 308.888 180.3 317.888 C 183.1 326.888 188.6 325.488 195.6 325.488 C 202.5 325.488 221.9 320.688 221.9 320.688 Z"/>
  <linearGradient id="aa" x1="281.24" x2="256.22" y1="559.52" y2="559.52" gradientTransform="matrix(-1, 0, 0, 1, 511.639954, -106.3125)" gradientUnits="userSpaceOnUse">
    <stop stop-color="#594A42" offset="0"/>
    <stop stop-color="#726658" offset="1"/>
  </linearGradient>
  <path class="st12" d="M 242.3 444.388 C 242.3 444.388 232.7 437.888 232.6 439.388 C 232.3 442.888 226.7 462.088 234.6 464.888 C 237.8 466.088 254 470.388 255.4 463.288 C 255.9 460.987 244.2 457.487 243.9 456.588 C 242.8 453.688 242.3 444.388 242.3 444.388 Z"/>
  <linearGradient id="ab" x1="123.94" x2="357.93" y1="585.01" y2="585.01" gradientTransform="matrix(-1, 0, 0, 1, 511.639954, -106.3125)" gradientUnits="userSpaceOnUse">
    <stop stop-color="#282543" offset="0"/>
    <stop stop-color="#3D1623" offset="1"/>
  </linearGradient>
  <circle class="st13" cx="270.7" cy="478.688" r="113.5"/>
  <linearGradient id="ac" x1="132.37" x2="349.5" y1="585.01" y2="585.01" gradientTransform="matrix(-1, 0, 0, 1, 511.639954, -106.3125)" gradientUnits="userSpaceOnUse">
    <stop stop-color="#fff" offset="0"/>
    <stop offset="1"/>
  </linearGradient>
  <circle class="st14" cx="270.7" cy="478.688" r="108.6"/>
  <linearGradient id="ad" x1="233.82" x2="482.53" y1="547.42" y2="547.42" gradientTransform="matrix(-1, 0, 0, 1, 511.639954, -106.3125)" gradientUnits="userSpaceOnUse">
    <stop stop-color="#282543" offset="0"/>
    <stop stop-color="#3D1623" offset="1"/>
  </linearGradient>
  <path class="st15" d="M 274.8 327.788 C 274.8 327.788 216.6 300.788 168 339.588 C 119.4 378.388 108.7 414.487 104.9 444.987 C 99.1 491.888 85.3 571.688 32.1 562.888"/>
  <linearGradient id="ae" x1="231.97" x2="243.52" y1="485.1" y2="485.1" gradientTransform="matrix(-1, 0, 0, 1, 511.639954, -106.3125)" gradientUnits="userSpaceOnUse">
    <stop stop-color="#282543" offset="0"/>
    <stop stop-color="#3D1623" offset="1"/>
  </linearGradient>
  <line class="st16" x1="271.1" x2="276.7" y1="479.487" y2="278.188"/>
  <linearGradient id="af" x1="221.57" x2="273.34" y1="387.41" y2="387.41" gradientTransform="matrix(-1, 0, 0, 1, 511.639954, -106.3125)" gradientUnits="userSpaceOnUse">
    <stop stop-color="#282543" offset="0"/>
    <stop stop-color="#3D1623" offset="1"/>
  </linearGradient>
  <path class="st17" d="M 287.1 274.888 L 264.2 274.888 C 264.2 274.888 246.2 273.488 241.3 287.388"/>
  <linearGradient id="ag" x1="205.49" x2="332.23" y1="439.04" y2="439.04" gradientTransform="matrix(-1, 0, 0, 1, 511.639954, -106.3125)" gradientUnits="userSpaceOnUse">
    <stop stop-color="#006838" offset="0"/>
    <stop stop-color="#3A7579" offset="0.2066"/>
    <stop stop-color="#006838" offset="0.5121"/>
    <stop stop-color="#184D45" offset="0.8949"/>
  </linearGradient>
  <path class="st18" d="M 222.6 289.488 L 222.6 261.988 C 222.6 261.988 236.5 189.888 216.6 165.587 C 216.6 165.587 211.4 167.788 210.2 168.288 C 210.2 168.288 222.6 183.087 222.2 212.888 C 221.8 242.688 221.5 257.988 221.5 257.988 L 191 257.288 C 191 257.288 195.2 210.488 190.7 194.888 C 186.2 179.288 182.1 173.087 182.1 173.087 C 182.1 173.087 178.8 192.188 179.6 193.888 C 194.9 228.288 177.5 292.388 179.6 300.888 C 185.8 326.288 230.2 299.988 280.1 374.888 C 304 410.788 292.4 496.888 292.4 496.888 L 301.6 499.987 C 301.6 499.987 307.6 439.188 305.8 414.388 C 299.9 334.888 222.6 289.488 222.6 289.488 Z"/>
  <linearGradient id="ai" x1="251.35" x2="279.35" y1="384.45" y2="384.45" gradientTransform="matrix(-1, 0, 0, 1, 511.639954, -106.3125)" gradientUnits="userSpaceOnUse">
    <stop stop-color="#C2B59B" offset="0"/>
    <stop stop-color="#BF9B7D" offset="0.5563"/>
    <stop stop-color="#9F877C" offset="1"/>
  </linearGradient>
  <path class="st19" d="M 232.6 277.288 L 245.8 272.388 C 245.8 272.388 253.1 269.988 258.3 273.788 C 263.5 277.588 256.9 282.088 256.9 282.088 C 256.9 282.088 251 283.488 250.7 281.788 C 250.4 280.088 250.4 276.288 247.2 277.588 C 244 278.888 240.6 282.088 240.6 282.088 L 232.3 284.488 L 232.6 277.288 Z"/>
  <linearGradient id="aj" x1="353.76" x2="278.35" y1="349.08" y2="349.08" gradientTransform="matrix(-1, 0, 0, 1, 511.639954, -106.3125)" gradientUnits="userSpaceOnUse">
    <stop stop-color="#CF7558" offset="0"/>
    <stop stop-color="#935942" offset="1"/>
  </linearGradient>
  <path class="st20" d="M 185.3 212.488 C 180.4 224.188 156.8 267.588 175.3 276.888 C 191.7 285.188 232.9 275.388 232.9 275.388 L 233.4 287.088 C 233.4 287.088 210 292.088 190.1 292.188 C 170.2 292.288 160.6 282.288 158.4 269.688 C 155 250.188 175.9 203.087 180.7 193.488 C 180.5 193.388 187.1 207.988 185.3 212.488 Z"/>
  <polyline class="st21" points="302.9 510.588 286 507.787 271.4 479.787 246.1 468.688 231.9 468.987"/>
  <linearGradient id="ak" x1="220.46" x2="192.65" y1="602.77" y2="602.77" gradientTransform="matrix(-1, 0, 0, 1, 511.639954, -106.3125)" gradientUnits="userSpaceOnUse">
    <stop stop-color="#594A42" offset="0"/>
    <stop stop-color="#726658" offset="1"/>
  </linearGradient>
  <path class="st22" d="M 302.7 485.688 C 302.7 485.688 293.6 482.888 293.3 484.987 C 293.1 487.088 292.5 492.487 292.1 495.788 C 291.6 499.388 291.6 501.487 291.2 503.888 C 290.6 507.987 301.7 508.987 308.5 508.688 C 315.7 508.388 319.4 505.487 318.9 502.188 C 318.6 500.388 302.2 498.487 302.3 495.788 C 302.7 491.487 302.7 485.688 302.7 485.688 Z"/>
  <linearGradient id="al" x1="272.88" x2="293.22" y1="243.61" y2="243.61" gradientTransform="matrix(-1, 0, 0, 1, 511.639954, -106.3125)" gradientUnits="userSpaceOnUse">
    <stop stop-color="#CF7558" offset="0"/>
    <stop stop-color="#995A4E" offset="1"/>
  </linearGradient>
  <path class="st23" d="M 218.6 140.588 C 220.4 135.288 218.4 133.588 220.5 131.588 C 222.8 129.387 224.8 129.088 227 129.188 C 229.2 129.288 231 129.788 234.2 129.688 C 237.4 129.588 239.5 131.688 238.6 133.088 L 238.5 133.188 C 237.4 134.788 235 136.388 232.5 135.188 C 229.8 133.988 228.4 133.188 225.5 133.988 C 222.6 134.788 221.4 136.188 221.8 137.988 C 222.2 139.788 222.2 140.988 223.8 141.388 C 225.4 141.788 224.6 141.788 227.1 141.388 C 229.6 140.988 232.6 141.188 232.2 143.388 C 231.9 145.088 232.5 145.188 231.9 145.388 C 231 145.388 230.3 145.288 230.3 145.288 C 226.9 145.388 217 144.988 218.6 140.588 Z"/>
</svg>