<?xml version="1.0" encoding="utf-8"?>
<svg viewBox="0 0 240 240" width="240px" height="240px" xmlns="http://www.w3.org/2000/svg">
  <path d="M 69.138 151.271 L 75.325 151.271 C 76.651 151.271 77.719 150.201 77.719 148.872 L 77.719 108.67 C 77.719 107.341 76.651 106.271 75.325 106.271 L 69.138 106.271 C 67.812 106.271 66.745 107.341 66.745 108.67 L 66.745 148.872 C 66.745 150.201 67.812 151.271 69.138 151.271 Z" fill="#d69600" style="" transform="matrix(-1, 0, 0, -1, 144.464005, 257.542)"/>
  <path d="M 70.722 150.271 L 73.739 150.271 C 75.065 150.271 76.133 149.201 76.133 147.872 L 76.133 109.67 C 76.133 108.341 75.065 107.271 73.739 107.271 L 70.722 107.271 C 69.396 107.271 68.329 108.341 68.329 109.67 L 68.329 147.872 C 68.329 149.201 69.396 150.271 70.722 150.271 Z" fill="#ffd543" style="" transform="matrix(-1, 0, 0, -1, 144.462006, 257.542)"/>
  <path d="M 71.329 150.146 C 70.003 150.146 68.928 149.068 68.928 147.739 L 68.928 109.552 C 68.928 108.472 69.636 107.574 70.612 107.271 C 70.238 107.694 69.988 108.253 69.988 108.865 L 69.988 147.052 C 69.988 148.381 71.063 149.458 72.389 149.458 L 75.413 149.458 C 75.666 149.458 75.901 149.406 76.13 149.333 C 75.692 149.832 75.04 150.146 74.322 150.146 L 71.329 150.146 Z" fill="#ffe791" style="" transform="matrix(-1, 0, 0, -1, 145.057999, 257.417)"/>
  <path d="M 24.652 151.271 L 30.839 151.271 C 32.165 151.271 33.233 150.201 33.233 148.872 L 33.233 108.67 C 33.233 107.341 32.165 106.271 30.839 106.271 L 24.652 106.271 C 23.326 106.271 22.259 107.341 22.259 108.67 L 22.259 148.872 C 22.259 150.201 23.326 151.271 24.652 151.271 Z" fill="#d69600" style="" transform="matrix(-1, 0, 0, -1, 55.492002, 257.542)"/>
  <path d="M 26.236 150.271 L 29.253 150.271 C 30.579 150.271 31.647 149.201 31.647 147.872 L 31.647 109.67 C 31.647 108.341 30.579 107.271 29.253 107.271 L 26.236 107.271 C 24.91 107.271 23.843 108.341 23.843 109.67 L 23.843 147.872 C 23.843 149.201 24.91 150.271 26.236 150.271 Z" fill="#ffd543" style="" transform="matrix(-1, 0, 0, -1, 55.49, 257.542)"/>
  <path d="M 26.853 150.146 C 25.527 150.146 24.452 149.068 24.452 147.739 L 24.452 109.552 C 24.452 108.472 25.16 107.574 26.135 107.271 C 25.762 107.694 25.512 108.253 25.512 108.865 L 25.512 147.052 C 25.512 148.381 26.587 149.458 27.913 149.458 L 30.937 149.458 C 31.19 149.458 31.425 149.406 31.654 149.333 C 31.216 149.832 30.564 150.146 29.845 150.146 L 26.852 150.146 L 26.853 150.146 Z" fill="#ffe791" style="" transform="matrix(-1, 0, 0, -1, 56.105999, 257.417)"/>
  <path d="M 7.282 146.271 L 93.283 146.271 C 94.609 146.271 95.677 145.201 95.677 143.872 L 95.677 138.67 C 95.677 137.341 94.609 136.271 93.283 136.271 L 7.282 136.271 C 5.956 136.271 4.889 137.341 4.889 138.67 L 4.889 143.872 C 4.889 145.201 5.957 146.271 7.282 146.271 Z" fill="#5c3566" style="" transform="matrix(-1, 0, 0, -1, 100.566002, 282.541992)"/>
  <path d="M 7.277 145.177 C 6.529 145.177 5.967 144.628 5.967 143.896 L 5.967 138.677 C 5.967 137.946 6.547 137.365 7.277 137.365 L 93.264 137.365 C 93.993 137.365 94.573 137.946 94.573 138.677 L 94.573 143.896 C 94.573 144.628 94.011 145.177 93.264 145.177 L 7.277 145.177 Z" fill="#0f0" style="" transform="matrix(-1, 0, 0, -1, 100.539995, 282.542007)"/>
  <path d="M 7.282 136.271 L 93.283 136.271 C 94.609 136.271 95.677 135.201 95.677 133.872 L 95.677 128.67 C 95.677 127.341 94.609 126.271 93.283 126.271 L 7.282 126.271 C 5.956 126.271 4.889 127.341 4.889 128.67 L 4.889 133.872 C 4.889 135.201 5.957 136.271 7.282 136.271 Z" fill="#ce5c00" style="" transform="matrix(-1, 0, 0, -1, 100.566002, 262.542)"/>
  <path d="M 7.223 135.27 C 6.474 135.27 5.911 134.707 5.911 133.958 L 5.911 128.615 C 5.911 127.866 6.492 127.271 7.223 127.271 L 93.353 127.271 C 94.084 127.271 94.665 127.866 94.665 128.615 L 94.665 133.958 C 94.665 134.707 94.102 135.27 93.353 135.27 L 7.223 135.27 Z" fill="#ff0" style="" transform="matrix(-1, 0, 0, -1, 100.575998, 262.541008)"/>
  <path d="M 7.262 126.271 L 93.283 126.271 C 94.609 126.271 95.677 125.201 95.677 123.872 L 95.677 118.67 C 95.677 117.341 94.609 116.271 93.283 116.271 L 7.262 116.271 C 5.936 116.271 4.868 117.341 4.868 118.67 L 4.868 123.872 C 4.868 125.201 5.936 126.271 7.262 126.271 Z" fill="#4e9a06" style="" transform="matrix(-1, 0, 0, -1, 100.545006, 242.542007)"/>
  <path d="M 7.177 125.232 C 6.428 125.232 5.865 124.672 5.865 123.927 L 5.865 118.609 C 5.865 117.863 6.445 117.271 7.177 117.271 L 93.343 117.271 C 94.075 117.271 94.656 117.863 94.656 118.609 L 94.656 123.927 C 94.656 124.672 94.092 125.232 93.343 125.232 L 7.177 125.232 Z" fill="#f00" style="" transform="matrix(-1, 0, 0, -1, 100.521, 242.503006)"/>
  <path d="M 4.391 159.271 L 109.146 159.271 C 111.142 159.271 111.142 154.271 109.146 154.271 L 4.391 154.271 L 4.391 159.271 Z" fill="#5a5148" style="" transform="matrix(-1, 0, 0, -1, 115.033998, 313.541992)"/>
  <path d="M 210.41 114.271 L 231.361 114.271 L 230.363 79.271 L 220.387 74.271 L 210.41 114.271 Z" fill="#d69600" style="" transform="matrix(-1, 0, 0, -1, 441.770996, 188.542007)"/>
  <path d="M 212.219 111.722 L 221.135 76.034 L 228.212 79.565 L 229.117 111.721 L 212.218 111.721 L 212.219 111.722 Z" fill="#ffd543" style="" transform="matrix(-1, 0, 0, -1, 441.335007, 187.755997)"/>
  <g fill="#5a5148" style="" transform="matrix(-0.997668, 0, 0, 1, 239.391754, 55.697666)">
    <path d="m18.05 98.573h105v5h-105v-5z"/>
    <path d="m18.05 98.573h10l-3 22h-25l18-22z"/>
  </g>
  <path d="M 222.382 175.271 L 219.389 156.271 L 212.405 154.271 L 219.389 175.271 L 222.382 175.271 Z" fill="#8d7c6a" style="" transform="matrix(-1, 0, 0, -1, 434.787003, 329.541992)"/>
  <g transform="matrix(-0.866694, 0, 0, 1.6709, 222.888306, -393.99234)" style="">
    <path d="m0 313.76c0 3.3053-4.2499 5.9848-9.4924 5.9848s-9.4924-2.6794-9.4924-5.9848c0-3.3053 4.2499-5.9848 9.4924-5.9848s9.4924 2.6795 9.4924 5.9848z" fill="#d69600"/>
    <path d="m-9.4924 308.69c-4.4537 0-8.0329 2.2567-8.0329 5.0646 0 2.808 3.5793 5.0646 8.0329 5.0646 4.4537 0 8.0329-2.2566 8.0329-5.0646 0-2.8079-3.5793-5.0646-8.0329-5.0646z" fill="#ffd543"/>
  </g>
  <path d="M 230.338 126.343 C 229.533 130.364 232.111 134.247 236.123 135.054 C 236.55 135.14 236.98 135.172 237.4 135.184 C 233.102 134.125 230.375 129.886 231.255 125.492 C 231.496 124.291 231.994 123.219 232.66 122.288 C 231.515 123.316 230.666 124.707 230.339 126.343 L 230.338 126.343 Z" fill="#ffe791" style="" transform="matrix(-1, 0, 0, -1, 467.590866, 257.472008)"/>
  <path d="M 122.864 147.803 C 122.864 147.803 169.035 162.355 182.724 147.803 C 187.713 117.803 187.713 107.803 182.724 62.803 L 132.841 62.803 L 122.864 147.803 Z" fill="#a40000" style="" transform="matrix(-1, 0, 0, -1, 309.329742, 217.073555)"/>
  <path d="M 219.38 109.566 L 222.283 109.843 L 226.015 81.163 L 225.186 80.401 L 219.38 109.565 L 219.38 109.566 Z" fill="#ffe791" style="" transform="matrix(-1, 0, 0, -1, 445.395004, 190.244003)"/>
  <path d="M 161.892 142.13 C 163.833 144.343 166.266 146.176 169.052 147.688 C 171.604 149.074 174.452 150.19 177.487 151.081 C 180.316 151.912 183.309 152.548 186.376 153.025 C 189.349 153.487 192.393 153.8 195.426 153.997 C 198.497 154.196 201.557 154.276 204.525 154.271 C 207.698 154.266 210.765 154.164 213.624 154.007 C 216.992 153.822 220.072 153.561 222.7 153.292 C 228.21 152.728 231.729 152.13 231.729 152.13 L 231.729 102.13 L 166.88 102.13 C 166.88 102.13 164.534 105.009 162.077 109.441 C 160.802 111.742 159.496 114.461 158.473 117.413 C 157.538 120.111 156.838 123.005 156.613 125.951 C 156.393 128.831 156.625 131.762 157.533 134.611 C 158.364 137.219 159.76 139.759 161.892 142.13" fill="#a40000" style="" transform="matrix(-1, 0, 0, -1, 388.264664, 256.401207)"/>
  <path d="M 205.716 152.456 C 202.753 152.423 199.739 152.216 196.784 151.896 C 193.728 151.565 190.734 151.114 187.926 150.613 C 184.7 150.037 181.718 149.394 179.165 148.789 C 174.351 147.649 171.058 146.645 170.519 146.48 L 171.42 138.859 L 172.321 131.238 L 173.223 123.617 L 174.124 115.995 C 174.186 115.394 173.639 114.804 173.033 114.818 C 170.37 114.874 167.435 114.831 164.424 114.682 C 161.575 114.541 158.658 114.306 155.842 113.971 C 152.83 113.613 149.932 113.141 147.355 112.549 C 145.195 111.986 143.001 111.23 140.903 110.334 C 138.74 109.411 136.678 108.339 134.858 107.18 C 132.711 105.81 130.903 104.318 129.666 102.8 C 128.053 100.907 126.901 99.204 126.106 97.52 C 125.167 95.534 124.724 93.574 124.607 91.361 C 124.499 89.311 124.699 87.222 125.111 85.166 C 125.521 83.12 126.142 81.107 126.879 79.197 C 127.87 76.63 129.034 74.298 130.146 72.33 C 132.187 68.718 134.049 66.334 134.33 65.977 C 134.33 65.977 138.016 66 143.27 66.032 C 145.938 66.048 149.011 66.068 152.211 66.087 C 155.155 66.105 158.207 66.124 161.151 66.142 C 164.35 66.162 167.423 66.181 170.09 66.197 C 175.345 66.23 179.031 66.252 179.031 66.252 L 226.525 66.252 C 226.875 69.402 227.198 72.372 227.496 75.183 C 227.832 78.355 228.135 81.324 228.404 84.121 C 228.711 87.312 228.976 90.28 229.196 93.068 C 229.45 96.27 229.646 99.235 229.786 102.032 C 229.944 105.209 230.029 108.168 230.04 111.011 C 230.052 114.1 229.977 117.05 229.815 119.99 C 229.653 122.941 229.403 125.881 229.065 128.94 C 228.752 131.773 228.364 134.708 227.9 137.847 C 227.49 140.621 227.022 143.555 226.494 146.719 C 224.88 148.355 222.745 149.589 220.243 150.486 C 218.091 151.257 215.668 151.778 213.07 152.09 C 210.736 152.371 208.261 152.482 205.716 152.454" fill="#ef292a" style="" transform="matrix(-1, 0, 0, -1, 354.619286, 218.435188)"/>
  <g fill="#a40000" style="" transform="matrix(-0.997668, 0, 0, 1, 239.391754, 55.697666)">
    <path d="m86.55 17.242c-11.115 0.49854-22.438 4.4062-22.438 4.4062a1.1094 1.1094 0 0 0 -0.71875 1.1875l2.9688 26.969a1.1094 1.1094 0 0 0 0.875 0.96875s7.9067 1.5058 16.625 3.0312c4.3592 0.7627 8.9243 1.5513 12.812 2.125 3.8882 0.57373 7.052 0.9375 8.8438 0.9375a1.1094 1.1094 0 0 0 1.0938 -1.0938c0-4.8972 0.71015-11.944 0.78125-18.406 0.035599-3.2311-0.069405-6.3036-0.53125-8.9688-0.46186-2.6651-1.2588-4.9462-2.7812-6.4688-4.1326-4.1326-10.864-4.9866-17.531-4.6875z"/>
    <path d="m76.712 1.6813c-14.438 2.9098-28.203 10.223-35.948 20.844-1.0357 1.4203-1.0791 2.9388-0.9676 4.432 0.055771 0.74658 0.13719 1.4526 0.61894 2.2224 0.24088 0.38489 0.64115 0.84564 1.265 1.0728 0.62386 0.22705 1.3737 0.1347 1.8763-0.10425 28.506-13.553 32.772-14.03 73.066-13.937 0.55948 0.001038 1.2112-0.20398 1.6603-0.58148 0.44907-0.37744 0.68412-0.84528 0.82077-1.2656 0.27331-0.8407 0.21748-1.6029 0.090698-2.3409-0.25371-1.4761-0.68789-2.9122-2.1228-3.9585-10.688-7.7935-25.921-9.2936-40.359-6.3838h-3.8e-5z"/>
  </g>
  <g fill="#d69600" style="" transform="matrix(-0.997668, 0, 0, 1, 239.391754, 55.697666)">
    <path d="m113.05 98.573c0 13.807-11.193 25-25 25s-25-11.193-25-25 11.193-25 25-25 25 11.193 25 25z"/>
    <path d="m60.55 106.07c0 9.665-7.835 17.5-17.5 17.5s-17.5-7.835-17.5-17.5 7.835-17.5 17.5-17.5 17.5 7.835 17.5 17.5z"/>
  </g>
  <g fill="#ffd543" style="" transform="matrix(-0.997668, 0, 0, 1, 239.391754, 55.697666)">
    <path d="m88.05 77.229c-11.826 0-21.344 9.5178-21.344 21.344s9.5178 21.344 21.344 21.344 21.344-9.5177 21.344-21.344-9.5178-21.344-21.344-21.344z"/>
    <path d="m43.05 91.264c-8.2107 0-14.809 6.5987-14.809 14.809 0 8.2107 6.5987 14.809 14.809 14.809 8.2107 0 14.809-6.5988 14.809-14.809 0-8.2107-6.5987-14.809-14.809-14.809z"/>
  </g>
  <path d="M 155.376 110.985 C 145.101 110.523 134.72 107.06 133.771 106.735 L 136.67 80.485 C 136.987 80.424 144.38 79.007 152.882 77.516 C 157.223 76.755 161.747 75.993 165.603 75.423 C 169.213 74.889 172.134 74.561 173.771 74.516 C 173.809 79.521 174.451 86.251 174.519 92.422 C 174.554 95.599 174.423 98.606 173.989 101.11 C 173.556 103.613 172.817 105.597 171.682 106.735 C 168.098 110.328 161.835 111.275 155.376 110.985 Z" fill="#739fd0" style="" transform="matrix(-1, 0, 0, -1, 308.29538, 185.549919)"/>
  <path d="M 151.547 171.771 C 141.816 171.771 134.088 164.026 134.088 154.271 C 134.088 144.517 141.816 136.771 151.547 136.771 C 161.279 136.771 169.007 144.517 169.007 154.271 C 169.007 164.026 161.279 171.771 151.547 171.771 Z" fill="#8d7c6a" style="" transform="matrix(-1, 0, 0, -1, 303.095001, 308.541992)"/>
  <path d="M 144.925 155.313 C 152.602 155.313 158.775 149.125 158.775 141.429 C 158.775 140.61 158.676 139.806 158.541 139.027 C 158.186 147.343 151.413 153.935 143.025 153.935 C 140.731 153.935 138.58 153.414 136.625 152.529 C 138.935 154.26 141.802 155.312 144.924 155.312 L 144.925 155.313 Z" fill="#a8927a" style="" transform="matrix(-1, 0, 0, -1, 295.399994, 294.339996)"/>
  <path d="M 196.442 168.071 C 192.838 168.071 190.157 165.384 190.157 161.771 C 190.157 158.158 192.838 155.471 196.442 155.471 C 200.047 155.471 202.728 158.158 202.728 161.771 C 202.728 165.384 200.047 168.071 196.442 168.071 Z" fill="#8d7c6a" style="" transform="matrix(-1, 0, 0, -1, 392.884995, 323.541992)"/>
  <path d="M 192.928 161.998 C 197.021 161.998 200.311 165.296 200.311 169.398 C 200.311 169.834 200.258 170.263 200.186 170.678 C 199.997 166.246 196.387 162.732 191.916 162.732 C 190.694 162.732 189.547 163.01 188.505 163.481 C 189.736 162.558 191.264 161.998 192.929 161.998 L 192.928 161.998 Z" fill="#ffe791" style="" transform="matrix(-1, 0, 0, -1, 388.81601, 332.675995)"/>
  <path d="M 154.686 144.651 L 192.875 165.043 L 194.364 162.698 L 156.176 142.306 L 154.686 144.651 Z" fill="#312c29" style="" transform="matrix(-1, 0, 0, -1, 349.050003, 307.348999)"/>
  <path d="M 147.293 155.497 C 152.395 155.497 156.498 151.384 156.498 146.269 C 156.498 145.725 156.432 145.191 156.343 144.673 C 156.107 150.2 151.605 154.582 146.03 154.582 C 144.506 154.582 143.076 154.235 141.777 153.647 C 143.312 154.798 145.217 155.497 147.293 155.497 Z" fill="#a8927a" style="" transform="matrix(-1, 0, 0, -1, 298.274994, 300.169998)"/>
  <g fill="#5a5148" style="" transform="matrix(-0.997668, 0, 0, 1, 239.391754, 55.697666)">
    <path d="m90.956 84.527c1.3721 2.6501-1.1512 6.6808-5.6359 9.0027-4.4848 2.3221-9.2326 2.0562-10.605-0.59351-1.3721-2.6501 1.1512-6.6808 5.6359-9.0027 4.4848-2.3221 9.2326-2.0562 10.605 0.59351z"/>
    <path d="m47.089 107.5c0.57239 1.0575-0.41451 2.7001-2.2042 3.6688-1.7898 0.96863-3.7046 0.89661-4.277-0.16101-0.57239-1.0575 0.41453-2.7002 2.2042-3.6688 1.7898-0.96863 3.7046-0.89648 4.277 0.16101z"/>
  </g>
  <path d="M 122.791 62.798 C 137.519 83.043 176.255 91.655 196.452 76.892 C 197.796 75.91 198.722 71.925 197.059 71.929 C 156.842 72.022 151.891 71.413 123.399 57.835 C 121.897 57.119 121.812 61.451 122.791 62.798 Z" fill="#ef292a" style="" transform="matrix(-1, 0, 0, -1, 320.098778, 142.062973)"/>
  <g fill="#8d7c6a" style="" transform="matrix(-0.997668, 0, 0, 1, 239.391754, 55.697666)">
    <path d="m20.05 98.573h2l-14 20-6 1 18-21z"/>
    <path d="m22.05 98.572l2 0.01-8 18.994-6 2 12-21v-0.00354z"/>
    <path d="m123.05 96.573h8c1.662 0 3 1.338 3 3v3c0 1.662-1.338 3-3 3h-8c-1.662 0-3-1.338-3-3v-3c0-1.662 1.338-3 3-3z"/>
  </g>
  <g fill="#97b8dc" style="" transform="matrix(-0.997668, 0, 0, 1, 239.391754, 55.697666)">
    <path d="m78.144 19.854c-2.4755 0.43091-4.7541 0.94403-6.7188 1.4375l3 29.281c1.291 0.23798 2.9567 0.53375 4.5 0.8125l-0.7812-31.531z"/>
    <path d="m80.362 19.479c-0.4218 0.061096-0.83567 0.1206-1.25 0.1875l0.84375 31.906c0.30855 0.05542 0.55996 0.099915 0.875 0.15625l-0.46875-32.25z"/>
  </g>
  <path d="M 208.8 79.512 L 231.83 81.853 C 233.15 81.987 234.319 81.031 234.453 79.708 L 234.977 74.533 C 235.11 73.21 234.156 72.038 232.837 71.904 L 209.807 69.563 C 208.487 69.429 207.318 70.386 207.184 71.708 L 206.66 76.884 C 206.527 78.206 207.481 79.378 208.8 79.512 Z" fill="#d69600" style="" transform="matrix(-1, 0, 0, -1, 441.637009, 151.416008)"/>
  <path d="M 208.959 78.064 C 208.402 78.008 208.066 77.604 208.12 77.068 L 208.645 71.876 C 208.699 71.341 209.136 70.984 209.67 71.038 L 232.685 73.377 C 233.22 73.431 233.576 73.869 233.522 74.404 L 232.996 79.597 C 232.942 80.132 232.532 80.46 231.975 80.404 L 208.959 78.064 Z" fill="#ffe791" style="" transform="matrix(-1, 0, 0, -1, 441.641739, 151.44281)"/>
  <g fill="#f46e6f" style="" transform="matrix(-0.997668, 0, 0, 1, 239.391754, 55.697666)">
    <path d="m46.445 55.091c1.0372 3.3542-4.6215 8.0831-12.639 10.562-8.0176 2.4792-15.358 1.77-16.395-1.5842-1.0372-3.3542 4.6215-8.0831 12.639-10.562 8.0176-2.4792 15.358-1.77 16.395 1.5842z"/>
    <path d="m62.16 11.406c-1.0935-1.3959 3.7959-4.0186 10.921-5.8578 7.1248-1.8392 13.787-2.1986 14.881-0.80267 1.0935 1.3959-3.7959 4.0186-10.921 5.8578-7.1249 1.8392-13.787 2.1986-14.881 0.80267z"/>
  </g>
  <g fill="#312c29" style="" transform="matrix(-0.997668, 0, 0, 1, 239.391754, 55.697666)">
    <path d="m88.05 95.323c-2.0532 0-3.25 1.1967-3.25 3.2501 0 2.0531 1.1968 3.25 3.25 3.25s3.25-1.1969 3.25-3.25c0-2.0533-1.1968-3.2501-3.25-3.2501z"/>
    <path d="m43.05 105.06c-0.57908 0-1.0097 0.43066-1.0097 1.0098 0 0.57898 0.43061 1.0096 1.0097 1.0096 0.57907 0 1.0097-0.43066 1.0097-1.0096 0-0.5791-0.43062-1.0098-1.0097-1.0098z"/>
  </g>
  <g fill="#ffd543" style="" transform="matrix(-0.997668, 0, 0, 1, 239.391754, 55.697666)">
    <path d="m25.053 22.898l4.125-0.4062-0.7188-7.0312-4.125 0.4062 0.7188 7.0312z"/>
    <path d="m23.459 23.054l0.9688-0.0937-0.625-7.0312-0.9688 0.0937 0.625 7.0312z"/>
  </g>
  <g fill="#ffe791" style="" transform="matrix(-0.997668, 0, 0, 1, 239.391754, 55.697666)">
    <path d="m41.219 94.252c-5.528 0-9.9727 4.4447-9.9727 9.9727 0 0.58826 0.071772 1.1658 0.16831 1.7253 0.25587-5.9736 5.1327-10.709 11.172-10.709 1.6514 0 3.1999 0.37451 4.6077 1.0099-1.6633-1.2436-3.7272-1.9987-5.9752-1.9987z"/>
    <path d="m43.678 118.45c5.528 0 9.9727-4.4448 9.9727-9.9728 0-0.58814-0.07177-1.1658-0.16832-1.7252-0.25587 5.9735-5.1327 10.709-11.172 10.709-1.6514 0-3.1999-0.37451-4.6077-1.0099 1.6633 1.2436 3.7272 1.9988 5.9752 1.9988z"/>
  </g>
  <path d="M 157.37 152.834 C 149.692 152.834 143.519 159.022 143.519 166.717 C 143.519 167.536 143.619 168.34 143.753 169.119 C 144.108 160.803 150.882 154.21 159.27 154.21 C 161.563 154.21 163.714 154.731 165.669 155.616 C 163.359 153.884 160.493 152.833 157.37 152.833 L 157.37 152.834 Z" fill="#a8927a" style="" transform="matrix(-1, 0, 0, -1, 309.188004, 321.951996)"/>
  <path d="M 200.383 161.705 C 196.291 161.705 193.001 158.407 193.001 154.305 C 193.001 153.869 193.054 153.44 193.126 153.025 C 193.315 157.457 196.925 160.971 201.396 160.971 C 202.618 160.971 203.764 160.693 204.807 160.222 C 203.575 161.145 202.047 161.705 200.383 161.705 Z" fill="#ffe791" style="" transform="matrix(-1, 0, 0, -1, 397.808014, 314.729996)"/>
  <path d="M 154.983 153.164 C 149.88 153.164 145.777 157.277 145.777 162.392 C 145.777 162.936 145.843 163.47 145.933 163.988 C 146.169 158.461 150.671 154.079 156.245 154.079 C 157.77 154.079 159.199 154.426 160.499 155.014 C 158.963 153.863 157.058 153.164 154.983 153.164 Z" fill="#a8927a" style="" transform="matrix(-1, 0, 0, -1, 306.275986, 317.152008)"/>
  <path d="M 175.569 144.653 C 177.511 139.492 178.751 133.391 179.048 126.815 C 179.366 119.762 178.54 113.151 176.848 107.591 C 179.816 111.921 181.546 118.873 181.195 126.651 C 180.86 134.072 178.673 140.559 175.569 144.654 L 175.569 144.653 Z" fill="#cc0001" style="" transform="matrix(-1, 0, 0, -1, 356.808929, 252.24501)"/>
  <path d="M 3.292 154.271 L 98.272 154.271 C 102.661 154.271 102.661 146.271 98.272 146.271 L 3.292 146.271 C -1.097 146.271 -1.097 154.271 3.292 154.271 Z" fill="#a40000" style="" transform="matrix(-1, 0, 0, -1, 101.564, 300.541992)"/>
  <path d="M 2.895 153.271 C -0.098 153.271 -0.098 147.271 2.895 147.271 L 98.671 147.271 C 101.664 147.271 101.664 153.271 98.671 153.271 L 2.895 153.271 Z" fill="#ef292a" style="" transform="matrix(-1, 0, 0, -1, 101.565995, 300.541992)"/>
  <path d="M 89.822 161.898 C 89.822 152.233 82.005 144.398 72.362 144.398 C 62.72 144.398 54.903 152.233 54.903 161.898 C 54.903 171.563 62.72 179.398 72.362 179.398 C 82.005 179.398 89.822 171.563 89.822 161.898 Z" fill="#d69600" style="" transform="matrix(-1, 0, 0, -1, 144.724998, 323.79599)"/>
  <path d="M 72.362 176.704 C 64.171 176.704 57.588 170.105 57.588 161.895 C 57.588 153.684 64.171 147.086 72.362 147.086 C 80.554 147.086 87.137 153.685 87.137 161.895 C 87.137 170.106 80.554 176.704 72.362 176.704 Z" fill="#ffd543" style="" transform="matrix(-1, 0, 0, -1, 144.725002, 323.789993)"/>
  <path d="M 72.362 168.195 C 68.758 168.195 66.077 165.508 66.077 161.895 C 66.077 158.282 68.758 155.595 72.362 155.595 C 75.967 155.595 78.648 158.282 78.648 161.895 C 78.648 165.508 75.967 168.195 72.362 168.195 Z" fill="#8d7c6a" style="" transform="matrix(-1, 0, 0, -1, 144.725006, 323.790009)"/>
  <path d="M 68.844 162.118 C 72.937 162.118 76.227 165.416 76.227 169.518 C 76.227 169.954 76.174 170.383 76.102 170.798 C 75.913 166.366 72.303 162.852 67.832 162.852 C 66.61 162.852 65.463 163.13 64.421 163.601 C 65.652 162.678 67.18 162.118 68.845 162.118 L 68.844 162.118 Z" fill="#ffe791" style="" transform="matrix(-1, 0, 0, -1, 140.647995, 332.916)"/>
  <path d="M 72.362 162.907 C 71.785 162.907 71.355 162.477 71.355 161.898 C 71.355 161.319 71.785 160.888 72.362 160.888 C 72.94 160.888 73.37 161.319 73.37 161.898 C 73.37 162.477 72.94 162.907 72.362 162.907 Z" fill="#312c29" style="" transform="matrix(-1, 0, 0, -1, 144.725006, 323.794998)"/>
  <g fill="#ffe791" style="" transform="matrix(-0.997668, 0, 0, 1, 239.391754, 55.697666)">
    <path d="m165.59 94.376c-5.528 0-9.9728 4.4448-9.9728 9.9728 0 0.58814 0.071808 1.1656 0.16832 1.7252 0.25588-5.9736 5.1327-10.709 11.172-10.709 1.6514 0 3.1999 0.37451 4.6077 1.0099-1.6633-1.2436-3.7272-1.9988-5.9752-1.9988z"/>
    <path d="m168.05 118.57c5.528 0 9.9727-4.4448 9.9727-9.9727 0-0.58826-0.071793-1.1658-0.16832-1.7253-0.25586 5.9736-5.1327 10.709-11.172 10.709-1.6514 0-3.1999-0.37451-4.6077-1.0099 1.6633 1.2436 3.7272 1.9988 5.9752 1.9988z"/>
    <path d="m166.44 97.451c-4.1017 0-7.3997 3.298-7.3997 7.3997 0 0.43652 0.053207 0.86499 0.12489 1.2803 0.18985-4.4324 3.8084-7.9462 8.2896-7.9462 1.2253 0 2.3743 0.27783 3.4188 0.74939-1.2341-0.92285-2.7655-1.4832-4.4336-1.4832z"/>
  </g>
  <path d="M 44.927 161.898 C 44.927 152.233 37.11 144.398 27.467 144.398 C 17.825 144.398 10.008 152.233 10.008 161.898 C 10.008 171.563 17.825 179.398 27.467 179.398 C 37.11 179.398 44.927 171.563 44.927 161.898 Z" fill="#d69600" style="" transform="matrix(-1, 0, 0, -1, 54.935003, 323.79599)"/>
  <path d="M 27.467 176.704 C 19.276 176.704 12.693 170.105 12.693 161.895 C 12.693 153.684 19.276 147.086 27.467 147.086 C 35.659 147.086 42.242 153.685 42.242 161.895 C 42.242 170.106 35.658 176.704 27.467 176.704 Z" fill="#ffd543" style="" transform="matrix(-1, 0, 0, -1, 54.934999, 323.789993)"/>
  <path d="M 27.467 168.195 C 23.863 168.195 21.182 165.508 21.182 161.895 C 21.182 158.282 23.863 155.595 27.467 155.595 C 31.072 155.595 33.753 158.282 33.753 161.895 C 33.753 165.508 31.072 168.195 27.467 168.195 Z" fill="#8d7c6a" style="" transform="matrix(-1, 0, 0, -1, 54.934998, 323.790009)"/>
  <path d="M 23.949 162.118 C 28.042 162.118 31.332 165.416 31.332 169.518 C 31.332 169.954 31.279 170.383 31.207 170.798 C 31.018 166.366 27.408 162.852 22.937 162.852 C 21.715 162.852 20.568 163.13 19.526 163.601 C 20.757 162.678 22.285 162.118 23.949 162.118 Z" fill="#ffe791" style="" transform="matrix(-1, 0, 0, -1, 50.858, 332.916)"/>
  <path d="M 27.467 162.907 C 26.89 162.907 26.46 162.477 26.46 161.898 C 26.46 161.319 26.89 160.888 27.467 160.888 C 28.045 160.888 28.475 161.319 28.475 161.898 C 28.475 162.477 28.045 162.907 27.467 162.907 Z" fill="#312c29" style="" transform="matrix(-1, 0, 0, -1, 54.934999, 323.794998)"/>
  <g fill="#ffe791" style="" transform="matrix(-0.997668, 0, 0, 1, 239.391754, 55.697666)">
    <path d="m210.59 94.376c-5.528 0-9.9728 4.4448-9.9728 9.9728 0 0.58814 0.071808 1.1656 0.16832 1.7252 0.25588-5.9736 5.1327-10.709 11.172-10.709 1.6514 0 3.1999 0.37451 4.6077 1.0099-1.6633-1.2436-3.7272-1.9988-5.9752-1.9988z"/>
    <path d="m213.05 118.57c5.528 0 9.9727-4.4448 9.9727-9.9727 0-0.58826-0.071793-1.1658-0.16832-1.7253-0.25586 5.9736-5.1327 10.709-11.172 10.709-1.6514 0-3.1999-0.37451-4.6077-1.0099 1.6633 1.2436 3.7272 1.9988 5.9752 1.9988z"/>
    <path d="m211.44 97.451c-4.1017 0-7.3997 3.298-7.3997 7.3997 0 0.43652 0.053207 0.86499 0.12489 1.2803 0.18985-4.4324 3.8084-7.9462 8.2896-7.9462 1.2253 0 2.3743 0.27783 3.4188 0.74939-1.2341-0.92285-2.7655-1.4832-4.4336-1.4832z"/>
  </g>
</svg>