<?xml version="1.0" encoding="utf-8"?>
<svg version="1.1" width="430px" height="430px" viewBox="27 680 430 430" xmlns="http://www.w3.org/2000/svg">
  <g id="layer1" transform="matrix(1, 0, 0, 1, -65, -6)">
    <g style="fill:rgb(126,182,207); fill-opacity:1.0; stroke-linejoin: miter" transform="matrix(1, 0, 0, 1, -182.507172, -209.454544)">
      <path d="M899.8076,1320.8278L896.6991,1321.3175Q874.59985,1322.7977,767.3734,1323.6857Q659.4053,1324.5721,513.09375,1324.4044Q373.4584,1324.1708,289.7393,1323.0336Q206.08786,1321.889,221.89853,1320.338Q243.9977,1318.8578,351.22397,1317.9698Q459.19223,1317.0834,605.50366,1317.2506Q745.1389,1317.4847,828.8583,1318.622Q855.68274,1318.9894,873.0486,1319.4225L887.6444,1319.868Q899.67236,1320.3273,899.8076,1320.8278"/>
    </g>
    <g style="fill:rgb(0,0,0); fill-opacity:1.0; stroke-linejoin: miter" transform="matrix(1, 0, 0, 1, -182.507172, -209.454544)">
      <path d="M447.71997,1251.0537L425.07,1248.5394Q411.0917,1264.8711,418.0073,1270.7863Q419.8355,1272.7363,423.03973,1274.4465Q424.3116,1275.1279,425.75662,1275.774Q433.101,1278.8405,433.70306,1279.2279Q443.82373,1284.9685,446.7837,1286.3041Q455.1949,1290.366,463.25992,1292.7288Q472.4784,1295.4165,477.97403,1294.7083Q483.94946,1293.7856,483.83728,1289.8899Q483.5218,1286.066,475.9281,1280.6941Q469.3478,1275.7933,448.70343,1264.5353L447.7209,1251.0664"/>
    </g>
    <g style="fill:rgb(131,38,117); fill-opacity:1.0; stroke-linejoin: miter" transform="matrix(1, 0, 0, 1, -182.507172, -209.454544)">
      <path d="M466.24945,1269.8425L455.5833,1272.4592L449.77338,1292.6824L462.60278,1294.9641L466.24335,1269.8851"/>
    </g>
    <g style="fill:rgb(0,0,0); fill-opacity:0.99607843; stroke-linejoin: miter" transform="matrix(1, 0, 0, 1, -182.507172, -209.454544)">
      <path d="M587.5713,927.66406L587.6509,927.0885Q588.5067,921.01636,584.9155,914.558Q581.731,908.01373,575.2909,903.33234Q562.2918,895.29987,548.6771,901.0715Q537.42316,905.63184,531.93445,915.9109Q529.76373,920.39233,529.23395,926.1854Q528.57245,932.90454,529.47504,945.0076L525.5645,952.0778L587.5713,927.66406 Z"/>
    </g>
    <g style="fill:rgb(255,178,152); fill-opacity:1.0; stroke-linejoin: miter" transform="matrix(1, 0, 0, 1, -182.507172, -209.454544)">
      <path d="M521.64825,956.3078L521.6451,956.31085L521.6464,956.30865L527.7973,947.9483L529.461,944.414C532.0495,945.6468,534.3524,946.11993,536.3453,945.71295C538.213,945.33075,540.0595,944.2393,541.7948,942.445C543.27277,940.91675,544.1161,939.65784,544.51996,938.8152C544.78107,938.2689,545.07947,937.7446,545.2875,937.1848C546.62195,933.60046,547.35535,931.7344,547.54785,931.60205C547.9494,930.71643,548.64844,929.6892,549.92365,928.93665C552.8528,927.2081,554.9928,927.3866,556.253,928.9133C556.58496,929.3153,556.85376,930.10315,557.0777,931.3862C557.1544,931.8219,557.1119,933.8613,556.9176,937.5491C556.87006,938.44775,557.08655,938.8972,557.37335,938.74426C557.922,938.4523,558.33325,937.948,558.7241,937.39624C561.5588,933.39246,563.53174,930.7007,564.66437,929.3451C566.7435,926.8567,568.10645,925.55554,568.5178,925.16565C570.88873,922.9132,573.8652,921.2993,577.66583,921.40063C583.2523,921.54956,586.6514,923.6022,587.9088,926.6947C587.051,933.0187,586.14594,937.01636,585.4135,938.78455C584.5997,940.74634,583.1891,942.33496,580.95636,943.46545C581.79,951.157,581.6895,955.57074,581.14276,956.9338C580.46594,958.6191,578.74774,958.73236,575.48157,957.09894C574.79956,959.7249,574.1543,961.2592,573.67303,961.82135C573.13586,962.44867,572.2619,962.69086,570.9124,962.43805C571.67883,963.02313,571.71204,963.79755,570.9534,964.7143C570.28235,965.5264,568.862,966.69855,566.7496,968.2795C565.6834,970.8621,564.71094,972.66,563.7064,973.5373C562.73505,974.3853,561.8847,974.6857,561.27344,974.57904C560.19855,974.74054,558.0098,974.0036,554.70685,972.3697L550.1543,967.60187L531.74615,982.33734L521.64825,956.3078L521.6451,956.31085 Z"/>
    </g>
    <g style="fill:rgb(0,0,0); fill-opacity:0.99607843; stroke-linejoin: miter" transform="matrix(1, 0, 0, 1, -182.507172, -209.454544)">
      <path d="M570.873,938.64844L571.2181,938.5051Q573.48315,937.5078,574.90576,937.45435Q575.22186,937.4453,575.52795,937.47754Q575.6855,937.4741,576.42834,937.65027Q577.1683,937.84375,578.44763,938.4242Q576.3101,938.2571,575.0287,938.30554Q573.7856,938.33044,570.873,938.64844 Z"/>
    </g>
    <g style="fill:rgb(0,0,0); fill-opacity:0.99607843; stroke-linejoin: miter" transform="matrix(1, 0, 0, 1, -182.507172, -209.454544)">
      <path d="M571.7546,944.6969L571.7541,944.69775L571.7529,944.69885L571.7546,944.6969 Z"/>
    </g>
    <g style="fill:rgb(255,255,255); fill-opacity:0.99607843; stroke-linejoin: miter" transform="matrix(1, 0, 0, 1, -182.507172, -209.454544)">
      <path d="M572.1603,941.2975L572.15936,941.2981L576.2907,939.7711Q576.70123,940.53296,576.7101,941.01196Q576.7536,941.474,576.44824,942.59436L572.1603,941.2975 Z"/>
    </g>
    <g style="fill:rgb(0,0,0); fill-opacity:0.99607843; stroke-linejoin: miter" transform="matrix(1, 0, 0, 1, -182.507172, -209.454544)">
      <path d="M576.26666,939.7433L575.1698,941.10754L576.3556,942.526Q576.637,941.9464,576.73206,941.6366Q576.8183,941.3285,576.81696,941.26965Q576.83246,941.15015,576.8301,941.0337Q576.8249,940.9193,576.8017,940.8064Q576.80005,940.749,576.6941,940.47754Q576.58105,940.2079,576.26666,939.7433 Z"/>
    </g>
    <g style="fill:rgb(0,0,0); fill-opacity:0.99607843; stroke-linejoin: miter" transform="matrix(1, 0, 0, 1, -182.507172, -209.454544)">
      <path d="M585.90594,901.96124L585.9058,901.96185L585.90594,901.96124L585.9058,901.96185 Z"/>
    </g>
    <g style="fill:rgb(0,0,0); fill-opacity:1.0; stroke-linejoin: miter" transform="matrix(1, 0, 0, 1, -182.507172, -209.454544)">
      <path d="M568.3451,955.91437L568.3451,955.91437L568.3445,955.9151L568.3451,955.91437"/>
    </g>
    <g style="fill:rgb(255,255,255); fill-opacity:1.0; stroke-linejoin: miter" transform="matrix(1, 0, 0, 1, -182.507172, -209.454544)">
      <path d="M576.5938,907.2048L576.5938,907.2048L576.59344,907.205L576.5938,907.2048"/>
    </g>
    <g style="fill:rgb(255,255,255); fill-opacity:1.0; stroke-linejoin: miter" transform="matrix(1, 0, 0, 1, -182.507172, -209.454544)">
      <path d="M523.68945,946.659L533.27545,960.4871L542.86237,974.3149Q539.5361,978.89655,536.2096,983.4781Q524.70386,971.18475,513.1983,958.8908L523.68945,946.659"/>
    </g>
    <g style="fill:rgb(0,0,0); fill-opacity:1.0; stroke-linejoin: miter" transform="matrix(1, 0, 0, 1, -182.507172, -209.454544)">
      <path d="M470.65536,1123.2797L449.0137,1147.1903Q452.37866,1157.189,451.97095,1158.7523Q448.2102,1165.3961,444.1575,1181.8458Q439.89233,1198.4219,428.53125,1251.4624L443.10672,1253.6624Q458.08765,1206.0942,465.35022,1190.9882Q468.8271,1183.4683,472.1179,1179.0875Q474.53168,1175.4849,482.02414,1168.9258Q483.2068,1167.6793,483.7837,1166.041Q485.14688,1162.5034,482.13297,1152.7869Q479.60303,1144.2917,470.68655,1123.3542"/>
    </g>
    <g style="fill:rgb(254,252,75); fill-opacity:1.0; stroke-linejoin: miter" transform="matrix(1, 0, 0, 1, -182.507172, -209.454544)">
      <path d="M565.6002,1029.6604L550.54736,1008.63965Q526.5976,1012.3616,521.02893,1015.9032Q514.5549,1019.2749,519.02155,1025.4318Q522.5462,1030.9181,540.65533,1043.7615L565.54224,1029.6935"/>
    </g>
    <g style="fill:rgb(0,0,0); fill-opacity:1.0; stroke-linejoin: miter" transform="matrix(1, 0, 0, 1, -182.507172, -209.454544)">
      <path d="M399.2213,1042.3212C394.1074,1052.7688,391.0789,1060.4586,389.95755,1065.3502C388.71002,1070.7921,388.8989,1075.2888,390.60828,1078.9255C391.99945,1081.8859,394.12402,1084.5757,397.0781,1086.9492C398.62817,1088.1946,400.24707,1089.4308,402.12732,1090.2533C408.26566,1092.9393,411.64703,1094.3525,412.09564,1094.9083C414.30457,1096.3978,416.5043,1098.6362,418.83258,1101.5139C423.92245,1107.8042,438.15955,1135.3927,452.1303,1161.9249L478.58163,1131.6731L465.0796,1107.3461L500.73422,1108.9381L515.2419,1079.6359C505.28275,1074.9816,490.16656,1067.0844,476.49762,1063.0066C463.49545,1059.1274,437.76758,1052.1871,399.26962,1042.3335 Z"/>
    </g>
    <g style="fill:rgb(60,27,87); fill-opacity:1.0; stroke-linejoin: miter" transform="matrix(1, 0, 0, 1, -182.507172, -209.454544)">
      <path d="M362.56995,1164.5676Q392.76276,1165.8525,413.87946,1187.6322Q434.37222,1210.0994,433.86148,1240.1292Q432.70752,1270.1233,410.94403,1291.4315Q388.63556,1311.9673,358.42285,1311.5605Q328.3414,1310.5114,306.7857,1288.42Q286.32468,1265.9314,286.87024,1235.9033Q288.0592,1205.91,309.85388,1184.6239Q332.19235,1164.1149,362.4065,1164.5629 M362.82758,1155.9746Q328.6346,1155.5758,304.1013,1178.2316Q279.75095,1201.7653,278.2799,1235.5741Q277.7274,1269.4222,300.56418,1294.3534Q324.3413,1318.7797,357.84045,1320.1439Q392.03354,1320.5686,416.58612,1297.9281Q440.95474,1274.4081,442.44788,1240.6006Q443.02188,1206.7529,420.20456,1181.8085Q396.44815,1157.3689,362.95007,1155.9785"/>
    </g>
    <g style="fill:rgb(60,27,87); fill-opacity:1.0; stroke-linejoin: miter" transform="matrix(1, 0, 0, 1, -182.507172, -209.454544)">
      <path d="M618.91705,1165.2058Q649.11005,1166.4906,670.2268,1188.2712Q690.71936,1210.738,690.20874,1240.7678Q689.055,1270.7621,667.29144,1292.07Q644.9829,1312.6052,614.7703,1312.1985Q584.6887,1311.1493,563.13324,1289.0582Q542.6721,1266.5701,543.2177,1236.5413Q544.4067,1206.5486,566.20135,1185.2625Q588.53973,1164.7535,618.75366,1165.201 M619.17487,1156.6135Q584.98193,1156.2146,560.44867,1178.8706Q536.0984,1202.404,534.62744,1236.2126Q534.07513,1270.0608,556.91174,1294.9917Q580.6889,1319.418,614.18805,1320.7823Q648.3809,1321.2067,672.9334,1298.5663Q697.302,1275.0474,698.7951,1241.2391Q699.3692,1207.3916,676.5517,1182.4475Q652.7953,1158.0073,619.2973,1156.617"/>
    </g>
    <g style="fill:rgb(60,27,87); fill-opacity:1.0; stroke-linejoin: miter" transform="matrix(1, 0, 0, 1, -182.507172, -209.454544)">
      <path d="M564.98035,1097.454Q560.9597,1097.9799,561.3344,1102.0812Q577.5197,1167.025,585.9421,1191.1372Q592.3053,1209.8846,599.9926,1224.0078Q604.51447,1232.4535,612.63983,1244.4783Q613.82837,1246.0631,615.71185,1246.0967Q619.99445,1245.5807,619.3021,1241.1056Q603.8242,1218.5146,596.0593,1197.0271Q587.0128,1174.1229,568.58936,1100.0563Q567.67865,1097.6447,565.0752,1097.4547"/>
    </g>
    <g style="fill:rgb(60,27,87); fill-opacity:1.0; stroke-linejoin: miter" transform="matrix(1, 0, 0, 1, -182.507172, -209.454544)">
      <path d="M575.5063,1132.7916Q573.67084,1132.6285,572.3321,1134.0085L450.80112,1259.4407Q448.2469,1263.8082,453.1134,1265.6364Q454.94055,1265.8762,456.32974,1264.5596L577.85974,1139.1371Q580.5679,1134.403,575.5793,1132.7996"/>
    </g>
    <g style="fill:rgb(60,27,87); fill-opacity:1.0; stroke-linejoin: miter" transform="matrix(1, 0, 0, 1, -182.507172, -209.454544)">
      <path d="M416.39008,1091.472Q414.4111,1090.8817,412.6822,1092.3552Q411.1513,1093.9014,411.65686,1096.0818L460.16644,1250.1385Q460.88983,1252.0817,462.6478,1252.6146Q464.62714,1253.2125,466.3562,1251.7522Q467.88474,1250.2405,467.40744,1248.0465L418.898,1093.9856Q418.17917,1092.0188,416.42328,1091.4824"/>
    </g>
    <g style="fill:rgb(60,27,87); fill-opacity:1.0; stroke-linejoin: miter" transform="matrix(1, 0, 0, 1, -182.507172, -209.454544)">
      <path d="M570.8429,1119.0061Q569.90576,1118.749,569.17114,1118.88L429.6108,1135.1221Q426.85614,1135.7224,426.45743,1138.5936Q426.44376,1141.4288,429.0918,1142.4396Q429.99805,1142.6992,430.75232,1142.5747L570.3188,1126.3328Q573.09674,1125.7096,573.4897,1122.9188Q573.58746,1120.1165,570.8769,1119.0168"/>
    </g>
    <g style="fill:rgb(60,27,87); fill-opacity:1.0; stroke-linejoin: miter" transform="matrix(1, 0, 0, 1, -182.507172, -209.454544)">
      <path d="M431.1047,1134.521Q429.09875,1134.4022,427.76617,1136.1052L360.45312,1236.0107Q358.501,1240.4694,363.3089,1241.8457Q365.31387,1241.9786,366.65524,1240.2933L434.07184,1140.2278Q435.7529,1135.6962,431.16245,1134.5258"/>
    </g>
    <g style="fill:rgb(34,43,50); fill-opacity:1.0; stroke-linejoin: miter" transform="matrix(1, 0, 0, 1, -182.507172, -209.454544)">
      <path d="M466.3483,1244.2347Q465.56128,1243.852,464.8853,1243.8184L366.6554,1233.8347Q363.75183,1233.8975,362.8406,1236.6061Q362.25748,1239.4264,364.7159,1240.9337Q365.28366,1241.253,366.12564,1241.3529L464.55133,1251.3485Q467.3844,1251.2133,468.25583,1248.5267Q468.7953,1245.7338,466.38837,1244.2562"/>
    </g>
    <g style="fill:rgb(60,27,87); fill-opacity:1.0; stroke-linejoin: miter" transform="matrix(1, 0, 0, 1, -182.507172, -209.454544)">
      <path d="M469.0539,1226.1643Q458.95932,1224.9675,450.89963,1230.9744Q442.94174,1237.2412,441.48465,1247.1996Q440.29645,1257.2772,446.29636,1265.3313Q452.6036,1273.3197,462.5496,1274.751Q472.48285,1275.951,480.61124,1269.9686Q488.5849,1263.7186,490.06393,1253.7632Q491.2737,1243.6879,485.29288,1235.6216Q479.00455,1227.6211,469.06387,1226.1658"/>
    </g>
    <g style="fill:rgb(0,0,0); fill-opacity:1.0; stroke-linejoin: miter" transform="matrix(1, 0, 0, 1, -182.507172, -209.454544)">
      <path d="M507.21213,1076.3418L489.49286,1107.811L499.33975,1108.3337Q481.6031,1118.886,467.55145,1141.5934Q460.2739,1152.6088,444.60013,1180.0272Q446.75974,1185.0416,448.90503,1185.672Q448.8779,1186.1124,455.10562,1185.7448Q455.68304,1185.677,457.8791,1187.4508Q458.20447,1187.6279,458.5276,1187.503Q459.53976,1187.5427,462.02267,1178.4847Q468.2671,1180.5348,471.9137,1177.0155Q473.06586,1176.0135,474.5406,1174.135Q481.03412,1165.3334,482.62396,1163.4838Q484.9963,1160.5701,487.5751,1157.8254Q490.50177,1154.7029,494.18484,1151.3715Q516.4143,1132.3107,518.712,1129.5842Q526.15186,1122.2151,529.49554,1115.8905Q536.42395,1102.6615,530.59204,1091.6849Q525.43854,1082.3707,507.3533,1076.3899"/>
    </g>
    <g style="fill:rgb(0,0,0); fill-opacity:1.0; stroke-linejoin: miter" transform="matrix(1, 0, 0, 1, -182.507172, -209.454544)">
      <path d="M508.72617,1202.5403Q507.6873,1201.4236,505.48093,1201.0347Q505.64877,1200.8651,496.60287,1200.3331Q494.42123,1200.0973,492.99133,1199.7349Q490.2815,1199.0864,488.2537,1197.5629Q485.9719,1195.8517,484.3024,1192.7834Q483.96365,1192.6455,479.5567,1181.5914Q478.48282,1179.2318,477.39093,1177.7122Q475.2304,1174.5156,471.70087,1174.5227Q468.88123,1174.5061,465.0108,1176.477Q462.41663,1177.6198,454.39517,1183.6581Q452.78012,1184.658,451.5787,1184.8486Q448.14554,1185.6014,441.8816,1179.7717Q432.86264,1193.9803,432.6737,1195.6082Q431.06052,1199.6782,433.31854,1202.0289Q435.79987,1204.9739,448.75815,1207.385Q489.68866,1214.9183,497.29996,1214.423Q505.3483,1214.5852,508.43088,1211.4485Q511.69333,1207.5197,508.78464,1202.6029"/>
    </g>
    <g style="fill:rgb(60,27,87); fill-opacity:1.0; stroke-linejoin: miter" transform="matrix(1, 0, 0, 1, -182.507172, -209.454544)">
      <path d="M634.6951,1089.2944Q634.4028,1089.2852,634.111,1089.3213L559.95276,1097.9199L560.75726,1105.4158L635.3937,1096.7411Q638.3478,1095.8558,638.33,1092.7556Q637.88336,1089.7281,634.7798,1089.2975"/>
    </g>
    <g style="fill:rgb(60,27,87); fill-opacity:1.0; stroke-linejoin: miter" transform="matrix(1, 0, 0, 1, -182.507172, -209.454544)">
      <path d="M633.26514,1089.2179Q631.50977,1089.1599,630.2258,1090.6003Q612.25696,1117.4929,604.6085,1124.1202Q600.7236,1127.7189,596.53015,1129.8652Q592.978,1131.8082,585.1913,1133.8444Q584.40216,1134.1637,583.8267,1134.7887Q582.2913,1136.6779,583.1167,1138.7762Q584.18176,1140.9725,586.44946,1141.1077Q602.90326,1138.2148,614.00995,1125.2883Q621.5761,1117.0825,636.4439,1094.8085Q637.3953,1093.067,636.4219,1091.1222Q635.36743,1089.3845,633.33746,1089.221"/>
    </g>
    <g style="fill:rgb(255,178,152); fill-opacity:1.0; stroke-linejoin: miter" transform="matrix(1, 0, 0, 1, -182.507172, -209.454544)">
      <path d="M631.1541,1102.2933Q631.2638,1097.5399,625.5589,1090.5278Q623.29333,1087.8612,621.29504,1086.4071Q620.35767,1085.7178,619.3261,1085.1685Q613.529,1082.5967,611.8653,1081.3147Q608.36395,1078.9607,605.3164,1075.6635Q602.65826,1072.7938,600.35455,1069.2239L591.1565,1053.5172Q588.8469,1049.7446,586.8101,1047.1339Q582.04846,1040.823,572.03326,1032.4686L566.29877,1034.3136L553.4623,1019.26575L531.1521,1025.9006Q543.3622,1037.9231,548.53564,1044.4343Q550.98566,1047.0275,561.19244,1062.8857Q563.19745,1065.7373,565.2517,1068.1125Q567.1098,1070.2676,569.7002,1072.8427Q583.22485,1085.5425,584.4192,1087.1559Q587.1242,1089.7557,600.3295,1106.718Q603.2407,1110.1261,605.3436,1111.6973Q610.122,1116.0964,619.5605,1112.2413Q631.01465,1108.1707,631.1535,1102.3153"/>
    </g>
    <g style="fill:rgb(255,255,255); fill-opacity:1.0; stroke-linejoin: miter" transform="matrix(1, 0, 0, 1, -182.507172, -209.454544)">
      <path d="M540.95355,979.68524L527.77875,959.65485C526.5947,958.6663,525.4327,957.9107,524.4171,957.19867C520.4767,954.436,514.6996,954.87054,506.7758,958.2813C505.8627,958.6744,498.49582,962.1053,484.8205,968.9948L468.29208,976.4717C465.3854,977.87,462.74307,979.2578,460.357,980.6211C452.51364,985.1023,442.84604,992.2787,430.8887,1001.56494C423.01746,1007.6775,416.31555,1015.00696,410.26047,1023.48816C404.18304,1032.0006,399.2267,1039.9098,396.3483,1047.9257L451.90817,1057.4275C458.97537,1058.7216,463.9548,1060.038,466.84628,1061.3751C481.2558,1052.6211,491.0578,1046.954,496.1368,1044.1603C499.68326,1042.2095,504.9169,1039.8715,511.84683,1037.0785C513.41425,1036.4469,515.6482,1033.6791,518.66974,1029.0508L539.74426,1044.3844L570.652,1027.6787C563.0808,1019.40784,558.17694,1012.6918,555.6086,1007.69653C553.03534,1002.69214,545.72424,1004.59326,543.32654,993.47565 Z"/>
    </g>
    <g style="fill:rgb(131,38,117); fill-opacity:1.0; stroke-linejoin: miter" transform="matrix(1, 0, 0, 1, -182.507172, -209.454544)">
      <path d="M474.95245,1228.339L372.15112,1226.3348Q362.86234,1229.9655,362.8872,1238.3456Q362.78223,1243.0911,365.48898,1251.987Q367.33563,1258.2314,372.46133,1271.8643Q372.71155,1272.4668,373.27942,1272.7479L373.84637,1272.9082L461.62418,1282.629Q462.99927,1282.499,463.21252,1281.0161Q463.0905,1279.5408,461.7425,1279.3174L375.26022,1269.7197Q364.30984,1241.5898,366.4982,1235.9962Q367.27847,1232.09,372.82233,1229.6558L474.7529,1231.6599L474.95087,1228.4178"/>
    </g>
    <g style="fill:rgb(131,38,117); fill-opacity:1.0; stroke-linejoin: miter" transform="matrix(1, 0, 0, 1, -182.507172, -209.454544)">
      <path d="M467.54297,1209.6969L461.2035,1253.6912L471.7465,1256.2672L486.22833,1210.9845L467.56906,1209.6986"/>
    </g>
    <g style="fill:rgb(0,0,0); fill-opacity:0.13333334; stroke-linejoin: miter" transform="matrix(1, 0, 0, 1, -182.507172, -209.454544)">
      <path d="M491.12436,989.5502L518.6582,1029.0686Q518.664,1029.0597,518.66974,1029.0508L539.74426,1044.3844L544.22784,1041.9609L544.2308,1041.9623Q544.25696,1041.9906,544.28375,1042.0214L544.33276,1041.9465L491.18506,989.60767L491.12436,989.5502 Z"/>
    </g>
    <g style="fill:rgb(0,0,0); fill-opacity:0.12156863; stroke-linejoin: miter" transform="matrix(1, 0, 0, 1, -182.507172, -209.454544)">
      <path d="M628.17145,1104.2327Q627.8558,1094.1864,618.0386,1085.61Q614.4657,1082.8027,610.41016,1082.1478Q607.36237,1081.566,602.45294,1082.9891Q601.5322,1082.9777,600.9249,1082.7393Q598.3606,1081.8229,594.73065,1077.692Q587.4956,1069.356,580.85376,1058.4698Q578.8903,1055.1757,577.60516,1052.2488Q576.75757,1050.3282,575.0592,1045.0443Q574.59564,1043.8796,573.9104,1042.8972Q572.9913,1041.6055,571.65216,1040.2893Q564.92554,1034.3234,564.02765,1033.1936Q562.4756,1031.4427,558.6396,1025.6344Q561.3107,1031.0287,564.225,1034.6875L566.1004,1036.8186Q572.2969,1042.6556,572.95825,1043.613L573.8292,1045.3916Q574.74445,1049.4573,575.4963,1051.2303Q576.5869,1053.8932,578.5195,1057.0957Q585.11725,1067.7241,593.54346,1077.4796Q598.129,1082.664,600.6476,1083.5674Q601.65753,1083.9419,602.4476,1083.8759Q606.0982,1082.4154,608.81805,1082.7762Q613.6254,1083.5385,616.6847,1085.9664Q623.7424,1091.9731,626.07806,1098.284Q628.89703,1107.4088,624.7,1107.8102Q628.1365,1108.0651,628.1678,1104.504"/>
    </g>
    <g style="fill:rgb(0,0,0); fill-opacity:0.07450981; stroke-linejoin: miter" transform="matrix(1, 0, 0, 1, -182.507172, -209.454544)">
      <path d="M483.61646,1161.1658Q477.42535,1167.9037,475.5156,1170.5969Q473.9211,1172.787,473.51678,1174.6603L483.6187,1161.1658 Z M474.72232,1130.343Q469.37106,1138.7965,465.87814,1145.0262Q464.44043,1147.5773,462.98132,1150.3855L457.09238,1161.9333Q455.57913,1164.7908,454.2142,1167.0262Q451.60382,1171.5123,444.31384,1180.2606Q444.28104,1180.3726,444.35117,1180.3746Q444.6158,1180.382,446.3461,1178.8247Q448.21118,1177.1134,450.22235,1174.8472Q453.65848,1170.9583,456.20963,1166.8109Q458.71277,1162.8007,461.52914,1157.0442Q461.92496,1156.4478,470.76575,1137.1409Q472.0213,1134.6411,474.72464,1130.343 Z"/>
    </g>
    <g style="fill:rgb(253,217,8); fill-opacity:1.0; stroke-linejoin: miter" transform="matrix(1, 0, 0, 1, -182.507172, -209.454544)">
      <path d="M542.21063,1237.4972L542.99524,1227.4517Q548.13116,1197.1206,571.65826,1179.1575Q595.347,1161.2076,627.14417,1164.991Q657.47516,1170.127,675.4394,1193.6538Q681.1945,1201.258,684.8776,1210.1929L687.9546,1219.3701Q690.46936,1228.8356,690.38763,1239.095Q689.2531,1270.5701,668.12115,1291.2509Q646.9898,1311.9297,615.49805,1312.3854Q584.0233,1311.2509,563.3438,1290.1195Q542.66437,1268.9889,542.21063,1237.4972 Z"/>
    </g>
    <g style="fill:rgb(0,0,0); fill-opacity:1.0; stroke-linejoin: miter" transform="matrix(1, 0, 0, 1, -182.507172, -209.454544)">
      <path d="M609.64734,1074.1151L586.5891,1093.5493L519.20233,1034.7979L491.30307,1052.5444L452.4714,1089.7323L383.0285,1087.8353Q385.85495,1055.9434,395.324,1034.9078Q401.90842,1018.0277,426.5351,995.583Q454.0089,971.002,521.35547,949.32745Q518.7557,950.71625,521.3297,954.7277L538.4012,974.61163Q544.2974,982.1076,551.9066,997.8218L609.64734,1074.1151"/>
    </g>
    <g style="fill:rgb(0,0,0); fill-opacity:1.0; stroke-linejoin: miter" transform="matrix(1, 0, 0, 1, -182.507172, -209.454544)">
      <path d="M535.235,1115.3396L535.235,1115.3398L535.235,1115.3401L535.235,1115.3396"/>
    </g>
    <g style="fill:rgb(255,183,13); fill-opacity:1.0; stroke-linejoin: miter" transform="matrix(1, 0, 0, 1, -182.507172, -209.454544)">
      <path d="M383.69333,1062.5573L383.69333,1062.5577L383.6933,1062.559L383.69333,1062.5577L383.69333,1062.5573L383.69333,1062.5577L383.6933,1062.559Q383.69333,1062.5577,383.69333,1062.5573"/>
    </g>
    <g style="fill:rgb(131,38,117); fill-opacity:1.0; stroke-linejoin: miter" transform="matrix(1, 0, 0, 1, -182.507172, -209.454544)">
      <path d="M433.3744,1092.8345L433.2407,1094.0226Q432.11606,1097.6387,426.10953,1100.0001Q420.06104,1102.3611,411.74487,1102.257Q403.80157,1101.9786,398.95233,1099.4082Q397.39816,1098.5771,396.37506,1097.5676L395.50803,1096.5228Q394.7854,1095.4384,394.73407,1094.2327Q394.80737,1090.5249,400.16992,1087.8702Q405.53256,1085.2161,413.73898,1084.8253Q421.9523,1084.6213,427.4928,1086.8816Q433.0333,1089.1412,433.3744,1092.8345"/>
    </g>
    <g style="fill:rgb(0,0,0); fill-opacity:1.0; stroke-linejoin: miter" transform="matrix(1, 0, 0, 1, -182.507172, -209.454544)">
      <path d="M399.67883,1087.7988L399.67883,1087.7993Q408.86035,1094.845,412.61697,1097.1779Q416.5224,1099.7224,422.6654,1102.4307L437.42532,1126.2772L448.50665,1101.0533L420.0484,1072.3789L399.67883,1087.7988"/>
    </g>
    <g style="fill:rgb(77,44,103); fill-opacity:1.0; stroke-linejoin: miter" transform="matrix(1, 0, 0, 1, -182.507172, -209.454544)">
      <path d="M357.36945,1163.718C316.02246,1165.2346,283.73154,1199.9857,285.24832,1241.333C286.76538,1282.6802,321.51627,1314.9712,362.86276,1313.4546C404.20966,1311.9376,436.50092,1277.1869,434.98392,1235.8396C433.46716,1194.4923,398.71637,1162.2012,357.36945,1163.718 Z"/>
    </g>
    <g style="fill:rgb(255,255,255); fill-opacity:1.0; stroke-linejoin: miter" transform="matrix(1, 0, 0, 1, -182.507172, -209.454544)">
      <path d="M355.63354,1243.4105C356.8686,1244.5581,358.54102,1245.2347,360.35767,1245.1682C363.84598,1245.04,366.60895,1242.2069,366.69678,1238.7634L397.91965,1205.1588L390.6837,1198.4347L359.85968,1231.603L337.54456,1210.8701L330.82053,1218.1061L353.56607,1239.245C353.72546,1240.8936,354.4941,1242.3517,355.63354,1243.4105 Z M357.73157,1173.5905C393.5695,1172.2755,423.79666,1200.3636,425.11136,1236.2018C426.42606,1272.0397,398.33847,1302.2673,362.50055,1303.5817C326.6629,1304.8961,296.4359,1276.8088,295.121,1240.9707C293.8062,1205.1326,321.89374,1174.905,357.73157,1173.5905 Z"/>
    </g>
    <g style="fill:rgb(221,138,166); fill-opacity:1.0; stroke-linejoin: miter" transform="matrix(1, 0, 0, 1, -182.507172, -209.454544)">
      <path d="M360.29324,1232.0056L359.85968,1231.603L337.54456,1210.8701L330.82053,1218.1061L353.56607,1239.245C353.54773,1239.107,353.53955,1238.9689,353.53427,1238.8276L359.8746,1232.0044C360.01596,1231.9994,360.15457,1231.9977,360.29324,1232.0056 Z"/>
    </g>
    <g style="fill:rgb(221,138,166); fill-opacity:1.0; stroke-linejoin: miter" transform="matrix(1, 0, 0, 1, -182.507172, -209.454544)">
      <path d="M397.91965,1205.1588L390.6837,1198.4347L359.85968,1231.603L360.29324,1232.0056L366.6979,1238.3448C366.7031,1238.4863,366.70496,1238.625,366.69678,1238.7634L397.91965,1205.1588 Z"/>
    </g>
    <g style="fill:rgb(252,193,209); fill-opacity:1.0; stroke-linejoin: miter" transform="matrix(1, 0, 0, 1, -182.507172, -209.454544)">
      <path d="M357.90448,1237.3385L327.49887,1270.0605C326.57022,1271.0597,326.62762,1272.6228,327.62692,1273.551C328.12637,1274.015,328.76715,1274.2325,329.3984,1274.2097C330.02994,1274.1863,330.65308,1273.9224,331.11722,1273.4229L361.52252,1240.7007L357.90448,1237.3385 Z"/>
    </g>
    <g style="fill:rgb(0,0,0); fill-opacity:1.0; stroke-linejoin: miter" transform="matrix(1, 0, 0, 1, -182.507172, -209.454544)">
      <path d="M360.35767,1245.1682C363.98672,1245.0349,366.8311,1241.9741,366.6979,1238.3448C366.5645,1234.7158,363.50397,1231.8712,359.8746,1232.0044C356.24542,1232.1378,353.40128,1235.1986,353.53427,1238.8276C353.66742,1242.4569,356.72827,1245.3011,360.35767,1245.1682 Z"/>
    </g>
    <g style="fill:rgb(0,0,0); fill-opacity:1.0; stroke-linejoin: miter" transform="matrix(1, 0, 0, 1, -182.507172, -209.454544)">
      <path d="M358.5466,1195.8042C357.1834,1195.854,356.03802,1194.7898,355.98773,1193.4264L355.6258,1183.5537C355.57562,1182.1904,356.6401,1181.0449,358.00333,1180.9948C359.36618,1180.9448,360.512,1182.0096,360.56192,1183.3728L360.9243,1193.2455C360.97412,1194.6083,359.90958,1195.7544,358.5466,1195.8042 Z"/>
    </g>
    <g style="fill:rgb(0,0,0); fill-opacity:1.0; stroke-linejoin: miter" transform="matrix(1, 0, 0, 1, -182.507172, -209.454544)">
      <path d="M415.32935,1239.0322L405.4565,1239.3949C404.09344,1239.4443,402.94772,1238.3801,402.8978,1237.017C402.84772,1235.6539,403.9121,1234.508,405.27533,1234.4578L415.14813,1234.0961C416.51126,1234.0459,417.6569,1235.1106,417.70697,1236.4733C417.75687,1237.8367,416.69235,1238.9823,415.32935,1239.0322 Z"/>
    </g>
    <g style="fill:rgb(0,0,0); fill-opacity:1.0; stroke-linejoin: miter" transform="matrix(1, 0, 0, 1, -182.507172, -209.454544)">
      <path d="M362.22894,1296.177C360.86594,1296.2273,359.7203,1295.1624,359.67023,1293.8L359.3081,1283.9269C359.25803,1282.5636,360.3228,1281.4185,361.6859,1281.3684C363.0489,1281.3182,364.1945,1282.3827,364.2443,1283.7457L364.60663,1293.6185C364.65668,1294.9816,363.5919,1296.1274,362.22894,1296.177 Z"/>
    </g>
    <g style="fill:rgb(0,0,0); fill-opacity:1.0; stroke-linejoin: miter" transform="matrix(1, 0, 0, 1, -182.507172, -209.454544)">
      <path d="M314.9571,1242.7144L305.08438,1243.0771C303.72113,1243.1265,302.57547,1242.0621,302.5255,1240.6991C302.4757,1239.3362,303.54007,1238.1904,304.90335,1238.1406L314.7759,1237.7784C316.1389,1237.7284,317.2845,1238.7927,317.33444,1240.1558C317.38458,1241.5189,316.32007,1242.6647,314.9571,1242.7144 Z"/>
    </g>
    <g style="fill:rgb(255,255,255); fill-opacity:0.99607843; stroke-linejoin: miter" transform="matrix(1, 0, 0, 1, -182.507172, -209.454544)">
      <path d="M354.52072,1182.5887L354.5206,1182.5889L354.5206,1182.5891L354.52072,1182.5887"/>
    </g>
    <g style="fill:rgb(77,44,103); fill-opacity:1.0; stroke-linejoin: miter" transform="matrix(1, 0, 0, 1, -182.507172, -209.454544)">
      <path d="M612.92145,1162.8015C571.5744,1164.3181,539.2835,1199.0692,540.8003,1240.4165C542.3173,1281.7637,577.06824,1314.0547,618.41473,1312.5381C659.76166,1311.0211,692.0529,1276.2704,690.5359,1234.9231C689.0191,1193.5758,654.2684,1161.2847,612.92145,1162.8015 Z"/>
    </g>
    <g style="fill:rgb(255,255,255); fill-opacity:1.0; stroke-linejoin: miter" transform="matrix(1, 0, 0, 1, -182.507172, -209.454544)">
      <path d="M611.1855,1242.494C612.4206,1243.6416,614.09296,1244.3182,615.9096,1244.2517C619.39795,1244.1235,622.16095,1241.2904,622.2487,1237.8469L653.4716,1204.2423L646.23566,1197.5182L615.4117,1230.6865L593.0965,1209.9536L586.3725,1217.1896L609.11804,1238.3285C609.2774,1239.977,610.0461,1241.4352,611.1855,1242.494 Z M613.2835,1172.674C649.12146,1171.359,679.34863,1199.4471,680.6633,1235.2853C681.978,1271.1232,653.89044,1301.3508,618.05255,1302.6652C582.2149,1303.9796,551.98785,1275.8923,550.673,1240.0542C549.3582,1204.2161,577.44574,1173.9885,613.2835,1172.674 Z"/>
    </g>
    <g style="fill:rgb(221,138,166); fill-opacity:1.0; stroke-linejoin: miter" transform="matrix(1, 0, 0, 1, -182.507172, -209.454544)">
      <path d="M615.8452,1231.0891L615.4117,1230.6865L593.0965,1209.9536L586.3725,1217.1896L609.11804,1238.3285C609.0997,1238.1906,609.0915,1238.0524,609.08624,1237.9111L615.4266,1231.0879C615.56793,1231.0829,615.70654,1231.0812,615.8452,1231.0891 Z"/>
    </g>
    <g style="fill:rgb(221,138,166); fill-opacity:1.0; stroke-linejoin: miter" transform="matrix(1, 0, 0, 1, -182.507172, -209.454544)">
      <path d="M653.4716,1204.2423L646.23566,1197.5182L615.4117,1230.6865L615.8452,1231.0891L622.2499,1237.4283C622.25507,1237.5698,622.2569,1237.7085,622.2487,1237.8469L653.4716,1204.2423 Z"/>
    </g>
    <g style="fill:rgb(252,193,209); fill-opacity:1.0; stroke-linejoin: miter" transform="matrix(1, 0, 0, 1, -182.507172, -209.454544)">
      <path d="M613.4565,1236.422L583.05084,1269.144C582.1222,1270.1432,582.1796,1271.7063,583.1789,1272.6345C583.67834,1273.0985,584.31915,1273.316,584.9504,1273.2932C585.5819,1273.2698,586.205,1273.0059,586.6692,1272.5063L617.0745,1239.7842L613.4565,1236.422 Z"/>
    </g>
    <g style="fill:rgb(0,0,0); fill-opacity:1.0; stroke-linejoin: miter" transform="matrix(1, 0, 0, 1, -182.507172, -209.454544)">
      <path d="M615.9096,1244.2517C619.5387,1244.1184,622.38306,1241.0576,622.2499,1237.4283C622.1165,1233.7993,619.05597,1230.9547,615.4266,1231.0879C611.7974,1231.2213,608.95325,1234.2821,609.08624,1237.9111C609.2194,1241.5404,612.2802,1244.3846,615.9096,1244.2517 Z"/>
    </g>
    <g style="fill:rgb(0,0,0); fill-opacity:1.0; stroke-linejoin: miter" transform="matrix(1, 0, 0, 1, -182.507172, -209.454544)">
      <path d="M614.0986,1194.8877C612.7354,1194.9375,611.59,1193.8733,611.53973,1192.5099L611.1778,1182.6372C611.1276,1181.2739,612.1921,1180.1284,613.5553,1180.0782C614.91815,1180.0283,616.06396,1181.0931,616.1139,1182.4563L616.47626,1192.329C616.52606,1193.6918,615.46155,1194.8379,614.0986,1194.8877 Z"/>
    </g>
    <g style="fill:rgb(0,0,0); fill-opacity:1.0; stroke-linejoin: miter" transform="matrix(1, 0, 0, 1, -182.507172, -209.454544)">
      <path d="M670.8813,1238.1157L661.0085,1238.4784C659.64545,1238.5278,658.4997,1237.4636,658.44977,1236.1005C658.3997,1234.7374,659.46405,1233.5916,660.82733,1233.5413L670.70013,1233.1796C672.06323,1233.1294,673.20886,1234.1941,673.259,1235.5568C673.30884,1236.9202,672.2443,1238.0658,670.8813,1238.1157 Z"/>
    </g>
    <g style="fill:rgb(0,0,0); fill-opacity:1.0; stroke-linejoin: miter" transform="matrix(1, 0, 0, 1, -182.507172, -209.454544)">
      <path d="M617.78094,1295.2605C616.4179,1295.3108,615.2723,1294.2458,615.2222,1292.8835L614.86005,1283.0104C614.81,1281.6471,615.8748,1280.502,617.23785,1280.4519C618.6009,1280.4017,619.74646,1281.4662,619.79626,1282.8292L620.1586,1292.702C620.2087,1294.0651,619.14386,1295.2109,617.78094,1295.2605 Z"/>
    </g>
    <g style="fill:rgb(0,0,0); fill-opacity:1.0; stroke-linejoin: miter" transform="matrix(1, 0, 0, 1, -182.507172, -209.454544)">
      <path d="M570.5091,1241.7979L560.63635,1242.1606C559.27313,1242.21,558.12744,1241.1456,558.07745,1239.7826C558.02765,1238.4197,559.09204,1237.2739,560.4553,1237.2241L570.3279,1236.8619C571.69086,1236.8119,572.8365,1237.8762,572.8864,1239.2393C572.9366,1240.6024,571.872,1241.7482,570.5091,1241.7979 Z"/>
    </g>
    <g style="fill:rgb(255,255,255); fill-opacity:0.99607843; stroke-linejoin: miter" transform="matrix(1, 0, 0, 1, -182.507172, -209.454544)">
      <path d="M610.0727,1181.6722L610.0726,1181.6724L610.0726,1181.6726L610.0727,1181.6722"/>
    </g>
  </g>
</svg>