<?xml version="1.0" encoding="utf-8"?>
<svg id="svg2" viewBox="0 0 620 620" version="1.1" width="620px" height="620px" xmlns="http://www.w3.org/2000/svg" xmlns:xlink="http://www.w3.org/1999/xlink">
  <title id="title3692">Red roadster car in space</title>
  <defs id="defs4">
    <linearGradient id="linearGradient4713">
      <stop id="stop4709" offset="0" style="stop-color:#e6e6e6;stop-opacity:1;"/>
      <stop id="stop4711" offset="1" style="stop-color:#999999;stop-opacity:1"/>
    </linearGradient>
    <linearGradient id="linearGradient4665">
      <stop id="stop4661" offset="0" style="stop-color:#fefefe;stop-opacity:1"/>
      <stop id="stop4663" offset="1" style="stop-color:#606060;stop-opacity:1"/>
    </linearGradient>
    <filter style="color-interpolation-filters:sRGB" id="filter4078">
      <feGaussianBlur id="feGaussianBlur4080" stdDeviation="1.1709831"/>
    </filter>
    <linearGradient id="linearGradient5772" y2="527.35999" gradientUnits="userSpaceOnUse" x2="467" gradientTransform="matrix(-1.2854,0,0,-0.86761,697.55,1392.28)" y1="604.35999" x1="440">
      <stop id="stop3819" style="stop-color:#000000" offset="0"/>
      <stop id="stop3821" style="stop-color:#2d2d2d" offset="1"/>
    </linearGradient>
    <linearGradient id="linearGradient5774" y2="502" gradientUnits="userSpaceOnUse" x2="391.22" gradientTransform="translate(-23.8,490.19)" y1="453.37" x1="384.59">
      <stop id="stop5194" style="stop-color:#2d2d2d" offset="0"/>
      <stop id="stop5196" style="stop-color:#0d0a0a" offset="1"/>
    </linearGradient>
    <linearGradient id="linearGradient1590" x1="183.62199" y1="781.39526" x2="218.08" y2="781.39526" gradientUnits="userSpaceOnUse" xlink:href="#linearGradient5788"/>
    <linearGradient id="linearGradient5788" y2="380.35999" gradientUnits="userSpaceOnUse" x2="322" gradientTransform="translate(-23.8,490.19)" y1="480.35999" x1="310">
      <stop id="stop4246" style="stop-color:#800000;stop-opacity:1" offset="0"/>
      <stop id="stop4248" style="stop-color:#d40000;stop-opacity:1" offset="1"/>
    </linearGradient>
    <linearGradient id="linearGradient5778" y2="339.17001" gradientUnits="userSpaceOnUse" x2="111.99" gradientTransform="translate(-23.8,490.19)" y1="327.98001" x1="15.981">
      <stop id="stop5236" style="stop-color:#aa0000;stop-opacity:1" offset="0"/>
      <stop id="stop5238" style="stop-color:#d40000;stop-opacity:1" offset="1"/>
    </linearGradient>
    <linearGradient gradientTransform="matrix(0.51340029,0,0,0.51340029,58.019167,63.17626)" gradientUnits="userSpaceOnUse" y2="83.986191" x2="62.006531" y1="167.50792" x1="28.998739" id="linearGradient4691" xlink:href="#linearGradient4689"/>
    <linearGradient id="linearGradient4689">
      <stop id="stop4685" offset="0" style="stop-color:#999999;stop-opacity:1"/>
      <stop id="stop4687" offset="1" style="stop-color:#e3e3e3;stop-opacity:1"/>
    </linearGradient>
    <linearGradient gradientTransform="matrix(0.51340029,0,0,0.51340029,58.140449,62.867524)" gradientUnits="userSpaceOnUse" y2="162.42979" x2="92.742531" y1="83.18438" x1="93.677971" id="linearGradient4707" xlink:href="#linearGradient4713"/>
    <linearGradient gradientTransform="matrix(0.51340029,0,0,0.51340029,57.950558,63.039043)" gradientUnits="userSpaceOnUse" y2="57.927406" x2="90.069832" y1="99.621445" x1="83.521729" id="linearGradient4683" xlink:href="#linearGradient4681"/>
    <linearGradient id="linearGradient4681">
      <stop id="stop4677" offset="0" style="stop-color:#b1b1b1;stop-opacity:1"/>
      <stop id="stop4679" offset="1" style="stop-color:#e6e6e6;stop-opacity:1"/>
    </linearGradient>
    <linearGradient gradientTransform="matrix(0.51340029,0,0,0.51340029,58.019167,63.107651)" gradientUnits="userSpaceOnUse" y2="50.443859" x2="90.60437" y1="39.753078" x1="90.871643" id="linearGradient4881" xlink:href="#linearGradient4879"/>
    <linearGradient id="linearGradient4879">
      <stop id="stop4875" offset="0" style="stop-color:#999999;stop-opacity:1;"/>
    </linearGradient>
    <radialGradient gradientUnits="userSpaceOnUse" gradientTransform="matrix(0.51340039,0,0,0.41236296,58.019157,68.989266)" r="19.226765" cy="58.329941" cx="90.802635" id="radialGradient4667-7" xlink:href="#linearGradient4665"/>
    <linearGradient gradientTransform="matrix(0.51340029,0,0,0.51340029,58.019167,63.107651)" gradientUnits="userSpaceOnUse" y2="150.80357" x2="144.99371" y1="80.778954" x1="118.93494" id="linearGradient4699-7-5" xlink:href="#linearGradient4713"/>
    <filter style="color-interpolation-filters:sRGB" id="filter2118" x="-0.21373335" width="1.4274668" y="-0.13034891" height="1.2606978">
      <feGaussianBlur stdDeviation="0.49772301" id="feGaussianBlur2120"/>
    </filter>
    <filter style="color-interpolation-filters:sRGB" id="filter2302" x="-0.18482514" width="1.3696502" y="-0.15131614" height="1.3026323">
      <feGaussianBlur stdDeviation="0.23350723" id="feGaussianBlur2304"/>
    </filter>
    <filter style="color-interpolation-filters:sRGB" id="filter2298" x="-0.24526373" width="1.4905274" y="-0.23814853" height="1.476297">
      <feGaussianBlur stdDeviation="0.23350723" id="feGaussianBlur2300"/>
    </filter>
    <linearGradient id="linearGradient5780" y2="310.5" gradientUnits="userSpaceOnUse" x2="381.35001" gradientTransform="translate(-23.8,490.19)" y1="335.51001" x1="177.13">
      <stop id="stop4270" style="stop-color:#d40000;stop-opacity:1" offset="0"/>
      <stop id="stop4272" style="stop-color:#d10000;stop-opacity:1" offset="1"/>
    </linearGradient>
    <linearGradient id="linearGradient5782" y2="415.35999" gradientUnits="userSpaceOnUse" x2="483" gradientTransform="translate(-23.8,490.19)" y1="332.35999" x1="458">
      <stop id="stop4172" style="stop-color:#d40000;stop-opacity:1" offset="0"/>
      <stop id="stop4174" style="stop-color:#aa0000;stop-opacity:1" offset="1"/>
    </linearGradient>
    <linearGradient id="linearGradient5784" y2="411.35999" gradientUnits="userSpaceOnUse" x2="525" gradientTransform="translate(-23.8,490.19)" y1="321.35999" x1="512" xlink:href="#linearGradient5788">
      <stop id="stop4178" style="stop-color:#d40000;stop-opacity:1" offset="0"/>
      <stop id="stop4180" style="stop-color:#aa0000;stop-opacity:1" offset="1"/>
    </linearGradient>
    <linearGradient id="linearGradient5786" y2="426.10999" gradientUnits="userSpaceOnUse" x2="551.84003" gradientTransform="translate(-23.8,490.19)" y1="312.64999" x1="556.98999">
      <stop id="stop5186" style="stop-color:#d40000;stop-opacity:1" offset="0"/>
      <stop id="stop5188" style="stop-color:#aa0000;stop-opacity:1" offset="1"/>
    </linearGradient>
    <linearGradient id="linearGradient1445" gradientUnits="userSpaceOnUse" x1="413.62" y1="469.82001" x2="414.54999" y2="423.57999" gradientTransform="matrix(1.5868935,0,0,1.1072,-264.7601,561.02342)" xlink:href="#linearGradient4029"/>
    <linearGradient id="linearGradient4029">
      <stop id="stop4031" style="stop-color:#666666" offset="0"/>
      <stop id="stop4033" style="stop-color:#999999" offset="1"/>
    </linearGradient>
    <linearGradient id="linearGradient1447" gradientUnits="userSpaceOnUse" x1="-477.70999" y1="253.13" x2="-462.23999" y2="256.42999" gradientTransform="matrix(0.28571,0,0,0.42857,530.59,832.15)" xlink:href="#linearGradient4007"/>
    <linearGradient id="linearGradient4007">
      <stop id="stop4009" style="stop-color:#666666" offset="0"/>
      <stop id="stop4011" style="stop-color:#cccccc" offset="1"/>
    </linearGradient>
    <linearGradient id="linearGradient1449" gradientUnits="userSpaceOnUse" x1="-476.47" y1="257.66" x2="-501.84" y2="257.66" gradientTransform="matrix(0.28571,0,0,0.38438,531.83,844.72)" xlink:href="#linearGradient4021"/>
    <linearGradient id="linearGradient4021">
      <stop id="stop4023" style="stop-color:#cccccc" offset="0"/>
      <stop id="stop4025" style="stop-color:#999999" offset="1"/>
    </linearGradient>
    <linearGradient id="linearGradient5790" y2="423.57999" gradientUnits="userSpaceOnUse" x2="414.54999" y1="469.82001" x1="413.62" xlink:href="#linearGradient4029"/>
    <linearGradient id="linearGradient5792" y2="256.42999" gradientUnits="userSpaceOnUse" x2="-462.23999" y1="253.13" x1="-477.70999" xlink:href="#linearGradient4007"/>
    <linearGradient id="linearGradient5794" y2="257.66" gradientUnits="userSpaceOnUse" x2="-501.84" y1="257.66" x1="-476.47" xlink:href="#linearGradient4021"/>
    <linearGradient id="linearGradient5802" y2="318.82999" gradientUnits="userSpaceOnUse" x2="468.87" gradientTransform="matrix(0.99516,-0.16467,0,0.89393,-24.9,599.846)" y1="354.26001" x1="477.20999">
      <stop id="stop4278" style="stop-color:#ffffff" offset="0"/>
    </linearGradient>
    <filter style="color-interpolation-filters:sRGB" id="filter5105">
      <feGaussianBlur id="feGaussianBlur5107" stdDeviation="1.9357851"/>
    </filter>
    <filter style="color-interpolation-filters:sRGB" id="filter5109">
      <feGaussianBlur id="feGaussianBlur5111" stdDeviation="1.6905103"/>
    </filter>
    <linearGradient id="linearGradient5804" y2="416.78" gradientUnits="userSpaceOnUse" x2="164.63" gradientTransform="matrix(0.92919,0.038061,0,0.6851,-19,626.5985)" y1="468.87" x1="154.21001" xlink:href="#linearGradient4296"/>
    <linearGradient id="linearGradient4296">
      <stop id="stop4298" style="stop-color:#2d2d2d" offset="0"/>
    </linearGradient>
    <filter style="color-interpolation-filters:sRGB" id="filter4304" height="1.2293" width="1.0328" y="-0.11467" x="-0.016408">
      <feGaussianBlur id="feGaussianBlur4306" stdDeviation="1.9857072"/>
    </filter>
    <linearGradient id="linearGradient5808" y2="272.47" gradientUnits="userSpaceOnUse" x2="493.88" gradientTransform="translate(-23.8,490.19)" y1="249.55" x1="491.28">
      <stop id="stop5170" style="stop-color:#2d2d2d" offset="0"/>
      <stop id="stop5172" style="stop-color:#666666" offset="1"/>
    </linearGradient>
    <linearGradient id="linearGradient5810" y2="277.29001" gradientUnits="userSpaceOnUse" x2="382.75" gradientTransform="translate(-23.3,489.15)" y1="278.76001" x1="291.39001">
      <stop id="stop5162" style="stop-color:#666666" offset="0"/>
      <stop id="stop5164" style="stop-color:#ffffff" offset="1"/>
    </linearGradient>
    <linearGradient id="linearGradient5812" y2="286.13" gradientUnits="userSpaceOnUse" x2="475.95001" gradientTransform="matrix(0.95967,0,0,0.78422,-19.8,552.451)" y1="284.64999" x1="449.42999">
      <stop id="stop4389" style="stop-color:#ffffff" offset="0"/>
      <stop id="stop4391" style="stop-color:#cccccc" offset="1"/>
    </linearGradient>
    <filter style="color-interpolation-filters:sRGB" id="filter4405" height="1.7460999" width="1.0622" y="-0.37307" x="-0.031101">
      <feGaussianBlur id="feGaussianBlur4407" stdDeviation="3.7426897"/>
    </filter>
    <linearGradient id="linearGradient1598" x1="457.26971" y1="790.01819" x2="522.4162" y2="790.01819" gradientUnits="userSpaceOnUse" xlink:href="#linearGradient5788"/>
    <linearGradient id="linearGradient5842" y2="341.38" gradientUnits="userSpaceOnUse" x2="502.47" gradientTransform="translate(-23.8,490.19)" y1="413.59" x1="498.79001">
      <stop id="stop5208" style="stop-color:#666666" offset="0"/>
      <stop id="stop5210" style="stop-color:#ffc022" offset="1"/>
    </linearGradient>
    <filter style="color-interpolation-filters:sRGB" id="filter5619" height="1.2746" width="1.138" y="-0.13732" x="-0.069021001">
      <feGaussianBlur id="feGaussianBlur5621" stdDeviation="0.42236402"/>
    </filter>
    <filter style="color-interpolation-filters:sRGB" id="filter1402" x="-0.23094474" width="1.4618895" y="-0.47506702" height="1.950134">
      <feGaussianBlur stdDeviation="10.974966" id="feGaussianBlur1404"/>
    </filter>
    <filter style="color-interpolation-filters:sRGB" id="filter1900" x="-0.3476136" width="1.6952271" y="-0.56632578" height="2.1326516">
      <feGaussianBlur stdDeviation="12.899537" id="feGaussianBlur1902"/>
    </filter>
    <linearGradient y2="380.35999" x2="322" y1="480.35999" x1="310" gradientTransform="translate(-23.8,490.19)" gradientUnits="userSpaceOnUse" id="linearGradient2900" xlink:href="#linearGradient5788"/>
  </defs>
  <g id="layer5" transform="matrix(-1.000005, 0, 0, 0.989318, 664.268494, 108.240044)" style="display: inline;">
    <g transform="rotate(9.908733,4193.1114,857.39769)" id="g2571">
      <path id="path3961" d="m 296.31,792.42 c 2.296,-6.592 31.373,-15.242 44.561,-21.834 51.47,-6.3809 89.729,0.38332 143.83,2.9471 25.206,12.636 30.867,8.0395 43.348,17.604 -30.247,6.592 -51.065,12.447 -70.39,19.039 z" style="fill:#2d2d2d;stroke-width:0"/>
      <g id="g5136" transform="matrix(0.9859,0.10044,0,1.0805,66.1,430.33)">
        <path id="path5138" d="m 352.29,254.45 c -1.6693,0.8396 -3.0678,2.4126 -3.7786,4.1406 -2.3497,5.7122 1.0228,12.599 -0.7557,18.514 -2.5253,8.3987 -13.603,22.521 -13.603,22.521 l 55.924,2.4635 c 0,0 4.8389,-14.191 3.7787,-21.336 -0.57163,-3.8518 -4.5757,-6.5877 -5.2901,-10.416 -0.9171,-4.9142 3.6057,-10.382 1.5114,-14.921 -1.0267,-2.2252 -3.6726,-3.5719 -6.0458,-4.1833 -10.298,-2.6532 -22.24,-1.5626 -31.74,3.2158 z m 2.7159,5.7366 c 7.2911,-3.6775 16.467,-4.527 24.372,-2.4803 1.8199,0.47118 3.8435,1.514 4.6288,3.222 1.6016,3.4832 -1.8614,7.6744 -1.1572,11.443 0.54889,2.9376 3.6233,5.0362 4.062,7.9922 0.81376,5.4834 -2.9048,16.375 -2.9048,16.375 l -42.911,-1.8843 c 0,0 8.4983,-10.839 10.438,-17.284 1.367,-4.5411 -1.2113,-9.8281 0.5904,-14.215 0.54238,-1.3206 1.6066,-2.5258 2.8812,-3.1687 z" style="fill:#2d2d2d;stroke-width:0"/>
        <path id="path5140" style="fill:#2d2d2d;stroke-width:0;filter:url(#filter4078)" d="m 320.36,284.98 17.691,-24.653 c 0,0 -1.4369,-14.657 0.62569,-20.943 0.5792,-1.7651 1.6487,-3.4547 3.1286,-4.1887 7.7071,-3.8226 17.851,-3.53 26.28,0.69815 2.0755,1.0411 4.1692,3.1298 5.0058,5.5848 1.8768,5.5077 4.1056,11.934 4.1056,11.934 l 2.773,17.944 c -2.2928,7.7263 10.121,-9.6617 0.0856,21.717 z" transform="matrix(0.68767,-0.087659,0,0.59033,119.83,154.41)"/>
        <path id="path5142" style="fill:#666666;stroke-width:0" d="m 351.87,258.44 -3.1184,3.61 c 0,0 0.85923,10.965 -0.62371,16.142 -2.0764,7.2478 -11.227,19.635 -11.227,19.635 l 46.154,2.1478 c 0,0 4.0022,-12.377 3.1185,-18.602 -0.47209,-3.3253 -4.1566,-5.0406 -2.524,-7.9757 1.9536,-3.5122 3.504,-12.943 -0.59451,-14.114 l -4.9896,-3.6473 z m 2.2414,5.0015 20.114,-2.1625 3.8202,2.8092 c 0,0 -1.5416,6.6878 -0.95503,9.9767 0.45254,2.5375 2.99,4.4161 3.3523,6.9681 0.67825,4.7776 -2.3973,14.277 -2.3973,14.277 l -35.414,-1.6429 c 0,0 7.0196,-9.5074 8.6148,-15.069 1.1398,-3.974 0.48725,-12.393 0.48725,-12.393 z"/>
      </g>
      <ellipse id="path4312" style="fill:#0e232e;stroke-width:0" cx="557.77185" cy="859.03772" rx="20.838856" ry="35.426052"/>
      <ellipse id="path4184" style="fill:#0e232e;stroke-width:0" cx="400.70001" cy="878.55219" rx="37.5" ry="41"/>
      <path id="path4057" style="fill:url(#linearGradient5772);stroke-width:0" d="m 34.6,925.84 c -4.5118,-36.344 17.622,-67.746 60.083,-71.621 39.92,-3.6427 62.654,19.011 54.942,51.234 -8.6385,36.093 -28.751,80.442 -63.939,79.429 C 58.796,984.10799 40.459,973.031 34.6,925.839 Z"/>
      <path id="path3814" d="m 419.95,927.81 c -2.2401,42.08 -9.2888,77.347 -42.323,81.813 -10.352,1.3995 -23.639,0.1682 -30.638,-4.4534 -13.999,-9.2436 -20.526,-29.102 -16.526,-53.862 6.7206,-41.601 22.368,-92.717 49.744,-91.55 20.92,0.89212 43.744,-7.0874 39.744,68.053 z" style="fill:url(#linearGradient5774);stroke-width:0"/>
      <path id="path4372" style="fill:url(#linearGradient1590);fill-opacity:1;stroke-width:0" d="m 218.08,792.58 c 0,0 -4.196,-3.8652 -4.038,-6.8133 14.323,-25.293 -27.753,-32.424 -30.42,-7.9486 0.40279,12.169 14.765,6.9725 20.459,8.7057 2.1486,0.63 3.7688,13.248 3.7688,13.248 0,0 4.3403,0.91052 6.1917,-0.37839 1.8842,-1.3119 4.038,-6.8133 4.038,-6.8133 z"/>
      <path id="path4287" style="fill:#0e232e;stroke-width:0" d="m 554.78,834.28 c -0.36971,-0.0304 -0.74546,-0.0247 -1.1194,-0.0237 -1.236,0.004 -2.4731,0.16922 -3.744,0.50812 -14.847,3.9594 -23.052,39.104 -23.052,66.841 5.5931,10.383 3.2547,22.375 13.425,27.08 6.5546,3.0323 15.459,1.7382 21.518,-1.0505 12.394,-5.7042 26.521,-74.52 0.3826,-90.574 -0.009,-0.007 -0.0281,0.004 -0.0384,-0.002 -2.3069,-1.5937 -4.7842,-2.5704 -7.3721,-2.779 z"/>
      <path id="path3957" style="fill:#0e232e;stroke-width:0" d="m 465.08,766.06 c -1.1113,1.5258 -8.8902,22.506 -8.1494,24.032 0.74088,1.5258 32.227,2.2887 32.227,2.2887 l -5.5523,-22.334 z"/>
      <path id="path3959" style="fill:#364e59;stroke-width:0" d="m 458.78,792.38 c -1.4817,1.1443 -10.372,11.444 -10.372,11.444 l 47.785,3.4331 -7.0381,-13.351 z"/>
      <path id="path3909" d="m 27.204,875.02 c -3.4111,0.21017 -8.8028,-0.78481 -11.392,1.5724 8.8881,-103.26 125.63,-68.051 178.67,-85.565 -44.657,17.072 -42.5026,30.84331 -94.3196,91.12952 C 33.3,874.33 53.6622,927.1251 27.204,875.02 Z" style="fill:url(#linearGradient5778);stroke-width:0"/>
      <g id="layer2" style="display:inline" transform="matrix(2.8579049,0.01617084,-0.54395023,2.9036472,121.85893,533.72951)">
        <g transform="translate(19.406143,-19.214214)" id="g1974">
          <path id="path4552" d="m 101.58532,100.4631 c 0,0 -14.201876,4.2537 -14.613527,4.87117 -0.411648,0.61747 -2.88154,4.04788 -2.812932,4.87117 0.06861,0.82331 -3.018758,2.74434 -3.018758,5.14561 0,2.40129 1.234947,3.49902 1.234947,3.49902 0,0 -3.018758,1.30356 -3.224583,3.56763 -0.205824,2.26407 0.891906,3.63623 0.891906,3.63623 0,0 -1.029121,2.05824 -1.509378,4.66535 -0.480258,2.60711 0.137216,3.84206 0.137216,3.84206 0,0 4.685447,0.60569 4.754056,0.33127 0.06861,-0.27444 5.399947,-9.59337 5.948811,-9.79919 0.548865,-0.20583 2.881542,-6.58639 3.018758,-7.40969 0.137217,-0.82329 -1.646596,-9.19348 -1.646596,-9.19348 0,0 9.81096,-7.75272 10.49704,-7.75272 0.68608,0 0.34304,-0.27443 0.34304,-0.27443 z" style="fill:url(#linearGradient4691);fill-opacity:1;stroke:#000000;stroke-width:0.13583717px;stroke-linecap:butt;stroke-linejoin:miter;stroke-opacity:1"/>
          <path id="path4572" d="m 100.34699,100.27393 c -1.552422,0.29108 -14.068845,5.23943 -12.128314,9.31455 1.940531,4.07511 -1.746478,18.43503 -1.261345,19.4053 0.485133,0.97027 7.276992,3.49296 7.276992,3.49296 0,0 16.203437,-3.00782 16.882627,-2.91079 0.67919,0.097 7.17995,5.33645 9.50859,4.46321 2.32864,-0.87324 4.94836,-6.79185 4.56026,-7.85915 -0.38812,-1.06729 -5.56544,-18.12516 -5.91862,-18.82314 -4.09295,-8.088872 -10.57591,-7.471051 -13.38967,-7.665098 -2.81377,-0.194058 -5.53052,0.582158 -5.53052,0.582158 z" style="fill:url(#linearGradient4707);fill-opacity:1;stroke:#000000;stroke-width:0.13583717px;stroke-linecap:butt;stroke-linejoin:miter;stroke-opacity:1"/>
          <path id="path4548" d="m 96.028066,94.288368 c -1.50938,0.343041 -3.430407,8.232972 -3.430407,8.232972 4.581027,3.4721 9.664451,3.37978 13.653011,3.29319 3.98857,-0.0866 8.0546,-1.9759 11.25174,-3.63623 0.60889,-0.3162 -4.45953,-7.272459 -4.45953,-7.272459 z" style="fill:url(#linearGradient4683);fill-opacity:1;stroke:#000000;stroke-width:0.13583717px;stroke-linecap:butt;stroke-linejoin:miter;stroke-opacity:1"/>
          <path id="path4516-3-6" d="m 93.982394,91.338842 c 0,0 0.215379,-10.406847 10.607456,-10.215309 10.39206,0.191536 11.80092,7.764055 10.93051,13.918357 -0.50155,3.546358 -3.82298,6.83148 -10.44591,6.76764 -10.231473,-0.0986 -11.199746,-7.853015 -11.092056,-10.470688 z" style="fill:#e6e6e6;fill-opacity:1;stroke:#000000;stroke-width:0.16417089px;stroke-linecap:butt;stroke-linejoin:miter;stroke-opacity:1"/>
          <path id="path4516-3" d="m 94.507852,92.301709 c 0,0 0.20353,-9.023744 10.023838,-8.857663 9.82032,0.166081 11.15166,6.732189 10.32915,12.068566 -0.47396,3.075035 -3.61265,5.923558 -9.8712,5.868208 -9.668553,-0.0855 -10.583552,-6.809334 -10.481788,-9.079111 z" style="fill:url(#linearGradient4881);fill-opacity:1;stroke:#000000;stroke-width:0.14860782px;stroke-linecap:butt;stroke-linejoin:miter;stroke-opacity:1"/>
          <path id="path4516" d="m 95.034791,92.897472 c 0,0 0.194052,-7.907663 9.557119,-7.762123 9.36306,0.14554 10.63241,5.899533 9.84819,10.575892 -0.4519,2.694706 -3.44444,5.190919 -9.41158,5.142399 -9.218361,-0.0749 -10.090757,-5.967124 -9.993729,-7.956168 z" style="fill:url(#radialGradient4667-7);fill-opacity:1;stroke:#000000;stroke-width:0.13605106;stroke-linecap:butt;stroke-linejoin:miter;stroke-miterlimit:4;stroke-dasharray:none;stroke-opacity:1"/>
          <path id="path4560" d="m 100.98866,108.72164 c -0.13722,-0.0686 -0.43246,7.52132 -0.43246,7.52132 0,0 4.73397,0.0686 4.93978,-0.0686 0.20584,-0.13722 2.4013,-1.78382 2.4013,-1.78382 l 3.29318,-0.34303 0.41165,-1.09774 c 0,0 -9.74235,0.27444 -9.81096,0.27444 -0.0686,0 -0.4629,-4.09984 -0.0512,-4.09984 -0.21322,-0.2594 -0.42905,-0.30822 -0.75125,-0.40273 z" style="fill:#b3b3b3;stroke:#000000;stroke-width:0.13583717px;stroke-linecap:butt;stroke-linejoin:miter;stroke-opacity:1"/>
          <path id="path4558" d="m 100.96785,108.66178 c 0.54886,0 10.63426,-0.34305 10.63426,-0.34305 0,0 0.27443,4.80256 -0.0686,4.80256 -0.34304,0 -4.2537,0.34305 -4.2537,0.34305 0,0 -1.30355,1.7152 -1.64659,1.6466 -0.34304,-0.0686 -4.87117,-0.34305 -4.66535,-0.54888 0.20582,-0.20581 0,-5.90028 0,-5.90028 z" style="fill:#cccccc;stroke:#000000;stroke-width:0.13583717px;stroke-linecap:butt;stroke-linejoin:miter;stroke-opacity:1"/>
          <path id="path4562" d="m 106.66233,115.83133 c 0,0 0.8233,-1.71522 1.16634,-1.578 0.34304,0.13722 3.77344,0 3.77344,0 l -0.0686,2.74432 -3.97926,0.13722 z" style="fill:#cccccc;fill-opacity:1;stroke:#000000;stroke-width:0.13583717px;stroke-linecap:butt;stroke-linejoin:miter;stroke-opacity:1"/>
          <path id="path4566" d="m 82.992523,134.72281 c 0,0 1.509378,2.74433 1.989636,3.97928 0.480256,1.23494 1.09773,3.56761 0,3.4304 -1.097732,-0.13721 -2.264068,-2.67571 -2.264068,-2.67571 0,0 2.675716,5.28282 1.029121,5.48865 -1.646595,0.20581 -1.852421,-0.89191 -2.264067,-0.96052 -0.411649,-0.0686 -1.921029,0.34304 -1.989637,-0.13721 -0.06861,-0.48027 -2.264067,-4.04789 -1.440771,-6.10613 0.823299,-2.05825 0.960515,-3.22458 0.960515,-3.22458 z" style="fill:#bdbdbd;fill-opacity:1;stroke:#000000;stroke-width:0.13583717px;stroke-linecap:butt;stroke-linejoin:miter;stroke-opacity:1"/>
          <path id="path4655" d="m 87.854827,121.37476 c -5.093894,-0.19405 -6.646318,0.63068 -6.646318,0.63068 0,0 6.064158,3.05633 5.724565,3.00782 -0.339593,-0.0485 -4.851326,-0.82473 -5.579027,-0.87324" style="fill:none;stroke:#000000;stroke-width:0.13583717px;stroke-linecap:butt;stroke-linejoin:miter;stroke-opacity:1"/>
          <path id="path4657" d="m 88.534013,119.82234 c -3.832549,-0.97028 -5.91862,-1.4554 -5.093894,-1.69797 0.824726,-0.24257 6.98591,0.48513 6.258213,-0.19405 -0.727701,-0.67918 -6.937399,-2.13459 -7.034426,-2.13459 -0.09703,0 3.881062,-1.79498 5.77308,-1.55242 1.892017,0.24256 2.765257,-1.79499 0.242566,-2.23161 -2.522689,-0.43663 -4.7543,-1.1158 -3.589982,-1.50391 1.164318,-0.38811 4.026601,-1.21283 4.220654,-1.26134" style="fill:none;stroke:#000000;stroke-width:0.13583717px;stroke-linecap:butt;stroke-linejoin:miter;stroke-opacity:1"/>
          <path id="path4566-9" d="m 85.315536,139.70343 c -0.154066,-0.007 -1.313116,1.33747 -1.504821,1.56107 0.359521,0.45116 0.769689,0.82371 1.171329,0.87392 0.842491,0.10531 0.674192,-1.24343 0.333492,-2.43499 z" style="display:inline;fill:#3771c8;fill-opacity:1;stroke:#000000;stroke-width:0.13583717px;stroke-linecap:butt;stroke-linejoin:miter;stroke-opacity:1"/>
          <g transform="matrix(0.99718605,0.2410803,0.02331166,-0.99718605,-2.7881071,196.22981)" id="g1980">
            <path style="display:inline;fill:url(#linearGradient4699-7-5);fill-opacity:1;stroke:#000000;stroke-width:0.13583717px;stroke-linecap:butt;stroke-linejoin:miter;stroke-opacity:1" d="m 122.06933,105.84524 c 4.72201,4.29214 4.6609,2.26184 7.3709,10.67217 l -0.0686,1.57797 c 0,0 1.30355,-0.27442 0.89191,0.8233 -0.41165,1.09774 -0.0686,1.44077 -0.0686,1.44077 0,0 1.16634,-0.41164 1.16634,0.41166 0,0.82329 0.70618,12.7258 0.29453,12.38276 -0.41164,-0.34305 -4.2738,-0.10191 -4.2738,-0.37635 0,-0.27443 -2.05824,-0.8919 -2.19546,-2.19546 -0.13722,-1.30355 -0.20582,-1.71519 -0.20582,-1.71519 0,0 -2.12686,1.02911 -1.98963,-1.16634 0.13721,-2.19546 -1.16635,-4.87118 -1.16635,-4.87118 -2.19254,-3.80852 -3.84114,-1.38573 -4.38161,-4.43163 z" id="path4554-5"/>
            <path style="fill:#afafaf;fill-opacity:1;stroke:#000000;stroke-width:0.13583717px;stroke-linecap:butt;stroke-linejoin:miter;stroke-opacity:1" d="m 127.77942,132.70891 c 1.23494,-0.13721 4.04788,0.0686 3.97927,-0.0686 -0.0686,-0.1372 2.40129,2.4013 0.89192,4.66536 -1.50939,2.26407 -2.81294,4.45953 -2.81294,4.45953 0,0 -1.02912,1.30355 -2.05825,1.44077 -1.02913,0.13722 -0.96052,-0.20583 -0.96052,-0.20583 0,0 -0.48024,0.68609 -0.9605,0.13722 -0.48027,-0.54886 1.92102,-3.91065 1.92102,-4.59673 0,-0.68609 -0.89191,-0.75469 -0.89191,-0.75469 0,0 -0.27442,2.67569 -1.02911,2.6071 -0.75469,-0.0686 -0.82331,-3.77345 0.20581,-4.66536 1.02913,-0.89191 1.71521,-3.01876 1.71521,-3.01876 z" id="path4568"/>
            <path style="fill:none;stroke:#000000;stroke-width:0.13583717px;stroke-linecap:butt;stroke-linejoin:miter;stroke-opacity:1" d="m 122.41049,112.25426 c -3.05634,4.31769 -4.60877,5.43348 -1.74649,5.57904 2.86229,0.14554 6.98592,0.097 7.85916,0.3881 0.87324,0.29107 -1.55243,0.097 -3.73552,1.40689 -2.1831,1.30985 2.13457,1.30985 3.88105,1.35836 1.74649,0.0485 1.26135,1.40688 1.26135,1.40688 0,0 -6.98591,0 -6.98591,1.0673 0,1.0673 1.94053,2.9108 2.08606,2.9108 0.14556,0 2.8623,-1.8435 4.31769,-1.64946" id="path4659"/>
            <path style="display:inline;fill:#3771c8;fill-opacity:1;stroke:#000000;stroke-width:0.13583714px;stroke-linecap:butt;stroke-linejoin:miter;stroke-opacity:1" d="m 125.31719,139.06901 c 0.0642,0.73354 0.25143,1.2978 0.54123,1.32415 0.3748,0.034 0.63095,-0.60896 0.79406,-1.26472 z" id="path4568-6"/>
          </g>
          <path id="path4566-1" d="m 84.201512,143.37839 c -0.627866,0.24502 -1.855092,0.68173 -2.397845,0.84103 0.30711,0.3314 0.739015,0.87645 1.94364,0.72587 0.560544,-0.0701 0.6194,-0.72881 0.454205,-1.5669 z" style="display:inline;fill:#3771c8;fill-opacity:1;stroke:#000000;stroke-width:0.13583714px;stroke-linecap:butt;stroke-linejoin:miter;stroke-opacity:1"/>
          <path id="path4895" d="m 102.54985,93.004405 c 0,2.53225 -0.24486,4.252794 -1.69448,4.252794 -1.449617,-10e-7 -3.687966,-1.986344 -3.687966,-4.518594 0,-2.532249 2.238349,-4.651493 3.687966,-4.651494 1.44962,0 1.69448,2.385044 1.69448,4.917294 z" style="opacity:0.59899998;fill:#d5d5d5;fill-opacity:1;stroke:none;stroke-width:0.24629857;stroke-linecap:round;stroke-linejoin:round;stroke-miterlimit:4;stroke-dasharray:none;stroke-opacity:1;filter:url(#filter2118)"/>
          <path id="path4895-6" d="m 109.19308,95.816781 c -0.36564,1.007213 -0.50538,1.72324 0.13817,1.91078 0.64354,0.187537 1.92405,-0.312961 2.28969,-1.320172 0.36564,-1.007212 -0.32205,-2.139725 -0.96558,-2.327264 -0.64356,-0.187539 -1.09664,0.729445 -1.46228,1.736656 z" style="display:inline;opacity:0.26800005;fill:#bdbdbd;fill-opacity:1;stroke:none;stroke-width:0.10883468;stroke-linecap:round;stroke-linejoin:round;stroke-miterlimit:4;stroke-dasharray:none;stroke-opacity:1;filter:url(#filter2302)"/>
          <path id="path4895-6-1" d="m 109.19435,89.622362 c -0.45011,-0.56148 -0.40259,-1.471737 -0.0338,-1.73003 0.3687,-0.25829 1.2911,-0.216683 1.74121,0.344797 0.45012,0.561478 0.2575,1.430208 -0.11119,1.688498 -0.36872,0.258293 -1.14603,0.258214 -1.59614,-0.303265 z" style="display:inline;opacity:0.31400003;fill:#9b9b9b;fill-opacity:1;stroke:none;stroke-width:0.0730923;stroke-linecap:round;stroke-linejoin:round;stroke-miterlimit:4;stroke-dasharray:none;stroke-opacity:1;filter:url(#filter2298)"/>
        </g>
      </g>
      <path id="path3911" d="m 69.7,850.43 c 77.844,13.841 120.29,21.297 182.67,19.582 77.251,-35.391 134.39,-33.987 196.79,-65.819 -65.793,-12.694 -172.21,-11.305 -252.65,-14.176 -45.069,18.718 -72.223,-1.39 -126.81,60.414 z" style="fill:url(#linearGradient5780);stroke-width:0"/>
      <path id="path3915" d="m 371.15,877.21 c -11.949,-4.0584 -102.78426,2.50246 -115.69426,-7.25634 -18.887,-14.277 19.67226,-12.14356 -1.62774,-0.31518 12.289,-12.654 146.66,-47.056 195.55,-64.445 l 11.613,-1.0616 c 12.645,1.4786 17.361,128.51 4.0263,127.44 -4.105,-0.33169 -47.487,21.193 -47.487,21.193 9.2332,-78.959 -20.804,-111.85 -46.377,-75.55 z" style="fill:url(#linearGradient5782);stroke-width:0"/>
      <path id="path3917" d="m 464.22,931.78 61.401,-18.227 c 4.8656,-40.14 11.844,-80.272 -4.0263,-120.5 l -58.382,12.151 c 9.7199,42.867 7.3365,83.709 1.0066,126.58 z" style="fill:url(#linearGradient5784);fill-opacity:1;stroke-width:0"/>
      <path id="path3919" d="m 417.81,954.49 2.0375,-8.3032 105.78,-36.217 c 6.0111,-37.411 7.7607,-77.093 -4.6279,-117.14 l 6.1107,-1.3639 c -10.584,-12.662 -2.4937,0.32346 -11.501,-10.778 82.969,14.538 58.627,48.176 63.289,98.868 -2.5832,-80.082 -33.382,-67.207 -42.148,28.352 -1.4216,6.3855 -8.7392,15.202 -16.441,14.884 -1.3956,-0.0577 -1.415,0.44102 -2.7144,-0.0723 -4.4575,-1.761 -16.771,3.4331 -16.771,3.4331 z" style="fill:url(#linearGradient5786);stroke-width:0"/>
      <path id="path3942" d="m 16.256,875.58 c -11.259,40.241 7.0485,77.568 55.288,86.473 7.6676,1.194 -14.536,-25.807 -7.1441,-25.21 69.251,5.5947 127.6,17.577 184.44,16.699 2.8818,-0.0445 -4.2417,21.586 -1.4318,22.06 23.264,3.9263 91.978,6.8905 100.87,-1.1246 -4.3933,-58.486 15.647,-86.299 21.427,-96.689 0,0 -43.248,-11.717 -45.945,-6.7662 l -70.964,-1.0126 c -19.839,-0.73873 -200.02297,-17.06326 -225.83297,-21.93026 -10.70713,27.50066 0,0 -10.70713,27.50066 z" style="fill:url(#linearGradient2900);stroke-width:0"/>
      <ellipse id="path3812" style="fill:url(#linearGradient1445);stroke-width:0" transform="matrix(0.95973674,-0.28090102,0,1,0,0)" cx="408.08273" cy="1054.682" rx="22.216509" ry="51.484798"/>
      <path id="path3920" d="m 391.53,892.48 -0.59276,17.164 -1.019,22.776 -1.0385,-22.176 -0.59766,-16.351 c -2.7242,2.0786 -5.1958,6.3047 -7.2061,12.013 l 3.0618,12.136 4.0905,17.411 -5.5846,-12.489 -3.826,-9.2052 c -1.5831,6.7921 -2.626,14.784 -2.9246,23.297 l 4.9968,0.95626 6.8191,2.0581 -6.8779,4.7017 -4.9184,2.8361 c 0.31606,8.0509 1.3202,15.325 2.8266,21.308 l 4.404,-12.246 5.5552,-14.514 -4.1444,19.136 -3.4586,14.967 c 2.0485,4.9864 4.5759,8.2428 7.358,9.1657 l 0.58296,-16.166 1.0385,-22.587 1.019,22.357 0.57806,16.419 c 2.7991,-0.87182 5.405,-3.9961 7.6225,-8.7372 l -3.728,-14.639 -4.1444,-17.497 5.5552,12.302 5.129,12.241 c 2.2164,-7.4585 3.7203,-16.882 4.1444,-27.121 l -7.3041,-1.3195 -6.8779,-1.9822 6.8191,-4.7544 7.2698,-4.265 0.13717,1.6439 c -0.37102,-11.047 -2.0278,-20.698 -4.5118,-27.611 l -4.5314,12.705 -5.5797,14.696 4.0856,-19.044 3.2822,-14.306 c -2.1996,-3.651 -4.7632,-5.587 -7.5099,-5.2796 z" style="fill:#0e232e;stroke-width:0"/>
      <ellipse id="path3985" style="fill:url(#linearGradient1447);stroke-width:0" cx="391.73495" cy="943.7334" rx="5.1427798" ry="11.99996"/>
      <ellipse id="path4005" style="fill:url(#linearGradient1449);stroke-width:0" cx="392.97495" cy="944.79803" rx="5.1427798" ry="10.76264"/>
      <g id="g4045" style="stroke-width:0" transform="matrix(0.54915,0,0,0.60569,333.9,611.116)">
        <ellipse id="path4037" style="fill:url(#linearGradient5790);stroke-width:0" transform="matrix(1.523,-0.44576,0,1.1072,-230.26,145.2)" cx="424" cy="445.86218" rx="14" ry="46.5"/>
        <path id="path4039" d="m 415.32,402.28 -0.59276,17.164 -1.019,22.776 -1.0385,-22.176 -0.59766,-16.351 c -2.7242,2.0786 -5.1958,6.3047 -7.2061,12.013 l 3.0618,12.136 4.0905,17.411 -5.5846,-12.489 -3.826,-9.2052 c -1.5831,6.7921 -2.626,14.784 -2.9246,23.297 l 4.9968,0.95626 6.8191,2.0581 -6.8779,4.7017 -4.9184,2.8361 c 0.31606,8.0509 1.3202,15.325 2.8266,21.308 l 4.404,-12.246 5.5552,-14.514 -4.1444,19.136 -3.4586,14.967 c 2.0485,4.9864 4.5759,8.2428 7.358,9.1657 l 0.58296,-16.166 1.0385,-22.587 1.019,22.357 0.57806,16.419 c 2.7991,-0.87182 5.405,-3.9961 7.6225,-8.7372 l -3.728,-14.639 -4.1444,-17.497 5.5552,12.302 5.129,12.241 c 2.2164,-7.4585 3.7203,-16.882 4.1444,-27.121 l -7.3041,-1.3195 -6.8779,-1.9822 6.8191,-4.7544 7.2698,-4.265 0.13717,1.6439 c -0.37102,-11.047 -2.0278,-20.698 -4.5118,-27.611 l -4.5314,12.705 -5.5797,14.696 4.0856,-19.044 3.2822,-14.306 c -2.1996,-3.651 -4.7632,-5.587 -7.5099,-5.2796 z" style="fill:#0e232e;stroke-width:0"/>
        <ellipse id="path4041" style="fill:url(#linearGradient5792);stroke-width:0" transform="matrix(0.28571,0,0,0.42857,554.39,341.96)" cx="-486" cy="260.36218" rx="18" ry="28"/>
        <ellipse id="path4043" style="fill:url(#linearGradient5794);stroke-width:0" transform="matrix(0.28571,0,0,0.38438,555.62,354.52)" cx="-486" cy="260.36218" rx="18" ry="28"/>
      </g>
      <path id="path4061" d="m 68.8,961.68 -8.307,-26.388 188.68,15.138 1.1689,25.915 z" style="fill:#800000;fill-opacity:1;stroke-width:0"/>
      <g id="g5129" transform="matrix(1.0087,0,0,0.96013,-36.3,500.25)">
        <path id="path4071" style="fill:#2d2d2d;stroke-width:0" d="m 352.29,254.45 c -1.6693,0.8396 -3.0678,2.4126 -3.7786,4.1406 -2.3497,5.7122 1.0228,12.599 -0.7557,18.514 -2.5253,8.3987 -13.603,22.521 -13.603,22.521 l 55.924,2.4635 c 0,0 4.8389,-14.191 3.7787,-21.336 -0.57163,-3.8518 -4.5757,-6.5877 -5.2901,-10.416 -0.9171,-4.9142 3.6057,-10.382 1.5114,-14.921 -1.0267,-2.2252 -3.6726,-3.5719 -6.0458,-4.1833 -10.298,-2.6532 -22.24,-1.5626 -31.74,3.2158 z m 2.7159,5.7366 c 7.2911,-3.6775 16.467,-4.527 24.372,-2.4803 1.8199,0.47118 3.8435,1.514 4.6288,3.222 1.6016,3.4832 -1.8614,7.6744 -1.1572,11.443 0.54889,2.9376 3.6233,5.0362 4.062,7.9922 0.81376,5.4834 -2.9048,16.375 -2.9048,16.375 l -42.911,-1.8843 c 0,0 8.4983,-10.839 10.438,-17.284 1.367,-4.5411 -1.2113,-9.8281 0.5904,-14.215 0.54238,-1.3206 1.6066,-2.5258 2.8812,-3.1687 z"/>
        <path id="path4075" style="fill:#2d2d2d;stroke-width:0;filter:url(#filter4078)" d="m 320.36,284.98 17.691,-24.653 c 0,0 -1.4369,-14.657 0.62569,-20.943 0.5792,-1.7651 1.6487,-3.4547 3.1286,-4.1887 7.7071,-3.8226 17.851,-3.53 26.28,0.69815 2.0755,1.0411 4.1692,3.1298 5.0058,5.5848 1.8768,5.5077 4.1056,11.934 4.1056,11.934 l 2.773,17.944 c -2.2928,7.7263 10.121,-9.6617 0.0856,21.717 z" transform="matrix(0.68767,-0.087659,0,0.59033,119.83,154.41)"/>
        <path id="path4082" style="fill:#666666;stroke-width:0" d="m 351.87,258.44 -3.1184,3.61 c 0,0 0.85923,10.965 -0.62371,16.142 -2.0764,7.2478 -11.227,19.635 -11.227,19.635 l 46.154,2.1478 c 0,0 4.0022,-12.377 3.1185,-18.602 -0.47209,-3.3253 -4.1566,-5.0406 -2.524,-7.9757 1.9536,-3.5122 3.504,-12.943 -0.59451,-14.114 l -4.9896,-3.6473 z m 2.2414,5.0015 20.114,-2.1625 3.8202,2.8092 c 0,0 -1.5416,6.6878 -0.95503,9.9767 0.45254,2.5375 2.99,4.4161 3.3523,6.9681 0.67825,4.7776 -2.3973,14.277 -2.3973,14.277 l -35.414,-1.6429 c 0,0 7.0196,-9.5074 8.6148,-15.069 1.1398,-3.974 0.48725,-12.393 0.48725,-12.393 z"/>
      </g>
      <path id="path4274" d="m 395.46,849.75 41.53,-11.178 46.224,-6.1134 29.033,-8.5298 -8.2952,-24.707 -66.361,22.158 -39.402,6.5199 -15.225,9.2913 z" style="fill:url(#linearGradient5802);stroke-width:0;filter:url(#filter5105)"/>
      <path id="path4284" d="m 426.32,945.64 -5.1065,-10.522 99.06,-31.497 0.24771,0.92447 z" style="opacity:0.37073005;fill:#ffffff;stroke-width:0;filter:url(#filter5109)"/>
      <path id="path4294" d="m 35.2,932.91 27.109,22.525 265.91,16.825 -2.5694,-18.887 z" style="opacity:0.37560999;fill:url(#linearGradient5804);stroke:#000000;stroke-width:0.79786003px;filter:url(#filter4304)"/>
      <path id="path4346" d="m 364.16,728.1 c -24.003,0.26961 -49.732,3.199 -78.081,10.099 -20.322,6.1101 -49.134,30.276 -75.992,52.951 84.675,-5.1171 169.37,7.8905 253.73,15.471 8.6281,-21.268 20.875,-58.852 12.199,-65.698 -5.2961,-4.1788 -71.846,-13.272 -111.85,-12.822 z m 0.93971,4.6085 c 35.089,0.23269 66.271,6.1821 96.729,13.178 4.1206,19.018 -1.1476,38.03 -9.2093,57.047 -80.397,-8.1472 -156.87,-16.881 -237.33,-14.529 25.095,-20.276 52.284,-41.192 71.272,-46.656 28.695,-6.6846 54.532,-9.1997 78.54,-9.0405 z" style="fill:url(#linearGradient5808);stroke-width:0"/>
      <path id="path4363" d="m 214.68,789.92 c -2.1433,-2.2661 61.885,-49.282 65.698,-47.785 52.684,-11.407 119.03,-15.915 187.08,2.8484 5.701,0 -2.8524,61.847 -7.2511,60.528 -5.2993,-1.5884 -249.63,-21.463 -245.53,-15.592 z" style="opacity:0.43902001;fill:url(#linearGradient5810);stroke:#8b8585;stroke-width:1.46300006"/>
      <path id="path4385" d="m 384.88,793.6 c 11.063,-19.94 22.127,-38.623 33.19,-54.645 18.548,2.0347 49.758,0.39919 49.502,8.1513 -0.39144,11.882 -4.1662,38.703 -10.449,54.788 -20.955,-2.1607 -53.488,-6.7827 -72.244,-8.2942 z" style="opacity:0.4;fill:url(#linearGradient5812);stroke-width:0"/>
      <path id="path4403" d="m 91.14,822.89 c 94.926,-29.707 169.21,-20.51 266.76,-21.205 l 22.055,6.8403 c -102.01,-2.3293 -186.28,-13.066 -272.01,16.417 z" style="fill:#ffffff;stroke-width:0;filter:url(#filter4405)"/>
      <path id="path4366" d="m 457.27,811.61 c 10.701,-10.917 11.004,-3.9369 13.092,-35.504 0.2572,-3.889 4.8668,-6.6256 8.4905,-8.0391 17.566,-5.0537 45.561,-6.3807 43.451,16.58 -0.74729,16.153 -27.392,9.2552 -37.958,11.556 -3.9863,0.83624 -6.9921,17.585 -6.9921,17.585 0,0 -12.828,3.0932 -11.487,-0.50226 3.1145,-8.3516 -8.5967,-1.6762 -8.5967,-1.6762 z" style="fill:url(#linearGradient1598);fill-opacity:1;stroke-width:0"/>
      <path id="path4373" d="m 225.93,786.55 c 21.321,-20.559 44.351,-36.922 68.79,-46.144 h 6.6879 c -32.045,20.132 -49.65,34.687 -59.236,46.144 z" style="opacity:0.63902001;fill:#ffffff;stroke-width:0"/>
      <path id="path5200" d="m 520.14,791.22 -0.34375,0.0937 -39.031,10.312 -0.125,0.0312 -0.0937,0.0937 -11.062,10.312 -0.28125,0.25 0.1875,0.34375 c 0,0 1.9145,3.5339 3.9688,8.0625 2.0543,4.5286 4.2353,10.065 4.8125,13.875 2.2892,15.112 0.47872,38.144 -1.9375,57.344 -2.41622,19.2 -5.4062,34.594 -5.4062,34.594 l -0.15625,0.78125 0.78125,-0.21875 55.25,-16.219 0.28125,-0.0625 0.0625,-0.28125 c 0,0 3.5931,-15.856 6.5,-35.031 2.9069,-19.175 5.1519,-41.665 2.3438,-55.094 -1.1424,-5.4628 -5.0237,-12.629 -8.625,-18.5 -3.6013,-5.8715 -6.9375,-10.406 -6.9375,-10.406 l -0.1875,-0.28125 z m -0.40625,1.1562 c 0.17291,0.2368 3.207,4.3568 6.6875,10.031 3.578,5.8335 7.4157,13.034 8.5,18.219 2.7401,13.103 0.55702,35.584 -2.3438,54.719 -2.8652,18.9 -6.3511,34.306 -6.4375,34.688 l -54.188,15.875 c 0.22589,-1.1729 2.9266,-15.382 5.25,-33.844 2.4207,-19.236 4.2921,-42.288 1.9688,-57.625 -0.61132,-4.0356 -2.8371,-9.5636 -4.9062,-14.125 -1.983,-4.3713 -3.6933,-7.4998 -3.8438,-7.7812 l 10.719,-9.9688 z" style="color:#000000;text-indent:0;text-transform:none;opacity:0.10244003;fill:url(#linearGradient5842)"/>
      <path id="path5611" d="M 501.34,826.74 Z" style="fill:none;stroke:#000000;stroke-width:1px"/>
      <path id="path5617" style="opacity:0.50243997;fill:#364e59;stroke-width:0;filter:url(#filter5619)" d="m 525.7,816.99 -1.4155,4.1907 -11.392,3.1913 -1.8788,-2.6732 z"/>
      <path id="path5615" d="m 505.94,817.85 4.584,3.7826 15.819,-3.7966 0.40097,-4.2136 z" style="fill:#800000;stroke-width:0"/>
      <path style="fill:#000000;fill-opacity:1;stroke:none;stroke-width:1.11111438;stroke-opacity:1" d="m 298.62585,937.00218 c -1.88689,18.14032 -42.85073,21.63558 -67.01521,19.176 L 131.81195,946.02014 C 63.619361,939.07914 50.98673,925.49926 51.807976,910.84059 68.36365,881.76342 124.56796,891.88066 134.78532,892.93631 l 97.15643,10.62365 c 25.82667,4.48871 68.72021,13.86729 66.6841,33.44222 z" id="path1412"/>
      <path d="m 256.64454,876.62332 c -1.72815,4.98698 3.10395,4.8669 3.10395,4.8669 24.21308,4.2644 51.71486,-4.07534 75.87029,-8.73011 10.96168,-16.20215 16.00747,-29.67389 34.70532,-41.32535 0,0 -50.689,-11.06542 -78.4355,2.67657 -10.90154,5.81732 -20.99954,18.99822 -35.24406,42.51199 z" style="fill:#ececec;fill-opacity:1;fill-rule:evenodd;stroke-width:0.60062838" id="path3259"/>
      <path id="path1106" style="fill:#f2f2f2;fill-opacity:1;fill-rule:evenodd;stroke-width:0.49756166" d="m 46.625152,834.10613 c 4.421425,12.25607 37.591453,28.43848 49.118431,26.95206 12.336197,-12.9479 23.803207,-25.3106 39.799457,-35.42733 0,0 3.19741,-13.34597 -20.61166,-19.14343 -39.333808,3.71145 -53.315647,14.25421 -68.306228,27.6187 z"/>
      <path id="path1116" style="fill:#fff6d5;fill-opacity:1;fill-rule:evenodd;stroke-width:0.60062838;filter:url(#filter1402)" d="m 256.64454,876.62332 c -1.72815,4.98698 3.10395,4.8669 3.10395,4.8669 24.21308,4.2644 51.71486,-4.07534 75.87029,-8.73011 10.96168,-16.20215 16.00747,-29.67389 34.70532,-41.32535 0,0 -50.689,-11.06542 -78.4355,2.67657 -10.90154,5.81732 -20.99954,18.99822 -35.24406,42.51199 z"/>
      <path d="m 46.625152,834.10613 c 4.421425,12.25607 37.591453,28.43848 49.118431,26.95206 12.336197,-12.9479 23.803207,-25.3106 39.799457,-35.42733 0,0 3.19741,-13.34597 -20.61166,-19.14343 -39.333808,3.71145 -53.315647,14.25421 -68.306228,27.6187 z" style="fill:#fff6d5;fill-opacity:1;fill-rule:evenodd;stroke-width:0.49756166;filter:url(#filter1900)" id="path1406"/>
      <path style="fill:#4d4d4d;fill-opacity:1;stroke:none;stroke-width:0.51639783;stroke-opacity:1" d="m 57.692857,903.32425 240.680163,30.71477 v 3.66954 L 54.39459,906.70296 Z" id="path1909"/>
      <path id="path1911" d="M 51.820332,914.68069 293.86807,945.79768 290.5698,948.42143 52.624788,917.8985 Z" style="fill:#4d4d4d;fill-opacity:1;stroke:none;stroke-width:0.51639783;stroke-opacity:1"/>
      <path id="path1913" d="m 74.988648,893.75123 216.626952,29.34719 3.78094,3.5891 -225.878188,-30.84471 z" style="fill:#4d4d4d;fill-opacity:1;stroke:none;stroke-width:0.51639783;stroke-opacity:1"/>
    </g>
  </g>
</svg>