<?xml version="1.0" encoding="utf-8"?>
<svg width="500px" height="500px" version="1.1" viewBox="0 0 500 500" xmlns="http://www.w3.org/2000/svg">
  <defs>
    <filter id="a" x="-.015305" y="-.021847" width="1.0306" height="1.0437" color-interpolation-filters="sRGB">
      <feGaussianBlur stdDeviation="3.108486"/>
    </filter>
  </defs>
  <path d="M 250 70.51 C 205.91 70.557 167.979 104.851 159.373 152.448 C 129.163 156.667 101.94 162.938 79.119 170.8 C 57.13 178.375 39.208 187.401 26.541 197.718 C 13.874 208.035 6.279 219.939 6.279 232.845 C 6.279 245.751 13.874 257.653 26.541 267.97 C 39.208 278.287 57.13 287.313 79.119 294.888 C 82.061 295.901 85.081 296.885 88.166 297.845 L 88.166 299.273 L 88.824 299.273 C 89.244 300.611 89.868 302.223 91.15 304.163 C 93.975 308.439 99.4 313.785 109.689 318.975 C 116.972 322.65 126.715 326.269 139.773 329.416 C 166.883 343.039 202.417 351.2 240.023 352.439 L 240.023 377.177 C 238.654 378.29 237.773 379.986 237.773 381.88 C 237.773 384.512 239.473 386.756 241.826 387.589 L 241.601 388.46 C 239.871 395.183 244.059 401.313 250.951 402.142 L 286.765 406.449 C 291.564 407.026 296.411 404.878 299.499 401.252 C 299.453 402.351 299.457 403.395 299.52 404.365 C 299.639 406.171 299.929 407.738 300.558 409.08 C 301.187 410.422 302.333 411.74 304.218 411.967 C 306.102 412.193 307.837 411.222 309.099 410.107 C 310.36 408.992 311.414 407.588 312.427 405.918 C 314.2 402.995 315.796 399.238 317.026 395.008 L 317.45 395.059 C 316.802 398.104 316.528 400.905 316.677 403.182 C 316.766 404.549 316.986 405.736 317.462 406.752 C 317.938 407.768 318.807 408.764 320.233 408.935 C 321.66 409.107 322.974 408.373 323.929 407.529 C 324.884 406.685 325.681 405.622 326.448 404.357 C 327.726 402.252 328.867 399.555 329.778 396.541 L 330.241 396.598 C 329.808 398.771 329.636 400.765 329.743 402.408 C 329.812 403.459 329.983 404.37 330.349 405.15 C 330.715 405.931 331.38 406.696 332.476 406.828 C 333.572 406.96 334.58 406.396 335.314 405.748 C 336.047 405.1 336.662 404.282 337.251 403.31 C 338.173 401.791 339.006 399.877 339.685 397.732 L 340.53 397.834 C 340.252 399.368 340.145 400.776 340.222 401.953 C 340.275 402.772 340.405 403.483 340.691 404.092 C 340.976 404.7 341.494 405.298 342.349 405.4 C 343.203 405.503 343.992 405.062 344.564 404.557 C 345.135 404.051 345.612 403.415 346.071 402.658 C 346.731 401.57 347.333 400.22 347.837 398.713 L 349.694 398.938 C 349.907 400.678 351.07 401.927 352.661 402.121 C 354.881 402.388 357.21 400.55 357.862 398.016 C 358.515 395.481 357.244 393.21 355.024 392.943 C 353.43 392.752 351.71 393.655 350.64 395.244 L 348.788 395.021 C 349.067 393.487 349.176 392.078 349.099 390.902 C 349.045 390.083 348.913 389.374 348.628 388.766 C 348.343 388.157 347.822 387.56 346.968 387.457 C 346.113 387.354 345.329 387.793 344.757 388.299 C 344.185 388.804 343.706 389.442 343.247 390.199 C 342.587 391.287 341.986 392.636 341.481 394.143 L 340.636 394.041 C 341.068 391.867 341.241 389.873 341.134 388.231 C 341.065 387.18 340.896 386.269 340.53 385.488 C 340.164 384.708 339.497 383.942 338.401 383.811 C 337.305 383.679 336.297 384.242 335.563 384.891 C 334.83 385.539 334.213 386.355 333.624 387.326 C 332.702 388.845 331.871 390.762 331.192 392.906 L 330.73 392.85 C 331.377 389.806 331.65 387.005 331.501 384.729 C 331.411 383.361 331.194 382.173 330.718 381.156 C 330.242 380.14 329.373 379.144 327.946 378.973 C 326.519 378.801 325.208 379.535 324.253 380.379 C 323.298 381.223 322.496 382.288 321.729 383.553 C 320.452 385.658 319.311 388.354 318.399 391.367 L 317.978 391.316 C 318.934 387.054 319.309 383.149 319.103 379.988 C 318.984 378.182 318.694 376.616 318.065 375.274 C 317.436 373.932 316.29 372.614 314.405 372.387 C 312.521 372.16 310.788 373.132 309.526 374.246 C 308.265 375.361 307.21 376.766 306.196 378.436 C 305.651 379.334 305.124 380.316 304.618 381.362 C 303.527 377.232 300.047 374.081 295.247 373.504 L 259.433 369.198 C 255.102 368.677 250.729 370.375 247.648 373.375 L 247.648 352.639 C 248.43 352.662 249.213 352.683 249.996 352.7 C 291.333 352.699 331.039 344.306 360.676 329.307 C 373.505 326.185 383.103 322.606 390.301 318.975 C 400.59 313.784 406.013 308.442 408.838 304.166 C 410.25 302.028 411.007 300.165 411.4 298.777 C 411.487 298.471 411.55 298.184 411.605 297.91 C 414.766 296.929 417.862 295.924 420.873 294.887 C 442.862 287.311 460.786 278.286 473.453 267.969 C 486.12 257.652 493.713 245.75 493.713 232.844 C 493.713 219.938 486.12 208.034 473.453 197.717 C 460.786 187.4 442.862 178.374 420.873 170.799 C 398.071 162.944 370.875 156.678 340.695 152.459 C 332.088 104.827 294.115 70.519 249.994 70.51 L 250 70.51 Z M 313.043 377.7 C 313.074 377.755 313.073 377.737 313.113 377.823 C 313.378 378.388 313.648 379.492 313.742 380.929 C 313.904 383.407 313.597 386.868 312.76 390.688 L 306.822 389.974 C 307.943 386.188 309.385 382.865 310.775 380.573 C 311.581 379.245 312.385 378.269 312.916 377.8 C 312.997 377.728 312.986 377.744 313.043 377.7 Z M 326.916 382.995 C 326.939 383.036 326.938 383.022 326.969 383.087 C 327.169 383.514 327.372 384.352 327.443 385.44 C 327.56 387.215 327.342 389.667 326.783 392.374 L 322.355 391.841 C 323.182 389.167 324.202 386.81 325.197 385.169 C 325.807 384.163 326.416 383.424 326.818 383.069 C 326.88 383.015 326.873 383.028 326.916 382.995 Z M 337.611 386.899 C 337.629 386.931 337.628 386.921 337.652 386.971 C 337.806 387.3 337.961 387.943 338.015 388.778 C 338.098 390.049 337.97 391.764 337.605 393.675 L 334.232 393.27 C 334.843 391.39 335.578 389.746 336.291 388.571 C 336.759 387.798 337.226 387.231 337.535 386.958 C 337.583 386.915 337.578 386.925 337.611 386.899 Z M 346.353 389.864 C 346.368 389.889 346.368 389.881 346.386 389.921 C 346.506 390.177 346.627 390.675 346.67 391.327 C 346.728 392.223 346.641 393.415 346.416 394.735 L 343.861 394.428 C 344.308 393.135 344.823 391.996 345.326 391.167 C 345.691 390.564 346.054 390.121 346.295 389.909 C 346.332 389.876 346.327 389.884 346.353 389.864 Z M 305.873 393.665 L 311.811 394.38 C 310.69 398.165 309.25 401.488 307.86 403.78 C 307.054 405.109 306.248 406.082 305.717 406.552 C 305.636 406.623 305.647 406.607 305.59 406.651 C 305.559 406.596 305.56 406.614 305.52 406.528 C 305.255 405.963 304.987 404.859 304.893 403.423 C 304.73 400.944 305.036 397.484 305.873 393.665 Z M 321.404 395.532 L 325.832 396.065 C 325.005 398.74 323.986 401.098 322.99 402.739 C 322.38 403.745 321.771 404.482 321.369 404.837 C 321.307 404.891 321.314 404.877 321.271 404.911 C 321.248 404.87 321.249 404.883 321.219 404.819 C 321.018 404.392 320.815 403.555 320.744 402.468 C 320.628 400.692 320.845 398.239 321.404 395.532 Z M 333.281 396.962 L 336.654 397.366 C 336.043 399.247 335.309 400.892 334.596 402.067 C 334.127 402.84 333.66 403.406 333.352 403.678 C 333.303 403.721 333.309 403.711 333.275 403.737 C 333.257 403.705 333.258 403.716 333.234 403.665 C 333.08 403.336 332.924 402.696 332.869 401.86 C 332.786 400.589 332.916 398.872 333.281 396.962 Z M 342.912 398.12 L 345.467 398.427 C 345.02 399.719 344.505 400.857 344.002 401.686 C 343.637 402.289 343.274 402.732 343.033 402.944 C 342.996 402.977 343.001 402.969 342.975 402.989 C 342.96 402.964 342.96 402.972 342.941 402.932 C 342.821 402.676 342.701 402.178 342.658 401.526 C 342.6 400.63 342.687 399.44 342.912 398.12 Z" fill-opacity=".39216" filter="url(#a)"/>
  <path d="M 248 68.51 C 203.91 68.557 165.979 102.851 157.373 150.448 C 127.163 154.667 99.94 160.938 77.119 168.8 C 55.13 176.375 37.208 185.401 24.541 195.718 C 11.874 206.035 4.279 217.939 4.279 230.845 C 4.279 243.751 11.873 255.653 24.541 265.97 C 37.208 276.287 55.13 285.313 77.119 292.888 C 80.061 293.901 83.081 294.885 86.166 295.845 L 86.166 297.273 L 86.824 297.273 C 87.244 298.611 87.868 300.223 89.15 302.163 C 91.975 306.439 97.4 311.785 107.689 316.975 C 114.972 320.65 124.715 324.269 137.773 327.416 C 164.883 341.039 200.417 349.2 238.023 350.439 L 238.023 375.177 C 236.654 376.29 235.773 377.986 235.773 379.88 C 235.773 382.512 237.472 384.756 239.826 385.589 L 239.601 386.46 C 237.871 393.183 242.059 399.313 248.951 400.142 L 284.765 404.449 C 289.564 405.026 294.411 402.878 297.499 399.252 C 297.453 400.351 297.457 401.395 297.52 402.365 C 297.639 404.171 297.929 405.738 298.558 407.08 C 299.187 408.422 300.333 409.74 302.218 409.967 C 304.102 410.193 305.837 409.222 307.099 408.107 C 308.36 406.992 309.414 405.588 310.427 403.918 C 312.2 400.995 313.796 397.238 315.026 393.008 L 315.45 393.059 C 314.802 396.104 314.528 398.905 314.677 401.182 C 314.766 402.549 314.986 403.736 315.462 404.752 C 315.938 405.768 316.807 406.764 318.233 406.935 C 319.66 407.107 320.974 406.373 321.929 405.529 C 322.884 404.685 323.681 403.622 324.448 402.357 C 325.726 400.252 326.867 397.555 327.778 394.541 L 328.241 394.598 C 327.808 396.771 327.636 398.765 327.743 400.408 C 327.812 401.459 327.983 402.37 328.349 403.15 C 328.715 403.931 329.38 404.696 330.476 404.828 C 331.572 404.96 332.58 404.396 333.314 403.748 C 334.047 403.1 334.662 402.282 335.251 401.31 C 336.173 399.791 337.006 397.877 337.685 395.732 L 338.53 395.834 C 338.252 397.368 338.145 398.776 338.222 399.953 C 338.275 400.772 338.405 401.483 338.691 402.092 C 338.976 402.7 339.494 403.298 340.349 403.4 C 341.203 403.503 341.992 403.062 342.564 402.557 C 343.135 402.051 343.612 401.415 344.071 400.658 C 344.731 399.57 345.333 398.22 345.837 396.713 L 347.694 396.938 C 347.907 398.678 349.07 399.927 350.661 400.121 C 352.881 400.388 355.21 398.55 355.862 396.016 C 356.515 393.481 355.244 391.21 353.024 390.943 C 351.43 390.752 349.71 391.655 348.64 393.244 L 346.788 393.021 C 347.067 391.487 347.176 390.078 347.099 388.902 C 347.045 388.083 346.913 387.374 346.628 386.766 C 346.343 386.157 345.822 385.56 344.968 385.457 C 344.113 385.354 343.329 385.793 342.757 386.299 C 342.185 386.804 341.706 387.442 341.247 388.199 C 340.587 389.287 339.986 390.636 339.481 392.143 L 338.636 392.041 C 339.068 389.867 339.241 387.873 339.134 386.231 C 339.065 385.18 338.896 384.269 338.53 383.488 C 338.164 382.708 337.497 381.942 336.401 381.811 C 335.305 381.679 334.297 382.242 333.563 382.891 C 332.83 383.539 332.213 384.355 331.624 385.326 C 330.702 386.845 329.871 388.762 329.192 390.906 L 328.73 390.85 C 329.377 387.806 329.65 385.005 329.501 382.729 C 329.411 381.361 329.194 380.173 328.718 379.156 C 328.242 378.14 327.373 377.144 325.946 376.973 C 324.519 376.801 323.208 377.535 322.253 378.379 C 321.298 379.223 320.496 380.288 319.729 381.553 C 318.452 383.658 317.311 386.354 316.399 389.367 L 315.978 389.316 C 316.934 385.054 317.309 381.149 317.103 377.988 C 316.984 376.182 316.694 374.616 316.065 373.274 C 315.436 371.932 314.29 370.614 312.405 370.387 C 310.521 370.16 308.788 371.132 307.526 372.246 C 306.265 373.361 305.21 374.766 304.196 376.436 C 303.651 377.334 303.124 378.316 302.618 379.362 C 301.527 375.232 298.047 372.081 293.247 371.504 L 257.433 367.198 C 253.102 366.677 248.729 368.375 245.648 371.375 L 245.648 350.639 C 246.43 350.662 247.213 350.683 247.996 350.7 C 289.333 350.699 329.039 342.306 358.676 327.307 C 371.505 324.185 381.103 320.606 388.301 316.975 C 398.59 311.784 404.013 306.442 406.838 302.166 C 408.25 300.028 409.007 298.165 409.4 296.777 C 409.487 296.471 409.55 296.184 409.605 295.91 C 412.766 294.929 415.862 293.924 418.873 292.887 C 440.862 285.311 458.786 276.286 471.453 265.969 C 484.12 255.652 491.713 243.75 491.713 230.844 C 491.713 217.938 484.12 206.034 471.453 195.717 C 458.786 185.4 440.862 176.374 418.873 168.799 C 396.071 160.944 368.875 154.678 338.695 150.459 C 330.088 102.827 292.115 68.519 247.994 68.51 L 248 68.51 Z M 311.043 375.7 C 311.074 375.755 311.073 375.737 311.113 375.823 C 311.378 376.388 311.648 377.492 311.742 378.929 C 311.904 381.407 311.597 384.868 310.76 388.688 L 304.822 387.974 C 305.943 384.188 307.385 380.865 308.775 378.573 C 309.581 377.245 310.385 376.269 310.916 375.8 C 310.997 375.728 310.986 375.744 311.043 375.7 Z M 324.916 380.995 C 324.939 381.036 324.938 381.022 324.969 381.087 C 325.169 381.514 325.372 382.352 325.443 383.44 C 325.56 385.215 325.342 387.667 324.783 390.374 L 320.355 389.841 C 321.182 387.167 322.202 384.81 323.197 383.169 C 323.807 382.163 324.416 381.424 324.818 381.069 C 324.88 381.015 324.873 381.028 324.916 380.995 Z M 335.611 384.899 C 335.629 384.931 335.628 384.921 335.652 384.971 C 335.806 385.3 335.961 385.943 336.015 386.778 C 336.098 388.049 335.97 389.764 335.605 391.675 L 332.232 391.27 C 332.843 389.39 333.578 387.746 334.291 386.571 C 334.759 385.798 335.226 385.231 335.535 384.958 C 335.583 384.915 335.578 384.925 335.611 384.899 Z M 344.353 387.864 C 344.368 387.889 344.368 387.881 344.386 387.921 C 344.506 388.177 344.627 388.675 344.67 389.327 C 344.728 390.223 344.641 391.415 344.416 392.735 L 341.861 392.428 C 342.308 391.135 342.823 389.996 343.326 389.167 C 343.691 388.564 344.054 388.121 344.295 387.909 C 344.332 387.876 344.327 387.884 344.353 387.864 Z M 303.873 391.665 L 309.811 392.38 C 308.69 396.165 307.25 399.488 305.86 401.78 C 305.054 403.109 304.248 404.082 303.717 404.552 C 303.636 404.623 303.647 404.607 303.59 404.651 C 303.559 404.596 303.56 404.614 303.52 404.528 C 303.255 403.963 302.987 402.859 302.893 401.423 C 302.73 398.944 303.036 395.484 303.873 391.665 Z M 319.404 393.532 L 323.832 394.065 C 323.005 396.74 321.986 399.098 320.99 400.739 C 320.38 401.745 319.771 402.482 319.369 402.837 C 319.307 402.891 319.314 402.877 319.271 402.911 C 319.248 402.87 319.249 402.883 319.219 402.819 C 319.018 402.392 318.815 401.555 318.744 400.468 C 318.628 398.692 318.845 396.239 319.404 393.532 Z M 331.281 394.962 L 334.654 395.366 C 334.043 397.247 333.309 398.892 332.596 400.067 C 332.127 400.84 331.66 401.406 331.352 401.678 C 331.303 401.721 331.309 401.711 331.275 401.737 C 331.257 401.705 331.258 401.716 331.234 401.665 C 331.08 401.336 330.924 400.696 330.869 399.86 C 330.786 398.589 330.916 396.872 331.281 394.962 Z M 340.912 396.12 L 343.467 396.427 C 343.02 397.719 342.505 398.857 342.002 399.686 C 341.637 400.289 341.274 400.732 341.033 400.944 C 340.996 400.977 341.001 400.969 340.975 400.989 C 340.96 400.964 340.96 400.972 340.941 400.932 C 340.821 400.676 340.701 400.178 340.658 399.526 C 340.6 398.63 340.687 397.44 340.912 396.12 Z" fill="none" stroke="#fff" stroke-linecap="round" stroke-linejoin="round" stroke-width="5"/>
  <g transform="matrix(1.5252, 0, 0, 1.5252, -142.460007, -159.720001)">
    <ellipse cx="256" cy="280.4" rx="104.1" ry="54.184" fill="#14242f"/>
    <path d="m151.9 297.55 208.21 2e-3s-8.9e-4 26.261-104.1 26.261c-104.1 0-104.1-26.263-104.1-26.263z" fill="#405c72" fill-rule="evenodd"/>
    <path d="m151.9 295.55 2 2h-4v2h0.43164c0.27529 0.87731 0.68474 1.9347 1.5254 3.207 1.8521 2.8032 5.4083 6.3073 12.154 9.7109 13.492 6.8073 39.773 13.346 91.992 13.346s78.499-6.539 91.99-13.346c6.7459-3.4033 10.302-6.906 12.154-9.709 0.92602-1.4015 1.4219-2.623 1.6797-3.5332 0.25777-0.91023 0.2793-1.6719 0.2793-1.6719v-2.002l-210.21-2e-3zm2.8106 4 202.58 2e-3c-0.17413 0.35515-0.19217 0.56266-0.48243 1.002-1.4013 2.1208-4.352 5.1819-10.619 8.3438-12.534 6.3236-38.306 12.916-90.189 12.916s-77.655-6.5938-90.189-12.918c-6.2673-3.1621-9.2177-6.2226-10.619-8.3438-0.29041-0.43954-0.3102-0.64664-0.48438-1.002z" color="#000000" color-rendering="auto" fill="#14242f" fill-rule="evenodd" image-rendering="auto" shape-rendering="auto" solid-color="#000000" style="block-progression:tb;isolation:auto;mix-blend-mode:normal;text-decoration-color:#000000;text-decoration-line:none;text-decoration-style:solid;text-indent:0;text-transform:none;white-space:normal"/>
    <ellipse cx="256" cy="256" rx="157.29" ry="54.184" style="fill: rgb(88, 119, 144);"/>
    <path d="m256 199.32c-43.667 0-83.201 6.0729-112.04 16.006-14.417 4.9665-26.168 10.884-34.473 17.648-8.3051 6.7642-13.283 14.567-13.283 23.029-1e-6 8.4618 4.9781 16.265 13.283 23.029 8.3051 6.7642 20.056 12.682 34.473 17.648 28.834 9.933 68.368 16.006 112.04 16.006s83.201-6.0729 112.04-16.006c14.417-4.9665 26.168-10.884 34.473-17.648 8.3051-6.7642 13.283-14.567 13.283-23.029-1e-5 -8.4618-4.9781-16.265-13.283-23.029-8.3051-6.7642-20.056-12.682-34.473-17.648-28.834-9.933-68.368-16.006-112.04-16.006zm0 5c43.202 0 82.313 6.0545 110.41 15.732 14.047 4.839 25.332 10.598 32.945 16.799 7.6135 6.2009 11.439 12.652 11.439 19.152 0 6.5008-3.8259 12.951-11.439 19.152-7.6135 6.2009-18.898 11.96-32.945 16.799-28.094 9.6779-67.205 15.732-110.41 15.732s-82.313-6.0545-110.41-15.732c-14.047-4.839-25.332-10.598-32.945-16.799-7.6135-6.2009-11.439-12.652-11.439-19.152 1e-5 -6.5008 3.8259-12.951 11.439-19.152 7.6135-6.2009 18.898-11.96 32.945-16.799 28.094-9.6779 67.205-15.732 110.41-15.732z" color="#000000" color-rendering="auto" fill="#14242f" image-rendering="auto" shape-rendering="auto" solid-color="#000000" style="block-progression:tb;isolation:auto;mix-blend-mode:normal;text-decoration-color:#000000;text-decoration-line:none;text-decoration-style:solid;text-indent:0;text-transform:none;white-space:normal"/>
    <circle cx="321.4" cy="215.44" r="4.3129" fill="#405c72" stroke="#14242f" stroke-linecap="round" stroke-linejoin="round"/>
    <circle transform="matrix(.36957 .9292 -.9292 .36957 0 0)" cx="318.12" cy="-218.84" r="2.4093" fill="#798d9c"/>
    <circle transform="matrix(.36957 .9292 -.9292 .36957 0 0)" cx="317.69" cy="-219.33" r="1.4944" fill="#fff"/>
    <path d="m256 149.57a60.643 66.749 0 0 0 -60.644 66.75 60.643 66.749 0 0 0 4.5694 25.289c16.594 3.0564 35.697 5.8224 56.074 5.8224 20.384 0 39.493-2.7688 56.091-5.8264a60.643 66.749 0 0 0 4.5527 -25.285 60.643 66.749 0 0 0 -60.644 -66.75z" fill="#14242f"/>
    <path d="m368.54 243.24 7.1956 5.8728 2.9206 5.4954s0.73193 6.2214-3.0497 9.2711c-3.7816 3.0497-12.809 12.443-51.357 19.274-38.548 6.8313-83.928 4.3916-101.01 3.6596-17.078-0.73192-41.232-5.3675-41.232-5.3675s207.15 7.7606 186.53-38.206z" fill="#405c72" fill-rule="evenodd"/>
    <ellipse cx="256" cy="256" rx="122.57" ry="32.211" fill="none" stroke="#14242f" stroke-linecap="round" stroke-linejoin="round" stroke-width="3.4031"/>
    <path d="m256 152.95a56.586 64.867 0 0 0 -56.586 64.867 56.586 64.867 0 0 0 4.2637 24.576c15.483 2.9702 33.309 5.6582 52.322 5.6582 19.02 0 36.851-2.6907 52.338-5.6621a56.586 64.867 0 0 0 4.248 -24.572 56.586 64.867 0 0 0 -56.586 -64.867z" fill="#284760"/>
    <path d="m256 157.78a52.372 60.036 0 0 0 -52.371 60.037 52.372 60.036 0 0 0 5.0254 25.508c14.281 2.5774 30.346 4.7266 47.346 4.7266 16.997 0 33.061-2.1477 47.34-4.7246a52.372 60.036 0 0 0 5.0312 -25.51 52.372 60.036 0 0 0 -52.371 -60.037z" style="fill: rgb(144, 172, 194);"/>
    <g transform="translate(-10.064 .26132)">
      <path d="m282.04 208.86c0 9.23-8.8478 16.712-19.762 16.712-10.914 0-19.762-7.4824-19.762-16.712s9.8237-8.6612 20.738-8.6612c10.914 1e-5 18.786-0.56883 18.786 8.6612z" fill="#284760"/>
      <ellipse cx="252.45" cy="209.9" rx="2.0128" ry="3.8426" style="fill: rgb(144, 172, 194);"/>
      <ellipse cx="273.13" cy="209.96" rx="2.0128" ry="3.8426" style="fill: rgb(144, 172, 194);"/>
      <path d="m273.25 201.91s4.8795-13.541 7.6853-18.176" fill="none" stroke="#284760" stroke-linecap="round" stroke-width="4"/>
      <path d="m254.96 201.54s-4.8795-12.687-7.9292-16.468" fill="none" stroke="#284760" stroke-linecap="round" stroke-width="4"/>
      <circle cx="280.27" cy="183.79" r="5.0625" fill="#284760"/>
      <circle cx="246.54" cy="183.97" r="5.0625" fill="#284760"/>
      <path d="m258.25 220.45c4.0256 0 4.5136 0.24398 7.6853-0.24397 3.1717-0.48796 1.5858-2.0738-1.0979-1.9518-2.6837 0.12198-10.125 1.3419-6.5874 2.1958z" fill-rule="evenodd" style="fill: rgb(144, 172, 194);"/>
      <path d="m260.44 224.23c-0.12199 2.1958 0.12198 5.2455-0.48796 7.8072-0.60994 2.5618-8.9709 1.9457-12.077 5.0015-2.8431 2.7972-5.2455 7.9292-4.7575 10.979 0.48795 3.0497 18.786 3.7816 24.276 3.9036 5.4895 0.12199 14.883-1.5858 15.858-3.5377 0.97591-1.9518-1.1701-9.1724-4.1476-12.321-3.3101-3.5001-13.053-1.5858-13.419-5.3675-0.36596-3.7816 1.8298-7.3193-0.60994-7.4413-2.4398-0.12198-2.8057 0.24398-4.6356 0.97591z" fill="#284760" fill-rule="evenodd"/>
    </g>
    <ellipse transform="matrix(.59482 .80386 -.78905 .61433 0 0)" cx="284.47" cy="-80.631" rx="10.783" ry="16.421" fill="#798d9c"/>
    <circle cx="118.03" cy="240.98" r="4.3129" fill="#405c72" stroke="#14242f" stroke-linecap="round" stroke-linejoin="round"/>
    <circle transform="matrix(.84118 .54076 -.54076 .84118 0 0)" cx="228.46" cy="138.24" r="2.4093" fill="#798d9c"/>
    <circle transform="matrix(.84118 .54076 -.54076 .84118 0 0)" cx="228.04" cy="137.75" r="1.4944" fill="#fff"/>
    <circle cx="113.69" cy="261.85" r="4.3129" fill="#405c72" stroke="#14242f" stroke-linecap="round" stroke-linejoin="round"/>
    <circle transform="matrix(.82671 .56262 -.56262 .82671 0 0)" cx="240.5" cy="152.19" r="2.4093" fill="#798d9c"/>
    <circle transform="matrix(.82671 .56262 -.56262 .82671 0 0)" cx="240.08" cy="151.7" r="1.4944" fill="#fff"/>
    <g transform="translate(-19.84 128.01)">
      <circle cx="154.75" cy="151.61" r="4.3129" fill="#405c72" stroke="#14242f" stroke-linecap="round" stroke-linejoin="round"/>
      <circle cx="154.26" cy="150.89" r="2.4093" fill="#798d9c"/>
      <circle cx="153.84" cy="150.4" r="1.4944" fill="#fff"/>
    </g>
    <g transform="translate(11.904 138.01)">
      <circle cx="154.75" cy="151.61" r="4.3129" fill="#405c72" stroke="#14242f" stroke-linecap="round" stroke-linejoin="round"/>
      <circle cx="154.26" cy="150.89" r="2.4093" fill="#798d9c"/>
      <circle cx="153.84" cy="150.4" r="1.4944" fill="#fff"/>
    </g>
    <g transform="translate(53.998 144.57)">
      <circle cx="154.75" cy="151.61" r="4.3129" fill="#405c72" stroke="#14242f" stroke-linecap="round" stroke-linejoin="round"/>
      <circle cx="154.26" cy="150.89" r="2.4093" fill="#798d9c"/>
      <circle cx="153.84" cy="150.4" r="1.4944" fill="#fff"/>
    </g>
    <g transform="translate(100.41 147.85)">
      <circle cx="154.75" cy="151.61" r="4.3129" fill="#405c72" stroke="#14242f" stroke-linecap="round" stroke-linejoin="round"/>
      <circle cx="154.26" cy="150.89" r="2.4093" fill="#798d9c"/>
      <circle cx="153.84" cy="150.4" r="1.4944" fill="#fff"/>
    </g>
    <g transform="translate(146.29 144.74)">
      <circle cx="154.75" cy="151.61" r="4.3129" fill="#405c72" stroke="#14242f" stroke-linecap="round" stroke-linejoin="round"/>
      <circle cx="154.26" cy="150.89" r="2.4093" fill="#798d9c"/>
      <circle cx="153.84" cy="150.4" r="1.4944" fill="#fff"/>
    </g>
    <g transform="translate(190.63 136.81)">
      <circle cx="154.75" cy="151.61" r="4.3129" fill="#405c72" stroke="#14242f" stroke-linecap="round" stroke-linejoin="round"/>
      <circle cx="154.26" cy="150.89" r="2.4093" fill="#798d9c"/>
      <circle cx="153.84" cy="150.4" r="1.4944" fill="#fff"/>
    </g>
    <circle cx="382.3" cy="274.62" r="4.3129" fill="#405c72" stroke="#14242f" stroke-linecap="round" stroke-linejoin="round"/>
    <circle transform="matrix(.79636 .60483 -.60483 .79636 0 0)" cx="469.72" cy="-12.815" r="2.4093" fill="#798d9c"/>
    <circle transform="matrix(.79636 .60483 -.60483 .79636 0 0)" cx="469.29" cy="-13.303" r="1.4944" fill="#fff"/>
    <circle cx="400.07" cy="253.05" r="4.3129" fill="#405c72" stroke="#14242f" stroke-linecap="round" stroke-linejoin="round"/>
    <circle transform="matrix(.67572 .73715 -.73715 .67572 0 0)" cx="456.01" cy="-124.05" r="2.4093" fill="#798d9c"/>
    <circle transform="matrix(.67572 .73715 -.73715 .67572 0 0)" cx="455.59" cy="-124.54" r="1.4944" fill="#fff"/>
    <circle cx="382.47" cy="233.9" r="4.3129" fill="#405c72" stroke="#14242f" stroke-linecap="round" stroke-linejoin="round"/>
    <circle transform="matrix(.55159 .83411 -.83411 .55159 0 0)" cx="405.2" cy="-190" r="2.4093" fill="#798d9c"/>
    <circle transform="matrix(.55159 .83411 -.83411 .55159 0 0)" cx="404.77" cy="-190.49" r="1.4944" fill="#fff"/>
    <circle cx="352.63" cy="223.03" r="4.3129" fill="#405c72" stroke="#14242f" stroke-linecap="round" stroke-linejoin="round"/>
    <circle transform="matrix(.80163 .59782 -.59782 .80163 0 0)" cx="415.19" cy="-32.308" r="2.4093" fill="#798d9c"/>
    <circle transform="matrix(.80163 .59782 -.59782 .80163 0 0)" cx="414.76" cy="-32.796" r="1.4944" fill="#fff"/>
    <circle cx="146.81" cy="227.86" r="4.3129" fill="#405c72" stroke="#14242f" stroke-linecap="round" stroke-linejoin="round"/>
    <circle cx="146.39" cy="226.96" r="2.4093" fill="#798d9c"/>
    <ellipse cx="145.96" cy="226.47" rx="1.4944" ry="1.6163" fill="#fff"/>
    <g transform="translate(23.117 67.454)">
      <circle cx="154.75" cy="151.61" r="4.3129" fill="#405c72" stroke="#14242f" stroke-linecap="round" stroke-linejoin="round"/>
      <circle cx="154.26" cy="150.89" r="2.4093" fill="#798d9c"/>
      <circle cx="153.84" cy="150.4" r="1.4944" fill="#fff"/>
    </g>
    <g transform="translate(3.2778 -.34503)" stroke="#284760" stroke-linecap="round">
      <path d="m278.66 248.94c0.40315-1.3016 2.975-15.871 2.975-15.871" fill="none" stroke-width="3.1498"/>
      <rect transform="matrix(.9879 .15509 -.15509 .9879 0 0)" x="313.01" y="182.75" width="2.9277" height="2.9277" fill="#284760" stroke-linejoin="round" stroke-width="3"/>
    </g>
    <g transform="matrix(-1 0 0 1 512.66 -.55433)">
      <path d="m340.03 264.55v-24.46h6.5417l-6.5417-6.5417-10.915 1.0351 1.3547 3.7267-1.2474-0.86259 6.8796 3.972v21.993z" fill="#14242f" fill-rule="evenodd"/>
      <ellipse transform="matrix(-.98995 -.14142 0 1 0 0)" cx="-345.35" cy="186.13" rx="16.089" ry="15.928" fill="#405c72" stroke="#14242f" stroke-linecap="round" stroke-linejoin="round" stroke-width=".8285"/>
      <path d="m331.72 221.1 4.2737-1.8604 7.9944-0.10056 5.0279 2.4134 4.8268 4.4246 3.771 6.5866-0.35196 10.257s-3.9721-21.57-25.542-21.721z" fill="#fff" fill-rule="evenodd"/>
      <path d="m328.05 224.77-2.2123 5.9832s0.9553 7.0894 1.0558 7.4413c0.10057 0.35196 3.6704 6.5363 3.6704 6.5363l5.3799 4.2737 5.4302 1.6089 5.7318 0.30167 4.7262-1.9609s-18.05-5.6313-23.782-24.184z" fill="#798d9c" fill-rule="evenodd"/>
      <ellipse transform="matrix(-.98995 -.14142 0 1 0 0)" cx="-345.35" cy="186.13" rx="16.089" ry="15.928" fill="none" stroke="#14242f" stroke-linecap="round" stroke-linejoin="round" stroke-width="1.657"/>
      <path d="m340.38 218.82 1.4932 16.141 3.1073 16.066" fill="none" stroke="#14242f" stroke-linejoin="round" stroke-width="1.6487"/>
      <path d="m325.97 233.54 15.859 1.8034 15.846-0.1342" fill="none" stroke="#14242f" stroke-linejoin="round" stroke-width="1.6487"/>
      <path d="m330.3 222.38 11.581 12.589 13.58 10.263" fill="none" stroke="#14242f" stroke-linejoin="round" stroke-width="1.6487"/>
      <path d="m352.05 224.16-10.216 11.186-9.2879 11.192" fill="none" stroke="#14242f" stroke-linejoin="round" stroke-width="1.6487"/>
      <circle transform="scale(-1,1)" cx="-341.98" cy="234.99" r="3.1625" fill="#284760" stroke="#14242f" stroke-linecap="round" stroke-linejoin="round" stroke-width=".82433"/>
      <circle transform="scale(-1,1)" cx="-342.41" cy="234.54" r="1.6089" fill="#798d9c"/>
      <circle transform="scale(-1,1)" cx="-342.66" cy="234.4" r=".98044" fill="#fff"/>
    </g>
    <ellipse transform="matrix(.59482 .80386 -.78905 .61433 0 0)" cx="280.18" cy="-79.82" rx="5.3146" ry="8.0936" fill="#fff"/>
    <g transform="matrix(.44928 .05403 -.13204 .5129 195.32 153.03)">
      <rect x="235.22" y="350.43" width="84.376" height="38.415" ry="13.72" fill="#405c72"/>
      <path d="m319.6 367.28v4.7188h75.643v-4.7188h-75.643z" color="#000000" color-rendering="auto" fill="#14242f" fill-rule="evenodd" image-rendering="auto" shape-rendering="auto" solid-color="#000000" style="block-progression:tb;isolation:auto;mix-blend-mode:normal;text-decoration-color:#000000;text-decoration-line:none;text-decoration-style:solid;text-indent:0;text-transform:none;white-space:normal"/>
      <circle cx="395.24" cy="369.64" r="5.8656" fill="#fff" stroke="#14242f" stroke-linejoin="round" stroke-width="2"/>
      <ellipse cx="381.84" cy="369.64" rx="3.7134" ry="9.9942" fill="none" stroke="#14242f" stroke-linejoin="round" stroke-width="3.1889"/>
      <ellipse cx="368.38" cy="369.64" rx="4.7638" ry="12.821" fill="none" stroke="#14242f" stroke-linejoin="round" stroke-width="4.0909"/>
      <ellipse cx="351.82" cy="369.64" rx="6.2011" ry="16.689" fill="none" stroke="#14242f" stroke-linejoin="round" stroke-width="5.3252"/>
      <ellipse cx="330.25" cy="369.64" rx="8.1912" ry="22.046" fill="none" stroke="#14242f" stroke-linejoin="round" stroke-width="7.0342"/>
      <path d="m314.43 353.41c1.9763 1.9293 4.035 8.3289 4.035 8.3289l1.7252 13.801-6.7282 10.524-10.351 3.2778-30.191 0.17251-29.673-1.2076-6.3831-6.0381s46.446 14.05 77.566-28.858z" fill="#284760" fill-rule="evenodd"/>
      <path d="m233.59 368.12 4.1404-11.731 5.003-4.4854 13.456-1.3801 54.343 0.69007s-67.627 0-76.943 16.907z" fill="#798d9c" fill-rule="evenodd"/>
      <rect x="235.22" y="350.43" width="84.376" height="38.415" ry="13.72" fill="none" stroke="#14242f" stroke-linejoin="round" stroke-width="4"/>
    </g>
    <path d="m251.96 353.72v-22.341" fill="none" stroke="#14242f" stroke-width="5"/>
    <circle cx="251.96" cy="353.72" r="3.3875" fill="#284760"/>
    <path d="m251.96 349.74c-2.1876 0-3.9736 1.786-3.9736 3.9736s1.786 3.9736 3.9736 3.9736 3.9736-1.786 3.9736-3.9736-1.786-3.9736-3.9736-3.9736zm0 1.1723c1.5541 0 2.8013 1.2472 2.8013 2.8013s-1.2472 2.8013-2.8013 2.8013-2.8013-1.2472-2.8013-2.8013 1.2472-2.8013 2.8013-2.8013z" color="#000000" color-rendering="auto" fill="#14242f" image-rendering="auto" shape-rendering="auto" solid-color="#000000" style="block-progression:tb;isolation:auto;mix-blend-mode:normal;text-decoration-color:#000000;text-decoration-line:none;text-decoration-style:solid;text-indent:0;text-transform:none;white-space:normal"/>
  </g>
</svg>