<?xml version="1.0" encoding="utf-8"?>
<svg enable-background="new 0 0 466.586 310.268" viewBox="0 0 590 590" width="590px" height="590px" xmlns="http://www.w3.org/2000/svg">
  <path d="M 232.003 386.42 C 222.515 387.212 212.89 387.464 202.449 387.572 C 192.052 387.716 178.16 387.464 169.853 386.816 C 161.318 386.204 155.643 385.196 152.147 383.792 C 151.421 384.404 150.74 384.98 150.104 385.124 C 149.332 385.376 148.833 385.376 148.107 385.124 L 147.743 388.868 C 150.376 388.616 152.192 388.868 153.872 389.624 C 155.416 390.488 158.412 392.18 156.914 393.584 C 155.28 395.06 148.288 397.976 144.338 398.3 C 140.207 398.696 134.033 397.04 132.807 395.672 C 131.536 394.304 132.898 392.576 136.893 390.2 C 135.94 389.228 135.486 388.22 135.531 387.176 C 135.577 386.204 136.076 385.196 137.211 384.152 C 132.807 384.08 129.584 381.524 127.359 376.628 C 125.18 371.66 124.454 365.792 123.954 354.74 C 123.228 343.76 123.001 329.431 123.273 311.179 C 118.37 309.415 115.374 306.319 113.785 301.747 C 112.151 297.211 112.196 289.543 114.103 284.035 C 115.919 278.671 119.142 272.982 124.999 269.31 C 130.719 265.638 141.569 262.831 148.788 262.146 C 156.006 261.571 162.18 262.722 167.81 265.747 C 168.127 265.314 169.035 265.026 170.534 264.739 C 172.077 264.522 173.938 264.343 176.617 264.199 C 175.845 258.799 177.661 252.571 182.746 245.514 C 187.74 238.422 195.503 226.254 206.217 221.934 C 216.749 217.794 233.683 216.462 245.623 220.422 C 257.517 224.526 267.641 232.95 276.857 246.09 C 291.067 244.002 305.277 242.742 320.349 241.914 C 335.467 241.229 351.583 241.626 366.247 241.554 C 380.684 241.59 395.166 241.374 406.016 241.734 C 416.502 242.058 424.312 242.886 429.443 243.823 C 427.626 237.846 429.397 232.375 435.118 227.407 C 440.746 222.474 453.414 216.499 463.31 214.195 C 473.207 211.999 484.691 211.566 493.908 214.014 C 502.943 216.642 511.75 223.951 517.016 229.279 C 522.1 234.678 524.415 240.079 524.144 245.875 C 530.863 246.307 539.124 245.695 549.293 244.183 C 559.416 242.635 571.084 240.331 584.66 236.839 C 582.207 241.123 581.254 244.651 581.254 247.963 C 581.301 251.239 582.481 254.011 584.978 256.279 L 570.042 257.394 C 576.169 261.535 580.526 266.323 583.978 271.902 C 587.247 277.663 590.335 285.942 589.744 290.766 C 588.973 295.554 585.614 298.327 580.209 300.199 C 574.717 302.178 567.317 302.934 557.465 302.467 C 559.598 304.303 560.96 307.471 561.551 312.115 C 562.096 316.831 561.869 322.734 560.869 330.222 C 565.409 332.274 568.906 335.55 571.719 340.05 C 574.399 344.73 577.032 352.65 577.167 357.402 C 577.076 362.119 575.26 365.97 572.084 368.131 C 568.859 370.327 564.276 371.191 558.145 370.579 C 556.647 372.235 553.652 373.495 548.976 374.359 C 544.301 375.259 538.125 375.763 530.271 375.871 C 533.222 379.939 533.222 382.927 530.271 385.123 C 527.186 387.355 520.419 389.299 512.249 388.867 C 503.895 388.435 491.139 384.043 481.33 382.639 C 471.433 381.451 459.631 381.883 453.821 381.163 C 447.964 380.443 445.467 379.434 446.329 378.139 C 441.881 378.175 428.76 378.247 406.242 378.355 C 383.497 378.463 352.581 378.643 311.768 378.751 C 309.588 383.287 307.5 386.887 305.321 389.695 C 303.096 392.539 300.826 394.483 298.511 395.527 C 300.781 405.931 303.006 414.607 305.003 422.095 C 306.91 429.619 308.771 435.415 310.406 440.023 C 301.734 440.887 294.289 440.491 287.706 438.691 C 281.033 436.927 280.306 438.295 271 429.475 C 261.603 420.656 248.846 406.579 232.003 386.42 Z" fill-rule="evenodd" stroke="#000" stroke-miterlimit="10" stroke-width=".036" style="" transform="matrix(-1, 0, 0, -1, 702.429764, 652.817123)"/>
  <path d="M 464.424 270.955 C 458.704 271.315 453.846 270.883 448.988 269.659 C 444.085 268.543 442.905 269.551 436.004 263.791 C 428.967 258.103 414.031 242.731 407.675 235.315 C 401.229 227.899 398.005 222.823 397.824 219.691 C 397.506 219.403 399.322 218.827 403.272 217.963 C 407.267 217.171 413.032 216.055 421.25 214.759 C 422.566 219.547 425.018 224.767 429.104 230.815 C 433.099 236.971 439 244.099 445.039 250.795 C 450.94 257.528 457.342 264.152 464.424 270.955 Z" fill="#d0ccc8" fill-rule="evenodd" stroke="#000" stroke-miterlimit="10" stroke-width=".036" style="" transform="matrix(-1, 0, 0, -1, 862.212463, 485.836731)"/>
  <path d="M 421.577 273.703 C 424.392 273.739 426.934 273.487 429.023 272.947 C 431.066 272.479 432.836 271.687 434.153 270.715 L 420.533 270.319 C 420.851 271.436 421.214 272.551 421.577 273.703 Z" fill="#d0ccc8" fill-rule="evenodd" stroke="#000" stroke-miterlimit="10" stroke-width=".036" style="" transform="matrix(-1, 0, 0, -1, 854.686005, 544.025391)"/>
  <path d="M 426.736 231.055 L 416.884 224.827 C 414.206 225.151 411.709 225.403 409.393 225.583 C 406.897 225.835 404.808 225.907 402.629 225.943 C 405.671 235.519 409.575 243.835 414.524 251.035 C 419.29 258.379 429.959 271.123 431.82 269.143 C 433.591 267.055 431.503 257.191 425.374 238.975 C 422.832 239.587 420.562 239.083 417.883 237.067 C 415.159 235.231 410.347 228.967 409.757 227.455 C 409.076 226.051 412.708 227.131 414.524 228.211 C 416.385 229.435 418.292 232.999 420.607 234.043 C 422.695 235.051 424.965 235.123 427.417 234.259 C 427.19 233.215 426.963 232.135 426.736 231.055 Z" fill="#c0c0c0" fill-rule="evenodd" stroke="#000" stroke-miterlimit="10" stroke-width=".036" style="" transform="matrix(-1, 0, 0, -1, 835.056396, 494.17627)"/>
  <path d="M 174.927 269.617 C 174.336 270.373 177.469 270.877 182.052 271.129 C 186.595 271.453 194.676 271.057 202.118 271.885 C 209.429 272.965 218.825 276.061 225.909 276.997 C 232.899 278.005 239.709 278.473 243.886 277.573 C 247.882 276.709 250.332 273.505 250.014 271.705 C 249.469 270.049 247.926 267.601 241.524 266.989 C 234.852 266.449 221.14 267.961 211.608 267.925 C 202.073 267.961 191.268 266.377 185.141 266.629 C 178.831 266.989 175.424 268.861 174.927 269.617 Z" fill="#128080" fill-rule="evenodd" stroke="#000" stroke-miterlimit="10" stroke-width=".036" style="" transform="matrix(-1, 0, 0, -1, 424.897125, 544.6539)"/>
  <path d="M 228.753 407.893 C 218.901 408.073 209.322 408.145 199.516 408.253 C 189.619 408.433 179.404 408.721 170.279 408.433 C 161.063 408.145 152.982 407.569 145.174 406.561 L 145.855 398.461 C 147.897 397.885 150.44 396.697 153.663 395.041 C 156.886 393.529 162.198 392.413 164.877 388.633 C 167.374 384.817 168.554 379.597 168.599 372.433 C 170.279 375.061 173.956 377.473 179.813 379.956 C 185.76 382.477 194.976 386.112 203.602 387.12 C 212.091 388.129 223.622 387.553 230.114 386.364 C 236.38 385.248 242.281 381.144 240.965 380.713 C 239.421 380.425 228.707 384.276 221.262 384.492 C 213.635 384.852 204.782 384.996 196.474 382.404 C 188.075 379.848 179.041 375.024 172.004 369.049 C 164.967 363.074 158.248 352.849 154.662 346.981 C 150.985 341.221 149.577 337.261 150.258 334.705 C 154.662 334.957 158.339 334.598 161.472 333.481 C 164.604 332.401 166.965 330.96 168.917 328.189 C 170.915 325.489 172.004 322.285 172.685 317.46 C 173.048 312.708 172.867 304.213 171.641 299.748 C 170.37 295.356 168.281 292.513 165.194 291.072 C 166.783 289.776 168.826 289.381 171.323 289.74 C 173.775 290.173 177.77 290.136 179.813 293.52 C 181.674 297.192 182.037 304.14 182.854 310.476 C 183.49 316.74 182.264 324.875 184.58 330.852 C 186.895 336.972 190.845 342.66 197.155 346.512 C 203.556 350.436 214.861 353.856 222.306 353.856 C 229.57 353.82 236.561 351.156 240.647 346.692 C 244.506 342.337 244.143 336.253 246.413 328.008 C 248.637 319.907 252.405 305.004 254.221 298.02 C 255.81 291.144 254.857 290.244 256.627 286.428 C 258.443 282.648 259.578 278.22 264.754 275.484 C 269.793 272.964 272.381 271.74 286.863 270.408 C 301.345 269.04 331.671 267.888 351.057 267.385 C 370.306 267.133 388.828 267.637 401.721 268.321 C 414.388 268.969 420.153 269.041 426.872 271.165 C 433.454 273.506 437.222 276.602 441.126 281.714 C 444.804 286.934 446.757 294.386 449.616 301.73 C 452.386 309.11 455.156 318.758 458.469 325.274 C 461.74 331.898 463.781 337.334 469.32 340.754 C 474.765 344.174 485.345 347.233 491.428 345.65 C 497.465 344.102 502.687 337.118 505.684 331.502 C 508.497 326.03 508.18 319.551 509.088 313.034 C 509.997 306.662 510.315 298.635 511.45 293.414 C 512.63 288.374 512.948 284.774 515.898 282.471 C 518.805 280.275 526.795 279.483 528.11 279.662 C 529.11 280.022 524.162 281.57 522.345 283.622 C 520.394 285.566 517.805 287.042 517.214 291.542 C 516.535 296.223 515.943 306.158 518.941 311.343 C 521.892 316.599 530.473 320.378 535.239 322.826 C 539.87 325.347 544.138 324.698 546.816 326.427 C 549.405 328.227 549.767 328.479 550.537 333.591 C 551.219 338.883 550.675 349.574 550.857 357.351 C 550.946 365.235 551.356 374.019 550.857 379.958 C 550.175 385.935 551.402 389.643 546.816 392.594 C 542.094 395.618 534.104 397.274 522.664 397.706 C 520.622 396.158 517.172 395.438 512.131 395.258 C 506.956 395.186 500.146 396.95 492.429 396.95 C 484.619 397.058 475.087 395.114 466.28 395.438 C 457.426 395.834 448.71 396.986 439.766 399.038 C 403.174 399.362 371.079 399.542 341.887 399.578 C 312.605 399.722 286.592 399.722 266.117 399.578 C 245.551 399.614 234.519 399.326 220.264 399.11 C 205.873 398.858 191.481 398.534 181.494 397.994 C 171.551 397.526 163.47 396.05 161.11 396.086 C 158.613 396.338 158.84 397.778 167.239 398.75 C 175.683 399.866 196.657 401.09 211.094 401.738 C 225.44 402.386 238.968 402.386 252.543 402.134 C 244.642 404.041 236.697 405.948 228.753 407.893 Z" fill="#2cb0cf" fill-rule="evenodd" stroke="#000" stroke-miterlimit="10" stroke-width=".036" style="" transform="matrix(-1, 0, 0, -1, 696.273895, 675.874207)"/>
  <path d="M 557.229 340.882 C 556.548 338.218 555.64 335.626 554.868 332.962 C 554.005 330.406 553.097 327.778 552.144 325.222 L 547.059 325.403 C 547.422 326.987 547.649 328.859 547.377 330.875 C 547.195 332.963 546.514 335.339 545.697 337.859 C 546.469 336.707 547.831 336.491 549.783 336.922 C 551.781 337.499 554.096 338.722 557.229 340.882 Z" fill="#2cb0cf" fill-rule="evenodd" stroke="#000" stroke-miterlimit="10" stroke-width=".036" style="" transform="matrix(-1, 0, 0, -1, 1102.926025, 666.103973)"/>
  <path d="M 561.39 320.866 L 567.836 320.686 C 568.245 323.386 568.472 325.871 568.517 328.426 C 568.472 330.946 568.245 333.394 567.836 335.77 C 566.883 335.554 565.703 335.806 564.477 336.526 C 563.16 337.318 561.617 338.578 560.028 340.306 C 559.074 338.038 558.802 335.266 559.029 331.99 C 559.256 328.679 559.982 325.15 561.39 320.866 Z" fill="#c0c0c0" fill-rule="evenodd" stroke="#000" stroke-miterlimit="10" stroke-width=".036" style="" transform="matrix(-1, 0, 0, -1, 1127.470581, 660.992004)"/>
  <path d="M 532.076 281.085 C 536.752 283.677 540.429 286.809 543.289 290.877 C 546.195 294.981 548.692 300.597 549.055 305.205 C 549.146 309.921 547.148 315.356 544.288 318.597 C 541.382 321.873 537.206 323.889 531.758 324.645 C 533.801 318.489 534.981 312.513 535.481 306.717 C 535.935 300.921 534.89 294.549 534.436 290.121 C 533.846 285.873 533.12 282.812 532.076 281.085 Z" fill="#c0c0c0" fill-rule="evenodd" stroke="#000" stroke-miterlimit="10" stroke-width=".036" style="" transform="matrix(-1, 0, 0, -1, 1080.815979, 605.72998)"/>
  <path d="M 548.431 325.416 C 548.249 323.364 550.655 319.116 551.473 313.356 C 552.154 307.632 552.426 296.904 552.835 291.468 C 553.152 286.176 553.198 283.872 553.516 281.496 C 553.652 279.191 553.47 277.859 554.197 277.895 C 555.014 278.147 556.603 277.823 557.919 282.611 C 559.054 287.615 560.825 300.359 560.961 306.947 C 560.87 313.535 559.69 318.575 558.282 321.672 C 556.739 324.768 554.106 325.056 552.471 325.596 C 550.746 326.352 548.522 327.396 548.431 325.416 Z" fill="#c0c0c0" fill-rule="evenodd" stroke="#000" stroke-miterlimit="10" stroke-width=".036" style="" transform="matrix(-1, 0, 0, -1, 1109.382263, 604.450439)"/>
  <path d="M 567.402 323.228 C 565.677 323.336 563.271 316.748 561.954 311.528 C 560.592 306.344 558.458 297.883 559.593 292.664 C 560.728 287.552 566.358 282.332 568.446 281.181 C 570.262 280.208 570.625 281.756 571.125 286.653 C 571.488 291.8 571.715 304.76 571.125 310.953 C 570.489 317.181 568.9 323.084 567.402 323.228 Z" fill="#f7f619" fill-rule="evenodd" stroke="#000" stroke-miterlimit="10" stroke-width=".036" style="" transform="matrix(-1, 0, 0, -1, 1130.759216, 604.134338)"/>
  <path d="M 552.491 276.417 L 552.808 269.253 C 553.535 269.613 554.942 269.937 556.531 269.829 C 558.12 269.829 560.163 269.577 562.66 269.073 C 563.386 272.421 562.932 274.581 561.298 275.841 C 559.482 277.028 556.713 277.316 552.491 276.417 Z" fill="#c0c0c0" fill-rule="evenodd" stroke="#000" stroke-miterlimit="10" stroke-width=".036" style="" transform="matrix(-1, 0, 0, -1, 1115.486023, 546.017487)"/>
  <path d="M 557.341 267.522 C 556.615 266.694 556.388 265.938 556.66 265.254 C 556.887 264.642 558.204 263.886 558.703 263.562 C 559.021 263.31 559.021 263.31 558.703 263.562 L 563.47 263.562 L 562.789 266.946 C 560.973 267.126 559.157 267.306 557.341 267.522 Z" fill="#c0c0c0" fill-rule="evenodd" stroke="#000" stroke-miterlimit="10" stroke-width=".036" style="" transform="matrix(-1, 0, 0, -1, 1120.018738, 530.894989)"/>
  <path d="M 554.988 256.378 C 556.85 255.91 561.48 255.91 563.115 256.378 C 564.704 256.954 565.748 258.502 564.477 259.366 C 563.024 260.302 556.713 261.706 554.625 261.634 C 552.446 261.634 551.493 260.122 551.583 259.186 C 551.583 258.322 552.945 256.919 554.988 256.378 Z" fill="#c0c0c0" fill-rule="evenodd" stroke="#000" stroke-miterlimit="10" stroke-width=".036" style="" transform="matrix(-1, 0, 0, -1, 1116.621582, 517.663666)"/>
  <path d="M 571.619 272.769 L 568.804 274.353 C 567.17 273.777 565.99 273.129 565.445 272.553 C 564.764 272.013 564.673 271.401 565.172 270.861 L 570.847 270.861 C 571.074 271.472 571.347 272.12 571.619 272.769 Z" fill="#c0c0c0" fill-rule="evenodd" stroke="#000" stroke-miterlimit="10" stroke-width=".036" style="" transform="matrix(-1, 0, 0, -1, 1136.474487, 545.213989)"/>
  <path d="M 568.511 288.324 C 568.556 287.928 568.556 287.352 568.511 286.74 C 568.466 286.164 568.375 285.552 568.239 284.761 C 571.28 284.725 573.323 284.977 574.549 285.372 C 575.593 285.877 576.319 286.993 575.321 287.46 C 574.186 288.001 572.097 288.289 568.511 288.324 Z" fill="#c0c0c0" fill-rule="evenodd" stroke="#000" stroke-miterlimit="10" stroke-width=".036" style="" transform="matrix(-1, 0, 0, -1, 1144.0354, 573.081573)"/>
  <path d="M 570.889 293.613 C 570.798 293.325 570.662 292.714 570.662 292.174 C 570.571 291.526 570.526 290.949 570.526 290.05 L 574.611 289.762 C 575.61 290.554 576.11 291.31 576.291 291.886 C 576.337 292.57 576.064 293.074 575.292 293.541 C 573.84 293.541 572.387 293.577 570.889 293.613 Z" fill="#c0c0c0" fill-rule="evenodd" stroke="#000" stroke-miterlimit="10" stroke-width=".036" style="" transform="matrix(-1, 0, 0, -1, 1146.821899, 583.375)"/>
  <path d="M 572.115 300.165 C 572.115 299.877 571.888 299.265 571.933 298.725 C 571.842 298.078 571.797 297.501 571.797 296.601 L 575.156 296.313 C 576.019 297.105 576.428 297.862 576.564 298.437 C 576.609 299.122 576.382 299.625 575.701 300.093 C 574.521 300.092 573.34 300.129 572.115 300.165 Z" fill="#c0c0c0" fill-rule="evenodd" stroke="#000" stroke-miterlimit="10" stroke-width=".036" style="" transform="matrix(-1, 0, 0, -1, 1148.366516, 596.477997)"/>
  <path d="M 572.994 305.601 C 572.858 305.278 572.858 304.809 572.813 304.198 C 572.767 303.622 572.676 302.902 572.722 302.038 L 575.718 301.75 C 576.445 302.614 576.853 303.334 576.944 303.91 C 576.944 304.594 576.808 305.134 576.172 305.53 C 575.128 305.53 574.084 305.566 572.994 305.601 Z" fill="#c0c0c0" fill-rule="evenodd" stroke="#000" stroke-miterlimit="10" stroke-width=".036" style="" transform="matrix(-1, 0, 0, -1, 1149.65332, 607.351013)"/>
  <path d="M 567.739 284.329 C 567.785 283.933 567.785 283.357 567.739 282.745 C 567.694 282.169 567.603 281.557 567.467 280.765 C 570.508 280.729 572.551 280.981 573.777 281.377 C 574.821 281.881 575.548 282.997 574.549 283.465 C 573.414 284.006 571.326 284.294 567.739 284.329 Z" fill="#c0c0c0" fill-rule="evenodd" stroke="#000" stroke-miterlimit="10" stroke-width=".036" style="" transform="matrix(-1, 0, 0, -1, 1142.491821, 565.090607)"/>
  <path d="M 566.424 279.357 C 566.469 278.925 566.469 278.457 566.424 277.809 C 566.378 277.269 566.242 276.549 566.197 275.793 C 569.284 275.829 571.145 276.045 572.462 276.441 C 573.506 276.945 574.232 278.097 573.233 278.493 C 572.098 279.032 570.01 279.321 566.424 279.357 Z" fill="#c0c0c0" fill-rule="evenodd" stroke="#000" stroke-miterlimit="10" stroke-width=".036" style="" transform="matrix(-1, 0, 0, -1, 1139.906128, 555.149994)"/>
  <path d="M 573.308 310.497 C 573.217 310.137 573.081 309.705 573.081 309.057 C 573.036 308.482 572.945 307.761 572.99 306.898 L 576.35 306.645 C 577.122 307.438 577.576 308.194 577.712 308.769 C 577.757 309.454 577.485 309.994 576.895 310.389 L 573.308 310.497 Z" fill="#c0c0c0" fill-rule="evenodd" stroke="#000" stroke-miterlimit="10" stroke-width=".036" style="" transform="matrix(-1, 0, 0, -1, 1150.694641, 617.141998)"/>
  <path d="M 572.288 315.573 C 572.198 315.285 572.061 314.674 572.061 314.134 C 571.971 313.486 571.925 312.909 571.925 312.01 L 576.011 311.722 C 577.01 312.514 577.509 313.27 577.691 313.846 C 577.782 314.53 577.373 315.034 576.647 315.501 C 575.194 315.501 573.741 315.537 572.288 315.573 Z" fill="#c0c0c0" fill-rule="evenodd" stroke="#000" stroke-miterlimit="10" stroke-width=".036" style="" transform="matrix(-1, 0, 0, -1, 1149.62854, 627.294983)"/>
  <path d="M 571.596 320.721 C 571.414 320.397 571.369 319.929 571.278 319.317 C 571.187 318.741 571.142 318.021 571.142 317.157 L 575.864 316.869 C 577.044 317.733 577.634 318.453 577.816 319.029 C 577.952 319.713 577.498 320.253 576.635 320.649 C 574.956 320.649 573.276 320.685 571.596 320.721 Z" fill="#c0c0c0" fill-rule="evenodd" stroke="#000" stroke-miterlimit="10" stroke-width=".036" style="" transform="matrix(-1, 0, 0, -1, 1148.981812, 637.589996)"/>
  <path d="M 571.427 326.697 C 571.291 326.409 571.2 325.798 571.155 325.258 C 571.064 324.61 571.018 324.033 571.018 323.134 L 575.74 322.846 C 576.92 323.638 577.51 324.394 577.692 324.97 C 577.783 325.654 577.374 326.158 576.466 326.625 C 574.786 326.625 573.107 326.661 571.427 326.697 Z" fill="#c0c0c0" fill-rule="evenodd" stroke="#000" stroke-miterlimit="10" stroke-width=".036" style="" transform="matrix(-1, 0, 0, -1, 1148.722473, 649.542999)"/>
  <path d="M 571.732 332.133 C 571.551 331.809 571.505 331.341 571.414 330.729 C 571.324 330.153 571.278 329.433 571.278 328.569 L 576 328.281 C 577.18 329.145 577.77 329.865 577.952 330.441 C 578.088 331.126 577.634 331.665 576.771 332.061 C 575.092 332.061 573.412 332.097 571.732 332.133 Z" fill="#c0c0c0" fill-rule="evenodd" stroke="#000" stroke-miterlimit="10" stroke-width=".036" style="" transform="matrix(-1, 0, 0, -1, 1149.253845, 660.414001)"/>
  <path d="M 570.824 337.605 C 570.643 337.317 570.597 336.706 570.507 336.166 C 570.416 335.518 570.37 334.941 570.37 334.042 L 575.092 333.754 C 576.272 334.546 576.862 335.302 577.044 335.878 C 577.18 336.562 576.726 337.066 575.864 337.534 C 574.184 337.534 572.504 337.57 570.824 337.605 Z" fill="#c0c0c0" fill-rule="evenodd" stroke="#000" stroke-miterlimit="10" stroke-width=".036" style="" transform="matrix(-1, 0, 0, -1, 1147.437805, 671.359009)"/>
  <path d="M 541.145 387.109 C 535.516 386.676 535.062 385.669 532.973 382.968 C 530.658 380.34 527.435 377.136 528.207 371.268 C 528.978 365.508 531.112 353.161 537.74 348.264 C 544.232 343.512 559.804 341.785 567.295 342.397 C 574.604 343.081 579.008 346.428 581.913 352.044 C 584.637 357.984 586.816 370.836 584.274 376.561 C 581.505 382.285 573.469 384.012 566.296 385.777 C 558.896 387.577 546.775 387.649 541.145 387.109 Z" fill="#c0c0c0" fill-rule="evenodd" stroke="#000" stroke-miterlimit="10" stroke-width=".036" style="" transform="matrix(-1, 0, 0, -1, 1113.491638, 729.682129)"/>
  <path d="M 130.202 391.966 C 126.842 390.311 124.074 388.403 122.077 384.983 C 119.989 381.491 118.265 375.947 118.309 371.411 C 118.353 367.056 118.671 361.583 122.757 358.596 C 126.889 355.68 136.016 353.736 142.779 353.879 C 149.542 354.131 156.988 354.923 162.48 359.711 C 167.793 364.68 173.512 377.531 174.377 383.111 C 175.013 388.727 172.468 391.139 166.932 393.119 C 161.348 395.171 147.592 395.64 141.418 395.351 C 135.197 395.099 133.379 393.874 130.202 391.966 Z" fill="#c0c0c0" fill-rule="evenodd" stroke="#000" stroke-miterlimit="10" stroke-width=".036" style="" transform="matrix(-1, 0, 0, -1, 292.780739, 749.300293)"/>
  <path d="M 125.124 411.44 C 136.336 411.008 145.96 410.828 154.36 410.9 C 162.668 410.972 169.522 411.332 175.106 411.837 C 173.382 408.2 172.7 405.429 173.065 402.981 C 173.382 400.641 174.744 398.985 177.151 397.869 C 169.705 399.957 161.715 401.613 152.681 402.981 C 143.556 404.313 133.886 405.357 123.126 405.969 C 123.762 407.769 124.441 409.605 125.124 411.44 Z" fill="#c0c0c0" fill-rule="evenodd" stroke="#000" stroke-miterlimit="10" stroke-width=".036" style="" transform="matrix(-1, 0, 0, -1, 300.277, 809.705994)"/>
  <path d="M 67.253 405.648 C 62.576 405.792 59.128 405.36 56.721 403.956 C 54.224 402.66 52.271 399.564 52.953 397.728 C 53.588 395.999 56.266 394.56 60.808 393.408 C 54.224 387.252 52.182 382.86 54.678 380.376 C 57.174 377.892 63.895 377.316 75.38 378.504 C 82.644 374.076 87.912 372.492 91.36 373.608 C 94.72 374.796 96.264 378.755 95.81 385.488 C 101.712 387.288 105.615 389.52 108.023 392.472 C 110.382 395.532 111.109 401.364 109.702 403.02 C 108.067 404.676 104.39 404.423 98.488 402.264 C 101.847 405.108 103.891 407.915 104.618 410.543 C 105.116 413.243 104.253 417.167 102.574 418.283 C 100.894 419.435 98.352 419.075 94.766 417.347 C 92.224 418.714 89.453 419.29 86.956 418.679 C 84.414 418.175 81.646 416.662 79.149 414.143 C 74.292 416.086 70.388 416.735 67.255 416.231 C 63.986 415.691 60.492 413.063 60.445 411.119 C 60.444 409.32 62.715 407.592 67.253 405.648 Z" fill-rule="evenodd" stroke="#000" stroke-miterlimit="10" stroke-width=".036" style="" transform="matrix(-1, 0, 0, -1, 163.232567, 792.212769)"/>
  <path d="M 74.009 403.83 C 68.017 404.694 63.66 404.586 60.753 403.65 C 57.711 402.713 55.76 400.013 56.667 398.177 C 57.62 396.449 60.845 394.865 66.52 393.281 C 59.71 387.665 57.395 383.957 59.392 381.76 C 61.39 379.6 67.838 379.348 78.732 380.609 C 84.725 376.756 89.037 375.569 91.671 376.649 C 94.26 377.837 95.168 381.437 94.394 387.592 C 99.39 389.357 102.84 391.12 104.927 393.28 C 106.88 395.548 108.424 398.968 106.607 400.228 C 104.656 401.452 100.526 401.631 93.715 400.624 C 96.348 402.1 98.209 404.044 99.48 406.456 C 100.569 409.012 101.658 414.052 100.842 415.312 C 99.977 416.572 97.891 416.068 94.394 413.799 C 93.35 415.635 92.035 416.283 89.947 415.887 C 87.858 415.419 85.316 414.087 82.139 411.351 C 76.509 414.051 72.379 415.131 69.563 415.131 C 66.656 415.024 64.705 413.043 65.477 410.991 C 66.245 409.122 68.969 406.782 74.009 403.83 Z" fill="#c0c0c0" fill-rule="evenodd" stroke="#000" stroke-miterlimit="10" stroke-width=".036" style="" transform="matrix(-1, 0, 0, -1, 163.859344, 792.267029)"/>
  <path d="M 429.457 369.107 C 428.73 367.703 429.321 364.643 431.409 359.783 C 433.27 354.959 435.676 346.138 441.624 340.415 C 447.662 334.763 457.695 327.779 467.319 325.979 C 476.944 324.323 489.02 326.05 498.281 330.334 C 507.179 334.762 514.761 341.89 521.026 352.114 C 514.216 355.174 509.449 358.99 506.544 363.994 C 503.684 368.998 504.909 374.218 503.547 381.886 C 501.913 389.626 499.598 402.443 497.282 410.038 C 494.831 417.742 493.832 423.97 489.383 427.606 C 484.707 431.206 476.354 432.538 470.27 431.998 C 464.232 431.638 458.103 428.866 453.473 425.23 C 448.751 421.738 444.438 417.238 442.305 410.614 C 440.08 403.954 440.534 391.966 439.989 385.918 C 439.217 380.086 439.717 378.178 437.992 375.334 C 436.13 372.563 433.452 370.439 429.457 369.107 Z" fill="#404040" fill-rule="evenodd" stroke="#000" stroke-miterlimit="10" stroke-width=".036" style="" transform="matrix(-1, 0, 0, -1, 950.185913, 757.471985)"/>
  <path d="M 450.612 370.095 C 450.021 366.459 450.021 366.387 450.975 363.507 C 451.837 360.663 452.019 355.406 455.878 353.282 C 459.555 351.303 468.181 349.719 473.356 351.446 C 478.486 353.282 484.978 358.503 486.522 364.047 C 487.838 369.698 485.614 380.103 481.937 384.711 C 478.169 389.427 469.361 391.515 464.776 391.658 C 460.1 391.766 456.922 389.138 454.561 385.43 C 452.2 381.866 451.066 373.839 450.612 370.095 Z" fill-rule="evenodd" stroke="#000" stroke-miterlimit="10" stroke-width=".036" style="" transform="matrix(-1, 0, 0, -1, 937.109619, 742.368134)"/>
  <path d="M 453.803 369.307 C 453.167 365.994 453.258 365.958 454.075 363.367 C 454.802 360.847 455.256 355.771 458.57 354.115 C 461.839 352.603 469.239 352.099 473.597 353.719 C 477.864 355.41 482.677 359.046 483.812 363.799 C 484.629 368.731 482.041 377.983 479.181 382.231 C 476.185 386.515 470.237 388.71 466.605 388.819 C 462.747 388.963 459.614 386.623 457.389 383.203 C 455.21 380.034 454.302 372.618 453.803 369.307 Z" fill="#c0c0c0" fill-rule="evenodd" stroke="#000" stroke-miterlimit="10" stroke-width=".036" style="" transform="matrix(-1, 0, 0, -1, 937.350555, 741.543945)"/>
  <path d="M 181.887 361.243 C 180.707 360.703 180.525 359.263 181.525 356.527 C 182.251 353.863 184.114 348.714 187.471 345.367 C 190.968 342.199 196.552 339.355 202.271 337.123 C 207.811 334.963 213.621 332.731 220.748 332.371 C 227.876 332.119 237.184 332.299 244.448 335.287 C 251.573 338.491 258.839 344.359 263.24 350.659 C 267.465 356.959 269.597 364.231 269.824 372.763 C 266.6 373.52 264.467 375.787 262.878 379.711 C 261.289 383.779 261.064 390.619 260.607 396.343 C 260.109 402.104 260.472 408.224 259.61 413.732 C 258.609 419.312 257.248 425.576 254.661 429.463 C 251.801 433.423 247.715 436.051 243.446 436.951 C 239.18 437.851 233.594 436.699 229.646 434.755 C 225.651 432.919 223.109 431.516 219.749 425.971 C 216.253 420.572 212.212 409.736 209.532 402.211 C 206.855 394.759 206.628 387.487 203.586 381.367 C 200.318 375.427 194.051 370.027 190.422 366.571 C 186.791 363.187 183.885 361.458 181.887 361.243 Z" fill="#404040" fill-rule="evenodd" stroke="#000" stroke-miterlimit="10" stroke-width=".036" style="" transform="matrix(-1, 0, 0, -1, 450.699814, 769.552338)"/>
  <path d="M 201.961 372.112 C 201.235 368.476 201.416 368.404 202.326 365.524 C 203.143 362.68 203.506 357.424 207.274 355.3 C 210.996 353.32 219.486 351.736 224.707 353.464 C 229.837 355.3 236.328 360.52 237.872 366.064 C 239.189 371.716 236.962 382.121 233.285 386.728 C 229.52 391.444 220.711 393.533 216.126 393.676 C 211.404 393.748 208.362 391.228 205.956 387.484 C 203.462 383.957 202.597 375.785 201.961 372.112 Z" fill-rule="evenodd" stroke="#000" stroke-miterlimit="10" stroke-width=".036" style="" transform="matrix(-1, 0, 0, -1, 439.766754, 746.401794)"/>
  <path d="M 205.109 371.322 C 204.473 368.01 204.564 367.974 205.383 365.383 C 206.109 362.862 206.563 357.786 209.877 356.131 C 213.146 354.618 220.544 354.114 224.904 355.735 C 229.17 357.427 233.982 361.063 235.119 365.815 C 235.936 370.748 233.348 380 230.488 384.248 C 227.49 388.531 221.544 390.727 217.911 390.836 C 214.054 390.98 210.921 388.64 208.697 385.22 C 206.518 382.051 205.61 374.635 205.109 371.322 Z" fill="#c0c0c0" fill-rule="evenodd" stroke="#000" stroke-miterlimit="10" stroke-width=".036" style="" transform="matrix(-1, 0, 0, -1, 439.96373, 745.576202)"/>
  <path d="M 425.403 268.918 C 423.178 269.35 421.363 269.638 419.456 269.386 C 417.413 269.314 415.551 269.35 414.371 267.946 C 413.236 266.542 412.737 264.31 412.873 261.106 C 411.693 261.286 410.921 260.926 410.194 260.17 C 409.332 259.414 408.605 257.83 408.696 256.39 C 408.832 254.95 409.468 253.582 410.785 251.89 C 408.197 251.854 406.971 251.098 406.608 249.766 C 406.245 248.398 406.063 244.978 409.014 243.826 C 411.92 242.818 416.823 242.746 423.905 243.61 C 424.086 246.958 424.223 249.982 424.495 253.078 C 424.722 256.246 425.085 259.486 425.403 261.826 C 425.585 264.166 425.902 265.894 425.993 267.01 C 426.039 268.27 425.721 268.774 425.403 268.918 Z" fill-rule="evenodd" stroke="#000" stroke-miterlimit="10" stroke-width=".036" style="" transform="matrix(-1, 0, 0, -1, 832.407257, 512.491852)"/>
  <path d="M 413.168 267.757 C 414.439 267.397 415.891 265.273 417.889 264.877 C 419.705 264.553 422.747 265.813 423.882 265.453 C 424.88 265.201 425.289 263.509 423.882 263.005 C 422.338 262.609 417.163 262.465 414.983 262.717 C 412.532 263.077 411.034 264.265 410.307 265.021 C 409.672 265.957 410.307 267.145 410.988 267.613 C 411.397 268.118 411.942 268.262 413.168 267.757 Z" fill="#e2b79c" fill-rule="evenodd" stroke="#000" stroke-miterlimit="10" stroke-width=".036" style="" transform="matrix(-1, 0, 0, -1, 834.835419, 530.662994)"/>
  <path d="M 284.025 159.087 C 285.478 159.159 286.749 158.727 288.02 157.791 C 289.201 156.927 290.699 155.739 291.471 153.651 C 292.152 151.563 292.379 149.007 292.152 145.587 L 298.871 142.167 C 299.869 144.687 300.959 147.603 302.321 150.771 C 303.592 154.155 305.09 158.439 306.815 161.535 C 308.586 164.631 310.402 167.763 312.626 168.843 C 314.624 169.923 316.803 169.635 319.164 167.979 C 326.564 171.435 332.92 175.359 338.731 179.607 C 344.542 183.927 349.263 188.571 353.576 193.683 L 356.3 195.411 C 355.982 196.059 356.709 199.803 358.661 206.499 C 360.567 213.303 363.518 223.059 367.695 235.911 C 364.381 237.027 362.156 238.755 360.658 240.951 C 359.16 243.363 357.98 247.899 358.842 249.411 C 359.614 250.887 363.473 250.707 365.516 249.699 C 367.377 248.762 369.012 246.891 370.419 243.939 C 369.92 248.259 370.101 252.651 370.782 257.115 C 371.418 261.687 372.734 267.951 374.55 270.903 C 376.275 274.035 380.271 277.131 381.451 275.043 C 382.54 272.847 382.54 267.303 381.269 257.979 C 384.129 263.415 386.49 267.051 388.851 268.887 C 391.075 270.723 394.117 270.399 394.843 269.031 C 395.252 267.807 393.936 265.179 392.482 261.435 C 391.074 257.691 389.213 252.939 386.716 246.783 C 390.121 251.643 393.253 254.846 395.749 256.395 C 398.246 258.051 400.879 257.223 401.923 256.251 C 402.832 255.315 402.923 253.083 401.696 250.815 C 400.378 248.655 397.975 246.207 394.296 243.327 C 398.11 244.731 401.061 245.163 403.332 244.911 C 405.691 244.623 407.371 243.003 407.689 241.599 C 407.689 240.303 406.009 238.683 403.694 237.171 C 401.105 235.839 396.383 235.695 393.207 233.283 C 390.029 230.835 388.077 228.639 384.535 222.807 C 380.813 217.083 373.731 205.347 371.143 199.263 C 368.419 193.287 367.511 189.327 368.419 187.095 C 370.643 187.203 371.733 186.627 371.869 185.223 C 371.96 183.927 370.235 181.947 369.145 178.887 C 367.92 175.899 366.875 172.623 364.969 166.971 C 362.88 161.319 359.521 151.239 357.523 145.047 C 355.571 138.891 354.209 134.103 353.437 130.287 L 298.323 130.287 C 295.554 129.999 293.33 130.539 291.15 131.907 C 289.107 133.383 287.292 136.479 285.703 138.567 C 283.932 140.619 282.298 142.491 280.618 144.183 C 281.755 149.15 282.89 154.119 284.025 159.087 Z" fill-rule="evenodd" stroke="#000" stroke-miterlimit="10" stroke-width=".036" style="" transform="matrix(-1, 0, 0, -1, 688.307007, 405.935654)"/>
  <path d="M 411.406 256.428 C 410.226 256.14 410.09 254.664 409.953 253.116 C 409.636 251.568 408.818 248.832 409.953 247.392 C 410.952 246.168 414.811 243.972 416.128 245.232 C 417.217 246.672 417.989 253.26 417.217 255.132 C 416.264 257.039 412.632 256.824 411.406 256.428 Z" fill="#e2b79c" fill-rule="evenodd" stroke="#000" stroke-miterlimit="10" stroke-width=".036" style="" transform="matrix(-1, 0, 0, -1, 826.89975, 501.549332)"/>
  <path d="M 414.755 262.505 C 415.754 261.965 416.435 260.165 417.843 259.049 C 419.205 258.077 422.065 257.537 422.564 256.601 C 422.927 255.773 421.384 253.577 420.022 253.757 C 418.342 254.081 414.937 256.673 413.484 258.041 C 411.986 259.517 411.26 261.137 411.487 261.929 C 411.668 262.722 413.575 263.045 414.755 262.505 Z" fill="#e2b79c" fill-rule="evenodd" stroke="#000" stroke-miterlimit="10" stroke-width=".036" style="" transform="matrix(-1, 0, 0, -1, 834.063934, 516.518539)"/>
  <path d="M 399.108 260.546 C 399.471 261.05 400.606 259.79 401.287 258.566 C 401.786 257.45 402.967 255.362 402.921 253.814 C 402.694 252.266 401.559 250.502 400.742 249.782 C 399.744 249.242 398.245 249.386 397.837 250.358 C 397.383 251.474 398.155 253.85 398.382 255.542 C 398.472 257.378 398.654 259.97 399.108 260.546 Z" fill="#e2b79c" fill-rule="evenodd" stroke="#000" stroke-miterlimit="10" stroke-width=".036" style="" transform="matrix(-1, 0, 0, -1, 800.618835, 510.130524)"/>
  <path d="M 393.203 273.623 C 395.019 273.083 396.336 272.327 397.334 271.751 C 398.242 271.211 398.787 270.455 398.969 269.879 C 398.605 266.963 398.242 264.803 397.698 263.687 C 397.107 262.607 396.517 262.283 395.745 263.003 C 394.974 262.463 394.111 262.643 393.339 263.543 C 392.477 264.551 391.705 266.099 390.842 268.583 C 391.16 269.159 391.523 269.735 391.932 270.599 C 392.34 271.463 392.704 272.472 393.203 273.623 Z" fill="#e2b79c" fill-rule="evenodd" stroke="#000" stroke-miterlimit="10" stroke-width=".036" style="" transform="matrix(-1, 0, 0, -1, 789.811005, 536.240814)"/>
  <path d="M 318.885 215.16 C 319.112 217.428 319.838 220.452 321.246 224.664 C 322.517 228.912 325.196 235.968 327.011 240.144 C 328.737 244.356 330.371 247.884 331.915 249.468 C 333.413 251.124 334.502 250.152 335.91 250.044 C 337.181 250.008 338.497 249.72 339.859 249.18 C 340.177 248.964 342.356 249.936 346.578 252.636 C 350.755 255.408 360.425 261.42 365.056 264.984 C 369.686 268.404 372.41 271.356 373.908 273.444 C 374.544 272.076 376.178 270.888 378.811 269.88 C 381.444 269.088 388.027 268.836 389.48 267.576 C 390.66 266.208 387.71 264.516 386.575 261.672 C 385.485 258.9 385.031 258.684 382.761 250.908 C 380.31 243.132 376.768 231.576 371.956 215.556 C 362.559 215.376 353.524 215.196 344.672 215.16 C 335.773 215.124 327.238 215.124 318.885 215.16 Z" fill="#f7f619" fill-rule="evenodd" stroke="#000" stroke-miterlimit="10" stroke-width=".036" style="" transform="matrix(-1, 0, 0, -1, 708.638611, 488.576996)"/>
  <path d="M 332.853 227.371 C 330.855 226.327 329.175 226.183 328.313 226.939 C 327.405 227.767 326.815 229.351 327.042 231.979 C 323.909 232.627 322.638 233.779 323.047 235.147 C 323.364 236.551 325.544 238.459 329.402 240.583 C 327.178 242.851 326.452 244.723 326.86 246.199 C 327.314 247.783 330.129 249.799 332.126 249.619 C 334.078 249.475 336.121 247.999 338.437 245.191 L 332.853 227.371 Z" fill-rule="evenodd" stroke="#000" stroke-miterlimit="10" stroke-width=".036" style="" transform="matrix(-1, 0, 0, -1, 661.409668, 476.092972)"/>
  <path d="M 331.891 230.818 C 330.393 229.63 329.258 229.054 328.486 229.09 C 327.578 229.234 326.988 230.278 327.215 231.25 C 327.351 232.294 328.259 233.446 329.757 234.994 C 326.852 234.526 325.217 234.67 324.854 235.282 C 324.446 236.038 325.989 238.378 327.215 238.99 C 328.259 239.602 329.712 239.746 331.392 239.134 C 328.804 242.122 327.533 244.282 327.397 245.758 C 327.306 247.27 329.213 248.314 330.665 247.918 C 331.936 247.666 333.435 246.37 335.16 244.03 C 334.07 239.638 332.981 235.245 331.891 230.818 Z" fill="#fb0f0c" fill-rule="evenodd" stroke="#000" stroke-miterlimit="10" stroke-width=".036" style="" transform="matrix(-1, 0, 0, -1, 659.947144, 477.090805)"/>
  <path d="M 329.593 201.468 C 329.184 196.248 329.366 191.316 330.319 186.672 C 331.182 182.1 331.227 177.096 334.859 173.892 C 338.4 170.688 346.345 166.692 351.521 167.736 C 356.56 169.032 361.781 175.332 365.095 180.948 C 368.318 186.744 369.135 196.968 370.497 201.324 C 371.541 205.608 371.087 204.456 372.132 206.328 C 373.221 208.344 375.673 210.684 376.671 212.664 C 377.534 214.752 377.716 216.984 377.035 218.244 C 376.127 219.54 373.448 220.08 372.132 220.26 C 370.86 220.512 369.952 220.224 369.408 219.54 L 369.589 221.556 C 371.632 222.852 373.448 223.86 375.219 224.58 C 376.898 225.3 378.351 225.732 379.759 225.876 L 371.768 226.452 C 372.722 227.388 373.993 228.288 375.582 229.008 C 377.171 229.8 378.805 230.52 380.984 231.168 C 379.395 231.852 377.897 232.284 376.308 232.464 C 374.583 232.752 373.13 232.752 371.405 232.608 C 374.629 233.22 376.989 233.796 378.669 234.048 C 380.303 234.372 381.257 234.516 381.348 234.48 C 378.896 235.02 376.671 235.308 374.492 235.344 C 372.268 235.488 369.862 235.164 368.318 235.056 C 366.684 235.02 365.549 235.02 364.913 235.056 C 365.776 235.812 367.274 236.244 369.589 236.64 C 371.905 236.964 374.81 237.252 378.669 237.216 L 372.132 238.224 L 378.306 239.772 L 370.134 241.932 C 369.317 242.832 367.637 243.552 365.276 243.948 C 362.87 244.416 359.602 244.56 355.652 244.524 C 354.789 246.036 352.928 246.468 350.068 246.108 C 347.026 245.712 341.533 244.236 338.31 242.22 C 335.177 240.348 332.635 237.36 331.046 234.912 C 329.23 232.572 327.732 230.268 327.959 228 C 328.095 225.876 329.366 223.824 331.954 221.844 C 329.275 221.448 327.459 220.404 326.688 219.108 C 325.825 217.812 326.234 215.4 326.869 213.816 C 327.414 212.304 328.322 211.152 329.775 210.216 C 329.729 207.3 329.684 204.384 329.593 201.468 Z" fill-rule="evenodd" stroke="#000" stroke-miterlimit="10" stroke-width=".036" style="" transform="matrix(-1, 0, 0, -1, 707.543854, 413.794205)"/>
  <path d="M 333.229 230.254 C 332.866 227.986 332.684 226.222 332.866 224.818 C 332.866 223.558 332.82 222.838 333.955 222.226 C 334.909 221.686 336.543 220.93 339.403 221.218 C 342.218 221.614 346.894 222.298 350.98 224.242 C 355.066 226.33 361.149 232.63 363.283 232.99 C 365.099 233.422 363.691 230.578 362.92 226.402 C 362.102 222.226 360.468 212.578 358.743 208.15 C 356.972 203.902 354.748 200.77 352.251 200.554 C 349.527 200.446 345.85 203.938 343.171 206.998 C 340.447 210.13 338.223 214.054 336.316 218.914 L 332.139 218.914 C 332.412 213.55 333.138 209.014 334.5 205.306 C 335.726 201.634 337.587 198.898 339.902 196.954 C 342.082 195.01 344.397 193.966 347.893 193.822 C 351.479 193.858 357.744 194.902 360.74 196.954 C 363.555 199.006 363.147 201.706 364.917 206.17 C 366.688 210.85 368.958 220.21 370.683 224.386 C 372.226 228.562 373.271 228.814 374.315 230.83 C 375.313 232.882 376.04 235.366 376.312 236.734 C 376.358 238.354 375.767 239.254 375.041 239.578 C 374.315 239.866 373.225 239.542 371.954 238.462 L 369.048 241.594 L 361.285 241.738 C 361.467 240.01 360.922 238.534 359.833 237.454 C 358.607 236.374 356.382 235.654 354.566 235.294 C 352.569 234.934 350.48 234.754 348.801 235.438 C 347.121 236.266 345.85 237.742 344.806 240.01 L 342.082 240.01 C 342.354 238.246 342.172 236.77 341.355 235.438 C 340.493 234.178 339.176 233.17 337.224 232.414 C 336.588 231.154 336.588 230.29 337.224 229.678 C 337.769 229.174 339.085 228.562 340.992 228.958 C 342.717 229.354 346.712 231.982 348.074 231.982 C 349.436 232.09 350.026 230.758 348.982 229.534 C 347.575 228.346 343.217 225.754 340.992 225.106 C 338.813 224.602 337.315 225.502 336.316 226.402 C 335.181 227.374 334.863 228.85 334.863 230.83 C 334.318 230.65 333.774 230.471 333.229 230.254 Z" fill="#e2b79c" fill-rule="evenodd" stroke="#000" stroke-miterlimit="10" stroke-width=".036" style="" transform="matrix(-1, 0, 0, -1, 708.453522, 435.560013)"/>
  <path d="M 347.895 222.437 C 348.031 220.457 348.939 218.441 350.619 215.993 C 352.253 213.653 355.431 208.901 357.701 208.253 C 359.744 207.821 361.379 208.649 363.285 212.537 C 365.147 216.497 366.963 222.581 368.915 231.365 C 363.785 227.873 359.563 225.425 356.067 223.877 C 352.435 222.401 349.893 221.97 347.895 222.437 Z" fill="#fff" fill-rule="evenodd" stroke="#000" stroke-miterlimit="10" stroke-width=".036" style="" transform="matrix(-1, 0, 0, -1, 716.809998, 439.514648)"/>
  <path d="M 346.444 180.295 C 347.67 180.583 348.532 180.439 349.531 180.151 C 350.394 179.863 351.165 179.287 351.846 178.423 L 355.297 178.423 C 355.07 180.079 355.614 181.231 356.931 182.023 C 358.157 182.815 360.744 183.247 362.924 183.319 C 364.921 183.607 367.781 183.787 369.234 183.319 C 370.596 182.923 371.322 182.059 371.413 180.727 L 376.679 180.871 C 375.227 181.987 374.5 182.851 374.5 183.463 C 374.455 184.183 376.452 184.147 376.316 184.759 C 375.953 185.587 373.411 186.307 373.047 187.315 C 372.639 188.287 374.455 189.799 373.955 190.195 C 373.184 190.591 370.505 189.943 369.234 190.051 C 367.827 190.339 367.736 191.707 366.328 191.779 C 364.785 191.959 361.698 190.699 360.744 190.771 C 359.791 190.987 361.198 192.535 360.563 192.643 C 359.519 192.823 357.884 192.031 355.841 191.779 C 353.844 191.635 350.621 192.139 349.168 191.635 C 347.806 191.167 348.078 189.835 347.17 189.043 C 345.899 188.467 342.812 189.007 342.63 187.603 C 342.585 186.091 343.629 183.786 346.444 180.295 Z" fill="#e2b79c" fill-rule="evenodd" stroke="#000" stroke-miterlimit="10" stroke-width=".036" style="" transform="matrix(-1, 0, 0, -1, 719.307587, 371.092361)"/>
  <path d="M 366.554 188.622 C 367.961 188.982 369.414 189.306 370.912 189.198 C 372.456 189.198 375.18 188.91 375.407 188.478 C 375.407 188.082 372.864 187.326 371.457 186.894 C 369.914 186.57 368.279 186.426 366.554 186.462 L 366.554 188.622 Z" fill-rule="evenodd" stroke="#000" stroke-miterlimit="10" stroke-width=".036" style="" transform="matrix(-1, 0, 0, -1, 741.960999, 375.675705)"/>
  <path d="M 348.874 185.467 C 349.419 186.007 353.504 186.295 355.547 186.331 C 357.363 186.367 361.041 186.079 360.45 185.611 C 359.724 185.179 353.868 184.063 351.961 183.919 C 349.963 183.956 348.238 185.071 348.874 185.467 Z" fill-rule="evenodd" stroke="#000" stroke-miterlimit="10" stroke-width=".036" style="" transform="matrix(-1, 0, 0, -1, 709.253479, 370.253021)"/>
  <path d="M 354.46 169.055 C 354.959 168.947 355.731 168.947 356.276 169.343 C 356.775 169.775 357.32 170.819 358.092 171.215 C 358.773 171.611 359.499 171.755 360.453 171.647 C 361.224 173.807 362.904 175.715 365.492 177.083 C 368.08 178.487 371.394 179.639 375.797 180.251 C 374.935 181.007 373.664 181.295 371.485 180.971 C 369.305 180.827 365.537 179.927 363.131 178.667 C 360.543 177.263 357.91 174.851 356.458 173.087 C 355.005 171.502 354.278 170.206 354.46 169.055 Z" fill="#edef01" fill-rule="evenodd" stroke="#000" stroke-miterlimit="10" stroke-width=".036" style="" transform="matrix(-1, 0, 0, -1, 730.229492, 350.096054)"/>
  <path d="M 339.411 170.998 C 339.32 172.474 340.592 173.806 343.043 174.994 C 345.449 176.398 350.171 177.874 354.257 178.306 C 358.252 178.702 362.655 178.27 367.286 177.154 C 361.657 177.73 356.89 177.442 352.985 176.434 C 348.99 175.39 345.858 173.626 343.588 170.998 L 339.411 170.998 Z" fill="#edef01" fill-rule="evenodd" stroke="#000" stroke-miterlimit="10" stroke-width=".036" style="" transform="matrix(-1, 0, 0, -1, 706.692444, 349.448074)"/>
  <path d="M 333.414 175.798 C 334.277 176.842 335.775 177.742 337.909 178.354 C 339.906 179.002 343.447 179.614 346.08 179.794 C 348.713 180.082 351.12 180.082 353.48 179.938 C 355.614 179.866 357.43 179.722 358.928 179.362 C 357.339 178.894 356.25 178.57 355.478 178.246 C 354.661 177.958 354.297 177.67 354.388 177.526 C 352.754 177.49 351.074 177.058 349.349 176.374 C 347.578 175.726 345.763 174.718 343.901 173.35 C 342.812 174.286 341.722 174.862 340.451 175.078 C 339.043 175.366 337.727 174.754 336.501 174.79 C 335.23 174.862 334.367 175.329 333.414 175.798 Z" fill="#edef01" fill-rule="evenodd" stroke="#000" stroke-miterlimit="10" stroke-width=".036" style="" transform="matrix(-1, 0, 0, -1, 692.34201, 353.382599)"/>
  <path d="M 337.543 182.718 C 341.447 183.474 343.672 183.762 344.398 183.582 C 344.989 183.51 342.855 182.754 341.493 181.998 C 339.995 181.314 338.36 180.45 336.09 179.406 C 336 180.018 336 180.594 336.272 181.134 C 336.544 181.674 336.908 182.251 337.543 182.718 Z" fill="#edef01" fill-rule="evenodd" stroke="#000" stroke-miterlimit="10" stroke-width=".036" style="" transform="matrix(-1, 0, 0, -1, 680.5354, 363.039932)"/>
  <path d="M 332.509 189.744 C 334.461 190.32 336.322 190.752 338.093 190.896 C 339.818 191.148 341.452 191.148 342.996 190.896 C 340.908 190.212 339.273 189.348 338.274 188.448 C 337.094 187.512 336.141 186.288 336.64 185.604 C 337.049 185.1 338.501 184.956 340.998 185.172 L 336.458 182.436 L 333.553 183.156 C 332.509 184.056 331.919 184.92 331.964 185.604 C 331.873 186.288 333.462 186.864 333.553 187.476 C 333.644 188.195 333.235 188.952 332.509 189.744 Z" fill="#edef01" fill-rule="evenodd" stroke="#000" stroke-miterlimit="10" stroke-width=".036" style="" transform="matrix(-1, 0, 0, -1, 674.956238, 373.520996)"/>
  <path d="M 350.015 195.916 C 349.289 194.908 350.06 193.288 350.741 192.028 C 351.331 190.876 352.012 189.508 353.828 189.04 C 355.599 188.716 359.821 188.356 361.228 189.76 C 362.5 191.272 362.681 196.492 361.592 197.788 C 360.366 199.156 356.916 198.328 354.918 197.932 C 352.92 197.644 350.65 196.923 350.015 195.916 Z" fill="#a16121" fill-rule="evenodd" stroke="#000" stroke-miterlimit="10" stroke-width=".036" style="" transform="matrix(-1, 0, 0, -1, 712.029449, 387.289062)"/>
  <path d="M 374.722 202.486 C 373.179 202.45 371.317 202.018 370.182 201.334 C 368.957 200.686 368.049 200.146 367.822 198.886 C 367.549 197.698 367.731 195.574 368.548 194.458 C 369.138 193.45 370.409 192.874 371.817 192.874 C 373.27 193.054 375.54 194.278 376.901 195.178 C 377.991 196.186 378.763 197.194 379.035 198.346 C 379.308 199.57 379.126 201.226 378.49 201.91 C 377.537 202.666 376.22 202.63 374.722 202.486 Z" fill="#a16121" fill-rule="evenodd" stroke="#000" stroke-miterlimit="10" stroke-width=".036" style="" transform="matrix(-1, 0, 0, -1, 746.861511, 395.442688)"/>
  <path d="M 347.37 256.408 C 347.052 258.1 347.052 259.36 347.733 260.584 C 348.369 261.844 349.458 263.176 351.002 263.464 C 352.409 263.896 355.269 263.608 355.905 262.6 C 356.313 261.592 355.769 259.864 353.907 257.416 C 355.496 258.028 356.722 258.028 358.084 257.272 C 359.401 256.624 361.761 254.644 361.489 253.132 C 360.989 251.764 359.128 250.18 355.542 248.668 C 356.631 247.12 357.176 245.824 356.994 244.636 C 356.722 243.556 355.632 241.828 354.452 241.792 C 353.272 241.9 351.637 242.764 349.731 244.78 C 348.55 242.764 347.506 241.576 346.099 241.216 C 344.646 240.964 342.331 242.188 341.604 242.944 C 340.742 243.88 341.15 245.248 341.604 246.22 C 341.967 247.228 342.875 248.092 344.147 248.812 C 341.377 250.396 339.561 251.836 338.517 253.132 C 337.473 254.464 337.291 255.976 337.972 256.696 C 338.699 257.524 340.787 258.136 342.512 257.992 C 344.101 257.92 345.599 257.488 347.37 256.408 Z" fill-rule="evenodd" stroke="#000" stroke-miterlimit="10" stroke-width=".036" style="" transform="matrix(-1, 0, 0, -1, 699.079498, 504.84079)"/>
  <path d="M 349.203 254.419 C 349.112 256.219 349.294 257.695 349.566 258.991 C 349.838 260.287 349.884 261.907 350.928 262.195 C 351.791 262.735 354.741 262.483 355.059 261.439 C 355.332 260.395 354.287 258.523 352.29 255.823 C 354.151 256.975 355.513 257.407 356.875 256.975 C 358.101 256.615 360.235 254.599 359.781 253.447 C 359.145 252.403 357.42 251.431 353.924 250.531 C 355.241 248.767 355.922 247.543 355.967 246.319 C 355.831 245.239 354.878 243.727 353.833 243.871 C 352.789 244.123 351.427 245.239 349.748 247.507 C 348.84 245.023 347.75 243.547 346.66 242.935 C 345.435 242.395 343.301 243.547 342.892 244.051 C 342.348 244.663 343.301 245.563 343.982 246.355 C 344.663 247.219 345.389 248.083 346.66 249.091 C 343.528 250.82 341.485 252.223 340.35 253.447 C 339.17 254.707 339.26 255.859 339.896 256.471 C 340.486 257.191 342.121 257.983 343.755 257.587 C 345.253 257.264 347.069 256.255 349.203 254.419 Z" fill="#fb0f0c" fill-rule="evenodd" stroke="#000" stroke-miterlimit="10" stroke-width=".036" style="" transform="matrix(-1, 0, 0, -1, 699.278412, 505.26532)"/>
  <path d="M 373.057 247.169 C 372.649 245.837 371.877 244.721 370.923 243.965 C 369.879 243.317 368.245 242.489 367.065 242.597 C 365.748 242.813 363.478 243.677 363.569 244.613 C 363.523 245.549 364.976 246.737 367.428 248.177 C 365.884 248.141 364.795 248.573 364.159 249.473 C 363.387 250.409 362.343 252.749 363.296 253.721 C 364.295 254.801 366.474 255.377 370.015 255.593 C 369.743 257.177 370.015 258.329 370.651 259.193 C 371.241 260.129 372.921 261.173 373.92 260.777 C 374.918 260.417 375.554 259.229 376.326 257.069 C 378.051 258.401 379.549 259.157 380.82 258.941 C 382.091 258.941 383.272 257.141 383.635 256.313 C 383.726 255.521 382.999 254.369 382.182 253.685 C 381.365 252.965 380.366 252.641 379.004 252.317 C 380.457 250.301 381.32 248.681 381.592 247.313 C 381.864 245.945 381.184 244.901 380.412 244.325 C 379.458 244.001 377.415 244.073 376.234 244.541 C 374.964 245.045 373.965 245.873 373.057 247.169 Z" fill-rule="evenodd" stroke="#000" stroke-miterlimit="10" stroke-width=".036" style="" transform="matrix(-1, 0, 0, -1, 746.557983, 503.450653)"/>
  <path d="M 372.248 250.016 C 371.431 248.648 370.659 247.46 369.933 246.452 C 369.07 245.588 368.298 244.4 367.436 244.292 C 366.437 244.364 364.167 245.084 364.485 246.02 C 364.803 246.956 366.301 248.144 369.161 249.728 C 367.209 249.404 365.756 249.404 364.984 250.124 C 364.122 250.808 363.305 253.076 364.258 253.724 C 365.075 254.408 367.118 254.732 370.205 254.408 C 369.797 256.1 369.933 257.54 370.432 258.332 C 370.932 259.268 372.339 260.168 373.247 259.664 C 373.973 259.16 374.518 258.008 374.881 255.668 C 376.606 257.36 378.15 258.332 379.33 258.44 C 380.511 258.548 381.6 257.144 381.873 256.46 C 381.873 255.992 380.829 255.488 379.966 254.948 C 379.103 254.516 377.923 254.048 376.606 253.544 C 378.377 251.348 379.24 249.656 379.694 248.324 C 379.966 247.064 379.421 246.164 378.74 245.768 C 377.878 245.336 376.289 245.408 375.199 245.984 C 374.11 246.74 373.065 248.036 372.248 250.016 Z" fill="#fb0f0c" fill-rule="evenodd" stroke="#000" stroke-miterlimit="10" stroke-width=".036" style="" transform="matrix(-1, 0, 0, -1, 745.703308, 504.100876)"/>
  <path d="M 363.933 261.069 C 361.663 263.769 360.846 265.713 361.482 267.189 C 362.026 268.665 364.024 269.493 367.474 269.817 C 367.656 273.237 368.7 274.857 370.607 274.821 C 372.513 274.821 375.01 273.021 378.597 269.565 C 380.912 272.409 383.001 273.777 385.044 273.669 C 386.996 273.669 390.037 271.149 390.31 269.025 C 390.491 266.901 388.993 264.417 385.997 261.177 L 363.933 261.069 Z" fill-rule="evenodd" stroke="#000" stroke-miterlimit="10" stroke-width=".036" style="" transform="matrix(-1, 0, 0, -1, 751.59787, 535.890594)"/>
  <path d="M 367.983 264.514 C 365.895 266.206 364.805 267.358 364.714 268.366 C 364.487 269.41 365.895 270.238 367.166 270.274 C 368.437 270.31 370.072 269.734 372.251 268.546 C 371.161 271.498 370.798 273.154 371.66 273.802 C 372.387 274.45 375.656 273.334 376.745 272.254 C 377.653 271.246 378.152 269.842 377.744 267.898 C 380.922 271.354 383.328 273.334 385.144 273.838 C 386.824 274.414 388.503 272.578 388.413 270.958 C 388.276 269.374 386.824 267.322 384.236 264.514 L 367.983 264.514 Z" fill="#fb0f0c" fill-rule="evenodd" stroke="#000" stroke-miterlimit="10" stroke-width=".036" style="" transform="matrix(-1, 0, 0, -1, 753.106171, 538.50766)"/>
  <path d="M 356.706 266.738 C 355.843 268.538 354.708 270.014 353.119 271.31 C 351.44 272.606 348.625 274.91 347.308 274.334 C 345.992 273.902 345.265 271.886 345.311 268.43 C 343.586 269.438 342.087 269.726 340.816 269.438 C 339.5 269.15 337.366 267.926 337.548 266.738 C 337.638 265.658 338.728 264.506 341.179 263.138 C 341.815 263.174 341.815 263.174 341.179 263.138 C 340.362 263.21 338.092 263.39 337.184 262.994 C 336.276 262.634 335.686 261.734 335.913 260.69 C 336.095 259.79 336.594 258.458 337.911 257.09 L 353.846 257.09 C 354.799 260.293 355.752 263.498 356.706 266.738 Z" fill-rule="evenodd" stroke="#000" stroke-miterlimit="10" stroke-width=".036" style="" transform="matrix(-1, 0, 0, -1, 692.570251, 531.51474)"/>
  <path d="M 353.753 268.178 L 351.574 260.402 L 338.544 259.97 C 337.818 261.086 337.636 261.95 337.636 262.562 C 337.636 263.282 337.591 263.57 338.726 263.858 C 339.679 264.218 341.359 264.362 343.765 264.434 C 341.087 265.622 339.588 266.63 339.089 267.602 C 338.635 268.646 339.634 270.194 340.86 270.302 C 341.995 270.41 343.447 269.798 345.581 268.322 C 345.445 270.662 345.808 272.138 346.489 272.894 C 347.125 273.614 348.441 273.614 349.758 272.75 C 350.984 271.957 352.255 270.481 353.753 268.178 Z" fill="#fb0f0c" fill-rule="evenodd" stroke="#000" stroke-miterlimit="10" stroke-width=".036" style="" transform="matrix(-1, 0, 0, -1, 691.388733, 533.387238)"/>
  <path d="M 284.736 137.353 C 285.689 136.345 286.96 135.625 288.549 134.905 C 290.093 134.329 291.954 133.753 294.133 133.465 C 294.678 137.893 295.949 142.681 298.31 147.829 C 300.58 153.193 304.53 159.493 307.708 164.497 C 310.704 169.609 313.836 174.649 316.424 177.529 C 318.694 180.301 320.147 180.157 322.553 181.273 C 325.004 182.533 329.588 183.685 331.224 184.873 C 332.722 186.169 332.722 188.149 331.95 188.725 C 330.997 189.373 328.726 188.725 326.366 188.293 C 323.824 187.861 318.285 185.485 317.83 186.169 C 317.331 186.961 322.007 190.777 324.004 192.901 C 325.911 195.169 329.181 197.869 329.635 199.201 C 329.953 200.677 328.455 201.577 326.549 200.929 C 324.596 200.245 320.465 197.365 318.558 195.205 C 316.515 193.225 315.788 189.121 314.971 188.725 C 314.063 188.401 312.883 190.345 313.519 193.045 C 314.109 195.889 317.196 202.225 318.376 205.393 C 319.466 208.741 320.011 211.549 319.829 212.413 C 319.466 213.313 318.149 212.593 316.606 210.541 C 315.017 208.525 311.793 201.757 310.431 200.497 C 308.979 199.489 308.479 200.641 308.252 203.521 C 307.798 206.437 309.206 215.617 308.616 217.597 C 307.889 219.505 305.574 217.957 304.62 215.293 C 303.622 212.737 303.213 207.553 302.668 202.513 C 301.987 197.653 301.443 192.109 300.852 185.881 C 299.036 188.112 297.402 189.696 296.131 191.173 C 294.814 192.685 293.725 194.017 292.862 194.341 C 291.818 194.701 290.093 194.413 289.957 193.045 C 289.775 191.713 290.32 188.545 291.773 186.601 C 293.225 184.765 295.223 183.325 298.31 182.137 C 297.72 179.041 296.449 173.821 294.133 166.333 C 291.863 158.809 288.731 149.341 284.736 137.353 Z" fill="#e2b79c" fill-rule="evenodd" stroke="#000" stroke-miterlimit="10" stroke-width=".036" style="" transform="matrix(-1, 0, 0, -1, 617.196381, 351.909805)"/>
  <path d="M 318.841 185.289 C 318.024 183.849 317.434 182.265 317.071 180.141 C 316.617 178.089 316.435 175.785 316.344 173.085 C 314.619 173.337 313.529 174.201 313.257 175.677 C 312.848 177.261 313.393 180.393 314.347 182.013 C 315.255 183.669 316.753 184.713 318.841 185.289 Z" fill-rule="evenodd" stroke="#000" stroke-miterlimit="10" stroke-width=".036" style="" transform="matrix(-1, 0, 0, -1, 631.960541, 358.374008)"/>
  <path d="M 15.114 354.282 C 8.848 355.686 6.262 357.703 6.806 360.043 C 7.351 362.419 11.39 365.406 18.745 368.719 C 18.836 373.651 19.789 376.603 21.608 377.574 C 23.376 378.619 25.92 377.61 29.415 374.694 C 28.327 378.726 28.644 381.606 30.73 383.335 C 32.774 385.099 38.493 386.647 41.4 385.207 C 44.168 383.73 46.622 378.871 47.349 375.091 C 47.893 371.419 47.119 367.711 45.033 363.57 C 45.622 357.919 44.804 353.562 42.398 349.963 C 39.902 346.507 36.178 344.095 30.73 342.727 C 28.462 338.947 25.738 337.075 22.378 336.967 C 18.928 336.895 11.62 339.523 10.437 342.331 C 9.258 345.318 10.755 349.171 15.114 354.282 Z" fill-rule="evenodd" stroke="#000" stroke-miterlimit="10" stroke-width=".036" style="" transform="matrix(-1, 0, 0, -1, 54.252895, 722.740326)"/>
  <path d="M 19.659 353.715 C 12.396 355.767 9.08 357.495 9.534 359.295 C 10.034 361.131 14.121 362.643 22.292 364.227 C 20.704 370.059 20.657 373.299 22.519 374.343 C 24.334 375.423 27.695 373.911 32.96 370.203 C 31.189 375.639 31.009 379.239 32.415 381.146 C 33.824 383.09 39.043 383.27 41.268 381.542 C 43.403 379.778 44.674 374.054 44.901 371.03 C 44.854 368.078 43.857 365.99 41.541 364.225 C 42.769 357.421 42.268 352.526 40.224 349.393 C 38.091 346.297 34.278 345.11 28.786 345.685 C 28.83 341.618 27.695 339.349 25.38 338.881 C 23.02 338.485 15.619 340.501 14.756 342.985 C 13.758 345.507 15.391 349.036 19.659 353.715 Z" fill="#c0c0c0" fill-rule="evenodd" stroke="#000" stroke-miterlimit="10" stroke-width=".036" style="" transform="matrix(-1, 0, 0, -1, 54.394037, 721.560577)"/>
  <path d="M 12.35 408.987 C 11.487 411.616 11.487 413.74 12.35 415.359 C 13.076 417.088 15.301 418.635 17.298 418.887 C 19.205 419.139 21.52 418.491 24.062 416.799 C 27.241 418.059 29.919 418.203 32.098 417.231 C 34.187 416.295 36.276 414.351 36.773 411.255 C 37.003 408.194 35.911 401.607 34.731 399.267 C 33.551 397.036 31.963 396.675 29.783 398.043 C 30.192 394.442 29.509 391.671 27.194 389.583 C 24.744 387.495 18.524 384.759 16.253 385.694 C 14.028 386.81 13.393 390.194 14.165 395.991 C 5.947 396.566 1.771 397.934 1.453 400.095 C 1.091 402.328 4.722 405.244 12.35 408.987 Z" fill-rule="evenodd" stroke="#000" stroke-miterlimit="10" stroke-width=".036" style="" transform="matrix(-1, 0, 0, -1, 38.232261, 804.444794)"/>
  <path d="M 12.892 408.391 C 12.165 410.659 12.165 412.279 12.892 413.683 C 13.618 415.159 15.16 416.311 16.977 416.563 C 18.52 416.707 20.381 416.275 22.561 414.871 C 25.239 415.915 27.463 415.987 29.234 415.231 C 30.96 414.475 32.593 412.819 33.094 410.263 C 33.458 407.815 32.185 402.307 31.37 400.399 C 30.37 398.599 29.008 398.203 27.284 399.355 C 27.375 395.683 26.649 392.947 24.922 391.003 C 23.198 389.166 18.795 386.79 17.115 387.906 C 15.344 389.058 14.438 392.262 14.391 397.662 C 7.581 398.238 4.13 399.246 3.858 401.082 C 3.631 402.954 6.582 405.259 12.892 408.391 Z" fill="#c0c0c0" fill-rule="evenodd" stroke="#000" stroke-miterlimit="10" stroke-width=".036" style="" transform="matrix(-1, 0, 0, -1, 37.003791, 804.208527)"/>
  <path d="M 131.303 299.773 C 131.303 292.825 133.753 287.209 136.751 287.209 C 139.793 287.209 142.243 292.825 142.243 299.773 C 142.243 306.721 139.793 312.337 136.751 312.337 C 133.753 312.337 131.303 306.721 131.303 299.773 Z" fill="#fb0f0c" fill-rule="evenodd" stroke="#000" stroke-miterlimit="10" stroke-width=".036" style="" transform="matrix(-1, 0, 0, -1, 273.54599, 599.546021)"/>
</svg>