<?xml version="1.0" encoding="utf-8"?>
<svg viewBox="0 0 535 535" width="535px" height="535px" xmlns="http://www.w3.org/2000/svg" xmlns:xlink="http://www.w3.org/1999/xlink">
  <defs>
    <filter id="r" x="-.0178" y="-.48747" width="1.0356" height="1.9749">
      <feGaussianBlur stdDeviation="4.54392"/>
    </filter>
    <linearGradient id="b">
      <stop stop-color="#fff" offset="0"/>
      <stop stop-color="#fff" stop-opacity="0" offset="1"/>
    </linearGradient>
    <linearGradient id="c">
      <stop stop-color="#d2ffd2" offset="0"/>
      <stop stop-color="#09a809" offset="0.8652"/>
      <stop stop-color="#009600" offset="1"/>
    </linearGradient>
    <linearGradient id="g">
      <stop stop-color="#3fc200" offset="0"/>
      <stop stop-color="#2ca900" offset="0.5"/>
      <stop stop-color="#0a9600" offset="1"/>
    </linearGradient>
    <linearGradient id="o" x1="331.58" x2="330.69" y1="358.73" y2="282.81" gradientUnits="userSpaceOnUse">
      <stop stop-color="#9eecff" offset="0"/>
      <stop stop-color="#87efff" offset="1"/>
    </linearGradient>
    <linearGradient id="n" x2="0" y1="325.08" y2="378.55" gradientUnits="userSpaceOnUse">
      <stop stop-color="#fff" stop-opacity="0" offset="0"/>
      <stop stop-color="#fff" stop-opacity=".63684" offset="0.5"/>
      <stop stop-color="#fff" stop-opacity=".50526" offset="0.75"/>
      <stop stop-color="#fff" stop-opacity="0" offset="1"/>
    </linearGradient>
    <linearGradient id="a" x1="132.7" x2="120.11" y1="563.98" y2="549.94" gradientUnits="userSpaceOnUse">
      <stop stop-color="#bcbcbc" offset="0"/>
      <stop stop-color="#bcbcbc" stop-opacity="0" offset="1"/>
    </linearGradient>
    <linearGradient id="q" x1="484.61" x2="502.4" y1="347.69" y2="392.33" gradientUnits="userSpaceOnUse" xlink:href="#b"/>
    <linearGradient id="p" x1="114" x2="131.79" y1="350.24" y2="394.88" gradientUnits="userSpaceOnUse" xlink:href="#b"/>
    <linearGradient id="m" x1="309.75" x2="309.79" y1="470.56" y2="454.82" gradientUnits="userSpaceOnUse" xlink:href="#g"/>
    <linearGradient id="l" x1="303.6" x2="302.98" y1="488.64" y2="266.05" gradientUnits="userSpaceOnUse" xlink:href="#g"/>
    <linearGradient id="k" x1="104.61" x2="108.63" y1="183.3" y2="255.72" gradientTransform="matrix(.54793 0 0 .58571 276.48 205.31)" gradientUnits="userSpaceOnUse" xlink:href="#b"/>
    <linearGradient id="f" x1="149.52" x2="156.12" y1="462.26" y2="532.05" gradientUnits="userSpaceOnUse" xlink:href="#b"/>
    <radialGradient id="e" cx="173.11" cy="532.03" r="61.067" gradientUnits="userSpaceOnUse">
      <stop offset="0"/>
      <stop stop-color="#3c3c3c" offset="0.8132"/>
      <stop offset="1"/>
    </radialGradient>
    <radialGradient id="j" cx="-425.72" cy="-489.54" r="171.96" gradientTransform="matrix(-.097214 -.36758 .42431 -.12626 692.41 211.62)" gradientUnits="userSpaceOnUse" xlink:href="#c"/>
    <radialGradient id="i" cx="-72.264" cy="227.89" r="171.96" gradientTransform="matrix(-.1029 .36584 -.44055 -.13388 250.7 490.47)" gradientUnits="userSpaceOnUse" xlink:href="#c"/>
    <radialGradient id="h" cx="395.06" cy="189.36" r="27.198" gradientTransform="matrix(-.26385 .83769 -.79004 -.2443 648.89 -93.629)" gradientUnits="userSpaceOnUse" xlink:href="#c"/>
    <radialGradient id="d" cx="177.85" cy="532.74" r="8.0902" gradientUnits="userSpaceOnUse" xlink:href="#b"/>
  </defs>
  <g transform="matrix(1, 0, 0, 1, -73.694946, -148.929764)">
    <path transform="matrix(.99178 0 0 2.8219 20.732 -862.74)" d="m139.75 469.7h393.98a57.77 9.1435 0 0 1 57.77 9.1435 57.77 9.1435 0 0 1 -57.77 9.1435h-393.98a57.77 9.1435 0 0 1 -57.77 -9.1435 57.77 9.1435 0 0 1 57.77 -9.1435" fill="#666" fill-rule="evenodd" filter="url(#r)" stroke="#bcbcbc" stroke-width=".6"/>
    <path d="m478.23 466.07 114.09-7.1053 3.5592-8.8132-13.954-34.55-104.69-5.5522c0.32974 18.674 0.65947-21.842 0.9892 56.021z" fill-rule="evenodd" stroke="#000" stroke-width="1.0002"/>
    <path d="m311.28 273.97c-87.349 0.26285-141.95 54.181-185.01 88.679 9.4094-3.6554 19.658-5.6514 30.376-5.6514 45.854 0 83.07 36.737 83.07 82.016 0 9.8924-1.7779 19.38-5.0327 28.164l215.73-0.5449c-3.6044-9.1845-5.5869-19.175-5.5869-29.612 1e-5 -45.278 37.216-82.016 83.07-82.016 16.229 0 31.373 4.6087 44.171 12.564-5.0689-4.402-9.9764-8.1671-14.14-10.571-17.253-9.9626-54.926-12.087-63.898-13.95-8.875-1.8428-11.555-2.3019-14.05-4.655-9.2598-8.7353-80.399-73.323-168.7-64.423z" fill="url(#l)" fill-rule="evenodd"/>
    <path d="m239.1 451.45 208.92-0.56257 3.2474 16.315h-221.91l9.7424-15.752z" fill="url(#m)" fill-rule="evenodd"/>
    <path d="m547.35 364.16c20.916 18.653 39.156 38.854 54.253 60.374 6.3364-8.0314 7.1054-24.868 4.5845-29.057-10.589-17.596-32.842-28.802-58.837-31.317z" fill="#b3b3b3" fill-rule="evenodd" opacity=".99231"/>
    <path d="m248.65 289.63-1.0485 0.35808c-34.772 11.973-65.6 33.527-93.974 57.215-0.38429 0.61375-3.8383 3.4216-5.8865 5.2622-2.3361 1.2669-5.1019 2.9561-8.4328 5.2155 34.039 3.4226 73.328 27.014 83.22 53.603 3.7233 9.654 5.2279 19.855 4.8979 30.001 80.974-0.05681 161.86-3.7914 242.81-4.9353 3.2898-23.313 19.505-43.676 38.24-60.562 5.871-5.588 12.964-10.4 18.124-16.409 1.2145-1.8261 0.17399-4.1389-0.98857-5.4957 0.90521-0.09153-0.08447 0.26258-7.7165-1.3768-19.584-3.9532-41.05-1.3971-51.918-19.896-0.8779-1.4944 11.371 18.65 9.6798 18.628-65.672-0.84834-127.61-2.056-184.37-2.4919-0.28744-0.0022-1.1753-50.407-1.7084-63.071-1.7694-0.08038-11.965 1.5176-13.145 1.7188-0.14459 1.1933-2.4063 60.827-3.2603 60.791-33.394-1.4195-66.812-0.65216-103.38-0.65394 1.3439-1.0581 2.5195-2.3292 3.46-3.8766 9.6509-15.878 46.012-40.629 75.401-54.023z" fill="url(#n)" fill-rule="evenodd" opacity=".6"/>
    <path d="m94.383 451.33 121 14.845 6.2784-15.416-14.269-35.97-103.31-5.1385-9.703 41.679z" fill-rule="evenodd" stroke="#000" stroke-width="1.0002"/>
    <g transform="matrix(.92055 0 0 .92085 -.87926 -44.496)" fill-rule="evenodd">
      <path d="m234.18 532.03a61.067 61.067 0 1 1 -122.13 0 61.067 61.067 0 1 1 122.13 0z" fill="url(#e)"/>
      <path transform="matrix(.70248 0 0 .70248 51.835 156.96)" d="m234.18 532.03a61.067 61.067 0 1 1 -122.13 0 61.067 61.067 0 1 1 122.13 0z" fill="#999"/>
      <path d="m214.68 530.64c-35.795-41.178-46.059 10.369-82.482 0 0-22.765 18.476-41.241 41.241-41.241s41.241 18.476 41.241 41.241z" fill="url(#f)"/>
      <path transform="matrix(.40484 .51921 -.51982 .40531 387.19 223.25)" d="m136.58 553.79a12.1 9.6135 0 1 1 -24.2 0 12.1 9.6135 0 1 1 24.2 0z" fill="#080808" stroke="url(#a)" stroke-width="2.3214"/>
      <path transform="matrix(-.15832 .63907 -.63982 -.1585 546.92 509.28)" d="m136.58 553.79a12.1 9.6135 0 1 1 -24.2 0 12.1 9.6135 0 1 1 24.2 0z" fill="#080808" stroke="url(#a)" stroke-width="2.3214"/>
      <path transform="matrix(-.60157 .26755 -.26787 -.60228 419.48 812.78)" d="m136.58 553.79a12.1 9.6135 0 1 1 -24.2 0 12.1 9.6135 0 1 1 24.2 0z" fill="#080808" stroke="url(#a)" stroke-width="2.3214"/>
      <path transform="matrix(-.59743 -.27668 .277 -.59813 122.78 901.93)" d="m136.58 553.79a12.1 9.6135 0 1 1 -24.2 0 12.1 9.6135 0 1 1 24.2 0z" fill="#080808" stroke="url(#a)" stroke-width="2.3214"/>
      <path transform="matrix(-.16347 -.63777 .63852 -.16366 -146.51 726.57)" d="m136.58 553.79a12.1 9.6135 0 1 1 -24.2 0 12.1 9.6135 0 1 1 24.2 0z" fill="#080808" stroke="url(#a)" stroke-width="2.3214"/>
      <path transform="matrix(.425 -.50284 .50343 .4255 -171.83 383.92)" d="m136.58 553.79a12.1 9.6135 0 1 1 -24.2 0 12.1 9.6135 0 1 1 24.2 0z" fill="#080808" stroke="url(#a)" stroke-width="2.3214"/>
      <path transform="matrix(.6579 .025188 -.025217 .65868 76.118 168.63)" d="m136.58 553.79a12.1 9.6135 0 1 1 -24.2 0 12.1 9.6135 0 1 1 24.2 0z" fill="#080808" stroke="url(#a)" stroke-width="2.3214"/>
      <path transform="translate(-2.7529 -.3751)" d="m183.98 531.08a7.7902 7.7902 0 1 1 -15.581 0 7.7902 7.7902 0 1 1 15.581 0z" fill="url(#d)" opacity=".37657" stroke="#bcbcbc" stroke-width=".6"/>
    </g>
    <path d="m157.11 356.42c-45.854 0-81.792 36.753-81.792 82.031 0.48672 12.077 12.985 11.709 22.887 15.398 3.8686-42.183 27.492-61.192 63.335-60.872 36.698 0.32007 63.468 38.271 53.863 74.217l19.129-0.03532c3.5922-9.171 5.6326-18.289 5.6326-28.707 0-45.278-37.201-82.031-83.055-82.031z" fill="url(#i)"/>
    <g transform="matrix(.92055 0 0 .92085 373.65 -43.689)" fill-rule="evenodd">
      <path d="m234.18 532.03a61.067 61.067 0 1 1 -122.13 0 61.067 61.067 0 1 1 122.13 0z" fill="url(#e)"/>
      <path transform="matrix(.70248 0 0 .70248 51.835 156.96)" d="m234.18 532.03a61.067 61.067 0 1 1 -122.13 0 61.067 61.067 0 1 1 122.13 0z" fill="#999"/>
      <path d="m214.68 530.64c-35.795-41.178-46.059 10.369-82.482 0 0-22.765 18.476-41.241 41.241-41.241s41.241 18.476 41.241 41.241z" fill="url(#f)"/>
      <path transform="matrix(.40484 .51921 -.51982 .40531 387.19 223.25)" d="m136.58 553.79a12.1 9.6135 0 1 1 -24.2 0 12.1 9.6135 0 1 1 24.2 0z" fill="#080808" stroke="url(#a)" stroke-width="2.3214"/>
      <path transform="matrix(-.15832 .63907 -.63982 -.1585 546.92 509.28)" d="m136.58 553.79a12.1 9.6135 0 1 1 -24.2 0 12.1 9.6135 0 1 1 24.2 0z" fill="#080808" stroke="url(#a)" stroke-width="2.3214"/>
      <path transform="matrix(-.60157 .26755 -.26787 -.60228 419.48 812.78)" d="m136.58 553.79a12.1 9.6135 0 1 1 -24.2 0 12.1 9.6135 0 1 1 24.2 0z" fill="#080808" stroke="url(#a)" stroke-width="2.3214"/>
      <path transform="matrix(-.59743 -.27668 .277 -.59813 122.78 901.93)" d="m136.58 553.79a12.1 9.6135 0 1 1 -24.2 0 12.1 9.6135 0 1 1 24.2 0z" fill="#080808" stroke="url(#a)" stroke-width="2.3214"/>
      <path transform="matrix(-.16347 -.63777 .63852 -.16366 -146.51 726.57)" d="m136.58 553.79a12.1 9.6135 0 1 1 -24.2 0 12.1 9.6135 0 1 1 24.2 0z" fill="#080808" stroke="url(#a)" stroke-width="2.3214"/>
      <path transform="matrix(.425 -.50284 .50343 .4255 -171.83 383.92)" d="m136.58 553.79a12.1 9.6135 0 1 1 -24.2 0 12.1 9.6135 0 1 1 24.2 0z" fill="#080808" stroke="url(#a)" stroke-width="2.3214"/>
      <path transform="matrix(.6579 .025188 -.025217 .65868 76.118 168.63)" d="m136.58 553.79a12.1 9.6135 0 1 1 -24.2 0 12.1 9.6135 0 1 1 24.2 0z" fill="#080808" stroke="url(#a)" stroke-width="2.3214"/>
      <path transform="translate(-2.7529 -.3751)" d="m183.98 531.08a7.7902 7.7902 0 1 1 -15.581 0 7.7902 7.7902 0 1 1 15.581 0z" fill="url(#d)" opacity=".37657" stroke="#bcbcbc" stroke-width=".6"/>
    </g>
    <path d="m526.79 353.38c45.854 0 55.593 23.273 79.875 54.568 6.3692 8.209-10.083 41.453-13.675 50.812l-3.9527-0.69339c2.1666-41.411-19.438-65.132-56.284-66.537-27.544 0.10599-61.494 20.967-54.08 75.211l-29.381 0.50851c-3.5922-9.3591-5.557-19.524-5.557-30.155 0-46.207 37.201-83.714 83.055-83.714z" fill="url(#j)"/>
    <path d="m291.11 284.96 2.6362 62.477 176.89 2.055c-48.141-50.344-111.83-74.313-179.53-64.532zm-16.461 3.3161c-64.868 15.908-96.67 57.822-96.67 57.822l94.139 1.0898 2.5313-58.912z" fill="url(#o)" fill-rule="evenodd" stroke="#087900" stroke-width="1.0262"/>
    <path d="m320.99 288.51c-7.9421 0.04148-15.882 0.54228-23.766 1.5044 0.64569 17.15 1.347 34.299 2.1061 51.445 53.149 0.60998 106.3 1.1784 159.45 1.7638-37.388-34.151-86.977-55.419-137.79-54.713zm-51.522 7.1244c-29.29 8.2005-56.802 23.323-78.747 44.614 26.147 0.14511 52.291 0.67067 78.439 0.76087 0.49257-15.261 1.5443-30.502 1.7294-45.773l-1.4212 0.39773z" fill="url(#k)" fill-rule="evenodd" opacity=".95816"/>
    <path transform="matrix(.47931 0 0 .4982 267.11 242.52)" d="m433.81 199.02a27.198 22.439 0 1 1 -54.396 0 27.198 22.439 0 1 1 54.396 0z" fill="url(#h)"/>
    <path d="m283.38 284.45c-1.0763 0-2.7326 103.66 0 167.34" fill="none" stroke="#076c00" stroke-width="1.3682"/>
    <path d="m156.36 360.79c-24.949-2.738-64.169 15.236-72.433 55.443 39.708-71.289 101.35-40.654 103.16-43.955-9.1457-6.4444-19.784-10.347-30.731-11.488z" fill="url(#p)" opacity=".96923"/>
    <path d="m526.98 358.24c-24.949-2.738-64.169 15.236-72.433 55.443 39.708-71.289 101.35-40.654 103.16-43.955-9.1457-6.4444-19.784-10.347-30.731-11.488z" fill="url(#q)" opacity=".96923"/>
    <path d="m444.77 451.66c-38.053 1.1958-76.146 0.3448-114.22 0.76047-30.112 0.12561-60.528-0.18664-90.451 0.64623-4.7714 4.3154-0.09142 3.7941 4.4776 3.4886 67.241-0.36435 134.48-0.01971 201.72-0.14379-0.57463-1.1333 0.34811-4.7839-1.5352-4.7515z" fill="#fff" fill-rule="evenodd" opacity=".15481"/>
  </g>
</svg>