<?xml version="1.0" encoding="utf-8"?>
<svg width="200px" height="200px" version="1.1" style="shape-rendering:geometricPrecision; text-rendering:geometricPrecision; image-rendering:optimizeQuality; fill-rule:evenodd; clip-rule:evenodd" viewBox="0 0 200 200" xmlns="http://www.w3.org/2000/svg">
  <defs>
    <style type="text/css">  .fil2 {fill:black} .fil6 {fill:#006633} .fil7 {fill:#103961} .fil5 {fill:gray} .fil4 {fill:#990000} .fil0 {fill:#CCCCCC} .fil1 {fill:red} .fil3 {fill:#FFCC00} .fil8 {fill:black;fill-rule:nonzero}  </style>
  </defs>
  <g id="Ebene_x0020_1" style="" transform="matrix(0.006948, 0, 0, 0.006948, -3.365603, 29.09441)">
    <g id="_244663296">
      <path class="fil0" d="M28800 4328l-1106 90c1056,335 -2528,2350 -5081,3992l435 127 6188 -3865 -91 -217 -345 -127z" style="paint-order: fill;"/>
      <path class="fil0" d="M8019 9224l-156 -69c-2029,954 -3783,1541 -5261,1759l949 242 4485 -1812 -17 -120z" style="paint-order: fill;"/>
      <polygon class="fil1" points="5703,4016 5739,4013 8142,8512 6548,8725 7729,8296 " style="paint-order: fill;"/>
      <g>
        <polygon class="fil2" points="6765,7384 7896,7252 7818,6946 6684,7075 " style="paint-order: fill;"/>
        <polygon class="fil1" points="6843,7687 7974,7555 7896,7249 6765,7384 " style="paint-order: fill;"/>
        <polygon class="fil3" points="6917,7981 8048,7849 7970,7543 6839,7678 " style="paint-order: fill;"/>
        <circle class="fil4" transform="matrix(1.58944 -0.293004 0.296937 1.61078 7384.05 7446.93)" r="164" style="paint-order: fill;"/>
        <path class="fil3" d="M7370 7194c123,-7 236,80 259,204 5,25 5,50 3,74 1,-1 2,-2 3,-3l7 -9c1,-20 0,-42 -4,-63 -24,-130 -140,-219 -268,-213l0 10zm230 375c-3,5 -7,10 -10,15 2,0 4,0 6,-1l6 -1c4,-6 7,-11 10,-17 -3,1 -6,2 -10,3l-2 1zm-83 86c-1,1 -2,1 -2,2 0,1 -1,2 -1,2 0,0 0,1 0,1 0,0 0,0 0,0 0,0 0,0 0,0 0,0 0,0 0,0 0,3 0,6 -1,8 6,-3 11,-6 16,-10 -4,-1 -7,-2 -11,-3 0,0 -1,0 -1,0zm-181 35c-1,0 -2,-1 -3,-1 -3,2 -7,5 -10,7 6,2 12,3 18,4 -1,-2 -2,-4 -3,-6 0,0 0,0 0,0 -1,-2 -1,-3 -2,-4zm-96 -41c-6,-4 -10,-7 -15,-11 -5,0 -9,0 -14,0 5,5 11,9 16,13l7 -1c2,0 4,-1 6,-1zm161 55c8,1 20,2 30,0 10,-2 20,-7 28,-11 -20,1 -39,5 -58,11zm-241 -146c-11,-21 -19,-44 -24,-69 -23,-125 52,-246 170,-284l-3 -8c-122,39 -199,165 -176,294 4,21 11,41 19,60l9 5c2,1 3,1 5,2zm210 -355c119,-6 228,77 250,197 5,27 5,54 1,80 -1,0 -2,1 -3,1 -2,2 -5,3 -7,4 5,-27 5,-55 0,-83 -21,-116 -126,-196 -241,-190l0 -9zm218 368c-4,5 -7,10 -10,15 -2,0 -4,0 -5,0 -3,0 -5,0 -7,0 0,0 0,0 0,0 3,-4 6,-9 9,-13 1,0 2,0 3,-1l10 -1zm-337 75c-4,-3 -9,-7 -14,-10 4,-1 8,-2 12,-3 4,3 9,6 14,9 -2,1 -4,2 -7,2 -1,1 -3,1 -5,2zm-78 -84c-13,-23 -23,-48 -27,-75 -23,-120 49,-236 163,-273l3 9c-110,35 -179,147 -157,263 5,28 15,54 29,77 -1,0 -3,0 -4,0 -3,0 -5,-1 -7,-1zm198 -341c110,-6 210,71 231,182 5,29 5,58 -1,85 -2,1 -4,1 -6,2 -1,0 -3,0 -4,1 6,-28 7,-57 2,-86 -20,-107 -116,-180 -222,-174l0 -10zm193 352c-3,4 -6,9 -10,13 -4,0 -8,-1 -11,-1 3,-4 6,-8 9,-12 3,0 6,0 9,0 1,0 2,0 3,0zm-290 65c-5,-3 -10,-6 -14,-9 3,-1 6,-2 9,-3 1,0 1,-1 2,-1 4,3 8,5 13,8 -4,2 -7,3 -10,5zm-79 -75c-15,-23 -26,-50 -31,-79 -21,-111 46,-219 151,-252l3 8c-101,32 -165,136 -145,242 5,30 16,56 32,80 0,0 0,0 0,0 -4,0 -7,1 -10,1zm176 -323c101,-6 194,65 213,167 5,29 4,59 -3,86 0,0 0,0 0,0 -4,1 -7,2 -10,3 7,-28 9,-57 4,-88 -18,-97 -107,-165 -204,-159l0 -9zm168 335c-2,3 -5,6 -7,8 -1,0 -1,0 -1,0 -3,0 -7,-1 -10,-2 1,-1 2,-2 3,-3 5,-1 10,-2 15,-3zm-245 52c-4,-1 -7,-3 -11,-5 3,-1 6,-1 9,-1 2,-1 4,-1 7,-1 1,0 3,1 4,2 -1,0 -2,1 -4,2 -2,1 -3,2 -5,3zm-79 -67c-16,-23 -28,-50 -33,-79 -19,-102 42,-201 139,-232l3 9c-92,29 -151,123 -133,221 5,30 18,57 35,81 -2,0 -3,0 -5,0 -2,0 -4,0 -6,0zm157 -302c92,-5 176,59 194,152 5,31 3,62 -6,90 -4,2 -8,4 -12,6 11,-29 14,-61 8,-94 -16,-89 -96,-150 -184,-145l0 -9zm-135 301c-18,-23 -31,-51 -37,-82 -17,-93 39,-183 127,-211l3 9c-84,26 -137,112 -121,201 6,32 21,61 42,85 -5,-1 -9,-1 -14,-2zm236 -97c4,-4 7,-7 9,-11l14 10c-4,5 -8,10 -13,15l-10 -14zm-137 47c18,3 36,3 54,0 22,-4 42,-13 59,-25l12 12c-19,14 -42,25 -68,30 -22,4 -44,3 -64,-2l7 -15zm7 -119l-53 193c-1,2 1,3 2,1l86 -176 142 134c2,2 3,0 2,-2l-121 -164c0,14 -11,26 -25,29 -14,2 -27,-4 -33,-15zm76 103l-9 -45 -30 -29 -19 38 9 47c17,0 33,-4 49,-11zm-30 115c2,13 51,4 49,-9l-14 -75c-15,6 -32,10 -48,11l13 73zm-23 -258c13,-2 26,6 28,19 2,14 -6,26 -20,29 -13,2 -25,-7 -28,-20 -2,-13 7,-26 20,-28zm-88 -28l123 -23 47 11 3 16 -51 29 -4 1c-7,-10 -19,-15 -32,-13 -12,2 -22,12 -24,23l-52 10 -4 -3 -8 -48 2 -3zm286 317c-3,3 -6,6 -9,10 -7,7 -12,8 -17,6 -7,-2 -15,-4 -22,-6 0,-2 1,-5 1,-7 0,-2 1,-5 1,-7 3,0 6,1 9,2 11,3 25,4 37,2zm-280 52c4,2 7,4 11,6 9,4 15,2 18,-1 6,-4 13,-9 19,-13 -2,-4 -5,-8 -7,-13 -3,2 -5,4 -7,5 -10,7 -22,13 -34,16zm237 -82c0,-1 0,-1 0,-2 0,-2 -1,-4 -3,-6 -1,0 -3,-1 -5,-1 -3,0 -28,-1 -33,-8 0,1 -1,2 -1,3 0,7 -1,11 -1,16 6,1 12,2 18,3 3,0 6,-1 10,-1 5,-1 10,-3 15,-4zm-208 38c0,0 0,-1 0,-1 -1,-3 -2,-5 0,-7 1,-1 3,-2 4,-3 3,-1 26,-11 28,-19 1,1 2,2 2,3 3,6 5,9 8,14 -5,3 -9,5 -14,7 -3,2 -7,3 -11,4 -3,1 -6,1 -10,2l-7 0zm313 -110c-2,6 -5,12 -8,19 -19,9 -37,11 -57,11 -19,0 -39,5 -60,12 -1,0 -2,0 -3,0 4,-4 8,-7 11,-11 8,-4 16,-8 25,-10 22,-7 45,-7 67,-13 9,-2 17,-5 25,-8zm-437 80c5,5 9,10 14,15 21,2 40,-2 58,-9 17,-7 38,-10 60,-11 1,0 2,-1 3,-1 -5,-2 -10,-4 -14,-6 -9,-1 -18,-2 -27,-1 -23,1 -45,10 -67,12 -9,1 -18,1 -27,1zm356 -102c11,-8 29,-15 48,-19 19,-4 35,-11 49,-26 -1,9 -3,18 -5,27 -6,4 -12,8 -19,12 -27,12 -56,14 -83,26 4,-7 7,-13 10,-20zm-288 53c-13,-4 -33,-3 -51,-1 -20,4 -37,3 -55,-7 4,8 8,16 13,24 8,2 15,3 23,4 29,2 57,-7 86,-5 -6,-5 -11,-10 -16,-15zm88 126c2,4 4,7 5,11 3,5 12,5 18,4 20,-2 29,-12 61,-18 32,-6 43,0 63,-5 6,-1 14,-4 15,-10 0,-4 0,-8 1,-12 -14,8 -35,6 -50,7 -10,0 -22,2 -32,4 -11,1 -22,4 -33,8 -14,4 -32,13 -48,11zm-10 -18c3,4 5,8 7,12 8,1 14,1 22,-1 11,-3 21,-8 32,-11 15,-5 31,-8 47,-10 7,-1 14,-1 21,-1 16,0 30,0 45,-7 0,-5 1,-9 2,-14 -15,4 -30,4 -45,3 -15,0 -31,1 -46,4 -14,3 -28,7 -42,13 -15,6 -27,10 -43,12zm81 -54c-15,3 -31,7 -45,11 -19,6 -25,18 -53,19 6,6 10,13 14,19 18,-1 33,-9 49,-15 13,-5 26,-8 39,-11 13,-2 27,-3 40,-3 16,-1 32,1 47,-3 2,0 3,-1 5,-1 1,-7 3,-15 6,-22 -26,8 -37,-1 -56,1 -15,1 -31,2 -46,5zm-156 55c5,3 11,7 16,10l9 -2c3,-1 5,-2 8,-3 4,-1 7,-3 10,-4 4,-3 8,-5 11,-7 3,-2 5,-4 7,-5 -2,-4 -5,-7 -8,-11 0,0 0,0 0,0 -7,5 -14,9 -22,12 -9,4 -18,7 -27,9 -1,0 -2,1 -4,1zm321 -59c-4,5 -8,10 -12,15l-8 1 -4 0c-9,1 -17,0 -25,-2 -4,-1 -8,-2 -12,-3 1,-4 2,-8 4,-12 0,0 0,0 0,0 7,1 15,3 23,3 7,0 15,0 23,-1 4,0 7,-1 11,-1zm-348 38c7,6 14,11 21,16 19,-3 36,-8 53,-19 1,-1 2,-1 2,-2 -7,-8 -2,-16 8,-21 6,-3 20,-8 23,-15 -3,-1 -7,0 -12,1 -15,4 -22,12 -39,21 -18,9 -36,16 -56,19zm366 -67c-4,7 -9,15 -14,22 -19,4 -36,5 -56,1 -1,0 -2,0 -3,-1 2,-6 0,-12 -6,-15 -4,-2 -8,-2 -12,-2 -6,0 -19,-1 -23,-6 2,-2 6,-2 11,-3 15,-2 25,4 44,6 20,2 39,2 59,-2zm-430 2c5,7 10,14 15,20 7,0 13,1 20,0 6,0 13,-1 19,-2 16,-2 31,-7 46,-9 7,-2 14,-2 21,-2 2,0 4,0 6,0 -5,-3 -9,-6 -14,-9 -4,0 -8,0 -12,0 -4,-1 -8,-1 -13,0 -17,1 -34,4 -51,5 -4,0 -7,0 -11,0 -6,0 -11,0 -16,-1 -4,-1 -7,-1 -10,-2zm467 -86c-2,8 -5,16 -7,24 -3,1 -6,2 -8,4 -7,2 -13,4 -20,6 -17,5 -34,6 -52,9 -7,1 -14,3 -21,5 -3,1 -6,3 -9,4 4,-4 7,-9 10,-14 6,-2 12,-5 18,-7 14,-5 28,-8 41,-11 2,-1 4,-1 6,-2 10,-3 21,-6 30,-11 4,-2 8,-5 12,-7zm-324 -311l47 -9 4 83 -24 5 -27 -79z" style="paint-order: fill;"/>
      </g>
      <polygon class="fil0" points="11093,11273 11588,11223 13659,11920 12396,12152 " style="paint-order: fill;"/>
      <path class="fil5" d="M6699 9920l1303 -535c-324,202 -487,497 -353,808l3939 1020 -596 71 -4202 -1192 -91 -172z" style="paint-order: fill;"/>
      <path class="fil0" d="M23024 10050l-536 -129c309,353 274,769 159,1201l308 -248 89 -466 -20 -358z" style="paint-order: fill;"/>
      <path class="fil5" d="M16047 12423c76,-79 122,-104 129,-232l949 51c1644,-96 3100,-420 4398,-1051 136,108 339,159 634,135l-217 78 -2490 873 -1910 232 -1312 240 -1511 107 1330 -433z" style="paint-order: fill;"/>
      <path class="fil6" d="M2471 15689c135,0 244,34 244,76 0,42 -109,75 -244,75 -135,0 -244,-33 -244,-75 0,-42 109,-76 244,-76z" style="paint-order: fill;"/>
      <path class="fil0" d="M2792 15488l-624 182c329,-40 658,-44 945,-6 569,75 1045,345 1060,470l174 -50 11502 -3624c-48,5 232,-63 186,-59 521,-649 -881,-948 -1570,-1028l0 6c1447,450 1773,439 213,971 -2426,828 -9913,2787 -11886,3138z" style="paint-order: fill;"/>
      <path class="fil1" d="M7017 9758l110 -49c2893,535 5533,818 8228,766 1923,-37 3779,-359 5571,-651l22 90c-2332,355 -4486,827 -7415,663 -2017,-113 -4218,-372 -6516,-819z" style="paint-order: fill;"/>
      <path class="fil1" d="M6736 9899l208 -92c2555,509 5087,881 7586,892 2355,11 4516,-329 6428,-671l70 295c-2821,503 -4727,752 -6472,655 -2279,-126 -4876,-436 -7820,-1079z" style="paint-order: fill;"/>
      <path class="fil2" d="M20031 11078c17,57 68,97 151,97 -131,-390 -208,-779 -229,-1168 -79,34 -102,83 -96,142 29,321 83,633 174,929zm-213 32c17,57 69,96 151,96 -131,-389 -208,-779 -229,-1168 -78,34 -102,83 -96,142 30,321 83,633 174,930zm-213 31c18,57 69,96 151,96 -131,-389 -208,-778 -229,-1168 -78,34 -101,84 -96,142 30,321 83,633 174,930zm-213 31c18,57 69,96 152,96 -131,-389 -208,-778 -229,-1167 -79,34 -102,83 -97,142 30,321 84,632 174,929zm-212 31c17,57 68,96 151,96 -131,-389 -208,-778 -229,-1167 -78,34 -102,83 -96,142 29,321 83,633 174,929zm-213 32c17,57 69,96 151,96 -131,-390 -208,-779 -229,-1168 -78,34 -101,83 -96,142 30,321 83,633 174,930zm-213 31c18,57 69,96 151,96 -131,-389 -207,-779 -229,-1168 -78,34 -101,83 -96,142 30,321 83,633 174,930zm-212 31c17,57 68,96 151,96 -131,-389 -208,-778 -229,-1168 -79,35 -102,84 -96,142 29,322 83,633 174,930zm-213 31c17,57 69,96 151,96 -131,-389 -208,-778 -229,-1167 -78,34 -102,83 -96,142 30,321 83,632 174,929zm-213 31c18,57 69,97 151,97 -131,-390 -208,-779 -229,-1168 -78,34 -101,83 -96,142 30,321 83,633 174,929zm-213 32c18,57 69,96 152,96 -131,-389 -208,-779 -229,-1168 -79,34 -102,83 -97,142 30,321 84,633 174,930zm2340 -344c18,57 69,96 151,96 -131,-389 -207,-778 -229,-1167 -78,34 -101,83 -96,142 30,321 83,632 174,929z" style="paint-order: fill;"/>
      <path class="fil4" d="M6746 9901l218 -90c213,42 426,84 639,124 -4,48 0,98 10,148 -286,-58 -575,-118 -867,-182zm322 -133l118 -48c149,27 298,54 446,80 -8,23 -15,47 -20,71 -180,-33 -362,-67 -544,-103z" style="paint-order: fill;"/>
      <path class="fil2" d="M16660 6498c-742,-73 -2750,585 -3739,1416l-357 228c-482,307 -698,997 -274,1829l-124 -1c-363,-764 -215,-1500 255,-1832l289 -205 -4515 862 50 -65 3021 -644 -2602 -105c-28,275 -157,473 -356,619l-51 15c235,-214 347,-436 339,-664l-2336 -4217 -602 98c8,50 33,105 121,168 -128,-7 -173,-70 -199,-155l-13 2 2089 4996 -1067 142 -4559 1822c688,3 1187,-149 1540,287l4361 -1749c213,-147 -766,-275 -1286,-216 493,-141 1084,-75 1363,38 156,63 156,176 44,241l-1293 545c21,91 227,143 347,173l3823 1064c830,-5 1721,-214 2544,-8 76,11 -40,-34 -16,36 -839,-117 -1494,29 -2164,101l1164 786c631,-171 1263,-250 1894,-240l90 56c-574,-6 -1364,113 -1875,279l-11839 3846c79,93 2803,103 3029,95 326,-11 467,-47 708,-123l11513 -3630c41,-4 292,-127 108,-432 166,202 135,381 -34,518 -28,23 -905,263 -904,282 221,14 1092,30 2319,-275 -692,2 -840,-1686 -805,-2444 845,-1217 1962,-1722 2221,-1893 -335,-468 -1646,-1428 -2222,-1646zm-11680 -2240l632 -98 -81 -194 -621 99 70 193zm643 -70l-632 100 70 192 643 -98 -81 -194zm93 221l-645 101 70 193 656 -100 -81 -194zm92 222l-656 101 70 193 667 -100 -81 -194zm92 221l-667 103 70 193 678 -102 -81 -194zm93 222l-680 103 70 193 691 -102 -81 -194zm92 221l-691 104 70 193 702 -103 -81 -194zm92 222l-702 105 70 193 713 -104 -81 -194zm93 221l-715 106 70 193 726 -104 -81 -195zm92 222l-726 107 70 193 737 -106 -81 -194zm92 221l-737 108 70 193 748 -106 -81 -195zm93 222l-750 108 70 193 761 -107 -81 -194zm92 221l-761 110 70 193 772 -108 -81 -195zm92 222l-772 110 70 193 783 -109 -81 -194zm93 222l-785 110 70 193 796 -109 -81 -194zm92 221l-796 112 70 193 807 -111 -81 -194zm92 222l-807 112 70 193 818 -111 -81 -194zm93 221l-820 114 70 193 831 -113 -81 -194zm92 222l-831 114 70 193 842 -113 -81 -194zm93 221l-843 115 70 193 853 -114 -80 -194zm92 222l-855 116 70 193 866 -115 -81 -194zm92 221l-866 117 46 128 876 -111 -56 -134zm-2571 -4582l621 -97 -38 -90 -614 101 31 86zm17383 7296l0 1 0 142c0,88 -72,159 -159,159l0 0c-88,0 -160,-71 -160,-159l0 -14c-24,10 -48,19 -71,28l0 128c0,87 -72,159 -160,159l0 0c-87,0 -159,-72 -159,-159l0 -9c-39,14 -73,26 -100,35 -93,32 -110,34 -176,66l384 1084c20,82 51,81 77,220 50,23 78,13 122,48 57,45 22,56 57,109 26,40 50,30 77,72 195,10 364,80 489,199 -3,42 -21,75 -49,100 218,206 333,561 316,841 -15,245 -192,441 -394,536 -157,74 -472,66 -622,-23 -195,-94 -316,-333 -358,-578l-153 28c-75,-392 9,-719 254,-979l-45 -127c49,-75 62,-144 3,-235 -99,-61 -169,42 -220,-97 -53,-141 44,-104 -77,-373l-243 -720 -497 183c192,618 -668,990 -1051,335l-1449 285 -251 -88 -1400 257 -1243 122c-365,269 -786,608 -983,1015 -49,101 -136,431 -138,539 308,114 621,413 704,886 34,201 -6,533 -146,689 -288,323 -706,391 -1041,97 -633,-558 -527,-1496 183,-1673 -34,-258 156,-994 437,-1309l-7918 2481c-603,177 -1214,409 -1822,555 -488,117 -3393,73 -3736,-80 -201,-37 20,-176 206,-235l11481 -3726 -1154 -773 -4069 -1162c-306,-87 -342,-134 -365,-215l-2854 1117c-277,109 -523,141 -675,137 -216,-5 -528,-90 -736,-157 -95,-31 -667,-243 -740,-248l4898 -1970 -1794 -4994 831 -139c-7,-84 45,-143 114,-156 62,-12 133,17 171,113l436 -66 2333 4254 387 19c11,-4 20,-9 30,-12l1489 -563c74,0 204,4 355,14l-302 -599 40 2 363 605c273,22 584,67 756,148 175,82 143,124 1,186l-440 194 83 138 125 6 1428 -288c852,-575 1573,-931 2708,-1213 716,-177 927,-190 1360,32 686,371 1339,849 1951,1467 21,31 36,39 80,64 474,-1 703,-18 1221,26l6674 -3561c318,-90 980,-219 1308,-245 276,-21 745,-52 933,146 189,233 -38,321 -198,421l-5874 3646c660,142 979,465 988,714 17,426 -667,817 -1030,869 -11,47 1,72 10,227 10,176 -16,487 -119,636 -59,83 -365,229 -692,365zm-633 2841c-5,100 -71,78 -106,116 36,190 133,369 350,437 223,93 515,-96 506,-310 5,-31 -20,-433 -158,-424 7,118 66,271 4,394 -18,132 -268,155 -337,164 -61,-34 -120,-111 -121,-181 39,-139 217,81 81,-289 -29,-80 -105,-88 -89,-178 38,-201 315,-39 412,-91 -181,-299 -665,-139 -542,362zm-766 -4489l-4153 333 -1 1c-45,632 8,2561 960,2432 1416,-135 2831,-558 4247,-1084 -657,115 -972,-1140 -1053,-1682zm-6418 1634c-4,-2 -6,-4 -7,-6l7 1 0 5zm-3177 -3500l-235 -392c254,29 510,80 629,127 116,46 46,79 -26,111l-368 154zm-345 -403l228 452 -310 131 -1620 -81 1311 -509c103,-10 243,-6 391,7zm262 520l39 76 -191 -9 152 -67zm9349 206c432,14 1985,181 2483,347l6108 -3806c93,-99 -86,-249 -302,-281 -467,-68 -1344,109 -1782,231l-6507 3509zm-959 4136l565 -198c6,195 -346,409 -565,198zm2910 -1988c-38,4 -203,75 -227,105 -52,66 43,156 102,182 199,87 298,-87 125,-287zm-201 -173c-96,-89 -210,-196 -302,-288 -41,-41 -62,-93 -116,-58 -314,53 234,847 418,346zm-903 718c-195,-402 -470,-1150 -307,-1578 136,-358 711,-871 1282,-796 286,34 453,63 534,90 -476,-7 -732,327 -763,684 -35,406 233,866 790,866 21,96 17,476 -6,595 -48,238 -172,323 -361,406 -846,370 -922,150 -1169,-267zm-7979 4078c210,-86 474,102 588,420 114,319 36,647 -175,733 -211,87 -474,-101 -589,-420 -114,-318 -35,-646 176,-733zm89 232c119,-56 269,64 334,267 64,203 20,412 -100,467 -119,55 -269,-64 -334,-267 -64,-203 -20,-412 100,-467z" style="paint-order: fill;"/>
      <path class="fil1" d="M23006 9986c-596,33 -763,-470 -755,-710 8,-215 105,-612 708,-648 384,-24 1130,260 1053,690 -62,346 -669,649 -1006,668z" style="paint-order: fill;"/>
      <path class="fil4" d="M23006 9986c-566,32 -746,-421 -754,-673 95,231 338,478 835,455 242,-12 604,-130 864,-300 -175,279 -658,502 -945,518z" style="paint-order: fill;"/>
      <path class="fil1" d="M5824 3712c-31,-116 -187,-115 -172,25l172 -25z" style="paint-order: fill;"/>
      <path class="fil7" d="M12921 7914c989,-831 2997,-1489 3739,-1416 412,188 1315,1013 1560,1391 -19,7 -458,16 -497,12 -194,-220 -973,-1108 -1196,-1153 -127,-26 -673,286 -790,379 -138,109 -226,117 -300,295 -116,277 75,281 53,464 -44,42 -209,154 -271,158 -105,-71 -80,-180 -213,-156 -107,156 161,914 211,1116 43,173 242,520 344,694 41,69 66,188 149,206 32,-68 61,-264 80,-350 30,-139 74,-158 173,-249 432,-398 567,-401 360,-551 -215,-155 -189,-43 -340,-31 -83,7 -134,37 -199,36 -109,-58 -338,-432 -205,-568 69,-24 218,-14 294,-5 218,25 104,5 235,-62 147,-75 85,-51 122,-139 -5,0 -9,0 -14,0 -189,-12 -59,-141 -220,-164 -106,-15 -207,21 -244,-132 -20,-87 4,-98 18,-168 25,-123 -130,-194 180,-325 118,-50 415,109 455,263 28,106 -75,195 -72,296 1,30 8,63 12,95 18,-26 13,-40 54,-73 62,-8 96,15 159,3 60,-10 68,-47 140,-41 54,5 434,347 677,467 167,82 150,-153 558,-144 132,3 677,15 832,15l41 54c-872,419 -1539,984 -2207,1890 -371,232 -677,424 -999,13 -426,-478 -833,-1663 -901,-2313 -28,-161 15,-200 195,-320 463,-306 1194,-651 1669,-833 -667,117 -1053,305 -1850,768 -149,86 -194,157 -451,249l-1513 538c-17,-29 26,-91 172,-209zm-295 462c-187,114 -453,420 -430,534 34,167 284,1093 388,1101l425 29c-250,-547 -357,-1282 -311,-1637 9,-69 -25,-55 -72,-27zm1470 1680c-158,-265 -263,-454 -317,-573 -146,-317 -137,-335 140,-517 150,-98 483,-359 598,-190l317 464c-224,-504 -325,-1018 -388,-1268 -33,-134 -45,-155 -73,-146l-1375 461c-84,41 -105,42 -100,192 27,559 134,1010 373,1559l825 18z" style="paint-order: fill;"/>
      <path class="fil2" d="M13655 11051l1970 283 107 -836c-145,-165 -278,-339 -399,-522 -450,-648 -675,-1426 -838,-2201 -8,-38 -24,-44 -67,-29l-1540 515c-43,14 -52,13 -58,85 -70,907 390,1926 825,2705zm-28 42c-675,-1211 -875,-2083 -839,-2739 6,-114 23,-115 87,-137l1546 -517c54,-18 102,-18 119,68 238,1215 615,2006 1240,2716l-116 901 -2037 -292z" style="paint-order: fill;"/>
    </g>
    <path class="fil8" d="M8442 9810c107,13 213,26 321,38 16,-23 33,-46 50,-69 -13,-53 -25,-105 -38,-158 -12,-52 -24,-104 -37,-157 -12,-52 -25,-105 -37,-157 -13,-53 -25,-105 -37,-158 -28,-25 -56,-49 -82,-74 -105,6 -209,12 -313,18 14,60 28,120 43,179 14,60 29,120 44,180 14,59 28,119 43,179 14,60 29,119 43,179zm-29 -611c48,-1 95,-2 143,-4 21,89 42,177 64,265 21,89 42,177 63,265 -49,-4 -98,-8 -146,-13 -21,-85 -41,-171 -62,-256 -21,-86 -42,-171 -62,-257zm495 666c107,11 214,22 320,33 16,-26 32,-52 49,-78 -14,-57 -27,-115 -40,-172 -14,-57 -27,-115 -40,-172 -14,-58 -27,-115 -41,-173 -13,-57 -27,-114 -40,-172 -28,-27 -56,-54 -83,-81 -105,6 -209,12 -313,18 15,66 31,133 47,199 15,66 31,133 47,199 16,67 32,133 47,199 16,67 32,133 47,200zm-41 -679c47,-1 95,-3 142,-4 12,48 23,97 34,145 12,49 23,97 35,146 11,48 23,97 34,146 11,48 23,97 34,145 -49,-3 -97,-7 -146,-11 -22,-95 -44,-189 -66,-283 -23,-95 -45,-190 -67,-284zm506 726c40,4 80,7 120,11 -15,-65 -30,-131 -45,-197 -15,-65 -31,-131 -46,-196 45,1 90,2 136,3 15,67 30,134 46,201 15,67 31,134 46,201 40,4 78,7 117,10 -15,-67 -30,-134 -46,-202 -15,-67 -31,-134 -46,-201 -25,-25 -49,-50 -73,-75 13,-26 25,-52 37,-79 -10,-45 -20,-91 -31,-137 -10,-45 -21,-91 -31,-137 -29,-29 -57,-59 -85,-88 -100,5 -201,11 -300,16 16,73 33,145 50,218 16,72 33,145 50,217 17,73 34,145 51,218 17,72 33,144 50,217zm-54 -745c44,-2 88,-3 133,-5 9,40 19,79 28,119 9,39 18,79 27,118 -45,0 -90,0 -134,0 -9,-39 -18,-78 -27,-116 -9,-39 -18,-78 -27,-116zm431 504c80,3 159,6 239,9 -10,-45 -21,-91 -31,-137 -79,-1 -159,-3 -238,-5 10,45 20,89 30,133zm92 -666c27,80 54,160 80,241 27,80 55,161 82,242 27,81 54,163 81,245 27,81 54,163 82,245 54,4 108,8 162,12 -6,-53 -12,-105 -18,-158 -6,-52 -11,-105 -17,-158 -6,-53 -13,-106 -19,-159 -6,-53 -12,-107 -18,-160 0,-7 -1,-19 -4,-35 -3,-16 -6,-36 -10,-60 -4,-24 -10,-55 -16,-95 6,21 11,39 16,55 4,16 9,29 12,39 7,24 12,45 16,61 4,16 9,27 11,35 18,53 37,107 54,161 18,53 36,107 54,161 18,54 37,108 55,162 18,54 36,108 55,162 53,4 107,7 161,11 -11,-87 -21,-173 -32,-260 -10,-86 -20,-173 -31,-260 -11,-87 -22,-175 -33,-262 -10,-88 -21,-176 -32,-264 -37,2 -76,4 -114,7 7,54 14,107 20,161 6,54 13,108 20,161 6,54 13,107 20,161 7,53 13,106 20,160 0,4 2,16 5,34 3,18 7,44 13,77 1,8 5,26 9,55 3,17 6,35 9,52 -7,-24 -12,-46 -17,-63 -5,-18 -10,-33 -13,-44 -8,-30 -14,-54 -19,-72 -5,-19 -9,-32 -11,-40 -18,-53 -36,-106 -53,-159 -18,-53 -36,-106 -53,-159 -18,-53 -35,-106 -53,-158 -17,-53 -34,-105 -52,-158 -51,3 -101,6 -152,9 6,52 12,104 17,156 6,51 11,103 17,155 6,51 12,103 17,154 6,51 12,103 17,154 1,4 3,15 6,33 4,17 8,42 14,74 1,6 3,13 4,21 1,9 3,20 4,32 3,16 5,33 8,50 -7,-23 -13,-46 -19,-69 -2,-7 -4,-14 -5,-19 -2,-6 -4,-10 -5,-15 -19,-63 -27,-100 -30,-108 -16,-51 -33,-102 -50,-153 -17,-51 -34,-102 -51,-153 -17,-51 -34,-101 -51,-152 -16,-50 -33,-101 -50,-151 -38,2 -75,4 -113,6zm963 1015c36,3 72,5 109,7 -12,-56 -25,-111 -37,-167 -13,-55 -25,-111 -37,-167 -13,-55 -25,-111 -37,-166 -13,-56 -25,-112 -37,-167 -9,-37 -18,-74 -27,-111 -3,-10 -7,-23 -10,-37 -2,-15 -8,-40 -17,-75 5,16 10,32 15,49 6,20 13,41 20,62 11,33 19,59 24,76 5,17 9,28 12,35 21,56 42,112 63,168 21,56 42,112 63,168 21,56 43,113 64,169 21,57 42,113 63,170 36,2 71,4 107,6 -4,-57 -8,-113 -11,-170 -4,-57 -8,-114 -12,-171 -4,-57 -8,-114 -12,-172 -3,-57 -7,-114 -11,-172 -2,-16 -5,-47 -10,-90 -6,-44 -12,-91 -19,-142 7,32 12,57 16,74 4,18 6,32 8,44 7,38 15,76 22,114 12,57 25,115 38,173 12,57 26,115 38,173 13,57 26,115 38,172 13,58 26,116 38,173 36,2 73,4 109,6 -20,-93 -40,-187 -61,-280 -20,-93 -40,-187 -61,-280 -20,-93 -41,-186 -62,-279 -20,-94 -40,-187 -61,-280 -56,3 -113,6 -169,9 4,57 7,113 11,169 4,56 8,113 12,169 4,55 8,111 12,167 3,55 7,111 12,166 0,4 1,13 3,25 1,13 4,37 11,74 3,15 6,31 9,46 2,12 4,24 6,35 -4,-13 -8,-27 -11,-41 -4,-13 -8,-27 -12,-41 -10,-35 -17,-60 -21,-73 -4,-14 -7,-22 -8,-25 -21,-55 -42,-111 -62,-166 -20,-55 -41,-110 -61,-165 -21,-55 -42,-109 -62,-164 -20,-54 -40,-109 -60,-163 -56,3 -113,6 -170,9 19,88 39,176 58,264 20,89 40,176 60,264 19,88 39,177 58,264 20,88 39,176 59,264zm625 35c125,5 251,11 377,17 -14,-66 -28,-131 -43,-197 -70,-2 -140,-4 -210,-6 -4,0 -11,2 -20,6 -8,5 -17,11 -26,19 8,-11 13,-23 18,-34 4,-11 7,-20 8,-27 4,-63 9,-126 14,-189 5,-64 9,-128 14,-192 5,-64 9,-128 14,-193 4,-65 8,-130 13,-195 -11,-52 -22,-103 -33,-155 -119,7 -236,13 -354,20 13,61 26,123 40,185 65,-3 130,-5 195,-8 1,0 6,-2 14,-7 7,-4 16,-10 25,-17 -2,6 -4,9 -7,12 -2,3 -3,7 -6,13 -4,10 -7,16 -8,19 -1,4 -2,6 -2,9 -5,64 -10,128 -15,192 -4,64 -9,128 -14,191 -5,63 -10,126 -14,189 -5,62 -10,125 -15,187 12,54 23,107 35,161z" style="paint-order: fill;"/>
  </g>
</svg>