<?xml version="1.0" encoding="utf-8"?>
<svg viewBox="0 0 702 101" width="702px" height="101px" xmlns="http://www.w3.org/2000/svg">
  <g transform="matrix(1, 0, 0, 1, -19.353001, -250.839996)">
    <path d="M 21.353 252.84 L 719.373 252.84 L 719.373 349.815 L 21.353 349.815 L 21.353 252.84 Z" fill="#c7c7c7" stroke="#000" stroke-linecap="round" stroke-width="3"/>
    <path d="M 24.888 255.55 L 47.111 255.55 L 47.111 261.106 L 24.888 261.106 L 24.888 255.55 Z" fill="#fff"/>
    <path d="M 24.888 265.11 L 47.111 265.11 L 47.111 270.666 L 24.888 270.666 L 24.888 265.11 Z" fill="#fff"/>
    <path d="M 24.888 274.66 L 47.111 274.66 L 47.111 280.216 L 24.888 280.216 L 24.888 274.66 Z" fill="#fff"/>
    <path d="M 24.888 284.22 L 47.111 284.22 L 47.111 289.776 L 24.888 289.776 L 24.888 284.22 Z" fill="#fff"/>
    <path d="M 24.888 293.77 L 47.111 293.77 L 47.111 299.326 L 24.888 299.326 L 24.888 293.77 Z" fill="#fff"/>
    <path d="M 24.888 303.33 L 47.111 303.33 L 47.111 308.886 L 24.888 308.886 L 24.888 303.33 Z" fill="#fff"/>
    <path d="M 24.888 312.88 L 47.111 312.88 L 47.111 318.436 L 24.888 318.436 L 24.888 312.88 Z" fill="#fff"/>
    <path d="M 24.888 322.44 L 47.111 322.44 L 47.111 327.996 L 24.888 327.996 L 24.888 322.44 Z" fill="#fff"/>
    <path d="M 24.888 332 L 47.111 332 L 47.111 337.556 L 24.888 337.556 L 24.888 332 Z" fill="#fff"/>
    <path d="M 24.888 341.55 L 47.111 341.55 L 47.111 347.106 L 24.888 347.106 L 24.888 341.55 Z" fill="#fff"/>
    <path d="M 692.38 255.55 L 714.603 255.55 L 714.603 261.106 L 692.38 261.106 L 692.38 255.55 Z" fill="#fff"/>
    <path d="M 692.38 265.11 L 714.603 265.11 L 714.603 270.666 L 692.38 270.666 L 692.38 265.11 Z" fill="#fff"/>
    <path d="M 692.38 274.66 L 714.603 274.66 L 714.603 280.216 L 692.38 280.216 L 692.38 274.66 Z" fill="#fff"/>
    <path d="M 692.38 284.22 L 714.603 284.22 L 714.603 289.776 L 692.38 289.776 L 692.38 284.22 Z" fill="#fff"/>
    <path d="M 692.38 293.77 L 714.603 293.77 L 714.603 299.326 L 692.38 299.326 L 692.38 293.77 Z" fill="#fff"/>
    <path d="M 692.38 303.33 L 714.603 303.33 L 714.603 308.886 L 692.38 308.886 L 692.38 303.33 Z" fill="#fff"/>
    <path d="M 692.38 312.88 L 714.603 312.88 L 714.603 318.436 L 692.38 318.436 L 692.38 312.88 Z" fill="#fff"/>
    <path d="M 692.38 322.44 L 714.603 322.44 L 714.603 327.996 L 692.38 327.996 L 692.38 322.44 Z" fill="#fff"/>
    <path d="M 692.38 332 L 714.603 332 L 714.603 337.556 L 692.38 337.556 L 692.38 332 Z" fill="#fff"/>
    <path d="M 692.38 341.55 L 714.603 341.55 L 714.603 347.106 L 692.38 347.106 L 692.38 341.55 Z" fill="#fff"/>
    <path d="M 635.69 298.55 L 657.913 298.55 L 657.913 304.106 L 635.69 304.106 L 635.69 298.55 Z" fill="#fff"/>
    <path d="M 591.69 298.55 L 613.913 298.55 L 613.913 304.106 L 591.69 304.106 L 591.69 298.55 Z" fill="#fff"/>
    <path d="M 541.69 298.55 L 563.913 298.55 L 563.913 304.106 L 541.69 304.106 L 541.69 298.55 Z" fill="#fff"/>
    <path d="M 541.69 298.55 L 563.913 298.55 L 563.913 304.106 L 541.69 304.106 L 541.69 298.55 Z" fill="#fff"/>
    <path d="M 399.69 298.55 L 421.913 298.55 L 421.913 304.106 L 399.69 304.106 L 399.69 298.55 Z" fill="#fff"/>
    <path d="M 355.69 298.55 L 377.913 298.55 L 377.913 304.106 L 355.69 304.106 L 355.69 298.55 Z" fill="#fff"/>
    <path d="M 305.69 298.55 L 327.913 298.55 L 327.913 304.106 L 305.69 304.106 L 305.69 298.55 Z" fill="#fff"/>
    <path d="M 259.69 298.55 L 281.913 298.55 L 281.913 304.106 L 259.69 304.106 L 259.69 298.55 Z" fill="#fff"/>
    <path d="M 215.69 298.55 L 237.913 298.55 L 237.913 304.106 L 215.69 304.106 L 215.69 298.55 Z" fill="#fff"/>
    <path d="M 165.69 298.55 L 187.913 298.55 L 187.913 304.106 L 165.69 304.106 L 165.69 298.55 Z" fill="#fff"/>
    <path d="M 119.69 298.55 L 141.913 298.55 L 141.913 304.106 L 119.69 304.106 L 119.69 298.55 Z" fill="#fff"/>
    <path d="M 75.693 298.55 L 97.916 298.55 L 97.916 304.106 L 75.693 304.106 L 75.693 298.55 Z" fill="#fff"/>
    <path d="M 445.69 298.55 L 467.913 298.55 L 467.913 304.106 L 445.69 304.106 L 445.69 298.55 Z" fill="#fff"/>
    <path d="M 495.69 298.55 L 517.913 298.55 L 517.913 304.106 L 495.69 304.106 L 495.69 298.55 Z" fill="#fff"/>
  </g>
</svg>