<?xml version="1.0" encoding="utf-8"?>
<svg width="239px" height="239px" viewBox="0 0 239 239" xmlns="http://www.w3.org/2000/svg">
  <circle cx="119.389" cy="121.014" r="97" style="fill: rgb(154, 154, 154); stroke: rgb(154, 154, 154); fill-opacity: 0; stroke-width: 20.7528px;"/>
  <rect x="107.496" y="11.062" width="24.103" height="215.789" style="fill: rgb(216, 216, 216); stroke: rgb(0, 0, 0);"/>
  <rect x="222.009" y="37.244" width="21.053" height="216.268" style="stroke: rgb(0, 0, 0); fill: rgb(183, 183, 183);" transform="matrix(0, 1, -1, 0, 265.376709, -114.296471)"/>
  <g transform="matrix(0.061788, 0, 0, 0.061788, 204.435211, 85.064674)" stroke="#000" stroke-linecap="round" stroke-linejoin="round" stroke-width="2.5615">
    <path d="m239.68 967.57 282.24-7.5072-28.849-841.44-275.44-53.334z" fill="#fff"/>
    <path d="m237.43 94.477 19.731 3.6699 1.7894 66.355-19.61-3.1715z" fill="#000030"/>
    <path d="m234.02 93.842-7.5956 4.3361 1.4426 52.143 8.0298 10.452z" fill="#000030"/>
    <path d="m259.82 98.642 9.4934 7.6797 1.5173 51.339-9.0758 7.2951z" fill="#000030"/>
    <path d="m280.47 102.32-7.0822 4.7777 1.4562 51.251 7.5768 9.9519z" fill="#000030"/>
    <path d="m284.4 103.21 17.934 3.4504 1.9283 65.167-17.924-2.8989z" fill="#000030"/>
    <path d="m306.46 107.34 8.7514 7.6928 1.5105 50.465-8.4469 6.9798z" fill="#000030"/>
    <path d="m326.05 110.96-6.9183 4.8188 1.5352 50.395 7.4216 9.5104z" fill="#000030"/>
    <path d="m328.58 111.47 17.965 3.3004 1.6289 64.16-17.52-2.8335z" fill="#000030"/>
    <path d="m350.07 115.43 9.3867 8.0068 1.4396 49.611-9.2119 6.4546z" fill="#000030"/>
    <path d="m370.09 119.15-7.4898 4.8799 1.5835 49.576 7.9398 9.1987z" fill="#000030"/>
    <path d="m373.6 119.8 16.306 3.0328 2.0974 63.184-16.361-2.6461z" fill="#000030"/>
    <path d="m394.05 123.61 8.425 7.9935 1.579 48.816-7.9331 6.2692z" fill="#000030"/>
    <path d="m413.98 127.32-7.7792 4.9939 1.6459 48.757 8.1851 8.8415z" fill="#000030"/>
    <path d="m417.69 128.01 15.656 2.9121 2.0907 62.129-15.753-2.5477z" fill="#000030"/>
    <path d="m437.25 131.64 7.5741 7.9982 1.6673 48.026-7.1587 6.0087z" fill="#000030"/>
    <path d="m459.28 135.74 2.1147 61.503 15.754 2.5479-2.0287-61.105z" fill="#000030"/>
    <path d="m455.47 135.03-6.6401 5.3698 1.646 47.946 7.0868 8.2765z" fill="#000030"/>
    <path d="m478.24 139.27 7.3974 8.1224 1.7268 47.259-6.9723 5.6675z" fill="#000030"/>
    <path d="m235.99 164.31-7.5449 7.1223 1.3786 49.833 8.0336 9.6362z" fill="#000030"/>
    <path d="m239.44 164.85 19.602 3.0747 1.7956 66.588-19.494-3.0641z" fill="#000030"/>
    <path d="m261.86 168.37 9.5784 9.6627 1.4899 50.414-9.1248 6.5354z" fill="#000030"/>
    <path d="m282.52 171.61-7.0979 7.0334 1.4337 50.457 7.6341 9.1326z" fill="#000030"/>
    <path d="m286.43 172.22 17.922 2.8112 1.9715 66.63-17.929-2.8181z" fill="#000030"/>
    <path d="m308.36 175.66 8.9441 9.4081 1.527 51.02-8.615 6.1852z" fill="#000030"/>
    <path d="m328.18 178.77-6.9246 6.9055 1.556 51.076 7.468 8.6759z" fill="#000030"/>
    <path d="m330.75 179.18 17.497 2.7446 1.6909 66.6-17.047-2.6795z" fill="#000030"/>
    <path d="m351.76 182.47 9.6826 9.3746 1.4972 51.592-9.5017 5.6326z" fill="#000030"/>
    <path d="m372.21 185.68-7.4327 6.6786 1.6501 51.661 7.9126 8.337z" fill="#000030"/>
    <path d="m375.73 186.23 16.362 2.5665 2.214 66.696-16.434-2.5831z" fill="#000030"/>
    <path d="m396.21 189.44 8.4267 9.0314 1.688 52.189-7.9251 5.4738z" fill="#000030"/>
    <path d="m416.12 192.57-7.6648 6.4944 1.7639 52.251 8.0873 7.9541z" fill="#000030"/>
    <path d="m419.77 193.14 15.755 2.4713 2.2449 66.715-15.871-2.4947z" fill="#000030"/>
    <path d="m439.42 196.22 7.6747 8.7698 1.8318 52.768-7.2665 5.1781z" fill="#000030"/>
    <path d="m457.65 199.08-6.5779 6.5207 1.8133 52.817 7.0317 7.3884z" fill="#000030"/>
    <path d="m461.48 199.68 15.748 2.4703 2.2153 66.724-15.669-2.4629z" fill="#000030"/>
    <path d="m480.48 202.66 7.4967 8.6036 1.9484 53.322-7.0924 4.8213z" fill="#000030"/>
    <path d="m237.97 234.67-7.5924 6.3592 1.4914 53.907 8.0121 7.8865z" fill="#000030"/>
    <path d="m241.46 235.21 19.486 2.976 1.8272 67.762-19.367-2.6373z" fill="#000030"/>
    <path d="m263.91 238.64 9.5742 8.6237 1.5875 53.717-9.1855 5.3919z" fill="#000030"/>
    <path d="m284.59 241.79-7.2074 6.0284 1.5255 53.69 7.6745 7.6742z" fill="#000030"/>
    <path d="m288.5 242.39 17.926 2.7378 1.9834 67.03-17.924-2.4408z" fill="#000030"/>
    <path d="m310.32 245.72 9.0516 8.1636 1.6014 53.502-8.7875 5.284z" fill="#000030"/>
    <path d="m330.39 248.79-7.0344 5.6739 1.6294 53.487 7.504 7.4882z" fill="#000030"/>
    <path d="m333 249.19 17.023 2.5998 1.6824 66.267-16.567-2.256z" fill="#000030"/>
    <path d="m353.52 252.32 9.9076 7.9291 1.5463 53.286-9.7857 4.9925z" fill="#000030"/>
    <path d="m374.44 255.52-7.4788 5.2445 1.7022 53.291 7.8824 7.3853z" fill="#000030"/>
    <path d="m377.97 256.06 16.435 2.51 2.1776 65.6-16.497-2.2464z" fill="#000030"/>
    <path d="m398.5 259.19 8.3377 7.3296 1.7176 53.105-7.9041 5.0946z" fill="#000030"/>
    <path d="m418.41 262.23-7.652 4.8551 1.7925 53.097 7.9968 7.2458z" fill="#000030"/>
    <path d="m422 262.78 15.874 2.4243 2.1832 64.882-15.979-2.1759z" fill="#000030"/>
    <path d="m441.76 265.8 7.6884 6.8772 1.8371 52.92-7.3493 5.0191z" fill="#000030"/>
    <path d="m460.01 268.58-6.617 4.6598 1.8161 52.898 6.993 6.9584z" fill="#000030"/>
    <path d="m463.86 269.17 15.664 2.3922 2.131 64.185-15.578-2.1213z" fill="#000030"/>
    <path d="m482.93 272.08 7.5098 6.5102 1.927 52.739-7.1758 4.8976z" fill="#000030"/>
    <path d="m239.99 306.78-7.6094 6.7264 1.3677 49.438 8.1071 10.362z" fill="#000030"/>
    <path d="m243.51 307.25 19.358 2.5575 1.7864 66.249-19.245-2.3167z" fill="#000030"/>
    <path d="m266 310.22 9.6102 8.9284 1.4518 49.122-9.1296 8.1788z" fill="#000030"/>
    <path d="m286.7 312.95-7.2706 6.6918 1.3948 49.087 7.8269 10.211z" fill="#000030"/>
    <path d="m290.6 313.47 17.922 2.3678 1.945 65.732-17.923-2.1575z" fill="#000030"/>
    <path d="m312.28 316.33 9.2166 8.799 1.4599 48.777-8.8465 8.0978z" fill="#000030"/>
    <path d="m332.6 319.01-7.0773 6.6396 1.4851 48.75 7.6539 10.074z" fill="#000030"/>
    <path d="m335.25 319.37 16.541 2.1853 1.6551 65.19-16.095-1.9376z" fill="#000030"/>
    <path d="m355.28 322.01 10.201 8.8549 1.4057 48.439-9.965 7.853z" fill="#000030"/>
    <path d="m376.66 324.84-7.4384 6.5183 1.5469 48.428 7.9663 10.002z" fill="#000030"/>
    <path d="m380.2 325.3 16.498 2.1796 2.1484 64.722-16.562-1.9937z" fill="#000030"/>
    <path d="m400.76 328.02 8.3434 8.5361 1.5567 48.129-7.7769 8.0066z" fill="#000030"/>
    <path d="m420.65 330.65-7.5319 6.432 1.624 48.107 8.0202 9.8981z" fill="#000030"/>
    <path d="m424.18 331.11 15.982 2.1114 2.1607 64.214-16.088-1.9367z" fill="#000030"/>
    <path d="m444.04 333.74 7.8186 8.3946 1.6601 47.82-7.3243 7.9536z" fill="#000030"/>
    <path d="m462.3 336.15-6.5302 6.4925 1.6407 47.788 7.0625 9.6757z" fill="#000030"/>
    <path d="m466.18 336.66 15.573 2.0574 2.1156 63.721-15.491-1.8648z" fill="#000030"/>
    <path d="m485.29 339.19 7.6619 8.3047 1.7363 47.519-7.1531 7.8709z" fill="#000030"/>
    <path d="m241.98 377.89-7.6226 7.2101 1.414 51.112 8.1055 9.3263z" fill="#000030"/>
    <path d="m245.54 378.31 19.236 2.2737 1.8139 67.266-19.119-1.9468z" fill="#000030"/>
    <path d="m268.06 380.97 9.638 8.9655 1.5021 50.827-9.1788 7.4354z" fill="#000030"/>
    <path d="m288.78 383.42-7.3449 6.9336 1.4433 50.795 7.8794 9.1612z" fill="#000030"/>
    <path d="m292.67 383.88 1.9708 66.825 17.92 1.8248-1.9686-66.532z" fill="#000030"/>
    <path d="m314.24 386.43 9.3564 8.6307 1.512 50.516-9.0166 7.3136z" fill="#000030"/>
    <path d="m334.8 388.86-7.1489 6.6531 1.5382 50.491 7.6939 9.0029z" fill="#000030"/>
    <path d="m337.49 389.18 16.065 1.8988 1.6706 65.798-15.613-1.5898z" fill="#000030"/>
    <path d="m357.03 391.48 10.455 8.4722 1.457 50.212-10.256 7.0553z" fill="#000030"/>
    <path d="m378.87 394.07-7.4446 6.3304 1.6035 50.201 7.9312 8.8949z" fill="#000030"/>
    <path d="m382.42 394.49 16.565 1.958 2.1611 65.104-16.626-1.693z" fill="#000030"/>
    <path d="m403.02 396.92 8.2902 7.9282 1.615 49.931-7.7702 7.176z" fill="#000030"/>
    <path d="m422.9 399.27-7.4782 6.0374 1.6849 49.911 7.9145 8.7604z" fill="#000030"/>
    <path d="m426.36 399.68 16.094 1.9023 2.1668 64.393-16.197-1.6494z" fill="#000030"/>
    <path d="m446.33 402.04 7.8689 7.5965 1.7237 49.652-7.4328 7.0807z" fill="#000030"/>
    <path d="m464.62 404.2-6.5274 5.8693 1.7036 49.623 6.9993 8.5387-2.1756-64.031z" fill="#000030"/>
    <path d="m468.52 404.66 15.485 1.8304 2.1152 63.708-15.4-1.5682z" fill="#000030"/>
    <path d="m487.68 406.93 7.7129 7.3073 1.8042 49.381-7.2731 6.9726z" fill="#000030"/>
    <path d="m244 449.73-7.6723 6.3909 1.4304 51.704 8.1511 9.9906z" fill="#000030"/>
    <path d="m247.6 450.08 19.109 1.8476 1.8267 67.741-18.992-1.5541z" fill="#000030"/>
    <path d="m270.14 452.26 9.6359 7.9849 1.5124 51.176-9.1731 8.5418z" fill="#000030"/>
    <path d="m290.88 454.26-7.4438 6.3269 1.4527 51.126 7.9838 9.9433z" fill="#000030"/>
    <path d="m294.76 454.64 17.917 1.7323 1.9845 67.071-17.916-1.4661z" fill="#000030"/>
    <path d="m316.19 456.71 9.4794 7.8858 1.5148 50.611-9.1271 8.5128z" fill="#000030"/>
    <path d="m337 458.72-7.2327 6.2626 1.5403 50.563 7.7937 9.8945z" fill="#000030"/>
    <path d="m339.73 458.98 15.586 1.5069 1.6862 66.414-15.132-1.2383z" fill="#000030"/>
    <path d="m358.77 460.82 10.704 7.9241 1.4529 50.066-10.485 8.3705z" fill="#000030"/>
    <path d="m381.07 462.98-7.4503 6.1613 1.5979 50.028 7.9629 9.877z" fill="#000030"/>
    <path d="m384.63 463.32 16.627 1.6076 2.1833 65.772-16.69-1.3657z" fill="#000030"/>
    <path d="m405.26 465.32 8.2466 7.6059 1.6022 49.537-7.6916 8.5676z" fill="#000030"/>
    <path d="m425.13 467.24-7.4101 6.0845 1.6706 49.491 7.8838 9.8391z" fill="#000030"/>
    <path d="m428.53 467.57 16.2 1.5663 2.1915 65.127-16.306-1.3343z" fill="#000030"/>
    <path d="m448.6 469.51 7.9424 7.4978 1.7016 49.015-7.4595 8.5558z" fill="#000030"/>
    <path d="m466.89 471.28-6.4958 6.0948 1.6811 48.966 7.0163 9.7376z" fill="#000030"/>
    <path d="m470.83 471.66 15.394 1.4884 2.1416 64.507-15.31-1.2528z" fill="#000030"/>
    <path d="m490.03 473.51 7.8025 7.4087 1.7726 48.513-7.3029 8.5391z" fill="#000030"/>
    <path d="m246.01 521.39-7.6407 8.5052 1.3776 49.793 8.1948 10.592z" fill="#000030"/>
    <path d="m249.64 521.68 18.986 1.5372 1.8468 68.488-18.866-1.1965z" fill="#000030"/>
    <path d="m272.22 523.51 9.7156 9.7665 1.4528 49.16-9.1717 9.5079z" fill="#000030"/>
    <path d="m292.97 525.19-7.4677 8.3632 1.3952 49.104 8.0851 10.604z" fill="#000030"/>
    <path d="m296.85 525.51 17.916 1.4507 2.0028 67.688-17.913-1.136z" fill="#000030"/>
    <path d="m318.16 527.23 9.6768 9.6114 1.4513 48.488-9.2439 9.5214z" fill="#000030"/>
    <path d="m339.21 528.94-7.2453 8.2276 1.4754 48.429 7.8884 10.61z" fill="#000030"/>
    <path d="m341.99 529.16 15.108 1.2233 1.6992 66.926-14.649-0.92904z" fill="#000030"/>
    <path d="m360.53 530.66 11.019 9.5755 1.3884 47.844-10.723 9.445z" fill="#000030"/>
    <path d="m383.29 532.51-7.3896 8.0706 1.5264 47.789 7.9874 10.633z" fill="#000030"/>
    <path d="m386.86 532.8 16.693 1.3517 2.1956 66.142-16.755-1.0626z" fill="#000030"/>
    <path d="m407.53 534.47 8.2648 9.2062 1.5268 47.205-7.6225 9.6591z" fill="#000030"/>
    <path d="m427.38 536.08-7.2804 7.9332 1.5915 47.146 7.8433 10.642z" fill="#000030"/>
    <path d="m430.73 536.35 16.311 1.3207 2.2 65.379-16.416-1.0411z" fill="#000030"/>
    <path d="m450.9 537.98 8.0745 9.048 1.617 46.579-7.4987 9.6841z" fill="#000030"/>
    <path d="m469.21 539.46-6.411 7.8624 1.5972 46.521 7.0219 10.607z" fill="#000030"/>
    <path d="m473.17 539.78 15.305 1.2393 2.1463 64.648-15.22-0.96521z" fill="#000030"/>
    <path d="m492.42 541.34 7.9444 8.9005 1.68 45.977-7.3478 9.7101z" fill="#000030"/>
    <path d="m248.06 594.52-7.6669 8.5482 1.3809 49.917 8.1811 9.1213z" fill="#000030"/>
    <path d="m251.73 594.74 18.857 1.1384 1.8135 67.251-18.741-0.85515z" fill="#000030"/>
    <path d="m274.34 596.1 9.7339 9.4621 1.4608 49.431-9.234 8.309z" fill="#000030"/>
    <path d="m295.11 597.36-7.5497 8.4078 1.4034 49.389 8.1243 9.0997z" fill="#000030"/>
    <path d="m298.98 597.59 17.912 1.0813 1.9699 66.575-17.911-0.81732z" fill="#000030"/>
    <path d="m320.16 598.87 9.8162 9.3235 1.4641 48.917-9.4268 8.2818z" fill="#000030"/>
    <path d="m341.45 600.16-7.3172 8.2763 1.4888 48.871 7.9139 9.0714z" fill="#000030"/>
    <path d="m344.27 600.33 14.621 0.88268 1.6742 65.943-14.171-0.64667z" fill="#000030"/>
    <path d="m362.32 601.41 11.281 9.2756 1.4053 48.425-11.026 8.1913z" fill="#000030"/>
    <path d="m385.54 602.82-7.3879 8.1343 1.5453 48.38 7.9372 9.0548-2.0946-65.57z" fill="#000030"/>
    <path d="m389.12 603.03 16.757 1.0116 2.1668 65.273-16.819-0.76752z" fill="#000030"/>
    <path d="m409.83 604.28 8.2226 8.952 1.5504 47.934-7.6321 8.3283z" fill="#000030"/>
    <path d="m429.66 605.48-7.2101 8.0066 1.6166 47.887 7.7216 9.0271z" fill="#000030"/>
    <path d="m432.94 605.68 16.421 0.99127 2.1748 64.633-16.525-0.75403z" fill="#000030"/>
    <path d="m453.21 606.9 8.145 8.8119 1.6474 47.452-7.6243 8.3113z" fill="#000030"/>
    <path d="m471.54 608.01-6.3845 7.9229 1.6277 47.409 6.9417 8.9744z" fill="#000030"/>
    <path d="m475.52 608.25 15.214 0.91837 2.1255 64.021-15.13-0.69041z" fill="#000030"/>
    <path d="m494.82 609.41 8.0241 8.675 1.717 46.991-7.4863 8.3008z" fill="#000030"/>
    <path d="m250.04 665.09-7.6766 9.1536 1.4614 52.825 8.166 7.5898z" fill="#000030"/>
    <path d="m253.74 665.26 18.736 0.87812 1.8645 69.142-18.615-0.52075z" fill="#000030"/>
    <path d="m276.39 666.32 9.7702 9.7943 1.5416 52.161-9.2965 7.1168z" fill="#000030"/>
    <path d="m297.17 667.3-7.6144 8.9658 1.4806 52.108 8.1645 7.6065z" fill="#000030"/>
    <path d="m301.04 667.48 17.912 0.8395 2.02 68.268-17.908-0.50103z" fill="#000030"/>
    <path d="m322.1 668.46 9.9689 9.6181 1.5404 51.463-9.6088 7.1242z" fill="#000030"/>
    <path d="m343.64 669.47-7.373 8.7884 1.5658 51.4 7.9427 7.6167z" fill="#000030"/>
    <path d="m346.49 669.61 14.15 0.66325 1.7131 67.472-13.688-0.38268z" fill="#000030"/>
    <path d="m364.06 670.43 11.552 9.5163 1.4742 50.799-11.327 7.0914z" fill="#000030"/>
    <path d="m387.73 671.54-7.3729 8.6101 1.6204 50.731 7.892 7.6308z" fill="#000030"/>
    <path d="m391.33 671.71 16.824 0.78847 2.2104 66.588-16.885-0.47234z" fill="#000030"/>
    <path d="m412.07 672.68 8.1968 9.1786 1.6213 50.124-7.6343 7.2106z" fill="#000030"/>
    <path d="m431.89 673.61-7.1288 8.4421 1.6898 50.058 7.607 7.6385z" fill="#000030"/>
    <path d="m435.11 673.76 16.531 0.7748 2.213 65.767-16.636-0.46515z" fill="#000030"/>
    <path d="m455.49 674.72 8.2291 9.0045 1.7172 49.466-7.7407 7.2228z" fill="#000030"/>
    <path d="m473.84 675.58-6.3473 8.306 1.6962 49.409 6.8713 7.633z" fill="#000030"/>
    <path d="m477.84 675.76 15.127 0.70895 2.1575 64.984-15.04-0.42111z" fill="#000030"/>
    <path d="m497.19 676.67 8.1164 8.8311 1.7844 48.836-7.613 7.2411z" fill="#000030"/>
    <path d="m252.08 738.16-7.6851 9.8385 1.4016 50.664 8.2316 8.9736z" fill="#000030"/>
    <path d="m255.83 738.26 18.609 0.50563 1.8623 69.06-18.488-0.15882z" fill="#000030"/>
    <path d="m278.5 738.88 9.8084 10.158 1.4744 49.888-9.27 8.94z" fill="#000030"/>
    <path d="m299.31 739.44-7.6776 9.6709 1.4158 49.829 8.29 9.0994z" fill="#000030"/>
    <path d="m303.16 739.55 17.908 0.48668 2.0178 68.194-17.905-0.15368z" fill="#000030"/>
    <path d="m324.09 740.12 10.128 10.004 1.4689 49.075-9.6988 9.0582z" fill="#000030"/>
    <path d="m345.88 740.71-7.4244 9.5113 1.4927 49 8.065 9.2221z" fill="#000030"/>
    <path d="m348.78 740.79 13.665 0.37192 1.7118 67.422-13.204-0.11379z" fill="#000030"/>
    <path d="m365.84 741.25 11.833 9.8954 1.4018 48.306-11.538 9.1577z" fill="#000030"/>
    <path d="m389.98 741.91-7.3495 9.3563 1.5402 48.219 7.9468 9.3385z" fill="#000030"/>
    <path d="m393.58 742.01 16.888 0.45901 2.2086 66.533-16.949-0.14549z" fill="#000030"/>
    <path d="m414.37 742.57 8.1776 9.6366 1.5368 47.512-7.5325 9.3115z" fill="#000030"/>
    <path d="m434.17 743.11-7.035 9.2067 1.6012 47.431 7.6003 9.4539z" fill="#000030"/>
    <path d="m437.33 743.2 16.641 0.45235 2.2116 65.724-16.745-0.14398z" fill="#000030"/>
    <path d="m457.81 743.75 8.3246 9.4857 1.6227 46.742-7.743 9.4257z" fill="#000030"/>
    <path d="m476.17 744.25-6.2965 9.0749 1.6024 46.675 6.9131 9.5615z" fill="#000030"/>
    <path d="m480.2 744.36 15.036 0.40831 2.1566 64.956-14.95-0.12865z" fill="#000030"/>
    <path d="m499.59 744.89 8.2229 9.3348 1.6809 46.004-7.617 9.5376z" fill="#000030"/>
    <path d="m254.1 810.1-7.7302 9.1832 1.4458 52.263 8.2416 8.3532z" fill="#000030"/>
    <path d="m257.88 810.14 18.485 0.2008 1.8726 69.441-18.365 0.0968z" fill="#000030"/>
    <path d="m280.59 810.38 9.8128 9.3918 1.5238 51.557-9.3125 8.4232z" fill="#000030"/>
    <path d="m301.41 810.61-7.773 9.2024 1.4635 51.505 8.3506 8.3288z" fill="#000030"/>
    <path d="m305.26 810.65 17.907 0.19416 2.0324 68.686-17.905 0.0942z" fill="#000030"/>
    <path d="m326.06 810.88 10.257 9.4158 1.5212 50.822-9.8657 8.403z" fill="#000030"/>
    <path d="m348.1 811.11-7.5057 9.225 1.5461 50.753 8.1102 8.3062z" fill="#000030"/>
    <path d="m351.04 811.15 13.187 0.14291 1.7271 68.027-12.723 0.0671z" fill="#000030"/>
    <path d="m367.61 811.33 12.088 9.4538 1.4546 50.127-11.83 8.3914z" fill="#000030"/>
    <path d="m392.21 811.59-7.3533 9.2452 1.5984 50.044 7.9135 8.285z" fill="#000030"/>
    <path d="m395.82 811.63 16.954 0.18392 2.2322 67.243-17.017 0.0897z" fill="#000030"/>
    <path d="m416.64 811.86 8.1373 9.4298 1.5979 49.405-7.5298 8.3459z" fill="#000030"/>
    <path d="m436.43 812.07-6.9655 9.2679 1.6652 49.329 7.492 8.2646z" fill="#000030"/>
    <path d="m439.53 812.11 16.751 0.18185 2.2391 66.542-16.858 0.0886z" fill="#000030"/>
    <path d="m460.11 812.33 8.4017 9.4509 1.6908 48.704-7.8604 8.3256z" fill="#000030"/>
    <path d="m478.49 812.53-6.2648 9.2935 1.67 48.645 6.8434 8.2464z" fill="#000030"/>
    <path d="m482.55 812.57 14.947 0.16239 2.1872 65.879-14.861 0.0784z" fill="#000030"/>
    <path d="m501.98 812.78 8.3153 9.4675 1.7551 48.034-7.7509 8.3038z" fill="#000030"/>
    <path d="m256.15 883.21-7.7809 8.3441 1.429 51.654 8.2695 8.3895z" fill="#000030"/>
    <path d="m259.97 883.19 18.358-0.13579 1.8352 68.057-18.241 0.4083z" fill="#000030"/>
    <path d="m282.71 883.02 9.8022 8.1058 1.5067 50.98-9.3253 8.9016z" fill="#000030"/>
    <path d="m303.55 882.86-7.8838 8.2289 1.4472 50.934 8.4376 8.5121z" fill="#000030"/>
    <path d="m307.39 882.84 17.904-0.13275 1.9928 67.349-17.903 0.40111z" fill="#000030"/>
    <path d="m328.06 882.68 10.363 7.9891 1.505 50.282-9.9924 9.039z" fill="#000030"/>
    <path d="m350.35 882.52-7.6131 8.1115 1.5298 50.216 8.1926 8.6433z" fill="#000030"/>
    <path d="m353.33 882.5 12.702-0.0938 1.6946 66.744-12.248 0.27458z" fill="#000030"/>
    <path d="m369.4 882.38 12.314 7.8685 1.4401 49.625-12.073 9.2009z" fill="#000030"/>
    <path d="m394.46 882.19-7.3934 8.001 1.5824 49.54 7.9292 8.7677z" fill="#000030"/>
    <path d="m398.09 882.16 17.019-0.12607 2.1908 65.997-17.082 0.38268z" fill="#000030"/>
    <path d="m418.94 882.01 8.0502 7.7889 1.5827 48.932-7.468 9.2191z" fill="#000030"/>
    <path d="m438.72 881.86-6.9439 7.8881 1.6493 48.858 7.4465 8.898z" fill="#000030"/>
    <path d="m441.75 881.84 16.862-0.12501 2.1988 65.344-16.967 0.38011z" fill="#000030"/>
    <path d="m462.44 881.69 8.4193 7.6787 1.6755 48.262-7.9028 9.3461z" fill="#000030"/>
    <path d="m480.83 881.55-6.2923 7.7784 1.655 48.207 6.8461 9.0256z" fill="#000030"/>
    <path d="m484.92 881.52 14.857-0.11014 2.149 64.728-14.772 0.33095z" fill="#000030"/>
    <path d="m504.4 881.38 8.3347 7.5766 1.7401 47.624-7.7958 9.4556z" fill="#000030"/>
    <path d="m223.08 968.01 16.596-0.44109-22.051-902.28-19.39 8.3928z" fill="#c8c8c8"/>
    <path d="m233.78 85.395 0.12698 4.5279 251.36 47.233-0.15881-4.3474z" fill="#000030"/>
  </g>
  <g transform="matrix(-0.061788, 0, 0, -0.061788, 35.047703, 150.542191)" stroke="#000" stroke-linecap="round" stroke-linejoin="round" stroke-width="2.5615">
    <path d="m239.68 967.57 282.24-7.5072-28.849-841.44-275.44-53.334z" fill="#fff"/>
    <path d="m237.43 94.477 19.731 3.6699 1.7894 66.355-19.61-3.1715z" fill="#000030"/>
    <path d="m234.02 93.842-7.5956 4.3361 1.4426 52.143 8.0298 10.452z" fill="#000030"/>
    <path d="m259.82 98.642 9.4934 7.6797 1.5173 51.339-9.0758 7.2951z" fill="#000030"/>
    <path d="m280.47 102.32-7.0822 4.7777 1.4562 51.251 7.5768 9.9519z" fill="#000030"/>
    <path d="m284.4 103.21 17.934 3.4504 1.9283 65.167-17.924-2.8989z" fill="#000030"/>
    <path d="m306.46 107.34 8.7514 7.6928 1.5105 50.465-8.4469 6.9798z" fill="#000030"/>
    <path d="m326.05 110.96-6.9183 4.8188 1.5352 50.395 7.4216 9.5104z" fill="#000030"/>
    <path d="m328.58 111.47 17.965 3.3004 1.6289 64.16-17.52-2.8335z" fill="#000030"/>
    <path d="m350.07 115.43 9.3867 8.0068 1.4396 49.611-9.2119 6.4546z" fill="#000030"/>
    <path d="m370.09 119.15-7.4898 4.8799 1.5835 49.576 7.9398 9.1987z" fill="#000030"/>
    <path d="m373.6 119.8 16.306 3.0328 2.0974 63.184-16.361-2.6461z" fill="#000030"/>
    <path d="m394.05 123.61 8.425 7.9935 1.579 48.816-7.9331 6.2692z" fill="#000030"/>
    <path d="m413.98 127.32-7.7792 4.9939 1.6459 48.757 8.1851 8.8415z" fill="#000030"/>
    <path d="m417.69 128.01 15.656 2.9121 2.0907 62.129-15.753-2.5477z" fill="#000030"/>
    <path d="m437.25 131.64 7.5741 7.9982 1.6673 48.026-7.1587 6.0087z" fill="#000030"/>
    <path d="m459.28 135.74 2.1147 61.503 15.754 2.5479-2.0287-61.105z" fill="#000030"/>
    <path d="m455.47 135.03-6.6401 5.3698 1.646 47.946 7.0868 8.2765z" fill="#000030"/>
    <path d="m478.24 139.27 7.3974 8.1224 1.7268 47.259-6.9723 5.6675z" fill="#000030"/>
    <path d="m235.99 164.31-7.5449 7.1223 1.3786 49.833 8.0336 9.6362z" fill="#000030"/>
    <path d="m239.44 164.85 19.602 3.0747 1.7956 66.588-19.494-3.0641z" fill="#000030"/>
    <path d="m261.86 168.37 9.5784 9.6627 1.4899 50.414-9.1248 6.5354z" fill="#000030"/>
    <path d="m282.52 171.61-7.0979 7.0334 1.4337 50.457 7.6341 9.1326z" fill="#000030"/>
    <path d="m286.43 172.22 17.922 2.8112 1.9715 66.63-17.929-2.8181z" fill="#000030"/>
    <path d="m308.36 175.66 8.9441 9.4081 1.527 51.02-8.615 6.1852z" fill="#000030"/>
    <path d="m328.18 178.77-6.9246 6.9055 1.556 51.076 7.468 8.6759z" fill="#000030"/>
    <path d="m330.75 179.18 17.497 2.7446 1.6909 66.6-17.047-2.6795z" fill="#000030"/>
    <path d="m351.76 182.47 9.6826 9.3746 1.4972 51.592-9.5017 5.6326z" fill="#000030"/>
    <path d="m372.21 185.68-7.4327 6.6786 1.6501 51.661 7.9126 8.337z" fill="#000030"/>
    <path d="m375.73 186.23 16.362 2.5665 2.214 66.696-16.434-2.5831z" fill="#000030"/>
    <path d="m396.21 189.44 8.4267 9.0314 1.688 52.189-7.9251 5.4738z" fill="#000030"/>
    <path d="m416.12 192.57-7.6648 6.4944 1.7639 52.251 8.0873 7.9541z" fill="#000030"/>
    <path d="m419.77 193.14 15.755 2.4713 2.2449 66.715-15.871-2.4947z" fill="#000030"/>
    <path d="m439.42 196.22 7.6747 8.7698 1.8318 52.768-7.2665 5.1781z" fill="#000030"/>
    <path d="m457.65 199.08-6.5779 6.5207 1.8133 52.817 7.0317 7.3884z" fill="#000030"/>
    <path d="m461.48 199.68 15.748 2.4703 2.2153 66.724-15.669-2.4629z" fill="#000030"/>
    <path d="m480.48 202.66 7.4967 8.6036 1.9484 53.322-7.0924 4.8213z" fill="#000030"/>
    <path d="m237.97 234.67-7.5924 6.3592 1.4914 53.907 8.0121 7.8865z" fill="#000030"/>
    <path d="m241.46 235.21 19.486 2.976 1.8272 67.762-19.367-2.6373z" fill="#000030"/>
    <path d="m263.91 238.64 9.5742 8.6237 1.5875 53.717-9.1855 5.3919z" fill="#000030"/>
    <path d="m284.59 241.79-7.2074 6.0284 1.5255 53.69 7.6745 7.6742z" fill="#000030"/>
    <path d="m288.5 242.39 17.926 2.7378 1.9834 67.03-17.924-2.4408z" fill="#000030"/>
    <path d="m310.32 245.72 9.0516 8.1636 1.6014 53.502-8.7875 5.284z" fill="#000030"/>
    <path d="m330.39 248.79-7.0344 5.6739 1.6294 53.487 7.504 7.4882z" fill="#000030"/>
    <path d="m333 249.19 17.023 2.5998 1.6824 66.267-16.567-2.256z" fill="#000030"/>
    <path d="m353.52 252.32 9.9076 7.9291 1.5463 53.286-9.7857 4.9925z" fill="#000030"/>
    <path d="m374.44 255.52-7.4788 5.2445 1.7022 53.291 7.8824 7.3853z" fill="#000030"/>
    <path d="m377.97 256.06 16.435 2.51 2.1776 65.6-16.497-2.2464z" fill="#000030"/>
    <path d="m398.5 259.19 8.3377 7.3296 1.7176 53.105-7.9041 5.0946z" fill="#000030"/>
    <path d="m418.41 262.23-7.652 4.8551 1.7925 53.097 7.9968 7.2458z" fill="#000030"/>
    <path d="m422 262.78 15.874 2.4243 2.1832 64.882-15.979-2.1759z" fill="#000030"/>
    <path d="m441.76 265.8 7.6884 6.8772 1.8371 52.92-7.3493 5.0191z" fill="#000030"/>
    <path d="m460.01 268.58-6.617 4.6598 1.8161 52.898 6.993 6.9584z" fill="#000030"/>
    <path d="m463.86 269.17 15.664 2.3922 2.131 64.185-15.578-2.1213z" fill="#000030"/>
    <path d="m482.93 272.08 7.5098 6.5102 1.927 52.739-7.1758 4.8976z" fill="#000030"/>
    <path d="m239.99 306.78-7.6094 6.7264 1.3677 49.438 8.1071 10.362z" fill="#000030"/>
    <path d="m243.51 307.25 19.358 2.5575 1.7864 66.249-19.245-2.3167z" fill="#000030"/>
    <path d="m266 310.22 9.6102 8.9284 1.4518 49.122-9.1296 8.1788z" fill="#000030"/>
    <path d="m286.7 312.95-7.2706 6.6918 1.3948 49.087 7.8269 10.211z" fill="#000030"/>
    <path d="m290.6 313.47 17.922 2.3678 1.945 65.732-17.923-2.1575z" fill="#000030"/>
    <path d="m312.28 316.33 9.2166 8.799 1.4599 48.777-8.8465 8.0978z" fill="#000030"/>
    <path d="m332.6 319.01-7.0773 6.6396 1.4851 48.75 7.6539 10.074z" fill="#000030"/>
    <path d="m335.25 319.37 16.541 2.1853 1.6551 65.19-16.095-1.9376z" fill="#000030"/>
    <path d="m355.28 322.01 10.201 8.8549 1.4057 48.439-9.965 7.853z" fill="#000030"/>
    <path d="m376.66 324.84-7.4384 6.5183 1.5469 48.428 7.9663 10.002z" fill="#000030"/>
    <path d="m380.2 325.3 16.498 2.1796 2.1484 64.722-16.562-1.9937z" fill="#000030"/>
    <path d="m400.76 328.02 8.3434 8.5361 1.5567 48.129-7.7769 8.0066z" fill="#000030"/>
    <path d="m420.65 330.65-7.5319 6.432 1.624 48.107 8.0202 9.8981z" fill="#000030"/>
    <path d="m424.18 331.11 15.982 2.1114 2.1607 64.214-16.088-1.9367z" fill="#000030"/>
    <path d="m444.04 333.74 7.8186 8.3946 1.6601 47.82-7.3243 7.9536z" fill="#000030"/>
    <path d="m462.3 336.15-6.5302 6.4925 1.6407 47.788 7.0625 9.6757z" fill="#000030"/>
    <path d="m466.18 336.66 15.573 2.0574 2.1156 63.721-15.491-1.8648z" fill="#000030"/>
    <path d="m485.29 339.19 7.6619 8.3047 1.7363 47.519-7.1531 7.8709z" fill="#000030"/>
    <path d="m241.98 377.89-7.6226 7.2101 1.414 51.112 8.1055 9.3263z" fill="#000030"/>
    <path d="m245.54 378.31 19.236 2.2737 1.8139 67.266-19.119-1.9468z" fill="#000030"/>
    <path d="m268.06 380.97 9.638 8.9655 1.5021 50.827-9.1788 7.4354z" fill="#000030"/>
    <path d="m288.78 383.42-7.3449 6.9336 1.4433 50.795 7.8794 9.1612z" fill="#000030"/>
    <path d="m292.67 383.88 1.9708 66.825 17.92 1.8248-1.9686-66.532z" fill="#000030"/>
    <path d="m314.24 386.43 9.3564 8.6307 1.512 50.516-9.0166 7.3136z" fill="#000030"/>
    <path d="m334.8 388.86-7.1489 6.6531 1.5382 50.491 7.6939 9.0029z" fill="#000030"/>
    <path d="m337.49 389.18 16.065 1.8988 1.6706 65.798-15.613-1.5898z" fill="#000030"/>
    <path d="m357.03 391.48 10.455 8.4722 1.457 50.212-10.256 7.0553z" fill="#000030"/>
    <path d="m378.87 394.07-7.4446 6.3304 1.6035 50.201 7.9312 8.8949z" fill="#000030"/>
    <path d="m382.42 394.49 16.565 1.958 2.1611 65.104-16.626-1.693z" fill="#000030"/>
    <path d="m403.02 396.92 8.2902 7.9282 1.615 49.931-7.7702 7.176z" fill="#000030"/>
    <path d="m422.9 399.27-7.4782 6.0374 1.6849 49.911 7.9145 8.7604z" fill="#000030"/>
    <path d="m426.36 399.68 16.094 1.9023 2.1668 64.393-16.197-1.6494z" fill="#000030"/>
    <path d="m446.33 402.04 7.8689 7.5965 1.7237 49.652-7.4328 7.0807z" fill="#000030"/>
    <path d="m464.62 404.2-6.5274 5.8693 1.7036 49.623 6.9993 8.5387-2.1756-64.031z" fill="#000030"/>
    <path d="m468.52 404.66 15.485 1.8304 2.1152 63.708-15.4-1.5682z" fill="#000030"/>
    <path d="m487.68 406.93 7.7129 7.3073 1.8042 49.381-7.2731 6.9726z" fill="#000030"/>
    <path d="m244 449.73-7.6723 6.3909 1.4304 51.704 8.1511 9.9906z" fill="#000030"/>
    <path d="m247.6 450.08 19.109 1.8476 1.8267 67.741-18.992-1.5541z" fill="#000030"/>
    <path d="m270.14 452.26 9.6359 7.9849 1.5124 51.176-9.1731 8.5418z" fill="#000030"/>
    <path d="m290.88 454.26-7.4438 6.3269 1.4527 51.126 7.9838 9.9433z" fill="#000030"/>
    <path d="m294.76 454.64 17.917 1.7323 1.9845 67.071-17.916-1.4661z" fill="#000030"/>
    <path d="m316.19 456.71 9.4794 7.8858 1.5148 50.611-9.1271 8.5128z" fill="#000030"/>
    <path d="m337 458.72-7.2327 6.2626 1.5403 50.563 7.7937 9.8945z" fill="#000030"/>
    <path d="m339.73 458.98 15.586 1.5069 1.6862 66.414-15.132-1.2383z" fill="#000030"/>
    <path d="m358.77 460.82 10.704 7.9241 1.4529 50.066-10.485 8.3705z" fill="#000030"/>
    <path d="m381.07 462.98-7.4503 6.1613 1.5979 50.028 7.9629 9.877z" fill="#000030"/>
    <path d="m384.63 463.32 16.627 1.6076 2.1833 65.772-16.69-1.3657z" fill="#000030"/>
    <path d="m405.26 465.32 8.2466 7.6059 1.6022 49.537-7.6916 8.5676z" fill="#000030"/>
    <path d="m425.13 467.24-7.4101 6.0845 1.6706 49.491 7.8838 9.8391z" fill="#000030"/>
    <path d="m428.53 467.57 16.2 1.5663 2.1915 65.127-16.306-1.3343z" fill="#000030"/>
    <path d="m448.6 469.51 7.9424 7.4978 1.7016 49.015-7.4595 8.5558z" fill="#000030"/>
    <path d="m466.89 471.28-6.4958 6.0948 1.6811 48.966 7.0163 9.7376z" fill="#000030"/>
    <path d="m470.83 471.66 15.394 1.4884 2.1416 64.507-15.31-1.2528z" fill="#000030"/>
    <path d="m490.03 473.51 7.8025 7.4087 1.7726 48.513-7.3029 8.5391z" fill="#000030"/>
    <path d="m246.01 521.39-7.6407 8.5052 1.3776 49.793 8.1948 10.592z" fill="#000030"/>
    <path d="m249.64 521.68 18.986 1.5372 1.8468 68.488-18.866-1.1965z" fill="#000030"/>
    <path d="m272.22 523.51 9.7156 9.7665 1.4528 49.16-9.1717 9.5079z" fill="#000030"/>
    <path d="m292.97 525.19-7.4677 8.3632 1.3952 49.104 8.0851 10.604z" fill="#000030"/>
    <path d="m296.85 525.51 17.916 1.4507 2.0028 67.688-17.913-1.136z" fill="#000030"/>
    <path d="m318.16 527.23 9.6768 9.6114 1.4513 48.488-9.2439 9.5214z" fill="#000030"/>
    <path d="m339.21 528.94-7.2453 8.2276 1.4754 48.429 7.8884 10.61z" fill="#000030"/>
    <path d="m341.99 529.16 15.108 1.2233 1.6992 66.926-14.649-0.92904z" fill="#000030"/>
    <path d="m360.53 530.66 11.019 9.5755 1.3884 47.844-10.723 9.445z" fill="#000030"/>
    <path d="m383.29 532.51-7.3896 8.0706 1.5264 47.789 7.9874 10.633z" fill="#000030"/>
    <path d="m386.86 532.8 16.693 1.3517 2.1956 66.142-16.755-1.0626z" fill="#000030"/>
    <path d="m407.53 534.47 8.2648 9.2062 1.5268 47.205-7.6225 9.6591z" fill="#000030"/>
    <path d="m427.38 536.08-7.2804 7.9332 1.5915 47.146 7.8433 10.642z" fill="#000030"/>
    <path d="m430.73 536.35 16.311 1.3207 2.2 65.379-16.416-1.0411z" fill="#000030"/>
    <path d="m450.9 537.98 8.0745 9.048 1.617 46.579-7.4987 9.6841z" fill="#000030"/>
    <path d="m469.21 539.46-6.411 7.8624 1.5972 46.521 7.0219 10.607z" fill="#000030"/>
    <path d="m473.17 539.78 15.305 1.2393 2.1463 64.648-15.22-0.96521z" fill="#000030"/>
    <path d="m492.42 541.34 7.9444 8.9005 1.68 45.977-7.3478 9.7101z" fill="#000030"/>
    <path d="m248.06 594.52-7.6669 8.5482 1.3809 49.917 8.1811 9.1213z" fill="#000030"/>
    <path d="m251.73 594.74 18.857 1.1384 1.8135 67.251-18.741-0.85515z" fill="#000030"/>
    <path d="m274.34 596.1 9.7339 9.4621 1.4608 49.431-9.234 8.309z" fill="#000030"/>
    <path d="m295.11 597.36-7.5497 8.4078 1.4034 49.389 8.1243 9.0997z" fill="#000030"/>
    <path d="m298.98 597.59 17.912 1.0813 1.9699 66.575-17.911-0.81732z" fill="#000030"/>
    <path d="m320.16 598.87 9.8162 9.3235 1.4641 48.917-9.4268 8.2818z" fill="#000030"/>
    <path d="m341.45 600.16-7.3172 8.2763 1.4888 48.871 7.9139 9.0714z" fill="#000030"/>
    <path d="m344.27 600.33 14.621 0.88268 1.6742 65.943-14.171-0.64667z" fill="#000030"/>
    <path d="m362.32 601.41 11.281 9.2756 1.4053 48.425-11.026 8.1913z" fill="#000030"/>
    <path d="m385.54 602.82-7.3879 8.1343 1.5453 48.38 7.9372 9.0548-2.0946-65.57z" fill="#000030"/>
    <path d="m389.12 603.03 16.757 1.0116 2.1668 65.273-16.819-0.76752z" fill="#000030"/>
    <path d="m409.83 604.28 8.2226 8.952 1.5504 47.934-7.6321 8.3283z" fill="#000030"/>
    <path d="m429.66 605.48-7.2101 8.0066 1.6166 47.887 7.7216 9.0271z" fill="#000030"/>
    <path d="m432.94 605.68 16.421 0.99127 2.1748 64.633-16.525-0.75403z" fill="#000030"/>
    <path d="m453.21 606.9 8.145 8.8119 1.6474 47.452-7.6243 8.3113z" fill="#000030"/>
    <path d="m471.54 608.01-6.3845 7.9229 1.6277 47.409 6.9417 8.9744z" fill="#000030"/>
    <path d="m475.52 608.25 15.214 0.91837 2.1255 64.021-15.13-0.69041z" fill="#000030"/>
    <path d="m494.82 609.41 8.0241 8.675 1.717 46.991-7.4863 8.3008z" fill="#000030"/>
    <path d="m250.04 665.09-7.6766 9.1536 1.4614 52.825 8.166 7.5898z" fill="#000030"/>
    <path d="m253.74 665.26 18.736 0.87812 1.8645 69.142-18.615-0.52075z" fill="#000030"/>
    <path d="m276.39 666.32 9.7702 9.7943 1.5416 52.161-9.2965 7.1168z" fill="#000030"/>
    <path d="m297.17 667.3-7.6144 8.9658 1.4806 52.108 8.1645 7.6065z" fill="#000030"/>
    <path d="m301.04 667.48 17.912 0.8395 2.02 68.268-17.908-0.50103z" fill="#000030"/>
    <path d="m322.1 668.46 9.9689 9.6181 1.5404 51.463-9.6088 7.1242z" fill="#000030"/>
    <path d="m343.64 669.47-7.373 8.7884 1.5658 51.4 7.9427 7.6167z" fill="#000030"/>
    <path d="m346.49 669.61 14.15 0.66325 1.7131 67.472-13.688-0.38268z" fill="#000030"/>
    <path d="m364.06 670.43 11.552 9.5163 1.4742 50.799-11.327 7.0914z" fill="#000030"/>
    <path d="m387.73 671.54-7.3729 8.6101 1.6204 50.731 7.892 7.6308z" fill="#000030"/>
    <path d="m391.33 671.71 16.824 0.78847 2.2104 66.588-16.885-0.47234z" fill="#000030"/>
    <path d="m412.07 672.68 8.1968 9.1786 1.6213 50.124-7.6343 7.2106z" fill="#000030"/>
    <path d="m431.89 673.61-7.1288 8.4421 1.6898 50.058 7.607 7.6385z" fill="#000030"/>
    <path d="m435.11 673.76 16.531 0.7748 2.213 65.767-16.636-0.46515z" fill="#000030"/>
    <path d="m455.49 674.72 8.2291 9.0045 1.7172 49.466-7.7407 7.2228z" fill="#000030"/>
    <path d="m473.84 675.58-6.3473 8.306 1.6962 49.409 6.8713 7.633z" fill="#000030"/>
    <path d="m477.84 675.76 15.127 0.70895 2.1575 64.984-15.04-0.42111z" fill="#000030"/>
    <path d="m497.19 676.67 8.1164 8.8311 1.7844 48.836-7.613 7.2411z" fill="#000030"/>
    <path d="m252.08 738.16-7.6851 9.8385 1.4016 50.664 8.2316 8.9736z" fill="#000030"/>
    <path d="m255.83 738.26 18.609 0.50563 1.8623 69.06-18.488-0.15882z" fill="#000030"/>
    <path d="m278.5 738.88 9.8084 10.158 1.4744 49.888-9.27 8.94z" fill="#000030"/>
    <path d="m299.31 739.44-7.6776 9.6709 1.4158 49.829 8.29 9.0994z" fill="#000030"/>
    <path d="m303.16 739.55 17.908 0.48668 2.0178 68.194-17.905-0.15368z" fill="#000030"/>
    <path d="m324.09 740.12 10.128 10.004 1.4689 49.075-9.6988 9.0582z" fill="#000030"/>
    <path d="m345.88 740.71-7.4244 9.5113 1.4927 49 8.065 9.2221z" fill="#000030"/>
    <path d="m348.78 740.79 13.665 0.37192 1.7118 67.422-13.204-0.11379z" fill="#000030"/>
    <path d="m365.84 741.25 11.833 9.8954 1.4018 48.306-11.538 9.1577z" fill="#000030"/>
    <path d="m389.98 741.91-7.3495 9.3563 1.5402 48.219 7.9468 9.3385z" fill="#000030"/>
    <path d="m393.58 742.01 16.888 0.45901 2.2086 66.533-16.949-0.14549z" fill="#000030"/>
    <path d="m414.37 742.57 8.1776 9.6366 1.5368 47.512-7.5325 9.3115z" fill="#000030"/>
    <path d="m434.17 743.11-7.035 9.2067 1.6012 47.431 7.6003 9.4539z" fill="#000030"/>
    <path d="m437.33 743.2 16.641 0.45235 2.2116 65.724-16.745-0.14398z" fill="#000030"/>
    <path d="m457.81 743.75 8.3246 9.4857 1.6227 46.742-7.743 9.4257z" fill="#000030"/>
    <path d="m476.17 744.25-6.2965 9.0749 1.6024 46.675 6.9131 9.5615z" fill="#000030"/>
    <path d="m480.2 744.36 15.036 0.40831 2.1566 64.956-14.95-0.12865z" fill="#000030"/>
    <path d="m499.59 744.89 8.2229 9.3348 1.6809 46.004-7.617 9.5376z" fill="#000030"/>
    <path d="m254.1 810.1-7.7302 9.1832 1.4458 52.263 8.2416 8.3532z" fill="#000030"/>
    <path d="m257.88 810.14 18.485 0.2008 1.8726 69.441-18.365 0.0968z" fill="#000030"/>
    <path d="m280.59 810.38 9.8128 9.3918 1.5238 51.557-9.3125 8.4232z" fill="#000030"/>
    <path d="m301.41 810.61-7.773 9.2024 1.4635 51.505 8.3506 8.3288z" fill="#000030"/>
    <path d="m305.26 810.65 17.907 0.19416 2.0324 68.686-17.905 0.0942z" fill="#000030"/>
    <path d="m326.06 810.88 10.257 9.4158 1.5212 50.822-9.8657 8.403z" fill="#000030"/>
    <path d="m348.1 811.11-7.5057 9.225 1.5461 50.753 8.1102 8.3062z" fill="#000030"/>
    <path d="m351.04 811.15 13.187 0.14291 1.7271 68.027-12.723 0.0671z" fill="#000030"/>
    <path d="m367.61 811.33 12.088 9.4538 1.4546 50.127-11.83 8.3914z" fill="#000030"/>
    <path d="m392.21 811.59-7.3533 9.2452 1.5984 50.044 7.9135 8.285z" fill="#000030"/>
    <path d="m395.82 811.63 16.954 0.18392 2.2322 67.243-17.017 0.0897z" fill="#000030"/>
    <path d="m416.64 811.86 8.1373 9.4298 1.5979 49.405-7.5298 8.3459z" fill="#000030"/>
    <path d="m436.43 812.07-6.9655 9.2679 1.6652 49.329 7.492 8.2646z" fill="#000030"/>
    <path d="m439.53 812.11 16.751 0.18185 2.2391 66.542-16.858 0.0886z" fill="#000030"/>
    <path d="m460.11 812.33 8.4017 9.4509 1.6908 48.704-7.8604 8.3256z" fill="#000030"/>
    <path d="m478.49 812.53-6.2648 9.2935 1.67 48.645 6.8434 8.2464z" fill="#000030"/>
    <path d="m482.55 812.57 14.947 0.16239 2.1872 65.879-14.861 0.0784z" fill="#000030"/>
    <path d="m501.98 812.78 8.3153 9.4675 1.7551 48.034-7.7509 8.3038z" fill="#000030"/>
    <path d="m256.15 883.21-7.7809 8.3441 1.429 51.654 8.2695 8.3895z" fill="#000030"/>
    <path d="m259.97 883.19 18.358-0.13579 1.8352 68.057-18.241 0.4083z" fill="#000030"/>
    <path d="m282.71 883.02 9.8022 8.1058 1.5067 50.98-9.3253 8.9016z" fill="#000030"/>
    <path d="m303.55 882.86-7.8838 8.2289 1.4472 50.934 8.4376 8.5121z" fill="#000030"/>
    <path d="m307.39 882.84 17.904-0.13275 1.9928 67.349-17.903 0.40111z" fill="#000030"/>
    <path d="m328.06 882.68 10.363 7.9891 1.505 50.282-9.9924 9.039z" fill="#000030"/>
    <path d="m350.35 882.52-7.6131 8.1115 1.5298 50.216 8.1926 8.6433z" fill="#000030"/>
    <path d="m353.33 882.5 12.702-0.0938 1.6946 66.744-12.248 0.27458z" fill="#000030"/>
    <path d="m369.4 882.38 12.314 7.8685 1.4401 49.625-12.073 9.2009z" fill="#000030"/>
    <path d="m394.46 882.19-7.3934 8.001 1.5824 49.54 7.9292 8.7677z" fill="#000030"/>
    <path d="m398.09 882.16 17.019-0.12607 2.1908 65.997-17.082 0.38268z" fill="#000030"/>
    <path d="m418.94 882.01 8.0502 7.7889 1.5827 48.932-7.468 9.2191z" fill="#000030"/>
    <path d="m438.72 881.86-6.9439 7.8881 1.6493 48.858 7.4465 8.898z" fill="#000030"/>
    <path d="m441.75 881.84 16.862-0.12501 2.1988 65.344-16.967 0.38011z" fill="#000030"/>
    <path d="m462.44 881.69 8.4193 7.6787 1.6755 48.262-7.9028 9.3461z" fill="#000030"/>
    <path d="m480.83 881.55-6.2923 7.7784 1.655 48.207 6.8461 9.0256z" fill="#000030"/>
    <path d="m484.92 881.52 14.857-0.11014 2.149 64.728-14.772 0.33095z" fill="#000030"/>
    <path d="m504.4 881.38 8.3347 7.5766 1.7401 47.624-7.7958 9.4556z" fill="#000030"/>
    <path d="m223.08 968.01 16.596-0.44109-22.051-902.28-19.39 8.3928z" fill="#c8c8c8"/>
    <path d="m233.78 85.395 0.12698 4.5279 251.36 47.233-0.15881-4.3474z" fill="#000030"/>
  </g>
  <g transform="matrix(0, 0.061788, -0.061788, 0, 151.063705, 204.387817)" stroke="#000" stroke-linecap="round" stroke-linejoin="round" stroke-width="2.5615">
    <path d="m239.68 967.57 282.24-7.5072-28.849-841.44-275.44-53.334z" fill="#fff"/>
    <path d="m237.43 94.477 19.731 3.6699 1.7894 66.355-19.61-3.1715z" fill="#000030"/>
    <path d="m234.02 93.842-7.5956 4.3361 1.4426 52.143 8.0298 10.452z" fill="#000030"/>
    <path d="m259.82 98.642 9.4934 7.6797 1.5173 51.339-9.0758 7.2951z" fill="#000030"/>
    <path d="m280.47 102.32-7.0822 4.7777 1.4562 51.251 7.5768 9.9519z" fill="#000030"/>
    <path d="m284.4 103.21 17.934 3.4504 1.9283 65.167-17.924-2.8989z" fill="#000030"/>
    <path d="m306.46 107.34 8.7514 7.6928 1.5105 50.465-8.4469 6.9798z" fill="#000030"/>
    <path d="m326.05 110.96-6.9183 4.8188 1.5352 50.395 7.4216 9.5104z" fill="#000030"/>
    <path d="m328.58 111.47 17.965 3.3004 1.6289 64.16-17.52-2.8335z" fill="#000030"/>
    <path d="m350.07 115.43 9.3867 8.0068 1.4396 49.611-9.2119 6.4546z" fill="#000030"/>
    <path d="m370.09 119.15-7.4898 4.8799 1.5835 49.576 7.9398 9.1987z" fill="#000030"/>
    <path d="m373.6 119.8 16.306 3.0328 2.0974 63.184-16.361-2.6461z" fill="#000030"/>
    <path d="m394.05 123.61 8.425 7.9935 1.579 48.816-7.9331 6.2692z" fill="#000030"/>
    <path d="m413.98 127.32-7.7792 4.9939 1.6459 48.757 8.1851 8.8415z" fill="#000030"/>
    <path d="m417.69 128.01 15.656 2.9121 2.0907 62.129-15.753-2.5477z" fill="#000030"/>
    <path d="m437.25 131.64 7.5741 7.9982 1.6673 48.026-7.1587 6.0087z" fill="#000030"/>
    <path d="m459.28 135.74 2.1147 61.503 15.754 2.5479-2.0287-61.105z" fill="#000030"/>
    <path d="m455.47 135.03-6.6401 5.3698 1.646 47.946 7.0868 8.2765z" fill="#000030"/>
    <path d="m478.24 139.27 7.3974 8.1224 1.7268 47.259-6.9723 5.6675z" fill="#000030"/>
    <path d="m235.99 164.31-7.5449 7.1223 1.3786 49.833 8.0336 9.6362z" fill="#000030"/>
    <path d="m239.44 164.85 19.602 3.0747 1.7956 66.588-19.494-3.0641z" fill="#000030"/>
    <path d="m261.86 168.37 9.5784 9.6627 1.4899 50.414-9.1248 6.5354z" fill="#000030"/>
    <path d="m282.52 171.61-7.0979 7.0334 1.4337 50.457 7.6341 9.1326z" fill="#000030"/>
    <path d="m286.43 172.22 17.922 2.8112 1.9715 66.63-17.929-2.8181z" fill="#000030"/>
    <path d="m308.36 175.66 8.9441 9.4081 1.527 51.02-8.615 6.1852z" fill="#000030"/>
    <path d="m328.18 178.77-6.9246 6.9055 1.556 51.076 7.468 8.6759z" fill="#000030"/>
    <path d="m330.75 179.18 17.497 2.7446 1.6909 66.6-17.047-2.6795z" fill="#000030"/>
    <path d="m351.76 182.47 9.6826 9.3746 1.4972 51.592-9.5017 5.6326z" fill="#000030"/>
    <path d="m372.21 185.68-7.4327 6.6786 1.6501 51.661 7.9126 8.337z" fill="#000030"/>
    <path d="m375.73 186.23 16.362 2.5665 2.214 66.696-16.434-2.5831z" fill="#000030"/>
    <path d="m396.21 189.44 8.4267 9.0314 1.688 52.189-7.9251 5.4738z" fill="#000030"/>
    <path d="m416.12 192.57-7.6648 6.4944 1.7639 52.251 8.0873 7.9541z" fill="#000030"/>
    <path d="m419.77 193.14 15.755 2.4713 2.2449 66.715-15.871-2.4947z" fill="#000030"/>
    <path d="m439.42 196.22 7.6747 8.7698 1.8318 52.768-7.2665 5.1781z" fill="#000030"/>
    <path d="m457.65 199.08-6.5779 6.5207 1.8133 52.817 7.0317 7.3884z" fill="#000030"/>
    <path d="m461.48 199.68 15.748 2.4703 2.2153 66.724-15.669-2.4629z" fill="#000030"/>
    <path d="m480.48 202.66 7.4967 8.6036 1.9484 53.322-7.0924 4.8213z" fill="#000030"/>
    <path d="m237.97 234.67-7.5924 6.3592 1.4914 53.907 8.0121 7.8865z" fill="#000030"/>
    <path d="m241.46 235.21 19.486 2.976 1.8272 67.762-19.367-2.6373z" fill="#000030"/>
    <path d="m263.91 238.64 9.5742 8.6237 1.5875 53.717-9.1855 5.3919z" fill="#000030"/>
    <path d="m284.59 241.79-7.2074 6.0284 1.5255 53.69 7.6745 7.6742z" fill="#000030"/>
    <path d="m288.5 242.39 17.926 2.7378 1.9834 67.03-17.924-2.4408z" fill="#000030"/>
    <path d="m310.32 245.72 9.0516 8.1636 1.6014 53.502-8.7875 5.284z" fill="#000030"/>
    <path d="m330.39 248.79-7.0344 5.6739 1.6294 53.487 7.504 7.4882z" fill="#000030"/>
    <path d="m333 249.19 17.023 2.5998 1.6824 66.267-16.567-2.256z" fill="#000030"/>
    <path d="m353.52 252.32 9.9076 7.9291 1.5463 53.286-9.7857 4.9925z" fill="#000030"/>
    <path d="m374.44 255.52-7.4788 5.2445 1.7022 53.291 7.8824 7.3853z" fill="#000030"/>
    <path d="m377.97 256.06 16.435 2.51 2.1776 65.6-16.497-2.2464z" fill="#000030"/>
    <path d="m398.5 259.19 8.3377 7.3296 1.7176 53.105-7.9041 5.0946z" fill="#000030"/>
    <path d="m418.41 262.23-7.652 4.8551 1.7925 53.097 7.9968 7.2458z" fill="#000030"/>
    <path d="m422 262.78 15.874 2.4243 2.1832 64.882-15.979-2.1759z" fill="#000030"/>
    <path d="m441.76 265.8 7.6884 6.8772 1.8371 52.92-7.3493 5.0191z" fill="#000030"/>
    <path d="m460.01 268.58-6.617 4.6598 1.8161 52.898 6.993 6.9584z" fill="#000030"/>
    <path d="m463.86 269.17 15.664 2.3922 2.131 64.185-15.578-2.1213z" fill="#000030"/>
    <path d="m482.93 272.08 7.5098 6.5102 1.927 52.739-7.1758 4.8976z" fill="#000030"/>
    <path d="m239.99 306.78-7.6094 6.7264 1.3677 49.438 8.1071 10.362z" fill="#000030"/>
    <path d="m243.51 307.25 19.358 2.5575 1.7864 66.249-19.245-2.3167z" fill="#000030"/>
    <path d="m266 310.22 9.6102 8.9284 1.4518 49.122-9.1296 8.1788z" fill="#000030"/>
    <path d="m286.7 312.95-7.2706 6.6918 1.3948 49.087 7.8269 10.211z" fill="#000030"/>
    <path d="m290.6 313.47 17.922 2.3678 1.945 65.732-17.923-2.1575z" fill="#000030"/>
    <path d="m312.28 316.33 9.2166 8.799 1.4599 48.777-8.8465 8.0978z" fill="#000030"/>
    <path d="m332.6 319.01-7.0773 6.6396 1.4851 48.75 7.6539 10.074z" fill="#000030"/>
    <path d="m335.25 319.37 16.541 2.1853 1.6551 65.19-16.095-1.9376z" fill="#000030"/>
    <path d="m355.28 322.01 10.201 8.8549 1.4057 48.439-9.965 7.853z" fill="#000030"/>
    <path d="m376.66 324.84-7.4384 6.5183 1.5469 48.428 7.9663 10.002z" fill="#000030"/>
    <path d="m380.2 325.3 16.498 2.1796 2.1484 64.722-16.562-1.9937z" fill="#000030"/>
    <path d="m400.76 328.02 8.3434 8.5361 1.5567 48.129-7.7769 8.0066z" fill="#000030"/>
    <path d="m420.65 330.65-7.5319 6.432 1.624 48.107 8.0202 9.8981z" fill="#000030"/>
    <path d="m424.18 331.11 15.982 2.1114 2.1607 64.214-16.088-1.9367z" fill="#000030"/>
    <path d="m444.04 333.74 7.8186 8.3946 1.6601 47.82-7.3243 7.9536z" fill="#000030"/>
    <path d="m462.3 336.15-6.5302 6.4925 1.6407 47.788 7.0625 9.6757z" fill="#000030"/>
    <path d="m466.18 336.66 15.573 2.0574 2.1156 63.721-15.491-1.8648z" fill="#000030"/>
    <path d="m485.29 339.19 7.6619 8.3047 1.7363 47.519-7.1531 7.8709z" fill="#000030"/>
    <path d="m241.98 377.89-7.6226 7.2101 1.414 51.112 8.1055 9.3263z" fill="#000030"/>
    <path d="m245.54 378.31 19.236 2.2737 1.8139 67.266-19.119-1.9468z" fill="#000030"/>
    <path d="m268.06 380.97 9.638 8.9655 1.5021 50.827-9.1788 7.4354z" fill="#000030"/>
    <path d="m288.78 383.42-7.3449 6.9336 1.4433 50.795 7.8794 9.1612z" fill="#000030"/>
    <path d="m292.67 383.88 1.9708 66.825 17.92 1.8248-1.9686-66.532z" fill="#000030"/>
    <path d="m314.24 386.43 9.3564 8.6307 1.512 50.516-9.0166 7.3136z" fill="#000030"/>
    <path d="m334.8 388.86-7.1489 6.6531 1.5382 50.491 7.6939 9.0029z" fill="#000030"/>
    <path d="m337.49 389.18 16.065 1.8988 1.6706 65.798-15.613-1.5898z" fill="#000030"/>
    <path d="m357.03 391.48 10.455 8.4722 1.457 50.212-10.256 7.0553z" fill="#000030"/>
    <path d="m378.87 394.07-7.4446 6.3304 1.6035 50.201 7.9312 8.8949z" fill="#000030"/>
    <path d="m382.42 394.49 16.565 1.958 2.1611 65.104-16.626-1.693z" fill="#000030"/>
    <path d="m403.02 396.92 8.2902 7.9282 1.615 49.931-7.7702 7.176z" fill="#000030"/>
    <path d="m422.9 399.27-7.4782 6.0374 1.6849 49.911 7.9145 8.7604z" fill="#000030"/>
    <path d="m426.36 399.68 16.094 1.9023 2.1668 64.393-16.197-1.6494z" fill="#000030"/>
    <path d="m446.33 402.04 7.8689 7.5965 1.7237 49.652-7.4328 7.0807z" fill="#000030"/>
    <path d="m464.62 404.2-6.5274 5.8693 1.7036 49.623 6.9993 8.5387-2.1756-64.031z" fill="#000030"/>
    <path d="m468.52 404.66 15.485 1.8304 2.1152 63.708-15.4-1.5682z" fill="#000030"/>
    <path d="m487.68 406.93 7.7129 7.3073 1.8042 49.381-7.2731 6.9726z" fill="#000030"/>
    <path d="m244 449.73-7.6723 6.3909 1.4304 51.704 8.1511 9.9906z" fill="#000030"/>
    <path d="m247.6 450.08 19.109 1.8476 1.8267 67.741-18.992-1.5541z" fill="#000030"/>
    <path d="m270.14 452.26 9.6359 7.9849 1.5124 51.176-9.1731 8.5418z" fill="#000030"/>
    <path d="m290.88 454.26-7.4438 6.3269 1.4527 51.126 7.9838 9.9433z" fill="#000030"/>
    <path d="m294.76 454.64 17.917 1.7323 1.9845 67.071-17.916-1.4661z" fill="#000030"/>
    <path d="m316.19 456.71 9.4794 7.8858 1.5148 50.611-9.1271 8.5128z" fill="#000030"/>
    <path d="m337 458.72-7.2327 6.2626 1.5403 50.563 7.7937 9.8945z" fill="#000030"/>
    <path d="m339.73 458.98 15.586 1.5069 1.6862 66.414-15.132-1.2383z" fill="#000030"/>
    <path d="m358.77 460.82 10.704 7.9241 1.4529 50.066-10.485 8.3705z" fill="#000030"/>
    <path d="m381.07 462.98-7.4503 6.1613 1.5979 50.028 7.9629 9.877z" fill="#000030"/>
    <path d="m384.63 463.32 16.627 1.6076 2.1833 65.772-16.69-1.3657z" fill="#000030"/>
    <path d="m405.26 465.32 8.2466 7.6059 1.6022 49.537-7.6916 8.5676z" fill="#000030"/>
    <path d="m425.13 467.24-7.4101 6.0845 1.6706 49.491 7.8838 9.8391z" fill="#000030"/>
    <path d="m428.53 467.57 16.2 1.5663 2.1915 65.127-16.306-1.3343z" fill="#000030"/>
    <path d="m448.6 469.51 7.9424 7.4978 1.7016 49.015-7.4595 8.5558z" fill="#000030"/>
    <path d="m466.89 471.28-6.4958 6.0948 1.6811 48.966 7.0163 9.7376z" fill="#000030"/>
    <path d="m470.83 471.66 15.394 1.4884 2.1416 64.507-15.31-1.2528z" fill="#000030"/>
    <path d="m490.03 473.51 7.8025 7.4087 1.7726 48.513-7.3029 8.5391z" fill="#000030"/>
    <path d="m246.01 521.39-7.6407 8.5052 1.3776 49.793 8.1948 10.592z" fill="#000030"/>
    <path d="m249.64 521.68 18.986 1.5372 1.8468 68.488-18.866-1.1965z" fill="#000030"/>
    <path d="m272.22 523.51 9.7156 9.7665 1.4528 49.16-9.1717 9.5079z" fill="#000030"/>
    <path d="m292.97 525.19-7.4677 8.3632 1.3952 49.104 8.0851 10.604z" fill="#000030"/>
    <path d="m296.85 525.51 17.916 1.4507 2.0028 67.688-17.913-1.136z" fill="#000030"/>
    <path d="m318.16 527.23 9.6768 9.6114 1.4513 48.488-9.2439 9.5214z" fill="#000030"/>
    <path d="m339.21 528.94-7.2453 8.2276 1.4754 48.429 7.8884 10.61z" fill="#000030"/>
    <path d="m341.99 529.16 15.108 1.2233 1.6992 66.926-14.649-0.92904z" fill="#000030"/>
    <path d="m360.53 530.66 11.019 9.5755 1.3884 47.844-10.723 9.445z" fill="#000030"/>
    <path d="m383.29 532.51-7.3896 8.0706 1.5264 47.789 7.9874 10.633z" fill="#000030"/>
    <path d="m386.86 532.8 16.693 1.3517 2.1956 66.142-16.755-1.0626z" fill="#000030"/>
    <path d="m407.53 534.47 8.2648 9.2062 1.5268 47.205-7.6225 9.6591z" fill="#000030"/>
    <path d="m427.38 536.08-7.2804 7.9332 1.5915 47.146 7.8433 10.642z" fill="#000030"/>
    <path d="m430.73 536.35 16.311 1.3207 2.2 65.379-16.416-1.0411z" fill="#000030"/>
    <path d="m450.9 537.98 8.0745 9.048 1.617 46.579-7.4987 9.6841z" fill="#000030"/>
    <path d="m469.21 539.46-6.411 7.8624 1.5972 46.521 7.0219 10.607z" fill="#000030"/>
    <path d="m473.17 539.78 15.305 1.2393 2.1463 64.648-15.22-0.96521z" fill="#000030"/>
    <path d="m492.42 541.34 7.9444 8.9005 1.68 45.977-7.3478 9.7101z" fill="#000030"/>
    <path d="m248.06 594.52-7.6669 8.5482 1.3809 49.917 8.1811 9.1213z" fill="#000030"/>
    <path d="m251.73 594.74 18.857 1.1384 1.8135 67.251-18.741-0.85515z" fill="#000030"/>
    <path d="m274.34 596.1 9.7339 9.4621 1.4608 49.431-9.234 8.309z" fill="#000030"/>
    <path d="m295.11 597.36-7.5497 8.4078 1.4034 49.389 8.1243 9.0997z" fill="#000030"/>
    <path d="m298.98 597.59 17.912 1.0813 1.9699 66.575-17.911-0.81732z" fill="#000030"/>
    <path d="m320.16 598.87 9.8162 9.3235 1.4641 48.917-9.4268 8.2818z" fill="#000030"/>
    <path d="m341.45 600.16-7.3172 8.2763 1.4888 48.871 7.9139 9.0714z" fill="#000030"/>
    <path d="m344.27 600.33 14.621 0.88268 1.6742 65.943-14.171-0.64667z" fill="#000030"/>
    <path d="m362.32 601.41 11.281 9.2756 1.4053 48.425-11.026 8.1913z" fill="#000030"/>
    <path d="m385.54 602.82-7.3879 8.1343 1.5453 48.38 7.9372 9.0548-2.0946-65.57z" fill="#000030"/>
    <path d="m389.12 603.03 16.757 1.0116 2.1668 65.273-16.819-0.76752z" fill="#000030"/>
    <path d="m409.83 604.28 8.2226 8.952 1.5504 47.934-7.6321 8.3283z" fill="#000030"/>
    <path d="m429.66 605.48-7.2101 8.0066 1.6166 47.887 7.7216 9.0271z" fill="#000030"/>
    <path d="m432.94 605.68 16.421 0.99127 2.1748 64.633-16.525-0.75403z" fill="#000030"/>
    <path d="m453.21 606.9 8.145 8.8119 1.6474 47.452-7.6243 8.3113z" fill="#000030"/>
    <path d="m471.54 608.01-6.3845 7.9229 1.6277 47.409 6.9417 8.9744z" fill="#000030"/>
    <path d="m475.52 608.25 15.214 0.91837 2.1255 64.021-15.13-0.69041z" fill="#000030"/>
    <path d="m494.82 609.41 8.0241 8.675 1.717 46.991-7.4863 8.3008z" fill="#000030"/>
    <path d="m250.04 665.09-7.6766 9.1536 1.4614 52.825 8.166 7.5898z" fill="#000030"/>
    <path d="m253.74 665.26 18.736 0.87812 1.8645 69.142-18.615-0.52075z" fill="#000030"/>
    <path d="m276.39 666.32 9.7702 9.7943 1.5416 52.161-9.2965 7.1168z" fill="#000030"/>
    <path d="m297.17 667.3-7.6144 8.9658 1.4806 52.108 8.1645 7.6065z" fill="#000030"/>
    <path d="m301.04 667.48 17.912 0.8395 2.02 68.268-17.908-0.50103z" fill="#000030"/>
    <path d="m322.1 668.46 9.9689 9.6181 1.5404 51.463-9.6088 7.1242z" fill="#000030"/>
    <path d="m343.64 669.47-7.373 8.7884 1.5658 51.4 7.9427 7.6167z" fill="#000030"/>
    <path d="m346.49 669.61 14.15 0.66325 1.7131 67.472-13.688-0.38268z" fill="#000030"/>
    <path d="m364.06 670.43 11.552 9.5163 1.4742 50.799-11.327 7.0914z" fill="#000030"/>
    <path d="m387.73 671.54-7.3729 8.6101 1.6204 50.731 7.892 7.6308z" fill="#000030"/>
    <path d="m391.33 671.71 16.824 0.78847 2.2104 66.588-16.885-0.47234z" fill="#000030"/>
    <path d="m412.07 672.68 8.1968 9.1786 1.6213 50.124-7.6343 7.2106z" fill="#000030"/>
    <path d="m431.89 673.61-7.1288 8.4421 1.6898 50.058 7.607 7.6385z" fill="#000030"/>
    <path d="m435.11 673.76 16.531 0.7748 2.213 65.767-16.636-0.46515z" fill="#000030"/>
    <path d="m455.49 674.72 8.2291 9.0045 1.7172 49.466-7.7407 7.2228z" fill="#000030"/>
    <path d="m473.84 675.58-6.3473 8.306 1.6962 49.409 6.8713 7.633z" fill="#000030"/>
    <path d="m477.84 675.76 15.127 0.70895 2.1575 64.984-15.04-0.42111z" fill="#000030"/>
    <path d="m497.19 676.67 8.1164 8.8311 1.7844 48.836-7.613 7.2411z" fill="#000030"/>
    <path d="m252.08 738.16-7.6851 9.8385 1.4016 50.664 8.2316 8.9736z" fill="#000030"/>
    <path d="m255.83 738.26 18.609 0.50563 1.8623 69.06-18.488-0.15882z" fill="#000030"/>
    <path d="m278.5 738.88 9.8084 10.158 1.4744 49.888-9.27 8.94z" fill="#000030"/>
    <path d="m299.31 739.44-7.6776 9.6709 1.4158 49.829 8.29 9.0994z" fill="#000030"/>
    <path d="m303.16 739.55 17.908 0.48668 2.0178 68.194-17.905-0.15368z" fill="#000030"/>
    <path d="m324.09 740.12 10.128 10.004 1.4689 49.075-9.6988 9.0582z" fill="#000030"/>
    <path d="m345.88 740.71-7.4244 9.5113 1.4927 49 8.065 9.2221z" fill="#000030"/>
    <path d="m348.78 740.79 13.665 0.37192 1.7118 67.422-13.204-0.11379z" fill="#000030"/>
    <path d="m365.84 741.25 11.833 9.8954 1.4018 48.306-11.538 9.1577z" fill="#000030"/>
    <path d="m389.98 741.91-7.3495 9.3563 1.5402 48.219 7.9468 9.3385z" fill="#000030"/>
    <path d="m393.58 742.01 16.888 0.45901 2.2086 66.533-16.949-0.14549z" fill="#000030"/>
    <path d="m414.37 742.57 8.1776 9.6366 1.5368 47.512-7.5325 9.3115z" fill="#000030"/>
    <path d="m434.17 743.11-7.035 9.2067 1.6012 47.431 7.6003 9.4539z" fill="#000030"/>
    <path d="m437.33 743.2 16.641 0.45235 2.2116 65.724-16.745-0.14398z" fill="#000030"/>
    <path d="m457.81 743.75 8.3246 9.4857 1.6227 46.742-7.743 9.4257z" fill="#000030"/>
    <path d="m476.17 744.25-6.2965 9.0749 1.6024 46.675 6.9131 9.5615z" fill="#000030"/>
    <path d="m480.2 744.36 15.036 0.40831 2.1566 64.956-14.95-0.12865z" fill="#000030"/>
    <path d="m499.59 744.89 8.2229 9.3348 1.6809 46.004-7.617 9.5376z" fill="#000030"/>
    <path d="m254.1 810.1-7.7302 9.1832 1.4458 52.263 8.2416 8.3532z" fill="#000030"/>
    <path d="m257.88 810.14 18.485 0.2008 1.8726 69.441-18.365 0.0968z" fill="#000030"/>
    <path d="m280.59 810.38 9.8128 9.3918 1.5238 51.557-9.3125 8.4232z" fill="#000030"/>
    <path d="m301.41 810.61-7.773 9.2024 1.4635 51.505 8.3506 8.3288z" fill="#000030"/>
    <path d="m305.26 810.65 17.907 0.19416 2.0324 68.686-17.905 0.0942z" fill="#000030"/>
    <path d="m326.06 810.88 10.257 9.4158 1.5212 50.822-9.8657 8.403z" fill="#000030"/>
    <path d="m348.1 811.11-7.5057 9.225 1.5461 50.753 8.1102 8.3062z" fill="#000030"/>
    <path d="m351.04 811.15 13.187 0.14291 1.7271 68.027-12.723 0.0671z" fill="#000030"/>
    <path d="m367.61 811.33 12.088 9.4538 1.4546 50.127-11.83 8.3914z" fill="#000030"/>
    <path d="m392.21 811.59-7.3533 9.2452 1.5984 50.044 7.9135 8.285z" fill="#000030"/>
    <path d="m395.82 811.63 16.954 0.18392 2.2322 67.243-17.017 0.0897z" fill="#000030"/>
    <path d="m416.64 811.86 8.1373 9.4298 1.5979 49.405-7.5298 8.3459z" fill="#000030"/>
    <path d="m436.43 812.07-6.9655 9.2679 1.6652 49.329 7.492 8.2646z" fill="#000030"/>
    <path d="m439.53 812.11 16.751 0.18185 2.2391 66.542-16.858 0.0886z" fill="#000030"/>
    <path d="m460.11 812.33 8.4017 9.4509 1.6908 48.704-7.8604 8.3256z" fill="#000030"/>
    <path d="m478.49 812.53-6.2648 9.2935 1.67 48.645 6.8434 8.2464z" fill="#000030"/>
    <path d="m482.55 812.57 14.947 0.16239 2.1872 65.879-14.861 0.0784z" fill="#000030"/>
    <path d="m501.98 812.78 8.3153 9.4675 1.7551 48.034-7.7509 8.3038z" fill="#000030"/>
    <path d="m256.15 883.21-7.7809 8.3441 1.429 51.654 8.2695 8.3895z" fill="#000030"/>
    <path d="m259.97 883.19 18.358-0.13579 1.8352 68.057-18.241 0.4083z" fill="#000030"/>
    <path d="m282.71 883.02 9.8022 8.1058 1.5067 50.98-9.3253 8.9016z" fill="#000030"/>
    <path d="m303.55 882.86-7.8838 8.2289 1.4472 50.934 8.4376 8.5121z" fill="#000030"/>
    <path d="m307.39 882.84 17.904-0.13275 1.9928 67.349-17.903 0.40111z" fill="#000030"/>
    <path d="m328.06 882.68 10.363 7.9891 1.505 50.282-9.9924 9.039z" fill="#000030"/>
    <path d="m350.35 882.52-7.6131 8.1115 1.5298 50.216 8.1926 8.6433z" fill="#000030"/>
    <path d="m353.33 882.5 12.702-0.0938 1.6946 66.744-12.248 0.27458z" fill="#000030"/>
    <path d="m369.4 882.38 12.314 7.8685 1.4401 49.625-12.073 9.2009z" fill="#000030"/>
    <path d="m394.46 882.19-7.3934 8.001 1.5824 49.54 7.9292 8.7677z" fill="#000030"/>
    <path d="m398.09 882.16 17.019-0.12607 2.1908 65.997-17.082 0.38268z" fill="#000030"/>
    <path d="m418.94 882.01 8.0502 7.7889 1.5827 48.932-7.468 9.2191z" fill="#000030"/>
    <path d="m438.72 881.86-6.9439 7.8881 1.6493 48.858 7.4465 8.898z" fill="#000030"/>
    <path d="m441.75 881.84 16.862-0.12501 2.1988 65.344-16.967 0.38011z" fill="#000030"/>
    <path d="m462.44 881.69 8.4193 7.6787 1.6755 48.262-7.9028 9.3461z" fill="#000030"/>
    <path d="m480.83 881.55-6.2923 7.7784 1.655 48.207 6.8461 9.0256z" fill="#000030"/>
    <path d="m484.92 881.52 14.857-0.11014 2.149 64.728-14.772 0.33095z" fill="#000030"/>
    <path d="m504.4 881.38 8.3347 7.5766 1.7401 47.624-7.7958 9.4556z" fill="#000030"/>
    <path d="m223.08 968.01 16.596-0.44109-22.051-902.28-19.39 8.3928z" fill="#c8c8c8"/>
    <path d="m233.78 85.395 0.12698 4.5279 251.36 47.233-0.15881-4.3474z" fill="#000030"/>
  </g>
  <g transform="matrix(0, -0.061788, 0.061788, 0, 86.936317, 35.483089)" stroke="#000" stroke-linecap="round" stroke-linejoin="round" stroke-width="2.5615">
    <path d="m239.68 967.57 282.24-7.5072-28.849-841.44-275.44-53.334z" fill="#fff"/>
    <path d="m237.43 94.477 19.731 3.6699 1.7894 66.355-19.61-3.1715z" fill="#000030"/>
    <path d="m234.02 93.842-7.5956 4.3361 1.4426 52.143 8.0298 10.452z" fill="#000030"/>
    <path d="m259.82 98.642 9.4934 7.6797 1.5173 51.339-9.0758 7.2951z" fill="#000030"/>
    <path d="m280.47 102.32-7.0822 4.7777 1.4562 51.251 7.5768 9.9519z" fill="#000030"/>
    <path d="m284.4 103.21 17.934 3.4504 1.9283 65.167-17.924-2.8989z" fill="#000030"/>
    <path d="m306.46 107.34 8.7514 7.6928 1.5105 50.465-8.4469 6.9798z" fill="#000030"/>
    <path d="m326.05 110.96-6.9183 4.8188 1.5352 50.395 7.4216 9.5104z" fill="#000030"/>
    <path d="m328.58 111.47 17.965 3.3004 1.6289 64.16-17.52-2.8335z" fill="#000030"/>
    <path d="m350.07 115.43 9.3867 8.0068 1.4396 49.611-9.2119 6.4546z" fill="#000030"/>
    <path d="m370.09 119.15-7.4898 4.8799 1.5835 49.576 7.9398 9.1987z" fill="#000030"/>
    <path d="m373.6 119.8 16.306 3.0328 2.0974 63.184-16.361-2.6461z" fill="#000030"/>
    <path d="m394.05 123.61 8.425 7.9935 1.579 48.816-7.9331 6.2692z" fill="#000030"/>
    <path d="m413.98 127.32-7.7792 4.9939 1.6459 48.757 8.1851 8.8415z" fill="#000030"/>
    <path d="m417.69 128.01 15.656 2.9121 2.0907 62.129-15.753-2.5477z" fill="#000030"/>
    <path d="m437.25 131.64 7.5741 7.9982 1.6673 48.026-7.1587 6.0087z" fill="#000030"/>
    <path d="m459.28 135.74 2.1147 61.503 15.754 2.5479-2.0287-61.105z" fill="#000030"/>
    <path d="m455.47 135.03-6.6401 5.3698 1.646 47.946 7.0868 8.2765z" fill="#000030"/>
    <path d="m478.24 139.27 7.3974 8.1224 1.7268 47.259-6.9723 5.6675z" fill="#000030"/>
    <path d="m235.99 164.31-7.5449 7.1223 1.3786 49.833 8.0336 9.6362z" fill="#000030"/>
    <path d="m239.44 164.85 19.602 3.0747 1.7956 66.588-19.494-3.0641z" fill="#000030"/>
    <path d="m261.86 168.37 9.5784 9.6627 1.4899 50.414-9.1248 6.5354z" fill="#000030"/>
    <path d="m282.52 171.61-7.0979 7.0334 1.4337 50.457 7.6341 9.1326z" fill="#000030"/>
    <path d="m286.43 172.22 17.922 2.8112 1.9715 66.63-17.929-2.8181z" fill="#000030"/>
    <path d="m308.36 175.66 8.9441 9.4081 1.527 51.02-8.615 6.1852z" fill="#000030"/>
    <path d="m328.18 178.77-6.9246 6.9055 1.556 51.076 7.468 8.6759z" fill="#000030"/>
    <path d="m330.75 179.18 17.497 2.7446 1.6909 66.6-17.047-2.6795z" fill="#000030"/>
    <path d="m351.76 182.47 9.6826 9.3746 1.4972 51.592-9.5017 5.6326z" fill="#000030"/>
    <path d="m372.21 185.68-7.4327 6.6786 1.6501 51.661 7.9126 8.337z" fill="#000030"/>
    <path d="m375.73 186.23 16.362 2.5665 2.214 66.696-16.434-2.5831z" fill="#000030"/>
    <path d="m396.21 189.44 8.4267 9.0314 1.688 52.189-7.9251 5.4738z" fill="#000030"/>
    <path d="m416.12 192.57-7.6648 6.4944 1.7639 52.251 8.0873 7.9541z" fill="#000030"/>
    <path d="m419.77 193.14 15.755 2.4713 2.2449 66.715-15.871-2.4947z" fill="#000030"/>
    <path d="m439.42 196.22 7.6747 8.7698 1.8318 52.768-7.2665 5.1781z" fill="#000030"/>
    <path d="m457.65 199.08-6.5779 6.5207 1.8133 52.817 7.0317 7.3884z" fill="#000030"/>
    <path d="m461.48 199.68 15.748 2.4703 2.2153 66.724-15.669-2.4629z" fill="#000030"/>
    <path d="m480.48 202.66 7.4967 8.6036 1.9484 53.322-7.0924 4.8213z" fill="#000030"/>
    <path d="m237.97 234.67-7.5924 6.3592 1.4914 53.907 8.0121 7.8865z" fill="#000030"/>
    <path d="m241.46 235.21 19.486 2.976 1.8272 67.762-19.367-2.6373z" fill="#000030"/>
    <path d="m263.91 238.64 9.5742 8.6237 1.5875 53.717-9.1855 5.3919z" fill="#000030"/>
    <path d="m284.59 241.79-7.2074 6.0284 1.5255 53.69 7.6745 7.6742z" fill="#000030"/>
    <path d="m288.5 242.39 17.926 2.7378 1.9834 67.03-17.924-2.4408z" fill="#000030"/>
    <path d="m310.32 245.72 9.0516 8.1636 1.6014 53.502-8.7875 5.284z" fill="#000030"/>
    <path d="m330.39 248.79-7.0344 5.6739 1.6294 53.487 7.504 7.4882z" fill="#000030"/>
    <path d="m333 249.19 17.023 2.5998 1.6824 66.267-16.567-2.256z" fill="#000030"/>
    <path d="m353.52 252.32 9.9076 7.9291 1.5463 53.286-9.7857 4.9925z" fill="#000030"/>
    <path d="m374.44 255.52-7.4788 5.2445 1.7022 53.291 7.8824 7.3853z" fill="#000030"/>
    <path d="m377.97 256.06 16.435 2.51 2.1776 65.6-16.497-2.2464z" fill="#000030"/>
    <path d="m398.5 259.19 8.3377 7.3296 1.7176 53.105-7.9041 5.0946z" fill="#000030"/>
    <path d="m418.41 262.23-7.652 4.8551 1.7925 53.097 7.9968 7.2458z" fill="#000030"/>
    <path d="m422 262.78 15.874 2.4243 2.1832 64.882-15.979-2.1759z" fill="#000030"/>
    <path d="m441.76 265.8 7.6884 6.8772 1.8371 52.92-7.3493 5.0191z" fill="#000030"/>
    <path d="m460.01 268.58-6.617 4.6598 1.8161 52.898 6.993 6.9584z" fill="#000030"/>
    <path d="m463.86 269.17 15.664 2.3922 2.131 64.185-15.578-2.1213z" fill="#000030"/>
    <path d="m482.93 272.08 7.5098 6.5102 1.927 52.739-7.1758 4.8976z" fill="#000030"/>
    <path d="m239.99 306.78-7.6094 6.7264 1.3677 49.438 8.1071 10.362z" fill="#000030"/>
    <path d="m243.51 307.25 19.358 2.5575 1.7864 66.249-19.245-2.3167z" fill="#000030"/>
    <path d="m266 310.22 9.6102 8.9284 1.4518 49.122-9.1296 8.1788z" fill="#000030"/>
    <path d="m286.7 312.95-7.2706 6.6918 1.3948 49.087 7.8269 10.211z" fill="#000030"/>
    <path d="m290.6 313.47 17.922 2.3678 1.945 65.732-17.923-2.1575z" fill="#000030"/>
    <path d="m312.28 316.33 9.2166 8.799 1.4599 48.777-8.8465 8.0978z" fill="#000030"/>
    <path d="m332.6 319.01-7.0773 6.6396 1.4851 48.75 7.6539 10.074z" fill="#000030"/>
    <path d="m335.25 319.37 16.541 2.1853 1.6551 65.19-16.095-1.9376z" fill="#000030"/>
    <path d="m355.28 322.01 10.201 8.8549 1.4057 48.439-9.965 7.853z" fill="#000030"/>
    <path d="m376.66 324.84-7.4384 6.5183 1.5469 48.428 7.9663 10.002z" fill="#000030"/>
    <path d="m380.2 325.3 16.498 2.1796 2.1484 64.722-16.562-1.9937z" fill="#000030"/>
    <path d="m400.76 328.02 8.3434 8.5361 1.5567 48.129-7.7769 8.0066z" fill="#000030"/>
    <path d="m420.65 330.65-7.5319 6.432 1.624 48.107 8.0202 9.8981z" fill="#000030"/>
    <path d="m424.18 331.11 15.982 2.1114 2.1607 64.214-16.088-1.9367z" fill="#000030"/>
    <path d="m444.04 333.74 7.8186 8.3946 1.6601 47.82-7.3243 7.9536z" fill="#000030"/>
    <path d="m462.3 336.15-6.5302 6.4925 1.6407 47.788 7.0625 9.6757z" fill="#000030"/>
    <path d="m466.18 336.66 15.573 2.0574 2.1156 63.721-15.491-1.8648z" fill="#000030"/>
    <path d="m485.29 339.19 7.6619 8.3047 1.7363 47.519-7.1531 7.8709z" fill="#000030"/>
    <path d="m241.98 377.89-7.6226 7.2101 1.414 51.112 8.1055 9.3263z" fill="#000030"/>
    <path d="m245.54 378.31 19.236 2.2737 1.8139 67.266-19.119-1.9468z" fill="#000030"/>
    <path d="m268.06 380.97 9.638 8.9655 1.5021 50.827-9.1788 7.4354z" fill="#000030"/>
    <path d="m288.78 383.42-7.3449 6.9336 1.4433 50.795 7.8794 9.1612z" fill="#000030"/>
    <path d="m292.67 383.88 1.9708 66.825 17.92 1.8248-1.9686-66.532z" fill="#000030"/>
    <path d="m314.24 386.43 9.3564 8.6307 1.512 50.516-9.0166 7.3136z" fill="#000030"/>
    <path d="m334.8 388.86-7.1489 6.6531 1.5382 50.491 7.6939 9.0029z" fill="#000030"/>
    <path d="m337.49 389.18 16.065 1.8988 1.6706 65.798-15.613-1.5898z" fill="#000030"/>
    <path d="m357.03 391.48 10.455 8.4722 1.457 50.212-10.256 7.0553z" fill="#000030"/>
    <path d="m378.87 394.07-7.4446 6.3304 1.6035 50.201 7.9312 8.8949z" fill="#000030"/>
    <path d="m382.42 394.49 16.565 1.958 2.1611 65.104-16.626-1.693z" fill="#000030"/>
    <path d="m403.02 396.92 8.2902 7.9282 1.615 49.931-7.7702 7.176z" fill="#000030"/>
    <path d="m422.9 399.27-7.4782 6.0374 1.6849 49.911 7.9145 8.7604z" fill="#000030"/>
    <path d="m426.36 399.68 16.094 1.9023 2.1668 64.393-16.197-1.6494z" fill="#000030"/>
    <path d="m446.33 402.04 7.8689 7.5965 1.7237 49.652-7.4328 7.0807z" fill="#000030"/>
    <path d="m464.62 404.2-6.5274 5.8693 1.7036 49.623 6.9993 8.5387-2.1756-64.031z" fill="#000030"/>
    <path d="m468.52 404.66 15.485 1.8304 2.1152 63.708-15.4-1.5682z" fill="#000030"/>
    <path d="m487.68 406.93 7.7129 7.3073 1.8042 49.381-7.2731 6.9726z" fill="#000030"/>
    <path d="m244 449.73-7.6723 6.3909 1.4304 51.704 8.1511 9.9906z" fill="#000030"/>
    <path d="m247.6 450.08 19.109 1.8476 1.8267 67.741-18.992-1.5541z" fill="#000030"/>
    <path d="m270.14 452.26 9.6359 7.9849 1.5124 51.176-9.1731 8.5418z" fill="#000030"/>
    <path d="m290.88 454.26-7.4438 6.3269 1.4527 51.126 7.9838 9.9433z" fill="#000030"/>
    <path d="m294.76 454.64 17.917 1.7323 1.9845 67.071-17.916-1.4661z" fill="#000030"/>
    <path d="m316.19 456.71 9.4794 7.8858 1.5148 50.611-9.1271 8.5128z" fill="#000030"/>
    <path d="m337 458.72-7.2327 6.2626 1.5403 50.563 7.7937 9.8945z" fill="#000030"/>
    <path d="m339.73 458.98 15.586 1.5069 1.6862 66.414-15.132-1.2383z" fill="#000030"/>
    <path d="m358.77 460.82 10.704 7.9241 1.4529 50.066-10.485 8.3705z" fill="#000030"/>
    <path d="m381.07 462.98-7.4503 6.1613 1.5979 50.028 7.9629 9.877z" fill="#000030"/>
    <path d="m384.63 463.32 16.627 1.6076 2.1833 65.772-16.69-1.3657z" fill="#000030"/>
    <path d="m405.26 465.32 8.2466 7.6059 1.6022 49.537-7.6916 8.5676z" fill="#000030"/>
    <path d="m425.13 467.24-7.4101 6.0845 1.6706 49.491 7.8838 9.8391z" fill="#000030"/>
    <path d="m428.53 467.57 16.2 1.5663 2.1915 65.127-16.306-1.3343z" fill="#000030"/>
    <path d="m448.6 469.51 7.9424 7.4978 1.7016 49.015-7.4595 8.5558z" fill="#000030"/>
    <path d="m466.89 471.28-6.4958 6.0948 1.6811 48.966 7.0163 9.7376z" fill="#000030"/>
    <path d="m470.83 471.66 15.394 1.4884 2.1416 64.507-15.31-1.2528z" fill="#000030"/>
    <path d="m490.03 473.51 7.8025 7.4087 1.7726 48.513-7.3029 8.5391z" fill="#000030"/>
    <path d="m246.01 521.39-7.6407 8.5052 1.3776 49.793 8.1948 10.592z" fill="#000030"/>
    <path d="m249.64 521.68 18.986 1.5372 1.8468 68.488-18.866-1.1965z" fill="#000030"/>
    <path d="m272.22 523.51 9.7156 9.7665 1.4528 49.16-9.1717 9.5079z" fill="#000030"/>
    <path d="m292.97 525.19-7.4677 8.3632 1.3952 49.104 8.0851 10.604z" fill="#000030"/>
    <path d="m296.85 525.51 17.916 1.4507 2.0028 67.688-17.913-1.136z" fill="#000030"/>
    <path d="m318.16 527.23 9.6768 9.6114 1.4513 48.488-9.2439 9.5214z" fill="#000030"/>
    <path d="m339.21 528.94-7.2453 8.2276 1.4754 48.429 7.8884 10.61z" fill="#000030"/>
    <path d="m341.99 529.16 15.108 1.2233 1.6992 66.926-14.649-0.92904z" fill="#000030"/>
    <path d="m360.53 530.66 11.019 9.5755 1.3884 47.844-10.723 9.445z" fill="#000030"/>
    <path d="m383.29 532.51-7.3896 8.0706 1.5264 47.789 7.9874 10.633z" fill="#000030"/>
    <path d="m386.86 532.8 16.693 1.3517 2.1956 66.142-16.755-1.0626z" fill="#000030"/>
    <path d="m407.53 534.47 8.2648 9.2062 1.5268 47.205-7.6225 9.6591z" fill="#000030"/>
    <path d="m427.38 536.08-7.2804 7.9332 1.5915 47.146 7.8433 10.642z" fill="#000030"/>
    <path d="m430.73 536.35 16.311 1.3207 2.2 65.379-16.416-1.0411z" fill="#000030"/>
    <path d="m450.9 537.98 8.0745 9.048 1.617 46.579-7.4987 9.6841z" fill="#000030"/>
    <path d="m469.21 539.46-6.411 7.8624 1.5972 46.521 7.0219 10.607z" fill="#000030"/>
    <path d="m473.17 539.78 15.305 1.2393 2.1463 64.648-15.22-0.96521z" fill="#000030"/>
    <path d="m492.42 541.34 7.9444 8.9005 1.68 45.977-7.3478 9.7101z" fill="#000030"/>
    <path d="m248.06 594.52-7.6669 8.5482 1.3809 49.917 8.1811 9.1213z" fill="#000030"/>
    <path d="m251.73 594.74 18.857 1.1384 1.8135 67.251-18.741-0.85515z" fill="#000030"/>
    <path d="m274.34 596.1 9.7339 9.4621 1.4608 49.431-9.234 8.309z" fill="#000030"/>
    <path d="m295.11 597.36-7.5497 8.4078 1.4034 49.389 8.1243 9.0997z" fill="#000030"/>
    <path d="m298.98 597.59 17.912 1.0813 1.9699 66.575-17.911-0.81732z" fill="#000030"/>
    <path d="m320.16 598.87 9.8162 9.3235 1.4641 48.917-9.4268 8.2818z" fill="#000030"/>
    <path d="m341.45 600.16-7.3172 8.2763 1.4888 48.871 7.9139 9.0714z" fill="#000030"/>
    <path d="m344.27 600.33 14.621 0.88268 1.6742 65.943-14.171-0.64667z" fill="#000030"/>
    <path d="m362.32 601.41 11.281 9.2756 1.4053 48.425-11.026 8.1913z" fill="#000030"/>
    <path d="m385.54 602.82-7.3879 8.1343 1.5453 48.38 7.9372 9.0548-2.0946-65.57z" fill="#000030"/>
    <path d="m389.12 603.03 16.757 1.0116 2.1668 65.273-16.819-0.76752z" fill="#000030"/>
    <path d="m409.83 604.28 8.2226 8.952 1.5504 47.934-7.6321 8.3283z" fill="#000030"/>
    <path d="m429.66 605.48-7.2101 8.0066 1.6166 47.887 7.7216 9.0271z" fill="#000030"/>
    <path d="m432.94 605.68 16.421 0.99127 2.1748 64.633-16.525-0.75403z" fill="#000030"/>
    <path d="m453.21 606.9 8.145 8.8119 1.6474 47.452-7.6243 8.3113z" fill="#000030"/>
    <path d="m471.54 608.01-6.3845 7.9229 1.6277 47.409 6.9417 8.9744z" fill="#000030"/>
    <path d="m475.52 608.25 15.214 0.91837 2.1255 64.021-15.13-0.69041z" fill="#000030"/>
    <path d="m494.82 609.41 8.0241 8.675 1.717 46.991-7.4863 8.3008z" fill="#000030"/>
    <path d="m250.04 665.09-7.6766 9.1536 1.4614 52.825 8.166 7.5898z" fill="#000030"/>
    <path d="m253.74 665.26 18.736 0.87812 1.8645 69.142-18.615-0.52075z" fill="#000030"/>
    <path d="m276.39 666.32 9.7702 9.7943 1.5416 52.161-9.2965 7.1168z" fill="#000030"/>
    <path d="m297.17 667.3-7.6144 8.9658 1.4806 52.108 8.1645 7.6065z" fill="#000030"/>
    <path d="m301.04 667.48 17.912 0.8395 2.02 68.268-17.908-0.50103z" fill="#000030"/>
    <path d="m322.1 668.46 9.9689 9.6181 1.5404 51.463-9.6088 7.1242z" fill="#000030"/>
    <path d="m343.64 669.47-7.373 8.7884 1.5658 51.4 7.9427 7.6167z" fill="#000030"/>
    <path d="m346.49 669.61 14.15 0.66325 1.7131 67.472-13.688-0.38268z" fill="#000030"/>
    <path d="m364.06 670.43 11.552 9.5163 1.4742 50.799-11.327 7.0914z" fill="#000030"/>
    <path d="m387.73 671.54-7.3729 8.6101 1.6204 50.731 7.892 7.6308z" fill="#000030"/>
    <path d="m391.33 671.71 16.824 0.78847 2.2104 66.588-16.885-0.47234z" fill="#000030"/>
    <path d="m412.07 672.68 8.1968 9.1786 1.6213 50.124-7.6343 7.2106z" fill="#000030"/>
    <path d="m431.89 673.61-7.1288 8.4421 1.6898 50.058 7.607 7.6385z" fill="#000030"/>
    <path d="m435.11 673.76 16.531 0.7748 2.213 65.767-16.636-0.46515z" fill="#000030"/>
    <path d="m455.49 674.72 8.2291 9.0045 1.7172 49.466-7.7407 7.2228z" fill="#000030"/>
    <path d="m473.84 675.58-6.3473 8.306 1.6962 49.409 6.8713 7.633z" fill="#000030"/>
    <path d="m477.84 675.76 15.127 0.70895 2.1575 64.984-15.04-0.42111z" fill="#000030"/>
    <path d="m497.19 676.67 8.1164 8.8311 1.7844 48.836-7.613 7.2411z" fill="#000030"/>
    <path d="m252.08 738.16-7.6851 9.8385 1.4016 50.664 8.2316 8.9736z" fill="#000030"/>
    <path d="m255.83 738.26 18.609 0.50563 1.8623 69.06-18.488-0.15882z" fill="#000030"/>
    <path d="m278.5 738.88 9.8084 10.158 1.4744 49.888-9.27 8.94z" fill="#000030"/>
    <path d="m299.31 739.44-7.6776 9.6709 1.4158 49.829 8.29 9.0994z" fill="#000030"/>
    <path d="m303.16 739.55 17.908 0.48668 2.0178 68.194-17.905-0.15368z" fill="#000030"/>
    <path d="m324.09 740.12 10.128 10.004 1.4689 49.075-9.6988 9.0582z" fill="#000030"/>
    <path d="m345.88 740.71-7.4244 9.5113 1.4927 49 8.065 9.2221z" fill="#000030"/>
    <path d="m348.78 740.79 13.665 0.37192 1.7118 67.422-13.204-0.11379z" fill="#000030"/>
    <path d="m365.84 741.25 11.833 9.8954 1.4018 48.306-11.538 9.1577z" fill="#000030"/>
    <path d="m389.98 741.91-7.3495 9.3563 1.5402 48.219 7.9468 9.3385z" fill="#000030"/>
    <path d="m393.58 742.01 16.888 0.45901 2.2086 66.533-16.949-0.14549z" fill="#000030"/>
    <path d="m414.37 742.57 8.1776 9.6366 1.5368 47.512-7.5325 9.3115z" fill="#000030"/>
    <path d="m434.17 743.11-7.035 9.2067 1.6012 47.431 7.6003 9.4539z" fill="#000030"/>
    <path d="m437.33 743.2 16.641 0.45235 2.2116 65.724-16.745-0.14398z" fill="#000030"/>
    <path d="m457.81 743.75 8.3246 9.4857 1.6227 46.742-7.743 9.4257z" fill="#000030"/>
    <path d="m476.17 744.25-6.2965 9.0749 1.6024 46.675 6.9131 9.5615z" fill="#000030"/>
    <path d="m480.2 744.36 15.036 0.40831 2.1566 64.956-14.95-0.12865z" fill="#000030"/>
    <path d="m499.59 744.89 8.2229 9.3348 1.6809 46.004-7.617 9.5376z" fill="#000030"/>
    <path d="m254.1 810.1-7.7302 9.1832 1.4458 52.263 8.2416 8.3532z" fill="#000030"/>
    <path d="m257.88 810.14 18.485 0.2008 1.8726 69.441-18.365 0.0968z" fill="#000030"/>
    <path d="m280.59 810.38 9.8128 9.3918 1.5238 51.557-9.3125 8.4232z" fill="#000030"/>
    <path d="m301.41 810.61-7.773 9.2024 1.4635 51.505 8.3506 8.3288z" fill="#000030"/>
    <path d="m305.26 810.65 17.907 0.19416 2.0324 68.686-17.905 0.0942z" fill="#000030"/>
    <path d="m326.06 810.88 10.257 9.4158 1.5212 50.822-9.8657 8.403z" fill="#000030"/>
    <path d="m348.1 811.11-7.5057 9.225 1.5461 50.753 8.1102 8.3062z" fill="#000030"/>
    <path d="m351.04 811.15 13.187 0.14291 1.7271 68.027-12.723 0.0671z" fill="#000030"/>
    <path d="m367.61 811.33 12.088 9.4538 1.4546 50.127-11.83 8.3914z" fill="#000030"/>
    <path d="m392.21 811.59-7.3533 9.2452 1.5984 50.044 7.9135 8.285z" fill="#000030"/>
    <path d="m395.82 811.63 16.954 0.18392 2.2322 67.243-17.017 0.0897z" fill="#000030"/>
    <path d="m416.64 811.86 8.1373 9.4298 1.5979 49.405-7.5298 8.3459z" fill="#000030"/>
    <path d="m436.43 812.07-6.9655 9.2679 1.6652 49.329 7.492 8.2646z" fill="#000030"/>
    <path d="m439.53 812.11 16.751 0.18185 2.2391 66.542-16.858 0.0886z" fill="#000030"/>
    <path d="m460.11 812.33 8.4017 9.4509 1.6908 48.704-7.8604 8.3256z" fill="#000030"/>
    <path d="m478.49 812.53-6.2648 9.2935 1.67 48.645 6.8434 8.2464z" fill="#000030"/>
    <path d="m482.55 812.57 14.947 0.16239 2.1872 65.879-14.861 0.0784z" fill="#000030"/>
    <path d="m501.98 812.78 8.3153 9.4675 1.7551 48.034-7.7509 8.3038z" fill="#000030"/>
    <path d="m256.15 883.21-7.7809 8.3441 1.429 51.654 8.2695 8.3895z" fill="#000030"/>
    <path d="m259.97 883.19 18.358-0.13579 1.8352 68.057-18.241 0.4083z" fill="#000030"/>
    <path d="m282.71 883.02 9.8022 8.1058 1.5067 50.98-9.3253 8.9016z" fill="#000030"/>
    <path d="m303.55 882.86-7.8838 8.2289 1.4472 50.934 8.4376 8.5121z" fill="#000030"/>
    <path d="m307.39 882.84 17.904-0.13275 1.9928 67.349-17.903 0.40111z" fill="#000030"/>
    <path d="m328.06 882.68 10.363 7.9891 1.505 50.282-9.9924 9.039z" fill="#000030"/>
    <path d="m350.35 882.52-7.6131 8.1115 1.5298 50.216 8.1926 8.6433z" fill="#000030"/>
    <path d="m353.33 882.5 12.702-0.0938 1.6946 66.744-12.248 0.27458z" fill="#000030"/>
    <path d="m369.4 882.38 12.314 7.8685 1.4401 49.625-12.073 9.2009z" fill="#000030"/>
    <path d="m394.46 882.19-7.3934 8.001 1.5824 49.54 7.9292 8.7677z" fill="#000030"/>
    <path d="m398.09 882.16 17.019-0.12607 2.1908 65.997-17.082 0.38268z" fill="#000030"/>
    <path d="m418.94 882.01 8.0502 7.7889 1.5827 48.932-7.468 9.2191z" fill="#000030"/>
    <path d="m438.72 881.86-6.9439 7.8881 1.6493 48.858 7.4465 8.898z" fill="#000030"/>
    <path d="m441.75 881.84 16.862-0.12501 2.1988 65.344-16.967 0.38011z" fill="#000030"/>
    <path d="m462.44 881.69 8.4193 7.6787 1.6755 48.262-7.9028 9.3461z" fill="#000030"/>
    <path d="m480.83 881.55-6.2923 7.7784 1.655 48.207 6.8461 9.0256z" fill="#000030"/>
    <path d="m484.92 881.52 14.857-0.11014 2.149 64.728-14.772 0.33095z" fill="#000030"/>
    <path d="m504.4 881.38 8.3347 7.5766 1.7401 47.624-7.7958 9.4556z" fill="#000030"/>
    <path d="m223.08 968.01 16.596-0.44109-22.051-902.28-19.39 8.3928z" fill="#c8c8c8"/>
    <path d="m233.78 85.395 0.12698 4.5279 251.36 47.233-0.15881-4.3474z" fill="#000030"/>
  </g>
</svg>