<?xml version="1.0" encoding="utf-8"?>
<svg width="800px" height="966px" viewBox="0 0 512 715" xmlns="http://www.w3.org/2000/svg">
  <path fill="#000000" d="M 386.688 591.75 L 267.452 536.327 C 259.554 532.654 256.118 523.262 259.792 515.351 L 344.166 333.828 C 347.833 325.924 357.236 322.494 365.129 326.161 L 484.369 381.595 C 492.269 385.268 495.699 394.66 492.025 402.559 L 407.655 584.083 C 403.977 591.987 394.579 595.417 386.687 591.75 L 386.688 591.75 Z M 98.95 571.945 L 19.79 388.09 C 16.342 380.083 20.045 370.788 28.04 367.346 L 67.236 350.474 L 116.211 534.518 C 120.905 552.106 138.966 562.596 156.571 557.908 L 195.603 547.522 L 119.696 580.208 C 111.689 583.651 102.4 579.953 98.952 571.946 L 98.95 571.945 Z M 132.84 530.085 L 81.362 336.638 C 79.122 328.218 84.142 319.56 92.552 317.326 L 126.585 308.274 L 122.487 338.739 C 120.065 356.775 132.711 373.391 150.772 375.826 L 230.6 386.584 L 198.103 496.051 C 194.758 507.331 197.733 518.999 204.969 527.231 L 152.149 541.281 C 143.729 543.521 135.079 538.511 132.839 530.085 L 132.84 530.085 Z M 241.268 525.325 L 225.248 520.565 C 216.888 518.075 212.128 509.298 214.604 500.938 L 271.574 309.038 C 274.058 300.678 282.854 295.918 291.196 298.388 L 340.269 312.971 L 340.277 312.966 L 340.397 313.01 L 340.264 312.976 C 335.334 316.23 331.224 320.844 328.559 326.581 L 244.179 508.111 C 241.592 513.697 240.693 519.628 241.264 525.329 L 241.268 525.325 Z M 235.561 369.895 L 153.075 358.778 C 144.442 357.612 138.371 349.658 139.537 341.02 L 166.267 142.63 C 167.427 133.997 175.392 127.932 184.007 129.092 L 314.334 146.655 C 322.961 147.821 329.026 155.78 327.866 164.407 L 311.42 286.46 L 296.09 281.908 C 278.623 276.711 260.264 286.692 255.086 304.14 L 235.561 369.895 Z M 230.371 338.435 C 235.041 335.38 237.845 330.997 238.791 325.29 C 239.727 319.657 238.434 314.673 234.925 310.345 C 231.415 305.931 226.535 303.205 220.269 302.167 C 213.925 301.11 208.339 302.094 203.519 305.123 C 198.693 308.153 195.827 312.439 194.904 317.993 C 194.006 323.379 195.329 328.413 198.874 333.075 C 202.439 337.579 207.399 340.36 213.737 341.415 C 220.087 342.472 225.63 341.477 230.371 338.435 Z M 256.349 257.192 C 261.042 254.466 265.237 251.758 268.947 249.075 C 272.65 246.391 275.862 243.489 278.582 240.35 C 281.302 237.22 283.549 233.777 285.315 230.043 C 287.075 226.303 288.363 222.011 289.165 217.178 C 290.427 209.558 290.185 202.82 288.43 196.944 C 286.68 191.074 283.737 186.004 279.597 181.724 C 275.462 177.454 270.357 173.971 264.279 171.294 C 258.209 168.61 251.475 166.661 244.105 165.434 C 236.413 164.154 228.805 163.832 221.29 164.457 C 213.774 165.071 206.66 166.704 199.944 169.337 L 193.994 205.139 C 200.807 200.889 207.764 198.035 214.849 196.572 C 221.939 195.097 228.575 194.872 234.762 195.904 C 256.229 199.996 254.202 220.802 243.522 229.934 C 237.87 234.407 232.188 238.736 227.58 241.279 C 217.1 247.193 199.89 264.404 205.038 286.424 L 236.322 291.626 C 229.212 273.869 247.985 262.164 256.35 257.192 L 256.349 257.192 Z"/>
</svg>