<svg width="20" height="20" viewBox="0 0 20 20" fill="none" xmlns="http://www.w3.org/2000/svg">
<path d="M0 20C2.26772 17.9406 6.4042 19.1419 8.18898 20C6.92913 17.6238 3.30709 16.4356 2.04724 16.2376C1.03937 16.0792 0.892388 15.5115 0.944882 15.2475V3.36634L0 3.9604V20Z" fill="#2430AD"/>
<path d="M9.6063 5.74257V20C6.45669 15.5644 3.25459 14.9835 2.04724 15.2475V0C6.45669 1.10891 8.92388 4.29043 9.6063 5.74257Z" fill="#2430AD"/>
<path d="M20 20C17.7323 17.9406 13.5958 19.1419 11.811 20C13.0708 17.6238 16.6929 16.4356 17.9527 16.2376C18.9606 16.0792 19.1076 15.5115 19.0551 15.2475V3.36634L20 3.9604V20Z" fill="#2430AD"/>
<path d="M10.3937 5.74257V20C13.5433 15.5644 16.7454 14.9835 17.9527 15.2475V0C13.5433 1.10891 11.0761 4.29043 10.3937 5.74257Z" fill="#2430AD"/>
<rect width="3.17636" height="9.52908" transform="matrix(-0.822629 -0.568578 -0.568578 0.822629 19.6786 2.26425)" fill="#FFC745"/>
<path d="M10.7869 12.3357L11.2809 9.20204L13.5438 10.7661L10.7869 12.3357Z" fill="#FFC745"/>
</svg>
