<svg width="20" height="20" viewBox="0 0 20 20" fill="none" xmlns="http://www.w3.org/2000/svg">
<path d="M0 18.7124C2.22325 16.7855 6.27863 17.9095 8.02841 18.7124C6.79327 16.4891 3.24224 15.3775 2.0071 15.1922C1.01899 15.044 0.874891 14.5129 0.926355 14.2659V3.14961L0 3.70542V18.7124Z" fill="#2430AD"/>
<path d="M9.41794 5.37286V18.7124C6.33009 14.5623 3.19078 14.0188 2.0071 14.2659V0C6.33009 1.03752 8.74891 4.0142 9.41794 5.37286Z" fill="#2430AD"/>
<path d="M19.6079 18.7124C17.3846 16.7855 13.3293 17.9095 11.5795 18.7124C12.8146 16.4891 16.3656 15.3775 17.6008 15.1922C18.5889 15.044 18.733 14.5129 18.6815 14.2659V3.14961L19.6079 3.70542V18.7124Z" fill="#2430AD"/>
<path d="M10.1899 5.37286V18.7124C13.2778 14.5623 16.4171 14.0188 17.6008 14.2659V0C13.2778 1.03752 10.859 4.0142 10.1899 5.37286Z" fill="#2430AD"/>
<path d="M7.78568 10.3242C7.99361 9.99691 7.99355 9.57887 7.78551 9.2516L4.57634 4.20312C4.15314 3.53737 4.63139 2.66666 5.42026 2.66666H5.66756C6.01994 2.66666 6.34631 2.85212 6.52666 3.15485L8.57563 6.5942C8.96259 7.24374 9.90262 7.24546 10.292 6.59734L12.3618 3.15171C12.5426 2.85076 12.8679 2.66666 13.219 2.66666H13.4687C14.2576 2.66666 14.7358 3.53737 14.3126 4.20312L11.1035 9.2516C10.8954 9.57887 10.8954 9.99691 11.1033 10.3242L14.5798 15.7971C15.0027 16.4629 14.5244 17.3333 13.7357 17.3333H13.4843C13.1338 17.3333 12.8088 17.1498 12.6278 16.8495L10.2909 12.972C9.90138 12.3256 8.9636 12.3272 8.57624 12.9749L6.26064 16.8466C6.08008 17.1485 5.75418 17.3333 5.40242 17.3333H5.15329C4.36457 17.3333 3.88629 16.4629 4.30919 15.7971L7.78568 10.3242Z" fill="#FFC745"/>
</svg>
