<svg width="20" height="20" viewBox="0 0 20 20" fill="none" xmlns="http://www.w3.org/2000/svg">
<path d="M0 19.8819C2.26771 17.8346 6.40419 19.0289 8.18897 19.8819C6.92913 17.5197 3.30708 16.3386 2.04724 16.1417C1.03937 15.9842 0.892388 15.4199 0.944881 15.1575V3.34645L0 3.937V19.8819Z" fill="#2430AD"/>
<path d="M9.60629 5.70866V19.8819C6.45669 15.4724 3.25459 14.895 2.04724 15.1575V0C6.45669 1.10236 8.92388 4.26509 9.60629 5.70866Z" fill="#2430AD"/>
<path d="M20 19.8819C17.7323 17.8346 13.5958 19.0289 11.811 19.8819C13.0708 17.5197 16.6929 16.3386 17.9527 16.1417C18.9606 15.9842 19.1076 15.4199 19.0551 15.1575V3.34645L20 3.937V19.8819Z" fill="#2430AD"/>
<path d="M10.3937 5.70866V19.8819C13.5433 15.4724 16.7454 14.895 17.9527 15.1575V0C13.5433 1.10236 11.0761 4.26509 10.3937 5.70866Z" fill="#2430AD"/>
<path d="M9.81818 20L6 11.1111L9.81818 15.5556L20 0L9.81818 20Z" fill="#FFC745"/>
</svg>
