<svg version="1.2" baseProfile="tiny-ps" xmlns="http://www.w3.org/2000/svg" viewBox="0 0 30 30" width="30" height="30">
	<title>conquistas</title>
	<style>
		tspan { white-space:pre }
		.shp0 { fill: #2430ad } 
		.shp1 { fill: #ffc745 } 
	</style>
	<g id="conquistas">
		<path id="Layer" class="shp0" d="M15 30C6.7 30 0 23.29 0 15C0 6.7 6.7 0 15 0C23.29 0 30 6.7 30 15C30 23.29 23.29 30 15 30Z" />
		<path id="Layer" class="shp1" d="M12.83 17.25L14.78 17.25L14.78 20.58L12.83 20.58C13.39 19.59 13.41 18.87 12.83 17.25Z" />
		<path id="Layer" class="shp1" d="M16.74 20.58L14.78 20.58L14.78 17.25L16.74 17.25C16.15 18.87 16.18 19.59 16.74 20.58Z" />
		<path id="Layer" class="shp1" d="M10.22 25.37C10.22 25.03 10.5 24.75 10.84 24.75L18.72 24.75C19.07 24.75 19.35 25.03 19.35 25.37L19.35 25.37C19.35 25.72 19.07 26 18.72 26L10.84 26C10.5 26 10.22 25.72 10.22 25.37L10.22 25.37Z" />
		<path id="Layer" class="shp1" d="M11.09 21.42C11.09 20.96 11.46 20.58 11.92 20.58L17.64 20.58C18.11 20.58 18.48 20.96 18.48 21.42L18.48 21.42C18.48 21.88 18.11 22.25 17.64 22.25L11.92 22.25C11.46 22.25 11.09 21.88 11.09 21.42L11.09 21.42Z" />
		<path id="Layer" class="shp1" d="M11.74 21.83L17.83 21.83L18.48 24.75L11.09 24.75L11.74 21.83Z" />
		<path id="Layer" fill-rule="evenodd" class="shp1" d="M20.65 11.8C20.65 15.04 18.02 17.67 14.78 17.67C11.54 17.67 8.91 15.15 8.91 12.04L8.91 6L20.65 6L20.65 11.8ZM15.94 8.52C15.61 7.66 14.39 7.66 14.06 8.52L13.89 8.98C13.75 9.37 13.38 9.63 12.96 9.63L12.68 9.63C11.69 9.63 11.32 10.91 12.15 11.44C12.54 11.69 12.7 12.18 12.54 12.62L12.51 12.71C12.17 13.61 13.17 14.42 13.98 13.9L14.46 13.6C14.79 13.39 15.21 13.39 15.54 13.6L16.02 13.9C16.83 14.42 17.83 13.61 17.49 12.71L17.46 12.62C17.3 12.18 17.46 11.69 17.85 11.44C18.68 10.91 18.31 9.63 17.32 9.63L17.04 9.63C16.62 9.63 16.25 9.37 16.1 8.98L15.94 8.52Z" />
		<path id="Layer" fill-rule="evenodd" class="shp1" d="M10.5 6L10.5 13.62C10.5 14.38 9.88 15 9.12 15C6.85 15 5 13.15 5 10.87L5 7.06C5 6.47 5.47 6 6.06 6L10.5 6ZM6.71 7.67C6.35 7.67 6.05 7.97 6.05 8.33L6.05 10.78C6.05 12.19 7.19 13.33 8.6 13.33C9.07 13.33 9.45 12.95 9.45 12.48L9.45 7.67L6.71 7.67Z" />
		<path id="Layer" fill-rule="evenodd" class="shp1" d="M23.94 6C24.53 6 25 6.47 25 7.06L25 10.87C25 13.15 23.15 15 20.87 15C20.12 15 19.5 14.38 19.5 13.62L19.5 6L23.94 6ZM20.55 7.67L20.55 12.48C20.55 12.95 20.93 13.33 21.4 13.33C22.81 13.33 23.95 12.19 23.95 10.78L23.95 8.33C23.95 7.97 23.65 7.67 23.29 7.67L20.55 7.67Z" />
	</g>
</svg>