<svg version="1.2" baseProfile="tiny-ps" xmlns="http://www.w3.org/2000/svg" viewBox="0 0 88 42" width="88" height="42">
	<title>Layer</title>
	<style>
		tspan { white-space:pre }
		.shp0 { fill: #ffc745 } 
		.shp1 { fill: #2430ad;stroke: #ffc745 } 
		.shp2 { fill: #2430ad } 
		.shp3 { fill: none;stroke: #ffc745 } 
		.shp4 { fill: none;stroke: #ffc745;stroke-linecap:round } 
	</style>
	<path id="Layer" class="shp0" d="M43.9 21.4C42.76 21.4 41.86 20.95 41.22 20.06C40.58 19.15 40.26 17.77 40.26 15.9L40.26 8C40.26 6.32 40.58 5.05 41.24 4.16C41.9 3.28 42.94 2.84 44.38 2.84C46.16 2.84 47.29 3.51 47.77 4.84C48.06 5.63 48.2 6.72 48.2 8.11L48.2 9.4L45.62 9.4L45.62 7.5C45.62 6.67 45.53 6.08 45.36 5.74C45.18 5.41 44.85 5.24 44.36 5.24C43.88 5.24 43.54 5.44 43.34 5.85C43.14 6.25 43.04 6.96 43.04 7.98L43.04 15.86C43.04 17.05 43.13 17.87 43.31 18.34C43.49 18.81 43.84 19.04 44.35 19.04C44.88 19.04 45.25 18.79 45.46 18.29C45.68 17.79 45.79 16.94 45.79 15.75L45.79 13.31L44.4 13.31L44.4 11.29L48.2 11.29L48.2 21.21L46.97 21.21L46.54 19.43C46.4 20.04 46.08 20.52 45.59 20.87C45.1 21.22 44.54 21.4 43.9 21.4Z" />
	<path id="Layer" fill-rule="evenodd" class="shp0" d="M47.97 21.21L50.56 3.05L54.21 3.05L56.97 21.21L54.39 21.21L53.96 17.97L51.02 17.97L50.63 21.21L47.97 21.21ZM53.67 15.75L52.45 6.63L52.41 6.63L51.29 15.75L53.67 15.75Z" />
	<path id="Layer" class="shp0" d="M56.86 21.21L56.86 3.05L60.3 3.05L62.87 16.32L65.3 3.05L68.76 3.05L68.76 21.21L66.29 21.21L66.29 14.44L66.39 8.23L63.95 21.13L61.75 21.13L59.2 8.23L59.3 14.44L59.3 21.21L56.86 21.21Z" />
	<path id="Layer" class="shp0" d="M69.48 21.21L69.48 3.05L75.57 3.05L75.57 5.43L72.25 5.43L72.25 10.72L75.41 10.72L75.41 13.05L72.25 13.05L72.25 18.83L75.69 18.83L75.69 21.21L69.48 21.21Z" />
	<path id="Layer" class="shp0" d="M40.49 41.38L40.49 23.22L46.57 23.22L46.57 25.61L43.25 25.61L43.25 30.89L46.41 30.89L46.41 33.22L43.25 33.22L43.25 39L46.7 39L46.7 41.38L40.49 41.38Z" />
	<path id="Layer" class="shp0" d="M47.17 36.27L47.17 34.65L49.79 34.65L49.79 36.48C49.79 37.49 49.88 38.2 50.05 38.62C50.22 39.02 50.54 39.23 51.02 39.23C51.49 39.23 51.81 39.06 51.96 38.72C52.12 38.38 52.2 37.83 52.2 37.07C52.2 36.31 52.06 35.64 51.78 35.08C51.51 34.51 51.07 33.91 50.47 33.29L49.13 31.91C48.5 31.26 48.02 30.58 47.67 29.88C47.32 29.18 47.15 28.36 47.15 27.44C47.15 25.94 47.44 24.83 48.02 24.1C48.59 23.37 49.59 23.01 51 23.01C52.41 23.01 53.36 23.43 53.86 24.28C54.36 25.13 54.61 26.37 54.61 28L54.61 29.12L52.06 29.12L52.06 27.82C52.06 26.94 51.99 26.31 51.83 25.94C51.68 25.55 51.39 25.36 50.96 25.36C50.53 25.36 50.22 25.5 50.03 25.79C49.84 26.08 49.75 26.51 49.75 27.09C49.75 27.67 49.85 28.13 50.04 28.47C50.23 28.82 50.58 29.26 51.08 29.79L52.58 31.41C53.33 32.23 53.89 33.05 54.27 33.88C54.65 34.71 54.85 35.62 54.85 36.61C54.85 38.3 54.56 39.56 53.99 40.37C53.42 41.18 52.42 41.59 50.99 41.59C49.56 41.59 48.57 41.14 48.01 40.24C47.45 39.33 47.17 38.01 47.17 36.27Z" />
	<path id="Layer" class="shp0" d="M63.07 36.43C63.07 38.18 62.75 39.48 62.13 40.33C61.5 41.17 60.52 41.59 59.18 41.59C57.84 41.59 56.83 41.14 56.16 40.25C55.5 39.35 55.17 38.05 55.17 36.37L55.17 28.45C55.17 25.75 55.88 24.06 57.3 23.39C57.82 23.14 58.45 23.02 59.2 23.02C61.75 23.02 63.03 24.63 63.03 27.84L63.03 30.34L60.35 30.34L60.35 28.02C60.35 27.08 60.27 26.42 60.12 26.02C59.96 25.61 59.65 25.41 59.19 25.41C58.73 25.41 58.41 25.62 58.23 26.05C58.05 26.48 57.96 27.13 57.96 28.01L57.96 36.49C57.96 37.47 58.05 38.17 58.22 38.59C58.39 39.01 58.7 39.22 59.16 39.22C59.61 39.22 59.92 39 60.1 38.58C60.27 38.15 60.35 37.44 60.35 36.46L60.35 33.86L63.07 33.86L63.07 36.43Z" />
	<path id="Layer" fill-rule="evenodd" class="shp0" d="M71.65 36.31C71.65 38.08 71.33 39.4 70.7 40.28C70.07 41.15 69.05 41.59 67.66 41.59C66.27 41.59 65.24 41.15 64.59 40.28C63.94 39.4 63.62 38.07 63.62 36.31L63.62 28C63.62 24.67 64.98 23.01 67.7 23.01C69.1 23.01 70.11 23.43 70.72 24.27C71.34 25.12 71.65 26.36 71.65 28L71.65 36.31ZM66.41 36.34C66.41 37.4 66.49 38.15 66.64 38.57C66.81 38.99 67.14 39.19 67.64 39.19C68.15 39.19 68.48 38.98 68.64 38.56C68.79 38.12 68.87 37.38 68.87 36.34L68.87 27.88C68.87 27.02 68.79 26.39 68.63 26C68.47 25.6 68.15 25.4 67.68 25.4C67.21 25.4 66.88 25.6 66.69 26C66.5 26.39 66.41 27.01 66.41 27.87L66.41 36.34Z" />
	<path id="Layer" class="shp0" d="M72.69 41.38L72.69 23.22L75.45 23.22L75.45 39.03L78.95 39.03L78.95 41.38L72.69 41.38Z" />
	<path id="Layer" fill-rule="evenodd" class="shp0" d="M78.98 41.38L81.57 23.22L85.23 23.22L87.98 41.38L85.4 41.38L84.97 38.14L82.04 38.14L81.65 41.38L78.98 41.38ZM84.68 35.92L83.46 26.8L83.42 26.8L82.31 35.92L84.68 35.92Z" />
	<path id="Layer" class="shp1" d="M1.5 23.09C1.5 22.84 1.71 22.63 1.96 22.63L35.15 22.63C35.41 22.63 35.61 22.84 35.61 23.09L35.61 39.62C35.61 39.88 35.41 40.08 35.15 40.08L1.96 40.08C1.71 40.08 1.5 39.88 1.5 39.62L1.5 23.09Z" />
	<path id="Layer" class="shp2" d="M18.06 39.82C9.63 36.5 4.51 37.97 3.01 38.74L3.01 22.6C9.03 20.38 15.55 21.67 18.06 22.6L18.06 39.82Z" />
	<path id="Layer" class="shp2" d="M19.06 22.6C21.57 21.67 28.09 20.38 34.11 22.6L34.11 38.74C32.6 37.97 27.49 36.5 19.06 39.82L19.06 22.6Z" />
	<path id="Layer" class="shp3" d="M18.06 39.82C9.63 36.5 4.51 37.97 3.01 38.74L3.01 22.6C9.03 20.38 15.55 21.67 18.06 22.6L18.06 39.82Z" />
	<path id="Layer" class="shp3" d="M19.06 22.6C21.57 21.67 28.09 20.38 34.11 22.6L34.11 38.74C32.6 37.97 27.49 36.5 19.06 39.82L19.06 22.6Z" />
	<path id="Layer" class="shp0" d="M7.02 25.74C7.02 25.52 7.17 25.33 7.39 25.3C8.14 25.17 9.88 24.9 11.03 24.9C12.18 24.9 13.92 25.17 14.68 25.3C14.89 25.33 15.05 25.52 15.05 25.74C15.05 26.02 14.79 26.24 14.51 26.19C13.7 26.06 12.15 25.82 11.03 25.82C9.91 25.82 8.36 26.06 7.56 26.19C7.28 26.24 7.02 26.02 7.02 25.74Z" />
	<path id="Layer" class="shp0" d="M7.02 28.51C7.02 28.29 7.17 28.1 7.39 28.07C8.14 27.94 9.88 27.67 11.03 27.67C12.18 27.67 13.92 27.94 14.68 28.07C14.89 28.1 15.05 28.29 15.05 28.51C15.05 28.79 14.79 29.01 14.51 28.96C13.7 28.82 12.15 28.59 11.03 28.59C9.91 28.59 8.36 28.82 7.56 28.96C7.28 29.01 7.02 28.79 7.02 28.51Z" />
	<path id="Layer" class="shp0" d="M7.02 31.27C7.02 31.06 7.17 30.87 7.39 30.83C8.14 30.71 9.88 30.44 11.03 30.44C12.18 30.44 13.92 30.71 14.68 30.83C14.89 30.87 15.05 31.06 15.05 31.27C15.05 31.56 14.79 31.77 14.51 31.73C13.7 31.59 12.15 31.36 11.03 31.36C9.91 31.36 8.36 31.59 7.56 31.73C7.28 31.77 7.02 31.56 7.02 31.27Z" />
	<path id="Layer" class="shp0" d="M7.02 34.04C7.02 33.82 7.17 33.64 7.39 33.6C8.14 33.47 9.88 33.2 11.03 33.2C12.18 33.2 13.92 33.47 14.68 33.6C14.89 33.64 15.05 33.82 15.05 34.04C15.05 34.33 14.79 34.54 14.51 34.49C13.7 34.36 12.15 34.13 11.03 34.13C9.91 34.13 8.36 34.36 7.56 34.49C7.28 34.54 7.02 34.33 7.02 34.04Z" />
	<path id="Layer" class="shp0" d="M22.07 25.74C22.07 25.52 22.22 25.33 22.44 25.3C23.19 25.17 24.93 24.9 26.08 24.9C27.23 24.9 28.97 25.17 29.72 25.3C29.94 25.33 30.09 25.52 30.09 25.74C30.09 26.02 29.84 26.24 29.56 26.19C28.75 26.06 27.2 25.82 26.08 25.82C24.96 25.82 23.41 26.06 22.6 26.19C22.33 26.24 22.07 26.02 22.07 25.74Z" />
	<path id="Layer" class="shp0" d="M22.07 28.51C22.07 28.29 22.22 28.1 22.44 28.07C23.19 27.94 24.93 27.67 26.08 27.67C27.23 27.67 28.97 27.94 29.72 28.07C29.94 28.1 30.09 28.29 30.09 28.51C30.09 28.79 29.84 29.01 29.56 28.96C28.75 28.82 27.2 28.59 26.08 28.59C24.96 28.59 23.41 28.82 22.6 28.96C22.33 29.01 22.07 28.79 22.07 28.51Z" />
	<path id="Layer" class="shp0" d="M22.07 31.27C22.07 31.06 22.22 30.87 22.44 30.83C23.19 30.71 24.93 30.44 26.08 30.44C27.23 30.44 28.97 30.71 29.72 30.83C29.94 30.87 30.09 31.06 30.09 31.27C30.09 31.56 29.84 31.77 29.56 31.73C28.75 31.59 27.2 31.36 26.08 31.36C24.96 31.36 23.41 31.59 22.6 31.73C22.33 31.77 22.07 31.56 22.07 31.27Z" />
	<path id="Layer" class="shp0" d="M22.07 34.04C22.07 33.82 22.22 33.64 22.44 33.6C23.19 33.47 24.93 33.2 26.08 33.2C27.23 33.2 28.97 33.47 29.72 33.6C29.94 33.64 30.09 33.82 30.09 34.04C30.09 34.33 29.84 34.54 29.56 34.49C28.75 34.36 27.2 34.13 26.08 34.13C24.96 34.13 23.41 34.36 22.6 34.49C22.33 34.54 22.07 34.33 22.07 34.04Z" />
	<path id="Layer" class="shp2" d="M18.45 2.27C18.37 2.19 18.3 2.12 18.22 2.06C18.32 2.09 18.4 2.17 18.45 2.27C22.74 6.34 28.44 14.26 18.78 15.34C8.9 16.44 17.54 6.14 17.54 6.14C17.54 6.14 18.89 3.15 18.45 2.27Z" />
	<path id="Layer" class="shp4" d="M18.16 2C22.48 5.99 28.66 14.23 18.78 15.34C8.9 16.44 17.54 6.14 17.54 6.14C17.54 6.14 19.21 2.42 18.22 2.06" />
	<path id="Layer" class="shp1" d="M20.6 31.52L17.56 31.52L17.12 18.43L21.03 18.43L20.6 31.52Z" />
	<path id="Layer" fill-rule="evenodd" class="shp1" d="M26.19 13.19C26.19 16.72 22.96 19.68 18.86 19.68C14.76 19.68 11.53 16.72 11.53 13.19C11.53 12.73 11.59 12.49 11.64 12.38C11.65 12.36 11.66 12.35 11.66 12.34C11.67 12.34 11.67 12.34 11.67 12.34C11.73 12.34 11.88 12.37 12.15 12.5C12.4 12.63 12.7 12.81 13.05 13.04C13.16 13.11 13.27 13.18 13.38 13.26C14.02 13.67 14.77 14.17 15.59 14.57C16.56 15.06 17.67 15.44 18.86 15.44C20.05 15.44 21.16 15.06 22.13 14.57C22.95 14.17 23.71 13.67 24.34 13.26C24.45 13.18 24.56 13.11 24.67 13.04C25.02 12.81 25.32 12.63 25.57 12.5C25.84 12.37 25.99 12.34 26.05 12.34C26.05 12.34 26.05 12.34 26.06 12.34C26.06 12.35 26.07 12.36 26.08 12.38C26.13 12.49 26.19 12.73 26.19 13.19ZM26.05 12.33C26.05 12.33 26.05 12.33 26.05 12.33C26.05 12.33 26.05 12.33 26.05 12.33Z" />
	<path id="Layer" class="shp3" d="M20.56 13.63C20.56 14.29 19.95 14.92 19.06 14.92C18.17 14.92 17.55 14.29 17.55 13.63C17.55 13.6 17.57 13.51 17.63 13.36C17.68 13.21 17.77 13.04 17.88 12.85C18.11 12.47 18.42 12.05 18.74 11.69C19.07 11.32 19.39 11.04 19.63 10.91C19.65 10.89 19.68 10.88 19.7 10.87C20.16 11.72 20.56 12.81 20.56 13.63Z" />
</svg>