<svg version="1.2" baseProfile="tiny-ps" xmlns="http://www.w3.org/2000/svg" viewBox="0 0 34 27" width="34" height="27">
	<title>sair</title>
	<style>
		tspan { white-space:pre }
		.shp0f { fill: none;stroke: #ffc745;stroke-linecap:round;stroke-linejoin:round;stroke-width: 3 } 
	</style>
	<path id="sair" class="shp0f" d="M26.23 7.77L32 13.54M32 13.54L26.23 19.31M32 13.54L12.31 13.54M21.62 19.31L21.62 22.19C21.62 22.96 21.31 23.69 20.77 24.23C20.23 24.78 19.5 25.08 18.73 25.08L4.88 25.08C4.12 25.08 3.39 24.78 2.84 24.23C2.3 23.69 2 22.96 2 22.19L2 4.88C2 4.12 2.3 3.39 2.84 2.84C3.39 2.3 4.12 2 4.88 2L18.73 2C19.5 2 20.23 2.3 20.77 2.84C21.31 3.39 21.62 4.12 21.62 4.88L21.62 7.77L21.62 19.31Z" />
</svg>