<svg version="1.2" baseProfile="tiny-ps" xmlns="http://www.w3.org/2000/svg" viewBox="0 0 30 30" width="30" height="30">
	<title>Pasta 1</title>
	<style>
		tspan { white-space:pre }
		.shp0 { fill: #2430ad } 
	</style>
	<g id="Pasta 1">
		<path id="Layer" class="shp0" d="M16.07 16.36C13.7 16.36 11.79 13.93 11.79 10.91C11.79 7.89 13.7 5.45 16.07 5.45C18.44 5.45 20.36 7.89 20.36 10.91C20.36 13.93 18.44 16.36 16.07 16.36Z" />
		<path id="Layer" fill-rule="evenodd" class="shp0" d="M16.07 19.09C20.81 19.09 24.64 23.98 24.64 30L7.5 30C7.5 23.98 11.34 19.09 16.07 19.09Z" />
		<path id="Layer" class="shp0" d="M5.89 10.23C4.26 10.23 2.95 8.55 2.95 6.48C2.95 4.4 4.26 2.73 5.89 2.73C7.52 2.73 8.84 4.4 8.84 6.48C8.84 8.55 7.52 10.23 5.89 10.23Z" />
		<path id="Layer" fill-rule="evenodd" class="shp0" d="M5.89 12.1C9.15 12.1 11.79 15.46 11.79 19.6L0 19.6C0 15.46 2.64 12.1 5.89 12.1Z" />
		<path id="Layer" class="shp0" d="M25.71 5.45C24.53 5.45 23.57 4.24 23.57 2.73C23.57 1.22 24.53 0 25.71 0C26.9 0 27.86 1.22 27.86 2.73C27.86 4.24 26.9 5.45 25.71 5.45Z" />
		<path id="Layer" fill-rule="evenodd" class="shp0" d="M30 12.27L21.43 12.27C21.43 9.26 23.35 6.82 25.71 6.82C28.08 6.82 30 9.26 30 12.27ZM25.72 17.73L25.71 17.73C25.71 17.73 25.71 17.73 25.71 17.73C25.72 17.73 25.72 17.73 25.72 17.73Z" />
	</g>
</svg>