<?xml version="1.0" encoding="utf-8"?>
<svg viewBox="0 0 500 500" xmlns="http://www.w3.org/2000/svg">
  <defs>
    <radialGradient gradientUnits="userSpaceOnUse" cx="250" cy="250" r="248.789" id="gradient-1">
      <stop offset="0" style="stop-color: #badaff"/>
      <stop offset="1" style="stop-color: #758dff"/>
    </radialGradient>
    <path id="path-0" d="M 137.161 82.935 C 181.374 192.107 170.508 168.323 205.742 233.652 C 212.151 245.536 212.868 249.053 224.083 252.791 L 229.665 253.589 C 239.249 255.985 248.538 256.778 258.373 256.778" style="fill: none;"/>
  </defs>
  <ellipse style="fill-rule: nonzero; stroke: url(#gradient-1); stroke-miterlimit: 0; stroke-width: 16px; paint-order: stroke; fill: rgb(85, 218, 189);" cx="250" cy="250" rx="242" ry="242"/>
  <path style="stroke: rgb(0, 0, 0); fill: rgb(218, 85, 85);" d="M 105.564 133.984 L 321.062 131.815 L 332.867 112.53 L 366.137 132.399 L 355.405 145.841 L 100.55 146.426"/>
  <path style="stroke: rgb(0, 0, 0); fill: rgb(218, 85, 85);" d="M 65.391 373.772 C 67.435 376.354 150.077 355.457 143.866 347.61 C 152.843 348.96 171.852 285.364 174.603 281.519 C 177.354 277.674 189.724 98.087 188.989 97.701 L 211.878 81.865 L 174.603 66.721 L 172.64 95.636 C 175.662 96.432 159.878 287.801 159.561 279.452 C 159.245 271.104 140.259 335.906 131.44 335.906 C 138.395 343.228 66.226 374.651 65.391 373.772 Z"/>
  <path style="stroke: rgb(0, 0, 0); fill: rgb(218, 85, 85);" d="M 330.245 133.501 L 345.287 133.501 L 344.633 351.742 L 419.184 353.807 L 425.725 281.519 L 432.264 353.119 L 443.381 360.692 L 432.264 367.576 L 330.245 366.199 L 330.245 133.501 Z"/>
</svg>