<?xml version="1.0" encoding="utf-8"?>
<svg viewBox="0 0 500 500" xmlns="http://www.w3.org/2000/svg">
  <defs>
    <radialGradient gradientUnits="userSpaceOnUse" cx="250" cy="250" r="248.789" id="gradient-1">
      <stop offset="0" style="stop-color: #badaff"/>
      <stop offset="1" style="stop-color: #758dff"/>
    </radialGradient>
    <path id="path-0" d="M 137.161 82.935 C 181.374 192.107 170.508 168.323 205.742 233.652 C 212.151 245.536 212.868 249.053 224.083 252.791 L 229.665 253.589 C 239.249 255.985 248.538 256.778 258.373 256.778" style="fill: none;"/>
  </defs>
  <ellipse style="fill-rule: nonzero; stroke: url(#gradient-1); stroke-miterlimit: 0; stroke-width: 16px; paint-order: stroke; fill: rgb(85, 218, 189);" cx="250" cy="250" rx="242" ry="242"/>
  <path style="stroke: rgb(0, 0, 0); fill: rgb(218, 85, 85);" d="M 60.027 124.747 L 387.9 125.495 L 403.788 100.841 L 448.564 126.242 L 434.12 143.425 L 50.638 144.174"/>
  <path style="stroke: rgb(0, 0, 0); fill: rgb(218, 85, 85);" d="M 205.742 125.997 L 228.868 125.997 C 231.402 132.668 236.954 108.897 231.26 94.897 C 242.321 72.647 179.428 23.696 173.844 31.898 C 174.476 23.686 208.764 74.753 207.337 93.301 L 205.742 125.997 Z"/>
  <path style="stroke: rgb(0, 0, 0); fill: rgb(218, 85, 85);" d="M 67.783 388.357 C 71.78 392.68 188.636 192.671 180.223 182.616 C 180.223 179.547 230.462 175.714 228.867 181.818 C 227.272 187.922 221.764 212.195 215.311 208.134 C 208.858 204.073 192.018 208.765 193.78 210.527 C 206.366 219.966 71.004 390.773 67.783 388.357 Z"/>
  <path style="stroke: rgb(0, 0, 0); fill: rgb(218, 85, 85);" d="M 267.145 179.426 C 278.345 166.359 433.699 329.478 419.458 346.093 C 430.47 363.398 423.074 412.722 420.255 408.293 L 392.345 413.078 C 396.598 417.331 400.585 357.523 396.332 353.27 C 407.747 322.286 269.288 173.61 267.145 179.426 Z"/>
</svg>