<?xml version="1.0" encoding="utf-8"?>
<svg viewBox="0 0 500 500" xmlns="http://www.w3.org/2000/svg">
  <defs>
    <radialGradient gradientUnits="userSpaceOnUse" cx="250" cy="250" r="248.789" id="gradient-1">
      <stop offset="0" style="stop-color: #badaff"/>
      <stop offset="1" style="stop-color: #758dff"/>
    </radialGradient>
    <path id="path-0" d="M 137.161 82.935 C 181.374 192.107 170.508 168.323 205.742 233.652 C 212.151 245.536 212.868 249.053 224.083 252.791 L 229.665 253.589 C 239.249 255.985 248.538 256.778 258.373 256.778" style="fill: none;"/>
  </defs>
  <ellipse style="fill-rule: nonzero; stroke: url(#gradient-1); stroke-miterlimit: 0; stroke-width: 16px; paint-order: stroke; fill: rgb(85, 218, 189);" cx="250" cy="250" rx="242" ry="242"/>
  <path style="stroke: rgb(0, 0, 0); fill: rgb(218, 85, 85);" d="M 112.091 67.362 L 198.702 68.362 L 157.414 122.78 L 155.99 188.68 L 154.33 122.53 L 112.091 67.362 Z" transform="matrix(0.999969, -0.00792, 0.00792, 0.999969, -1.009052, 1.234755)"/>
  <path style="stroke: rgb(0, 0, 0); fill: rgb(218, 85, 85);" d="M 203.1 67.851 L 289.712 68.849 L 248.423 123.267 L 246.998 189.167 L 245.337 123.018 L 203.1 67.851 Z" transform="matrix(0.999969, -0.00792, 0.00792, 0.999969, -1.010063, 1.955566)"/>
  <path style="stroke: rgb(0, 0, 0); fill: rgb(218, 85, 85);" d="M 294.442 67.929 L 381.053 68.928 L 339.764 123.345 L 338.341 189.247 L 336.681 123.095 L 294.442 67.929 Z" transform="matrix(0.999969, -0.00792, 0.00792, 0.999969, -1.007824, 2.678993)"/>
  <path style="stroke: rgb(0, 0, 0); fill: rgb(218, 85, 85);" d="M 114.405 194.517 L 201.016 195.517 L 159.728 249.934 L 158.304 315.835 L 156.643 249.684 L 114.405 194.517 Z" transform="matrix(0.999969, -0.00792, 0.00792, 0.999969, -2.016047, 1.25707)"/>
  <path style="stroke: rgb(0, 0, 0); fill: rgb(218, 85, 85);" d="M 205.413 195.005 L 292.025 196.004 L 250.737 250.422 L 249.313 316.322 L 247.652 250.173 L 205.413 195.005 Z" transform="matrix(0.999969, -0.00792, 0.00792, 0.999969, -2.017054, 1.977873)"/>
  <path style="stroke: rgb(0, 0, 0); fill: rgb(218, 85, 85);" d="M 296.756 195.084 L 383.367 196.083 L 342.078 250.5 L 340.654 316.401 L 338.994 250.251 L 296.756 195.084 Z" transform="matrix(0.999969, -0.00792, 0.00792, 0.999969, -2.014815, 2.701308)"/>
  <path style="stroke: rgb(0, 0, 0); fill: rgb(218, 85, 85);" d="M 114.323 323.656 L 200.934 324.656 L 159.646 379.073 L 158.222 444.974 L 156.561 378.823 L 114.323 323.656 Z" transform="matrix(0.999969, -0.00792, 0.00792, 0.999969, -3.038831, 1.260471)"/>
  <path style="stroke: rgb(0, 0, 0); fill: rgb(218, 85, 85);" d="M 205.331 324.144 L 291.943 325.143 L 250.655 379.561 L 249.231 445.461 L 247.57 379.312 L 205.331 324.144 Z" transform="matrix(0.999969, -0.00792, 0.00792, 0.999969, -3.039837, 1.981273)"/>
  <path style="stroke: rgb(0, 0, 0); fill: rgb(218, 85, 85);" d="M 296.674 324.223 L 383.285 325.222 L 341.996 379.639 L 340.572 445.54 L 338.912 379.39 L 296.674 324.223 Z" transform="matrix(0.999969, -0.00792, 0.00792, 0.999969, -3.037598, 2.704709)"/>
</svg>