<?xml version="1.0" encoding="utf-8"?>
<svg viewBox="0 0 500 500" xmlns="http://www.w3.org/2000/svg">
  <defs>
    <radialGradient gradientUnits="userSpaceOnUse" cx="250" cy="250" r="248.789" id="gradient-1">
      <stop offset="0" style="stop-color: #badaff"/>
      <stop offset="1" style="stop-color: #758dff"/>
    </radialGradient>
    <path id="path-0" d="M 137.161 82.935 C 181.374 192.107 170.508 168.323 205.742 233.652 C 212.151 245.536 212.868 249.053 224.083 252.791 L 229.665 253.589 C 239.249 255.985 248.538 256.778 258.373 256.778" style="fill: none;"/>
  </defs>
  <ellipse style="fill-rule: nonzero; stroke: url(#gradient-1); stroke-miterlimit: 0; stroke-width: 16px; paint-order: stroke; fill: rgb(85, 218, 189);" cx="250" cy="250" rx="242" ry="242"/>
  <path style="stroke: rgb(0, 0, 0); fill: rgb(218, 85, 85);" d="M 112.091 58.362 L 198.702 59.362 L 157.414 113.78 L 155.99 179.68 L 154.33 113.53 L 112.091 58.362 Z" transform="matrix(0.999969, -0.00792, 0.00792, 0.999969, -0.937772, 1.234473)"/>
  <path style="stroke: rgb(0, 0, 0); fill: rgb(218, 85, 85);" d="M 203.1 58.851 L 289.712 59.849 L 248.423 114.267 L 246.998 180.167 L 245.337 114.018 L 203.1 58.851 Z" transform="matrix(0.999969, -0.00792, 0.00792, 0.999969, -0.938783, 1.955283)"/>
  <path style="stroke: rgb(0, 0, 0); fill: rgb(218, 85, 85);" d="M 294.442 58.929 L 381.053 59.928 L 339.764 114.345 L 338.341 180.247 L 336.681 114.095 L 294.442 58.929 Z" transform="matrix(0.999969, -0.00792, 0.00792, 0.999969, -0.936544, 2.67871)"/>
  <path style="stroke: rgb(0, 0, 0); fill: rgb(218, 85, 85);" d="M 114.405 185.517 L 201.016 186.517 L 159.728 240.934 L 158.304 306.835 L 156.643 240.684 L 114.405 185.517 Z" transform="matrix(0.999969, -0.00792, 0.00792, 0.999969, -1.944767, 1.256788)"/>
  <path style="stroke: rgb(0, 0, 0); fill: rgb(218, 85, 85);" d="M 205.413 186.005 L 292.025 187.004 L 250.737 241.422 L 249.313 307.322 L 247.652 241.173 L 205.413 186.005 Z" transform="matrix(0.999969, -0.00792, 0.00792, 0.999969, -1.945774, 1.97759)"/>
  <path style="stroke: rgb(0, 0, 0); fill: rgb(218, 85, 85);" d="M 296.756 186.084 L 383.367 187.083 L 342.078 241.5 L 340.654 307.401 L 338.994 241.251 L 296.756 186.084 Z" transform="matrix(0.999969, -0.00792, 0.00792, 0.999969, -1.943535, 2.701025)"/>
  <path style="stroke: rgb(0, 0, 0); fill: rgb(218, 85, 85);" d="M 147.798 314.068 L 248.198 315.34 L 200.337 384.546 L 198.686 468.354 L 196.762 384.227 L 147.798 314.068 Z" transform="matrix(0.999969, -0.00792, 0.00792, 0.999969, -3.092181, 1.580414)"/>
  <path style="stroke: rgb(0, 0, 0); fill: rgb(218, 85, 85);" d="M 253.298 314.772 L 353.697 316.041 L 305.835 385.245 L 304.183 469.054 L 302.258 384.929 L 253.298 314.772 Z" transform="matrix(0.999969, -0.00792, 0.00792, 0.999969, -3.094432, 2.415992)"/>
</svg>