<?xml version="1.0" encoding="utf-8"?>
<svg viewBox="0 0 500 500" xmlns="http://www.w3.org/2000/svg">
  <defs>
    <radialGradient gradientUnits="userSpaceOnUse" cx="250" cy="250" r="248.789" id="gradient-1">
      <stop offset="0" style="stop-color: #badaff"/>
      <stop offset="1" style="stop-color: #758dff"/>
    </radialGradient>
    <path id="path-0" d="M 137.161 82.935 C 181.374 192.107 170.508 168.323 205.742 233.652 C 212.151 245.536 212.868 249.053 224.083 252.791 L 229.665 253.589 C 239.249 255.985 248.538 256.778 258.373 256.778" style="fill: none;"/>
  </defs>
  <ellipse style="fill-rule: nonzero; stroke: url(#gradient-1); stroke-miterlimit: 0; stroke-width: 16px; paint-order: stroke; fill: rgb(85, 218, 189);" cx="250" cy="250" rx="242" ry="242"/>
  <path style="stroke: rgb(0, 0, 0); fill: rgb(218, 85, 85);" d="M 59.903 120.839 L 249.606 122.811 L 159.172 230.253 L 156.053 360.367 L 152.416 229.76 L 59.903 120.839 Z" transform="matrix(0.999969, -0.00792, 0.00792, 0.999969, -1.900722, 1.233202)"/>
  <path style="stroke: rgb(0, 0, 0); fill: rgb(218, 85, 85);" d="M 256.026 121.66 L 445.729 123.632 L 355.295 231.074 L 352.176 361.188 L 348.539 230.581 L 256.026 121.66 Z" transform="matrix(0.999969, -0.00792, 0.00792, 0.999969, -1.901073, 2.786521)"/>
</svg>