<?xml version="1.0" encoding="utf-8"?>
<svg viewBox="0 0 500 500" xmlns="http://www.w3.org/2000/svg">
  <defs>
    <radialGradient gradientUnits="userSpaceOnUse" cx="250" cy="250" r="248.789" id="gradient-1">
      <stop offset="0" style="stop-color: #badaff"/>
      <stop offset="1" style="stop-color: #758dff"/>
    </radialGradient>
    <path id="path-0" d="M 137.161 82.935 C 181.374 192.107 170.508 168.323 205.742 233.652 C 212.151 245.536 212.868 249.053 224.083 252.791 L 229.665 253.589 C 239.249 255.985 248.538 256.778 258.373 256.778" style="fill: none;"/>
  </defs>
  <ellipse style="fill-rule: nonzero; stroke: url(#gradient-1); stroke-miterlimit: 0; stroke-width: 16px; paint-order: stroke; fill: rgb(85, 218, 189);" cx="250" cy="250" rx="242" ry="242"/>
  <path style="stroke: rgb(0, 0, 0); fill: rgb(218, 85, 85);" d="M 143.481 186.143 L 145.577 211.284 C 145.106 214.579 94.241 238.563 96.342 223.854 C 82.523 225.581 47.272 182.98 55.489 181.953 C 46.064 180.607 83.076 98.8 93.2 100.246 C 92.214 94.332 171.052 65.594 172.812 76.153 C 177.149 72.683 243.854 75.047 234.616 82.438 C 244.094 79.279 282.687 142.884 275.47 145.29 C 277.008 156.053 192.918 295.453 191.668 286.706 L 330.989 379.936 L 422.125 380.984 L 417.934 407.172 L 325.751 406.125 L 173.86 306.609 L 149.767 305.561 L 153.956 283.563 C 149.519 296.875 234.528 181.171 246.139 146.337 C 248.022 146.337 231.499 108.626 223.094 108.626 C 224.985 106.735 170.108 96.665 166.527 100.246 C 164.736 93.084 106.92 114.273 107.865 118.054 C 97.5 109.417 70.276 170.532 76.439 175.668 C 66.074 177.395 88.084 197.646 94.247 196.619 C 96.038 203.781 144.426 189.924 143.481 186.143 Z"/>
</svg>