<?xml version="1.0" encoding="utf-8"?>
<svg height="800px" width="800px" version="1.1" id="Capa_1" viewBox="0 0 32 32" xmlns="http://www.w3.org/2000/svg">
  <g>
    <g>
      <g>
        <polygon style="fill: rgba(0, 0, 0, 0.5);" points="24.586,27.414 29.172,32 32,29.172 27.414,24.586 32,20 20,20 20,32 &#9;&#9;&#9;"/>
        <polygon style="fill: rgba(0, 0, 0, 0.5);" points="0,12 12,12 12,0 7.414,4.586 2.875,0.043 0.047,2.871 4.586,7.414 &#9;&#9;&#9;"/>
        <polygon style="fill: rgba(0, 0, 0, 0.5);" points="0,29.172 2.828,32 7.414,27.414 12,32 12,20 0,20 4.586,24.586 &#9;&#9;&#9;"/>
        <polygon style="fill: rgba(0, 0, 0, 0.5);" points="20,12 32,12 27.414,7.414 31.961,2.871 29.133,0.043 24.586,4.586 20,0 &#9;&#9;&#9;"/>
      </g>
    </g>
  </g>
</svg>