<?xml version="1.0" encoding="utf-8"?>
<svg version="1.0" width="720pt" height="720.000000pt" viewBox="0 0 720 720" preserveAspectRatio="xMidYMid meet" xmlns="http://www.w3.org/2000/svg">
  <rect x="58.427" y="117.953" width="279.043" height="488.038" style="fill: rgb(216, 216, 216); stroke: rgb(229, 245, 245);"/>
  <rect x="102.063" y="371.733" width="494.928" height="276.746" style="fill: rgb(216, 216, 216); stroke: rgb(229, 245, 245);"/>
  <text style="fill: rgb(255, 0, 0); font-family: Arial, sans-serif; font-size: 41.2px; font-weight: 700; white-space: pre;" transform="matrix(8.538034, 0, 0, 7.642497, -1187.462891, -1456.576538)" x="147.563" y="249.924">X</text>
  <g transform="matrix(0.1, 0, 0, -0.1, -229.802948, 718.526917)" fill="#000000" stroke="none">
    <path d="M3112 6575 c-127 -28 -206 -94 -254 -212 l-23 -58 -3 -2665 c-2 -1895 0 -2684 8 -2730 21 -122 81 -215 168 -259 93 -47 78 -46 1282 -46 1069 0 1138 1 1195 18 144 44 222 138 245 295 6 40 10 525 10 1205 0 751 3 1137 10 1137 6 0 10 132 10 375 0 243 -4 375 -10 375 -14 0 -13 227 1 232 13 4 13 350 -1 358 -5 3 -10 355 -12 850 -3 761 -5 850 -20 895 -39 114 -108 183 -223 223 -46 15 -144 17 -1185 19 -937 1 -1146 -1 -1198 -12z m2526 -3022 l-3 -2398 -1352 -3 -1353 -2 0 2400 0 2400 1355 0 1355 0 -2 -2397z"/>
    <path d="M 4675.982 5038.953 C 4511.987 5017.954 4415.99 4934.955 4371.99 4777.958 C 4355.99 4718.959 4354.99 4555.962 4354.99 2064.995 C 4354.99 -780.979 4352.991 -656.98 4404.99 -759.979 C 4436.99 -821.979 4504.987 -881.978 4575.985 -910.978 L 4634.983 -934.977 L 5774.947 -937.977 C 6596.923 -939.977 6931.91 -937.977 6974.908 -929.977 C 7108.904 -903.978 7193.903 -830.979 7241.903 -699.979 L 7264.903 -634.98 L 7267.903 543.011 C 7269.903 1293.005 7273.903 1719.997 7279.903 1719.997 C 7285.903 1719.997 7289.903 1857.995 7289.903 2089.995 C 7289.903 2329.993 7285.903 2459.993 7279.903 2459.993 C 7273.903 2459.993 7269.903 2506.993 7269.903 2579.992 C 7269.903 2652.993 7273.903 2699.993 7279.903 2699.993 C 7285.903 2699.993 7289.903 2766.991 7289.903 2879.989 C 7289.903 2992.988 7285.903 3059.988 7279.903 3059.988 C 7272.903 3059.988 7269.903 3331.987 7269.903 3855.976 C 7269.903 4389.967 7265.903 4674.959 7258.903 4722.959 C 7227.903 4918.955 7125.904 5017.954 6927.91 5039.953 C 6822.914 5051.953 4770.979 5050.953 4675.982 5038.953 Z M 7159.905 2009.995 L 7159.905 -389.983 L 5809.944 -389.983 L 4459.988 -389.983 L 4459.988 2009.995 L 4459.988 4409.967 L 5809.944 4409.967 L 7159.905 4409.967 L 7159.905 2009.995 Z" transform="matrix(-0.001454, -0.999999, 0.999999, -0.001454, 3776.024278, 7880.308187)"/>
  </g>
  <path fill="rgb(0,0,0)" d="M 585.056 277.096 L 585.056 220.973 L 569.622 236.407 C 551.381 201.329 504.43 181.921 462.337 181.921 C 400.601 181.921 333.715 267.389 358.807 272.405 C 383.899 277.421 413.542 214.047 459.844 214.047 C 493.518 214.047 535.947 227.988 549.978 256.05 L 528.932 277.096 L 585.056 277.096 Z" style="" transform="matrix(0.679942, 0.733266, -0.733266, 0.679942, 318.470268, -270.611186)"/>
  <text style="fill: rgb(0, 150, 0); font-family: Arial, sans-serif; font-size: 41.2px; font-weight: 700; white-space: pre;" transform="matrix(6.901262, 0, 0, 6.092288, -1119.506714, -2090.80542)" x="179.971" y="439.954">OK</text>
</svg>