<?xml version="1.0" encoding="utf-8"?>
<svg version="1.1" id="圖層_1" x="0px" y="0px" width="564px" height="455px" viewBox="0 0 564 455" enable-background="new 0 0 564 455" xmlns="http://www.w3.org/2000/svg">
  <g>
    <path fill="none" stroke="#808080" d="M20.5,213.5h534"/>
  </g>
  <g transform="matrix(1, 0, 0, 1, 0, 7)">
    <path fill="none" d="M 20.5 213.5 L 25.5 197.5 L 31.5 182.5 L 36.5 167.5 L 42.5 152.5 L 47.5 138.5 L 52.5 124.5 L 58.5 111.5 L 63.5 99.5 L 69.5 89.5 L 74.5 79.5 L 79.5 70.5 L 85.5 63.5 L 90.5 57.5 L 96.5 53.5 L 101.5 50.5 L 106.5 49.5 L 112.5 49.5 L 117.5 50.5 L 122.5 53.5 L 128.5 57.5 L 133.5 63.5 L 139.5 70.5 L 144.5 79.5 L 149.5 89.5 L 155.5 99.5 L 160.5 111.5 L 166.5 124.5 L 171.5 138.5 L 176.5 152.5 L 182.5 167.5 L 187.5 182.5 L 193.5 197.5 L 198.5 213.5 L 203.5 229.5 L 209.5 244.5 L 214.5 259.5 L 220.5 274.5 L 225.5 288.5 L 230.5 302.5 L 236.5 315.5 L 241.5 327.5 L 247.5 337.5 L 252.5 347.5 L 257.5 356.5 L 263.5 363.5 L 268.5 369.5 L 274.5 373.5 L 279.5 376.5 L 284.5 377.5 L 290.5 377.5 L 295.5 376.5 L 300.5 373.5 L 306.5 369.5 L 311.5 363.5 L 317.5 356.5 L 322.5 347.5 L 327.5 337.5 L 333.5 327.5 L 338.5 315.5 L 344.5 302.5 L 349.5 288.5 L 354.5 274.5 L 360.5 259.5 L 365.5 244.5 L 371.5 229.5 L 376.5 213.5 L 381.5 197.5 L 387.5 182.5 L 392.5 167.5 L 398.5 152.5 L 403.5 138.5 L 408.5 124.5 L 414.5 111.5 L 419.5 99.5 L 425.5 89.5 L 430.5 79.5 L 435.5 70.5 L 441.5 63.5 L 446.5 57.5 L 452.5 53.5 L 457.5 50.5 L 462.5 49.5 L 468.5 49.5 L 473.5 50.5 L 478.5 53.5 L 484.5 57.5 L 489.5 63.5 L 495.5 70.5 L 500.5 79.5 L 505.5 89.5 L 511.5 99.5 L 516.5 111.5 L 522.5 124.5 L 527.5 138.5 L 532.5 152.5 L 538.5 167.5 L 543.5 182.5 L 549.5 197.5 L 554.5 213.5" style="stroke: rgb(0, 0, 0); stroke-width: 20px;"/>
  </g>
</svg>